<svg width="54" height="14" viewBox="0 0 54 14" fill="none" xmlns="http://www.w3.org/2000/svg">
<path d="M0.820312 0.000681324C1.39284 -0.000344697 1.96537 -8.81916e-05 2.5384 0.000681324C2.53691 2.75401 2.53666 5.50721 2.5384 8.26054C2.51373 9.75417 3.52691 11.1644 4.8978 11.6113C7.22845 12.4302 9.75742 10.2672 9.34033 7.73791C9.91534 7.73791 10.4903 7.73713 11.0654 7.73816C11.3751 10.5738 9.18613 13.3502 6.4219 13.5371C4.62251 13.7223 2.82249 12.8676 1.77424 11.3451C1.1442 10.4715 0.8099 9.38069 0.820932 8.29234C0.820312 5.52836 0.822048 2.76465 0.820312 0.000681324ZM24.6822 8.2949C24.6698 9.59782 25.1597 10.8875 26.028 11.8316C28.3206 14.5803 32.8608 13.903 34.3963 10.6654C36.6907 5.93044 31.6077 0.987705 27.1873 3.67344C27.1893 4.43757 27.1873 5.20171 27.1883 5.96584C29.9294 2.69745 34.8219 6.2825 32.7628 10.0479C31.6367 12.1081 28.5899 12.3758 27.1817 10.4929C26.8325 10.0693 26.5866 9.55524 26.477 9.01004C26.2886 6.0206 26.466 3.00076 26.4044 0.00144455C25.8298 -0.000735748 25.2555 -9.13384e-05 24.6812 0.00106294C24.6836 2.76581 24.6812 5.53016 24.6822 8.2949ZM36.6187 8.04622C36.5901 8.77957 36.6952 9.52126 36.9572 10.2052C38.0802 13.3288 42.1405 14.6025 44.7191 12.5805C49.9556 8.55859 44.7924 0.360559 39.1182 3.6723C39.1199 4.43681 39.1185 5.20132 39.1189 5.96622C42.2636 2.35001 47.3693 7.1196 44.1922 10.7108C42.8084 12.2612 40.1755 12.0731 39.003 10.3491C38.6117 9.82277 38.3818 9.1728 38.3451 8.51063C38.3437 5.67394 38.3447 2.83698 38.3447 0.000289928C37.7691 0.000289928 37.1937 -0.000732602 36.6185 0.00106294C36.6194 2.68283 36.6187 5.36445 36.6187 8.04622ZM48.5366 8.29273C48.5238 9.06006 48.6894 9.82932 49.0055 10.5233C49.8397 12.3188 51.6905 13.6323 53.6451 13.5406C53.6341 12.9586 53.6644 12.3732 53.6393 11.7902C51.9942 11.8288 50.4697 10.4467 50.2699 8.76098C50.1841 5.84566 50.2653 2.91958 50.239 0.000681324C49.671 0.000681324 49.1029 -0.000732602 48.5352 0.00106294C48.5349 2.76465 48.5352 5.52876 48.5366 8.29273ZM14.9468 9.36851C14.9399 10.1119 15.1152 10.8621 15.491 11.4993C16.2523 12.8286 17.709 13.6773 19.211 13.5459C20.9622 13.468 22.5437 12.0051 22.8601 10.2286C23.0433 7.8105 22.8787 5.36587 22.9334 2.93933C22.3595 2.93856 21.7855 2.93753 21.2116 2.93997C21.2143 5.16669 21.2167 7.39329 21.2116 9.62039C21.1386 11.3229 19.0741 12.3736 17.7208 11.4059C17.2447 11.08 16.8619 10.5845 16.7243 10.0045C16.5512 7.66518 16.7105 5.29148 16.6594 2.94112C16.0881 2.93599 15.5173 2.93894 14.9465 2.93959C14.9479 5.08256 14.9468 7.22554 14.9468 9.36851ZM4.73939 0.153424C4.89917 0.786607 5.04332 1.42416 5.19888 2.05849C8.70595 1.55549 12.0774 4.52377 11.8585 8.24374C12.5048 8.26797 13.15 8.30991 13.7965 8.32671C14.0703 3.63651 9.81989 -0.503743 5.31168 0.0708293C5.12079 0.095069 4.92544 0.0972489 4.73939 0.153424ZM5.79954 4.70331C7.50164 4.5925 9.14263 5.97738 9.34033 7.73791C9.91534 7.73791 10.4903 7.73713 11.0654 7.73816C10.8756 4.94123 8.27782 2.68423 5.58449 2.94215C5.65254 3.52955 5.71997 4.11733 5.79954 4.70331ZM6.05947 6.56901C6.61899 6.55401 7.17007 6.89426 7.42454 7.40984C7.81176 7.38444 8.19762 7.33686 8.58497 7.31108C8.27063 6.19515 7.17738 5.40345 6.06257 5.41679C6.06257 5.80065 6.06083 6.18489 6.05947 6.56901Z" fill="white"/>
</svg>
