<svg width="20" height="20" viewBox="0 0 20 20" fill="none" xmlns="http://www.w3.org/2000/svg">
<path d="M12.2231 1.24632C12.2663 1.08847 12.3697 0.95392 12.5112 0.871702C12.6527 0.789485 12.8209 0.766197 12.9794 0.806865C14.4688 1.2072 15.8269 1.99198 16.9175 3.08255C18.008 4.17312 18.7928 5.53118 19.1931 7.02062C19.2147 7.09914 19.2204 7.18117 19.2099 7.26191C19.1993 7.34265 19.1729 7.42049 19.132 7.49089C19.0911 7.56129 19.0365 7.62284 18.9716 7.67194C18.9066 7.72105 18.8326 7.75673 18.7537 7.7769L18.6004 7.79734C18.4646 7.79712 18.3327 7.75185 18.2255 7.66862C18.1182 7.58539 18.0416 7.4689 18.0076 7.33744C17.661 6.05733 16.9852 4.89032 16.0474 3.95255C15.1097 3.01479 13.9427 2.33898 12.6626 1.99238C12.5069 1.94918 12.3742 1.84726 12.2922 1.70809C12.2102 1.56893 12.1854 1.40338 12.2231 1.24632ZM11.8143 5.15036C12.5403 5.3491 13.202 5.73353 13.7342 6.26577C14.2665 6.79801 14.6509 7.45971 14.8496 8.1857C14.8836 8.31716 14.9602 8.43364 15.0675 8.51688C15.1748 8.60011 15.3066 8.64538 15.4424 8.6456L15.5957 8.62515C15.7521 8.57973 15.885 8.47583 15.9669 8.33501C16.0487 8.19418 16.0731 8.02726 16.0352 7.86888C15.7827 6.93356 15.2893 6.08083 14.6042 5.39579C13.9192 4.71074 13.0664 4.21735 12.1311 3.96484C11.9727 3.92686 11.8058 3.95132 11.665 4.03315C11.5242 4.11498 11.4203 4.24789 11.3748 4.4043C11.3344 4.5615 11.358 4.7283 11.4404 4.86815C11.5228 5.008 11.6572 5.10948 11.8143 5.15036ZM19.9903 15.1762C19.819 16.5084 19.1685 17.7328 18.1605 18.6205C17.1524 19.5082 15.8556 19.9986 14.5124 20C6.51013 20 0 13.4899 0 5.48762C0.00144456 4.14439 0.491822 2.84763 1.37953 1.83955C2.26725 0.831469 3.49158 0.181022 4.82383 0.00970574C5.13039 -0.0261809 5.44034 0.0380263 5.70741 0.192745C5.97448 0.347463 6.18436 0.584396 6.30573 0.868185L8.35995 5.66136C8.45313 5.87823 8.49161 6.11467 8.47201 6.3499C8.45241 6.58513 8.37532 6.81194 8.24753 7.0104L6.54079 9.60627C6.52392 9.63555 6.5142 9.6684 6.51243 9.70214C6.51065 9.73588 6.51687 9.76957 6.53057 9.80045C7.3156 11.41 8.61847 12.7093 10.2302 13.4899C10.2615 13.5039 10.2959 13.5094 10.3301 13.5058C10.3642 13.5022 10.3967 13.4897 10.4244 13.4694L12.9896 11.7627C13.1861 11.6307 13.4127 11.5502 13.6484 11.5288C13.8842 11.5074 14.1216 11.5456 14.3386 11.6401L19.1318 13.6943C19.4156 13.8156 19.6525 14.0255 19.8073 14.2926C19.962 14.5597 20.0262 14.8696 19.9903 15.1762ZM18.7741 15.0229C18.7776 14.9802 18.7677 14.9376 18.7457 14.9009C18.7237 14.8643 18.6907 14.8354 18.6515 14.8185L13.8583 12.7643C13.8266 12.7521 13.7925 12.7476 13.7588 12.7511C13.725 12.7547 13.6926 12.7662 13.6641 12.7847L11.1091 14.4914C10.9023 14.6273 10.6641 14.708 10.4172 14.7259C10.1704 14.7438 9.92306 14.6983 9.69877 14.5936C7.83978 13.6886 6.33627 12.1887 5.42681 10.3319C5.3206 10.1103 5.27327 9.86501 5.28939 9.61977C5.3055 9.37454 5.3845 9.13759 5.51879 8.93175L7.21531 6.33588C7.23556 6.3082 7.24812 6.27565 7.25171 6.24154C7.2553 6.20744 7.24979 6.17299 7.23575 6.1417L5.18153 1.34852C5.16586 1.31259 5.14018 1.28193 5.10757 1.26018C5.07495 1.23844 5.03677 1.22653 4.99757 1.22588H4.97713C3.94202 1.36195 2.99141 1.86886 2.30166 2.65258C1.61191 3.4363 1.22986 4.44361 1.2264 5.48762C1.22911 9.01045 2.62974 12.3882 5.12076 14.8792C7.61178 17.3703 10.9895 18.7709 14.5124 18.7736C15.5564 18.7701 16.5637 18.3881 17.3474 17.6983C18.1311 17.0086 18.6381 16.058 18.7741 15.0229Z" fill="url(#paint0_linear_677_4953)"/>
<defs>
<linearGradient id="paint0_linear_677_4953" x1="10" y1="0" x2="10" y2="20" gradientUnits="userSpaceOnUse">
<stop stop-color="#DB7A1A"/>
<stop offset="1" stop-color="#E27000"/>
</linearGradient>
</defs>
</svg>
