<svg width="40" height="40" viewBox="0 0 40 40" fill="none" xmlns="http://www.w3.org/2000/svg">
<path d="M20.0006 20C21.2629 20 22.2863 18.9767 22.2863 17.7143C22.2863 16.4519 21.2629 15.4286 20.0006 15.4286C18.7382 15.4286 17.7148 16.4519 17.7148 17.7143C17.7148 18.9767 18.7382 20 20.0006 20Z" stroke="black" stroke-linecap="round" stroke-linejoin="round"/>
<path d="M12 15.4286H13.1429V14.2857C13.1429 13.6795 13.3837 13.0981 13.8123 12.6695C14.241 12.2408 14.8224 12 15.4286 12H24.5714C25.1776 12 25.759 12.2408 26.1877 12.6695C26.6163 13.0981 26.8571 13.6795 26.8571 14.2857V25.7143C26.8571 26.3205 26.6163 26.9019 26.1877 27.3305C25.759 27.7592 25.1776 28 24.5714 28H15.4286C14.8224 28 14.241 27.7592 13.8123 27.3305C13.3837 26.9019 13.1429 26.3205 13.1429 25.7143V24.5714H12M12 20H13.1429M12 17.7143H13.1429M12 22.2857H13.1429" stroke="black" stroke-linecap="round" stroke-linejoin="round"/>
<path fill-rule="evenodd" clip-rule="evenodd" d="M23.4275 23.4286V22.2857C23.4275 21.6795 23.1866 21.0981 22.758 20.6695C22.3293 20.2408 21.7479 20 21.1417 20H18.856C18.2498 20 17.6684 20.2408 17.2398 20.6695C16.8111 21.0981 16.5703 21.6795 16.5703 22.2857V23.4286C16.5703 23.7317 16.6907 24.0224 16.905 24.2367C17.1194 24.451 17.4101 24.5714 17.7132 24.5714H22.2846C22.5877 24.5714 22.8784 24.451 23.0927 24.2367C23.307 24.0224 23.4275 23.7317 23.4275 23.4286Z" stroke="black" stroke-linecap="round" stroke-linejoin="round"/>
<rect x="0.5" y="0.5" width="39" height="39" rx="19.5" stroke="black"/>
</svg>
