<svg width="43" height="43" viewBox="0 0 43 43" fill="none" xmlns="http://www.w3.org/2000/svg">
<path d="M21.8079 42.0749C33.3738 42.0749 42.7497 32.699 42.7497 21.1332C42.7497 9.56735 33.3738 0.191406 21.8079 0.191406C10.2421 0.191406 0.86618 9.56735 0.86618 21.1332C0.86618 32.699 10.2421 42.0749 21.8079 42.0749Z" fill="black"/>
<path d="M16.1244 12.1886C16.8934 12.1805 17.6611 12.2554 18.414 12.412C19.0458 12.5358 19.6475 12.7813 20.1855 13.1349C20.6791 13.4732 21.0749 13.9354 21.3335 14.4751C21.6196 15.1231 21.7564 15.8272 21.7337 16.5352C21.7663 17.3195 21.5573 18.0949 21.1349 18.7565C20.6782 19.3906 20.0601 19.8909 19.3448 20.2054C20.3173 20.4442 21.1724 21.023 21.7554 21.8373C22.222 22.6013 22.4921 23.469 22.5414 24.3629C22.5906 25.2567 22.4176 26.1489 22.0377 26.9595C21.7098 27.5927 21.2341 28.1377 20.6509 28.548C20.0449 28.9693 19.3682 29.2782 18.6529 29.4601C17.9043 29.6625 17.1325 29.7668 16.3571 29.7704H7.84695V12.2134L16.1244 12.1886ZM15.6218 19.2809C16.228 19.3059 16.826 19.1327 17.325 18.7876C17.7687 18.4773 17.9828 17.9282 17.9828 17.1929C17.9965 16.8442 17.923 16.4976 17.7687 16.1846C17.631 15.9269 17.4249 15.7122 17.173 15.5641C16.9116 15.4084 16.6232 15.3032 16.3229 15.2538C15.9945 15.1932 15.661 15.1641 15.3271 15.167H11.7127V19.2685L15.6218 19.2809ZM15.8358 26.7548C16.2008 26.7581 16.5651 26.7206 16.9217 26.6431C17.2465 26.5808 17.5556 26.4542 17.8307 26.2708C18.0935 26.0946 18.3071 25.8543 18.4512 25.5727C18.6181 25.2171 18.6969 24.8266 18.6808 24.4341C18.6808 23.5282 18.4264 22.8829 17.9207 22.4951C17.3292 22.0886 16.621 21.887 15.9041 21.9211H11.7127V26.7548H15.8358Z" fill="white"/>
<path d="M28.0561 26.6962C28.5814 27.2091 29.3343 27.4656 30.3147 27.4656C30.9634 27.4811 31.6009 27.2946 32.139 26.932C32.5657 26.6704 32.8932 26.2742 33.0697 25.8058H36.1443C35.6479 27.3353 34.9033 28.4274 33.8764 29.0851C32.773 29.7704 31.4919 30.1147 30.1937 30.0748C29.2676 30.0873 28.3475 29.9241 27.4821 29.5939C26.7075 29.2918 26.0078 28.8249 25.4314 28.2257C24.8622 27.614 24.4232 26.8931 24.1408 26.1067C23.8288 25.2382 23.6744 24.321 23.6847 23.3982C23.6779 22.4909 23.8366 21.5898 24.1532 20.7394C24.4476 19.946 24.9005 19.2208 25.4841 18.608C26.0699 18.0034 26.7702 17.5214 27.5442 17.1902C28.3823 16.837 29.2843 16.6606 30.1937 16.6721C31.1723 16.6459 32.1425 16.8589 33.0201 17.2926C33.803 17.6923 34.4818 18.2691 35.0026 18.9772C35.528 19.7017 35.9074 20.5215 36.1194 21.3909C36.3512 22.315 36.4329 23.2704 36.3614 24.2204H27.1936C27.1936 25.2349 27.5318 26.2029 28.0561 26.6962ZM32.0676 20.0166C31.655 19.5605 30.9507 19.3092 30.0944 19.3092C29.6151 19.2929 29.1387 19.3907 28.7045 19.5946C28.3651 19.7657 28.0642 20.0043 27.8203 20.2958C27.6042 20.5593 27.4448 20.8645 27.3518 21.1924C27.2686 21.465 27.2155 21.7459 27.1936 22.0301H32.8743C32.8315 21.289 32.5483 20.5822 32.0676 20.0166Z" fill="white"/>
<path d="M33.5946 13.3682H26.4775V15.1025H33.5946V13.3682Z" fill="white"/>
</svg>
