<svg width="43" height="43" viewBox="0 0 43 43" fill="none" xmlns="http://www.w3.org/2000/svg">
<path d="M21.368 42.655C32.9338 42.655 42.3098 33.2791 42.3098 21.7132C42.3098 10.1474 32.9338 0.771484 21.368 0.771484C9.80221 0.771484 0.42627 10.1474 0.42627 21.7132C0.42627 33.2791 9.80221 42.655 21.368 42.655Z" fill="white"/>
<path d="M21.3684 36.6056C29.593 36.6056 36.2603 29.9383 36.2603 21.7137C36.2603 13.4891 29.593 6.82178 21.3684 6.82178C13.1438 6.82178 6.4765 13.4891 6.4765 21.7137C6.4765 29.9383 13.1438 36.6056 21.3684 36.6056Z" fill="#EA4C89"/>
<path fill-rule="evenodd" clip-rule="evenodd" d="M21.368 6.20117C18.2999 6.20117 15.3008 7.11096 12.7498 8.81548C10.1988 10.52 8.21052 12.9427 7.03642 15.7772C5.86232 18.6118 5.55511 21.7308 6.15366 24.7399C6.75221 27.749 8.22964 30.5131 10.3991 32.6825C12.5685 34.852 15.3326 36.3294 18.3417 36.9279C21.3508 37.5265 24.4698 37.2193 27.3043 36.0452C30.1389 34.8711 32.5616 32.8828 34.2661 30.3318C35.9706 27.7808 36.8804 24.7817 36.8804 21.7136C36.8804 17.5994 35.2461 13.6538 32.3369 10.7447C29.4278 7.83551 25.4822 6.20117 21.368 6.20117ZM31.6062 13.3369C33.5149 15.6641 34.5712 18.5736 34.6001 21.5833C34.1627 21.4995 29.7882 20.606 25.3795 21.1613C25.2803 20.9442 25.1934 20.7084 25.0941 20.4726C24.8242 19.8335 24.5232 19.1758 24.2192 18.5553C29.1087 16.5821 31.327 13.7216 31.6155 13.3493L31.6062 13.3369ZM21.368 8.47528C24.6049 8.4735 27.73 9.65908 30.1512 11.8074C29.9154 12.1424 27.9143 14.8199 23.2016 16.5852C21.7209 13.8965 20.0691 11.3058 18.2562 8.82897C19.2766 8.59348 20.3209 8.47791 21.368 8.48459V8.47528ZM15.7308 9.71627C17.5076 12.1822 19.1481 14.7436 20.6451 17.3887C16.6452 18.4338 12.5307 18.9768 8.39654 19.0051C8.82039 16.9974 9.70302 15.115 10.9754 13.5052C12.2477 11.8954 13.8753 10.6018 15.7308 9.72559V9.71627ZM8.1111 21.7105V21.3072C12.7144 21.3295 17.2974 20.6954 21.7217 19.424C22.1095 20.1623 22.4601 20.9194 22.7982 21.6764C22.6307 21.7291 22.4446 21.7787 22.277 21.8284C15.4516 24.0311 11.8124 30.0561 11.5083 30.5619C9.3245 28.1378 8.11446 24.9917 8.1111 21.7291V21.7105ZM21.368 34.9519C18.4233 34.957 15.5621 33.9738 13.2426 32.1596C13.4784 31.6726 16.1683 26.4883 23.639 23.8822C23.6732 23.8636 23.6887 23.8636 23.7228 23.8481C24.9816 27.1093 25.9249 30.4837 26.5399 33.925C24.9056 34.6235 23.1453 34.9794 21.368 34.9705V34.9519ZM28.755 32.6809C28.1683 29.467 27.3068 26.3095 26.18 23.2431C28.9367 22.8366 31.7489 23.0313 34.4233 23.814C34.1439 25.6064 33.4959 27.3214 32.5203 28.8507C31.5447 30.3801 30.2626 31.6906 28.755 32.6995V32.6809Z" fill="#C32361"/>
</svg>
