<svg width="43" height="43" viewBox="0 0 43 43" fill="none" xmlns="http://www.w3.org/2000/svg">
<circle cx="21.2683" cy="21.2093" r="20.7142" fill="white"/>
<path d="M21.3494 0.194018C16.4734 0.195482 11.7509 1.89939 7.99723 5.01159C4.24357 8.12378 1.69436 12.4489 0.789686 17.2403C-0.114984 22.0317 0.681674 26.9886 3.04212 31.2552C5.40257 35.5218 9.17865 38.8303 13.7185 40.6096C13.5295 38.9558 13.3747 36.407 13.7897 34.5984C14.1675 32.9632 16.2332 24.1987 16.2332 24.1987C15.8129 23.2209 15.602 22.166 15.6138 21.1017C15.6138 18.1937 17.3017 16.0227 19.4014 16.0227C21.1946 16.0227 22.0555 17.3668 22.0555 18.9679C22.0555 20.758 20.9189 23.443 20.315 25.9423C19.8164 28.0235 21.3649 29.7299 23.412 29.7299C27.1284 29.7299 29.99 25.8029 29.99 20.1541C29.99 15.1431 26.3913 11.6497 21.241 11.6497C15.2824 11.6497 11.789 16.1094 11.789 20.7239C11.789 22.514 12.4766 24.4403 13.3375 25.4933C13.4145 25.5743 13.4681 25.6747 13.4926 25.7837C13.5171 25.8928 13.5117 26.0064 13.4769 26.1127C13.322 26.7661 12.9597 28.1938 12.8916 28.488C12.8048 28.8659 12.5819 28.9526 12.1855 28.7637C9.56541 27.5249 7.9302 23.7342 7.9302 20.6527C7.9302 14.0592 12.7181 7.99531 21.7582 7.99531C29.0083 7.99531 34.6571 13.1642 34.6571 20.0735C34.6571 27.2864 30.1108 33.0809 23.8177 33.0809C21.6994 33.0809 19.7018 31.9783 19.0298 30.6714C19.0298 30.6714 17.9799 34.6665 17.7198 35.6483C17.2552 37.4724 15.9824 39.7456 15.1214 41.1392C17.9996 42.0295 21.036 42.2883 24.0233 41.8979C27.0106 41.5075 29.8786 40.4772 32.4314 38.8772C34.9841 37.2772 37.1616 35.1453 38.8152 32.6269C40.4688 30.1086 41.5596 27.2631 42.013 24.2846C42.4665 21.3062 42.272 18.265 41.4427 15.3687C40.6135 12.4723 39.1691 9.78894 37.2081 7.50177C35.2472 5.2146 32.8158 3.37747 30.08 2.11577C27.3442 0.854067 24.3683 0.197508 21.3556 0.190918L21.3494 0.194018Z" fill="#C40027"/>
</svg>
