<svg width="43" height="43" viewBox="0 0 43 43" fill="none" xmlns="http://www.w3.org/2000/svg">
<path d="M21.6481 42.5603C33.2139 42.5603 42.5899 33.1843 42.5899 21.6185C42.5899 10.0527 33.2139 0.676758 21.6481 0.676758C10.0823 0.676758 0.70636 10.0527 0.70636 21.6185C0.70636 33.1843 10.0823 42.5603 21.6481 42.5603Z" fill="white"/>
<path d="M24.1701 15.661C24.166 17.864 23.2871 19.9751 21.7268 21.5303C20.1664 23.0854 18.0523 23.9572 15.8493 23.9539C13.6468 23.9564 11.5335 23.0842 9.97375 21.5292C8.41405 19.9741 7.5356 17.8634 7.53149 15.661C7.5356 13.4588 8.41415 11.3484 9.97394 9.79382C11.5337 8.23927 13.6471 7.36781 15.8493 7.37111C16.9399 7.36907 18.0203 7.58188 19.0287 7.99738C20.0372 8.41288 20.9539 9.02294 21.7266 9.79273C22.4992 10.5625 23.1127 11.4769 23.532 12.4838C23.9512 13.4907 24.1681 14.5703 24.1701 15.661Z" fill="url(#paint0_linear_2526_2709)"/>
<path d="M35.7643 27.5698C35.7704 29.2176 35.2873 30.8301 34.3763 32.2031C33.4653 33.5761 32.1672 34.6478 30.6466 35.2825C29.1259 35.9172 27.4511 36.0863 25.8343 35.7684C24.2175 35.4504 22.7314 34.6598 21.5643 33.4966C20.3972 32.3334 19.6016 30.85 19.2782 29.2343C18.9549 27.6186 19.1183 25.9432 19.7479 24.4204C20.3775 22.8977 21.4449 21.596 22.8148 20.6804C24.1847 19.7647 25.7956 19.2763 27.4434 19.2769C29.6464 19.2736 31.7605 20.1453 33.3209 21.7005C34.8813 23.2556 35.7601 25.3668 35.7643 27.5698Z" fill="url(#paint1_linear_2526_2709)"/>
<path opacity="0.05" fill-rule="evenodd" clip-rule="evenodd" d="M7.56232 16.3718C7.69145 17.9391 8.26225 19.4377 9.2085 20.6938C10.1548 21.9498 11.4377 22.9119 12.9085 23.4684C14.3794 24.0249 15.9778 24.153 17.5186 23.8379C19.0593 23.5228 20.4791 22.7775 21.6133 21.6882C22.7476 20.5989 23.5498 19.2104 23.927 17.6837C24.3041 16.157 24.2408 14.5547 23.7442 13.0625C23.2477 11.5704 22.3383 10.2495 21.1216 9.25325C19.9048 8.25696 18.4305 7.62602 16.8698 7.43359C14.7545 8.14362 12.8229 9.3134 11.2136 10.8589C9.60429 12.4043 8.35733 14.2871 7.56232 16.3718Z" fill="black"/>
<path opacity="0.05" fill-rule="evenodd" clip-rule="evenodd" d="M35.7418 26.9738C35.6327 25.3881 35.0719 23.8669 34.1255 22.59C33.1791 21.3131 31.8869 20.3339 30.4015 19.7683C28.9162 19.2027 27.3 19.0744 25.744 19.3984C24.188 19.7225 22.7574 20.4854 21.6213 21.5969C20.4853 22.7084 19.6913 24.1221 19.3334 25.6706C18.9754 27.2192 19.0685 28.8378 19.6015 30.3351C20.1346 31.8325 21.0853 33.1458 22.3413 34.1198C23.5972 35.0938 25.1058 35.6877 26.6887 35.8313C28.7483 35.0971 30.6242 33.925 32.1871 32.3958C33.75 30.8666 34.9627 29.0168 35.7418 26.9738Z" fill="black"/>
<path opacity="0.1" fill-rule="evenodd" clip-rule="evenodd" d="M7.94977 18.2674C8.38624 19.6051 9.1549 20.8101 10.1838 21.7698C11.2127 22.7295 12.4683 23.4125 13.833 23.7549C15.1978 24.0973 16.6271 24.0879 17.9872 23.7276C19.3473 23.3673 20.5938 22.6679 21.61 21.6947C22.6262 20.7216 23.379 19.5066 23.7979 18.1634C24.2167 16.8201 24.288 15.3926 24.005 14.0143C23.722 12.636 23.094 11.3521 22.1798 10.2826C21.2655 9.21304 20.0949 8.39291 18.7774 7.89893C16.1823 8.43868 13.791 9.69697 11.8766 11.5303C9.96207 13.3636 8.6014 15.6981 7.94977 18.2674Z" fill="black"/>
<path opacity="0.1" fill-rule="evenodd" clip-rule="evenodd" d="M35.3632 25.0252C34.9332 23.6715 34.1638 22.4505 33.1282 21.4785C32.0926 20.5065 30.8253 19.8159 29.4471 19.4724C28.069 19.129 26.6258 19.1442 25.2552 19.5165C23.8845 19.8889 22.6321 20.606 21.6171 21.5996C20.6022 22.5932 19.8586 23.8301 19.4572 25.1925C19.0557 26.5549 19.0099 27.9974 19.3239 29.3826C19.638 30.7677 20.3015 32.0494 21.2513 33.1054C22.201 34.1615 23.4054 34.9567 24.7496 35.4154C27.3111 34.8408 29.6622 33.5645 31.5394 31.7295C33.4167 29.8944 34.7461 27.573 35.3787 25.0252H35.3632Z" fill="black"/>
<path opacity="0.1" fill-rule="evenodd" clip-rule="evenodd" d="M8.25781 19.0527C8.79958 20.2714 9.62663 21.3418 10.6691 22.1735C11.7117 23.0052 12.939 23.5739 14.2476 23.8314C15.5561 24.0889 16.9074 24.0278 18.1873 23.6532C19.4673 23.2786 20.6383 22.6015 21.6015 21.679C22.5647 20.7566 23.2917 19.6159 23.7213 18.3533C24.1508 17.0908 24.2702 15.7434 24.0695 14.4249C23.8687 13.1065 23.3536 11.8557 22.5676 10.7783C21.7817 9.7008 20.7481 8.82827 19.5539 8.23438C16.7904 8.66539 14.2257 9.93374 12.2057 11.8683C10.1857 13.8028 8.80778 16.3104 8.25781 19.0527Z" fill="black"/>
<path opacity="0.1" fill-rule="evenodd" clip-rule="evenodd" d="M35.0554 24.2119C34.5182 22.9773 33.6893 21.8916 32.6399 21.0481C31.5904 20.2047 30.3518 19.6287 29.0306 19.3697C27.7093 19.1107 26.345 19.1764 25.0547 19.5612C23.7645 19.946 22.587 20.6383 21.6235 21.5787C20.66 22.5192 19.9392 23.6795 19.5232 24.96C19.1072 26.2405 19.0084 27.6029 19.2353 28.93C19.4622 30.2572 20.0079 31.5094 20.8256 32.579C21.6434 33.6486 22.7086 34.5036 23.9299 35.0706C26.6689 34.6076 29.2014 33.32 31.1894 31.3797C33.1773 29.4394 34.526 26.9388 35.0554 24.2119Z" fill="black"/>
<path d="M34.8274 21.6812C34.8208 25.1703 33.4287 28.5139 30.9572 30.9767C28.4856 33.4395 25.1371 34.8197 21.648 34.814C18.1595 34.8189 14.8118 33.4383 12.3409 30.9756C9.87008 28.5129 8.47838 25.1697 8.4718 21.6812C8.47465 19.9537 8.81772 18.2437 9.48143 16.6488C10.1451 15.0539 11.1165 13.6054 12.34 12.3859C13.5635 11.1664 15.0153 10.1998 16.6124 9.54137C18.2094 8.88293 19.9206 8.54551 21.648 8.54836C23.3758 8.5451 25.0872 8.88222 26.6847 9.54048C28.2821 10.1987 29.7342 11.1652 30.9581 12.3848C32.1819 13.6043 33.1536 15.053 33.8175 16.6481C34.4814 18.2432 34.8245 19.9534 34.8274 21.6812Z" fill="url(#paint2_linear_2526_2709)"/>
<path fill-rule="evenodd" clip-rule="evenodd" d="M17.9433 21.2244C17.4108 20.8737 16.9669 20.4043 16.6465 19.8531C16.3357 19.2718 16.1817 18.6195 16.1997 17.9606C16.178 17.1247 16.464 16.3099 17.0033 15.6709C17.5631 15.0286 18.2837 14.5467 19.0912 14.2748C19.9698 13.9638 20.8956 13.8074 21.8276 13.8126C22.4376 13.8064 23.0469 13.8531 23.6488 13.9522C24.0781 14.0201 24.5 14.1292 24.9084 14.2779C25.283 14.4031 25.6222 14.6158 25.8981 14.8984C26.1017 15.1345 26.212 15.4368 26.2083 15.7485C26.2244 16.0725 26.1131 16.3899 25.8981 16.6327C25.7946 16.742 25.6693 16.8283 25.5304 16.886C25.3914 16.9437 25.2419 16.9716 25.0914 16.9678C24.8845 16.9676 24.6801 16.922 24.4926 16.8344C24.0285 16.6271 23.5506 16.4519 23.0624 16.3101C22.6138 16.1927 22.1517 16.1353 21.688 16.1394C21.0836 16.117 20.4855 16.27 19.9661 16.58C19.7469 16.7137 19.5675 16.9036 19.4464 17.1299C19.3253 17.3563 19.2669 17.611 19.2774 17.8675C19.2738 18.2044 19.4018 18.5294 19.6342 18.7734C19.9108 19.0589 20.2366 19.2922 20.5959 19.4622C20.9993 19.6607 21.6011 19.9276 22.4016 20.2564C22.4899 20.2851 22.576 20.3204 22.6591 20.3619C23.4402 20.6689 24.1885 21.0535 24.8929 21.5098C25.4508 21.8727 25.9213 22.3548 26.2704 22.9215C26.6136 23.5167 26.7854 24.1953 26.7668 24.8822C26.7948 25.7225 26.5534 26.5498 26.078 27.2432C25.5939 27.9005 24.9239 28.3976 24.1545 28.6704C23.2276 29.0031 22.2475 29.163 21.263 29.1419C19.9105 29.1901 18.5644 28.9357 17.3228 28.3973C17.007 28.2586 16.7292 28.0457 16.5131 27.7768C16.3332 27.5271 16.2406 27.2251 16.2493 26.9174C16.2403 26.7554 16.2664 26.5933 16.3259 26.4423C16.3853 26.2913 16.4767 26.155 16.5937 26.0426C16.841 25.8287 17.1607 25.7177 17.4873 25.7323C17.8521 25.7361 18.2107 25.8276 18.5328 25.9991C18.933 26.2008 19.2495 26.3497 19.479 26.449C20.0678 26.6979 20.7013 26.8236 21.3405 26.8182C21.9642 26.8627 22.5847 26.6966 23.1027 26.3466C23.2973 26.1948 23.4528 25.9988 23.5564 25.7749C23.66 25.551 23.7087 25.3056 23.6984 25.0591C23.6962 24.7129 23.5632 24.3805 23.3261 24.1283C23.0104 23.8006 22.6398 23.5307 22.2309 23.331C21.747 23.0766 21.0675 22.7663 20.1926 22.4002C19.4097 22.0866 18.6594 21.697 17.9526 21.2368" fill="white"/>
<defs>
<linearGradient id="paint0_linear_2526_2709" x1="14.8812" y1="8.58446" x2="17.4663" y2="25.026" gradientUnits="userSpaceOnUse">
<stop offset="0.01" stop-color="#00B7F0"/>
<stop offset="0.34" stop-color="#009DE5"/>
<stop offset="0.76" stop-color="#0082D9"/>
<stop offset="1" stop-color="#0078D4"/>
</linearGradient>
<linearGradient id="paint1_linear_2526_2709" x1="20.5687" y1="32.8863" x2="34.9421" y2="24.5105" gradientUnits="userSpaceOnUse">
<stop stop-color="#0078D4"/>
<stop offset="0.37" stop-color="#007AD5"/>
<stop offset="0.57" stop-color="#0082D9"/>
<stop offset="0.73" stop-color="#0090DF"/>
<stop offset="0.88" stop-color="#00A3E7"/>
<stop offset="1" stop-color="#00BCF2"/>
</linearGradient>
<linearGradient id="paint2_linear_2526_2709" x1="16.8461" y1="13.963" x2="29.9787" y2="36.7122" gradientUnits="userSpaceOnUse">
<stop stop-color="#00B7F0"/>
<stop offset="1" stop-color="#007CC1"/>
</linearGradient>
</defs>
</svg>
