<svg width="43" height="42" viewBox="0 0 43 42" fill="none" xmlns="http://www.w3.org/2000/svg">
<path d="M21.6481 41.9812C33.214 41.9812 42.5899 32.6052 42.5899 21.0394C42.5899 9.4736 33.214 0.0976562 21.6481 0.0976562C10.0823 0.0976562 0.70636 9.4736 0.70636 21.0394C0.70636 32.6052 10.0823 41.9812 21.6481 41.9812Z" fill="#FEFB00"/>
<path d="M12.827 16.1473C12.827 16.0698 12.827 16.0108 12.827 15.9519C12.827 15.5796 12.827 15.2072 12.827 14.8349C12.8495 14.0241 12.9534 13.2175 13.1373 12.4274C13.3897 11.3882 13.8615 10.415 14.521 9.57315C15.6756 8.09845 17.2839 7.04516 19.0972 6.57614C20.0733 6.31972 21.0831 6.21508 22.0911 6.26589C23.1643 6.29654 24.2243 6.51168 25.2246 6.9019C26.2768 7.30812 27.2376 7.91984 28.0509 8.70135C28.5216 9.15192 28.9381 9.65585 29.2919 10.2029C29.8194 11.0427 30.1738 11.9794 30.3344 12.958C30.473 13.778 30.5415 14.6083 30.5391 15.4399V16.0977C30.5825 16.1442 30.6198 16.1132 30.6539 16.0977C30.9679 16.0311 31.2887 16.0029 31.6095 16.0139C32.0296 16.0276 32.4407 16.1392 32.8101 16.3397C33.1253 16.5086 33.3997 16.7444 33.6141 17.0306C33.8285 17.3168 33.9777 17.6464 34.0511 17.9964C34.149 18.3984 34.1505 18.8178 34.0557 19.2206C33.9608 19.6233 33.7721 19.9979 33.5051 20.3139C33.2395 20.6427 32.9257 20.9293 32.5743 21.164C32.2827 21.3626 31.9849 21.5518 31.6901 21.7473L31.3303 21.9831C31.293 22.0079 31.2527 22.0327 31.2186 22.0606C31.135 22.1095 31.0724 22.1875 31.0426 22.2796C31.0129 22.3717 31.0181 22.4716 31.0572 22.5601C31.0832 22.6336 31.1143 22.7051 31.1503 22.7742C31.5411 23.5502 32.0663 24.2508 32.7016 24.8436C33.3813 25.4972 34.1513 26.0499 34.9881 26.4848C35.2146 26.5996 35.441 26.7175 35.6644 26.8416C35.8599 26.9484 36.0396 27.0821 36.1981 27.2387C36.5184 27.555 36.7078 27.9803 36.7286 28.43C36.7455 28.8189 36.6367 29.203 36.4183 29.5252C36.1855 29.8839 35.8735 30.1842 35.5062 30.4032C35.2077 30.5817 34.8966 30.7383 34.5754 30.8717C34.2442 31.0123 33.9043 31.1314 33.5578 31.2285C33.439 31.2628 33.322 31.3032 33.2073 31.3495C33.1427 31.373 33.0837 31.4097 33.034 31.4572C32.9843 31.5048 32.9451 31.5621 32.9187 31.6256C32.8846 31.7032 32.8505 31.7838 32.8195 31.8614C32.6933 32.2183 32.4761 32.536 32.1893 32.7831C31.9025 33.0302 31.5561 33.198 31.1844 33.2699C30.8908 33.3351 30.5916 33.3725 30.2909 33.3816C29.959 33.4002 29.6239 33.4064 29.2919 33.4281C28.7651 33.4597 28.2442 33.5555 27.7407 33.7136C27.5238 33.7825 27.3156 33.8762 27.1202 33.9928C26.8534 34.1479 26.5897 34.3061 26.3291 34.4675C25.8738 34.7512 25.399 35.002 24.9081 35.2183C24.2223 35.5101 23.4983 35.7024 22.7581 35.7891C22.1073 35.8678 21.4498 35.8751 20.7973 35.8108C19.8064 35.7129 18.843 35.4276 17.9585 34.9701C17.5925 34.7808 17.2388 34.5699 16.8882 34.3496C16.7393 34.2596 16.5779 34.1696 16.4352 34.0766C15.9921 33.809 15.5028 33.627 14.9926 33.5398C14.4806 33.4463 13.9617 33.3954 13.4413 33.3878C13.0945 33.3817 12.7484 33.3538 12.4051 33.304C12.1459 33.265 11.8939 33.1876 11.6574 33.0745C11.1814 32.8442 10.807 32.4465 10.6057 31.9576C10.5653 31.8614 10.5281 31.7621 10.4909 31.6659C10.4622 31.5853 10.4155 31.5122 10.3541 31.4525C10.2928 31.3928 10.2186 31.348 10.1372 31.3216L9.82695 31.2223C9.22196 31.0529 8.63806 30.8156 8.08644 30.5149C7.72205 30.32 7.39949 30.0554 7.13708 29.7362C6.94668 29.5104 6.80797 29.2456 6.73066 28.9606C6.65215 28.6719 6.64856 28.368 6.72022 28.0776C6.79188 27.7871 6.93643 27.5197 7.14019 27.3007C7.28096 27.1451 7.44407 27.0113 7.62417 26.9036C7.81304 26.7882 8.00888 26.6846 8.21055 26.5934C8.92705 26.2413 9.60146 25.8094 10.221 25.3058C10.9512 24.7176 11.5674 24.0004 12.039 23.1899C12.1228 23.041 12.1941 22.8797 12.2748 22.737C12.3194 22.6498 12.3478 22.5551 12.3586 22.4578C12.3664 22.4091 12.3633 22.3593 12.3493 22.3121C12.3353 22.2648 12.3109 22.2213 12.2779 22.1847C12.2078 22.1161 12.1308 22.0548 12.0483 22.0017L10.8663 21.2292C10.6147 21.0629 10.379 20.8739 10.162 20.6645C9.83263 20.3538 9.57714 19.9732 9.41431 19.5507C9.27289 19.1925 9.21392 18.8071 9.24177 18.423C9.26962 18.0389 9.38358 17.666 9.57519 17.3319C9.7668 16.9979 10.0311 16.7112 10.3486 16.4933C10.6661 16.2753 11.0286 16.1316 11.4092 16.0728C11.8215 16.0068 12.2426 16.0194 12.6502 16.1101L12.827 16.1473Z" fill="black"/>
<path d="M28.8612 16.1135C28.8612 16.6906 28.8271 17.2645 28.7836 17.8385C28.7836 17.9378 28.7836 18.0339 28.7836 18.1332C28.7836 18.3473 28.9046 18.4435 29.1156 18.4156C29.1941 18.4061 29.2711 18.3874 29.3452 18.3597C29.553 18.2883 29.7609 18.2108 29.9657 18.1301C30.3098 17.9897 30.6633 17.8736 31.0236 17.7826C31.264 17.7151 31.5168 17.7045 31.762 17.7516C31.8937 17.7776 32.0179 17.8329 32.1252 17.9136C32.2325 17.9943 32.3202 18.0982 32.3816 18.2176C32.4431 18.3369 32.4768 18.4687 32.4802 18.6029C32.4835 18.7371 32.4565 18.8703 32.4011 18.9926C32.3429 19.1325 32.2598 19.2607 32.156 19.3711C32.0111 19.531 31.8464 19.6718 31.6658 19.79L31.0453 20.2119C30.6917 20.4477 30.3349 20.6773 29.9812 20.9162C29.8354 21.0123 29.6927 21.1178 29.553 21.2264C29.4766 21.288 29.405 21.3554 29.339 21.4281C29.2741 21.4976 29.2244 21.5798 29.1929 21.6695C29.1614 21.7592 29.1488 21.8545 29.1559 21.9493C29.1686 22.1385 29.2019 22.3258 29.2552 22.5077C29.4273 23.092 29.6756 23.6512 29.9936 24.1707C30.5748 25.1184 31.3159 25.9581 32.184 26.6526C32.9239 27.2459 33.7283 27.7538 34.5822 28.1667C34.6608 28.2039 34.7352 28.2442 34.8055 28.2876C34.863 28.3202 34.9119 28.366 34.9483 28.4211C34.9768 28.4572 34.9939 28.501 34.9972 28.547C35.0005 28.5929 34.99 28.6387 34.9669 28.6786C34.9221 28.7507 34.8655 28.8147 34.7994 28.8678C34.7022 28.9442 34.5983 29.0116 34.4891 29.0695C34.0034 29.3268 33.4889 29.5257 32.9565 29.6621L32.2801 29.8544C32.124 29.903 31.9733 29.9675 31.8303 30.0468C31.7157 30.1039 31.6163 30.1874 31.5403 30.2904C31.4642 30.3934 31.4137 30.513 31.3928 30.6393C31.3649 30.7883 31.3463 30.9496 31.3215 31.0861C31.3183 31.236 31.2576 31.3789 31.1519 31.4852C31.0462 31.5915 30.9036 31.653 30.7537 31.657C30.6244 31.6792 30.4939 31.6937 30.3628 31.7004C30.0526 31.719 29.7113 31.7283 29.3855 31.7438C28.648 31.7794 27.9181 31.9097 27.2138 32.1316C26.9154 32.23 26.6275 32.3579 26.3544 32.5132C26.0658 32.6808 25.7804 32.8514 25.495 33.0251C25.0474 33.3074 24.5761 33.5503 24.0865 33.7511C23.537 33.9625 22.9605 34.0951 22.3739 34.1451C21.8799 34.1963 21.3818 34.1963 20.8878 34.1451C20.1518 34.0611 19.437 33.8446 18.7781 33.506C18.4679 33.3478 18.1731 33.171 17.8784 32.991L17.2238 32.597C16.7024 32.2948 16.1356 32.079 15.5453 31.9579C15.0021 31.832 14.4487 31.7551 13.8917 31.7283C13.6032 31.7283 13.3146 31.7066 13.0292 31.688C12.8658 31.6814 12.7036 31.6575 12.5452 31.6166C12.4417 31.5966 12.3467 31.5455 12.273 31.4701C12.1992 31.3947 12.1503 31.2987 12.1326 31.1947C12.1078 31.0644 12.0861 30.9372 12.0643 30.8069V30.7293C12.0499 30.5688 11.992 30.4153 11.8969 30.2852C11.8018 30.1551 11.6731 30.0534 11.5245 29.9909C11.3289 29.9019 11.1266 29.8283 10.9195 29.7706C10.5596 29.6714 10.1967 29.5845 9.84607 29.4604C9.53798 29.3524 9.23916 29.2196 8.95256 29.0633C8.86569 29.0167 8.78192 28.964 8.70126 28.9112C8.64748 28.8739 8.59758 28.8313 8.55233 28.7841C8.51377 28.7552 8.48314 28.7171 8.46325 28.6733C8.44336 28.6295 8.43488 28.5813 8.4386 28.5334C8.44231 28.4854 8.4581 28.4391 8.4845 28.3989C8.51089 28.3586 8.54702 28.3257 8.58955 28.3032C8.68696 28.236 8.7909 28.1788 8.8998 28.1325C9.64758 27.77 10.3565 27.3324 11.0157 26.8264C11.9603 26.1171 12.7651 25.2387 13.3891 24.2358C13.7268 23.699 13.9899 23.1186 14.1709 22.5108C14.2298 22.3163 14.2642 22.1151 14.2733 21.912C14.2781 21.8176 14.2636 21.7232 14.2305 21.6346C14.1974 21.546 14.1465 21.4652 14.081 21.397C14.0006 21.3104 13.9123 21.2314 13.8173 21.1612C13.5442 20.9596 13.2588 20.7703 12.9765 20.5842L11.8906 19.8768C11.7088 19.7607 11.5375 19.6289 11.3787 19.4828C11.2603 19.3755 11.156 19.2535 11.0685 19.1198C10.9874 18.9888 10.9402 18.8397 10.931 18.6859C10.9218 18.5321 10.9509 18.3785 11.0157 18.2387C11.0569 18.1385 11.1184 18.0479 11.1964 17.9726C11.2743 17.8973 11.3671 17.8389 11.4687 17.8013C11.6977 17.7167 11.9455 17.6963 12.1853 17.7423C12.4675 17.7966 12.7446 17.8744 13.0137 17.975L13.839 18.2852C13.9647 18.3375 14.0958 18.376 14.2299 18.4C14.2624 18.4082 14.2957 18.4134 14.3291 18.4156C14.4874 18.4156 14.6177 18.3597 14.6146 18.1456C14.6115 17.9316 14.6146 17.792 14.596 17.6182C14.5272 16.6653 14.5096 15.7094 14.5432 14.7546C14.5633 14.1462 14.6381 13.5409 14.7666 12.9459C14.9502 12.1265 15.3079 11.3563 15.8153 10.6873C16.7346 9.46845 18.0371 8.59426 19.5134 8.20527C20.3286 7.98388 21.1731 7.88971 22.0171 7.92606C22.9071 7.94828 23.7865 8.12354 24.617 8.44417C25.4086 8.7426 26.1362 9.18903 26.7608 9.75962C27.5545 10.4701 28.1482 11.3761 28.4827 12.3874C28.6309 12.8554 28.7348 13.3364 28.7929 13.8239C28.8645 14.5848 28.8873 15.3496 28.8612 16.1135Z" fill="white"/>
</svg>
