<svg width="43" height="43" viewBox="0 0 43 43" fill="none" xmlns="http://www.w3.org/2000/svg">
<path d="M21.8079 0.770996C17.6661 0.770996 13.6172 1.99921 10.1733 4.30032C6.72948 6.60143 4.04532 9.87209 2.46029 13.6987C0.875255 17.5253 0.460537 21.736 1.26858 25.7983C2.07662 29.8606 4.07113 33.5921 6.99989 36.5208C9.92864 39.4496 13.6601 41.4441 17.7224 42.2521C21.7847 43.0602 25.9954 42.6454 29.822 41.0604C33.6486 39.4754 36.9193 36.7912 39.2204 33.3474C41.5215 29.9035 42.7497 25.8546 42.7497 21.7128C42.7489 16.1589 40.5423 10.8328 36.6151 6.90561C32.6879 2.97845 27.3618 0.771819 21.8079 0.770996ZM31.4256 30.9768C31.3366 31.1232 31.2195 31.2506 31.0811 31.3517C30.9427 31.4528 30.7857 31.5256 30.6191 31.566C30.4526 31.6063 30.2797 31.6134 30.1103 31.5868C29.941 31.5603 29.7786 31.5006 29.6324 31.4111C24.715 28.4048 18.5224 27.7254 11.2347 29.3914C11.0644 29.4388 10.8863 29.4512 10.7111 29.4278C10.5359 29.4044 10.3673 29.3456 10.2155 29.2552C10.0637 29.1647 9.93181 29.0443 9.82786 28.9014C9.72391 28.7584 9.65005 28.5959 9.61075 28.4236C9.57146 28.2513 9.56754 28.0727 9.59924 27.8989C9.63094 27.725 9.6976 27.5594 9.79519 27.412C9.89277 27.2646 10.0192 27.1386 10.167 27.0416C10.3147 26.9445 10.4805 26.8784 10.6545 26.8474C18.631 25.0231 25.472 25.808 30.9944 29.1804C31.2871 29.364 31.4954 29.6558 31.5739 29.9923C31.6523 30.3288 31.5946 30.6827 31.4132 30.9768H31.4256ZM33.9759 25.2651C33.8637 25.4479 33.7167 25.6069 33.543 25.7328C33.3694 25.8588 33.1727 25.9493 32.964 25.9991C32.7554 26.049 32.539 26.0572 32.3272 26.0233C32.1154 25.9895 31.9124 25.9142 31.7297 25.8018C26.1018 22.3426 17.5203 21.3405 10.8624 23.3633C10.6572 23.4256 10.4418 23.4469 10.2285 23.426C10.0151 23.4051 9.80792 23.3424 9.61879 23.2414C9.42965 23.1404 9.26226 23.0032 9.12617 22.8375C8.99008 22.6718 8.88794 22.481 8.82561 22.2759C8.76327 22.0707 8.74195 21.8553 8.76286 21.6419C8.78378 21.4286 8.84651 21.2214 8.94749 21.0322C9.04846 20.8431 9.1857 20.6757 9.35137 20.5396C9.51704 20.4036 9.70789 20.3014 9.91303 20.2391C17.5203 17.9308 26.9767 19.0477 33.4392 23.0313C33.8044 23.2583 34.0655 23.62 34.166 24.0381C34.2664 24.4562 34.1981 24.897 33.9759 25.2651ZM34.1962 19.3269C27.4452 15.3185 16.3134 14.9493 9.86649 16.907C9.38409 17.014 8.87907 16.9349 8.45247 16.6856C8.02587 16.4362 7.70915 16.035 7.56565 15.5622C7.42215 15.0893 7.46247 14.5798 7.67853 14.1354C7.8946 13.691 8.27048 13.3446 8.73098 13.1654C16.1273 10.9192 28.4255 11.3536 36.1973 15.9577C36.6233 16.2329 36.926 16.6626 37.042 17.1564C37.1579 17.6502 37.078 18.1697 36.8189 18.6058C36.5599 19.0419 36.142 19.3606 35.6529 19.4951C35.1639 19.6296 34.6417 19.5693 34.1962 19.3269Z" fill="#7BD568"/>
<path d="M31.413 30.9766C31.3239 31.123 31.2068 31.2504 31.0684 31.3515C30.93 31.4527 30.7731 31.5255 30.6065 31.5658C30.4399 31.6062 30.267 31.6132 30.0977 31.5867C29.9284 31.5601 29.766 31.5004 29.6197 31.4109C24.7023 28.4046 18.5098 27.7252 11.222 29.3912C11.0518 29.4386 10.8737 29.451 10.6985 29.4276C10.5233 29.4042 10.3547 29.3455 10.2029 29.255C10.051 29.1645 9.91915 29.0441 9.8152 28.9012C9.71125 28.7582 9.63739 28.5957 9.59809 28.4234C9.5588 28.2511 9.55488 28.0726 9.58658 27.8987C9.61829 27.7248 9.68495 27.5592 9.78253 27.4118C9.88011 27.2645 10.0066 27.1384 10.1543 27.0414C10.302 26.9443 10.4679 26.8783 10.6419 26.8472C18.6183 25.0229 25.4593 25.8078 30.9817 29.1802C31.2765 29.3618 31.4874 29.6527 31.5682 29.9894C31.649 30.326 31.5932 30.681 31.413 30.9766Z" fill="#010201"/>
<path d="M33.9756 25.2648C33.8635 25.4476 33.7164 25.6066 33.5428 25.7325C33.3692 25.8585 33.1724 25.949 32.9638 25.9988C32.7552 26.0487 32.5388 26.0569 32.327 26.023C32.1152 25.9892 31.9121 25.9139 31.7294 25.8015C26.1015 22.3423 17.5201 21.3402 10.8621 23.363C10.657 23.4253 10.4416 23.4466 10.2282 23.4257C10.0148 23.4048 9.80766 23.3421 9.61853 23.2411C9.4294 23.1401 9.262 23.0029 9.12591 22.8372C8.98982 22.6715 8.88769 22.4807 8.82535 22.2755C8.76302 22.0704 8.74169 21.855 8.76261 21.6416C8.78352 21.4283 8.84625 21.2211 8.94723 21.0319C9.04821 20.8428 9.18545 20.6754 9.35111 20.5393C9.51678 20.4032 9.70763 20.3011 9.91277 20.2388C17.5201 17.9305 26.9764 19.0474 33.4389 23.031C33.8041 23.258 34.0652 23.6197 34.1657 24.0378C34.2662 24.4559 34.1979 24.8967 33.9756 25.2648Z" fill="#010201"/>
<path d="M34.1952 19.3358C27.4442 15.3273 16.3125 14.9582 9.86554 16.9158C9.37452 17.0454 8.85236 16.9794 8.409 16.7318C7.96563 16.4842 7.63564 16.0741 7.4885 15.5881C7.34136 15.102 7.38854 14.5779 7.62011 14.1259C7.85168 13.6739 8.24958 13.3294 8.73004 13.1649C16.1264 10.9187 28.4246 11.3531 36.1963 15.9571C36.6223 16.2324 36.9251 16.6621 37.041 17.1559C37.1569 17.6497 37.077 18.1692 36.818 18.6053C36.559 19.0414 36.1411 19.3601 35.652 19.4946C35.1629 19.6291 34.6408 19.5688 34.1952 19.3264V19.3358Z" fill="#010201"/>
</svg>
