<svg width="43" height="43" viewBox="0 0 43 43" fill="none" xmlns="http://www.w3.org/2000/svg">
<path d="M21.088 42.0754C32.6538 42.0754 42.0298 32.6995 42.0298 21.1337C42.0298 9.56784 32.6538 0.191895 21.088 0.191895C9.52219 0.191895 0.14624 9.56784 0.14624 21.1337C0.14624 32.6995 9.52219 42.0754 21.088 42.0754Z" fill="url(#paint0_linear_2526_2737)"/>
<path d="M14.3153 22.6631L16.7973 29.5413C16.7973 29.5413 17.1075 30.1835 17.4426 30.1835C17.7777 30.1835 22.7168 25.0365 22.7168 25.0365L28.233 14.4136L14.4115 20.8916L14.3153 22.6631Z" fill="#C8DAEA"/>
<path d="M17.6162 24.4253L17.1415 29.4947C17.1415 29.4947 16.9398 31.046 18.4942 29.4947C20.0485 27.9435 21.5315 26.7459 21.5315 26.7459L17.6162 24.4253Z" fill="#A9C6D8"/>
<path d="M14.3671 22.9088L9.25727 21.2397C9.25727 21.2397 8.63676 20.9915 8.84153 20.4299C8.88186 20.3151 8.96563 20.2158 9.20763 20.0452C10.34 19.2572 30.168 12.1308 30.168 12.1308C30.4537 12.0301 30.7611 12.0076 31.0584 12.0656C31.1401 12.0918 31.2137 12.1387 31.2719 12.2018C31.33 12.2649 31.3709 12.3419 31.3904 12.4255C31.4251 12.5728 31.4397 12.7241 31.4338 12.8754C31.4338 13.0088 31.4152 13.1298 31.4028 13.3221C31.2818 15.2705 27.6798 29.8118 27.6798 29.8118C27.6798 29.8118 27.4626 30.6619 26.687 30.6898C26.4969 30.6966 26.3074 30.665 26.1299 30.5968C25.9524 30.5285 25.7905 30.4251 25.6539 30.2927C24.1337 28.9835 18.8781 25.4528 17.7177 24.6772C17.6916 24.6589 17.6695 24.6355 17.653 24.6082C17.6364 24.581 17.6257 24.5506 17.6216 24.519C17.606 24.4383 17.696 24.3359 17.696 24.3359C17.696 24.3359 26.8452 16.2043 27.0872 15.3387C27.1059 15.2736 27.0345 15.2395 26.9383 15.2674C26.3178 15.4908 15.7973 22.1425 14.6339 22.8778C14.5489 22.91 14.4572 22.9207 14.3671 22.9088Z" fill="white"/>
<defs>
<linearGradient id="paint0_linear_2526_2737" x1="21.088" y1="42.0754" x2="21.088" y2="0.191895" gradientUnits="userSpaceOnUse">
<stop stop-color="#1D93D2"/>
<stop offset="1" stop-color="#38B0E3"/>
</linearGradient>
</defs>
</svg>
