<svg width="43" height="43" viewBox="0 0 43 43" fill="none" xmlns="http://www.w3.org/2000/svg">
<path d="M21.088 42.655C32.6538 42.655 42.0298 33.2791 42.0298 21.7132C42.0298 10.1474 32.6538 0.771484 21.088 0.771484C9.52219 0.771484 0.14624 10.1474 0.14624 21.7132C0.14624 33.2791 9.52219 42.655 21.088 42.655Z" fill="#5A99EC"/>
<path d="M16.8567 33.7729C27.0949 33.7729 32.6793 25.3 32.6793 17.9502C32.6793 17.7113 32.6793 17.4724 32.6793 17.2335C33.7672 16.4458 34.7064 15.4709 35.453 14.3544C34.4378 14.8021 33.362 15.0969 32.2605 15.2293C33.4214 14.5336 34.2902 13.4399 34.7053 12.1517C33.6143 12.8003 32.4201 13.2568 31.1746 13.5012C30.4115 12.6887 29.4219 12.1241 28.3341 11.8808C27.2463 11.6374 26.1105 11.7265 25.0739 12.1364C24.0373 12.5464 23.1478 13.2583 22.5207 14.1799C21.8936 15.1015 21.5578 16.1902 21.5569 17.3049C21.5551 17.732 21.6031 18.1578 21.6997 18.5738C19.4887 18.463 17.3258 17.8883 15.3514 16.8872C13.3769 15.8861 11.6351 14.4809 10.2391 12.7628C9.52715 13.987 9.30891 15.4366 9.62886 16.8162C9.94881 18.1957 10.7828 19.4013 11.9609 20.1871C11.0777 20.1601 10.2139 19.9218 9.44173 19.4921C9.44011 19.5159 9.44011 19.5397 9.44173 19.5635C9.4421 20.8474 9.88656 22.0916 10.6997 23.0851C11.5129 24.0787 12.6447 24.7604 13.9031 25.0146C13.0846 25.2368 12.2263 25.2697 11.3932 25.1107C11.7506 26.2142 12.4426 27.179 13.3733 27.8712C14.304 28.5633 15.4271 28.9486 16.5867 28.9733C14.6165 30.5182 12.1843 31.3562 9.68063 31.3529C9.23789 31.3537 8.79549 31.3278 8.35587 31.2754C10.8983 32.9082 13.8568 33.7752 16.8784 33.7729" fill="white"/>
</svg>
