<svg width="40" height="40" viewBox="0 0 40 40" fill="none" xmlns="http://www.w3.org/2000/svg">
<g clip-path="url(#clip0_413_2909)">
<path d="M24.7665 27.7778H14.7665C14.6192 27.7778 14.4778 27.8364 14.3737 27.9406C14.2695 28.0447 14.2109 28.186 14.2109 28.3334C14.2109 28.4807 14.2695 28.622 14.3737 28.7262C14.4778 28.8304 14.6192 28.8889 14.7665 28.8889H24.7665C24.9138 28.8889 25.0551 28.8304 25.1593 28.7262C25.2635 28.622 25.322 28.4807 25.322 28.3334C25.322 28.186 25.2635 28.0447 25.1593 27.9406C25.0551 27.8364 24.9138 27.7778 24.7665 27.7778Z" fill="black"/>
<path d="M19.8598 11.1111C17.797 11.1111 15.8187 11.9305 14.3601 13.3891C12.9015 14.8478 12.082 16.8261 12.082 18.8889C12.082 19.1389 12.082 19.3833 12.1209 19.6278C12.2641 21.1279 12.84 22.5541 13.7785 23.7331C14.7171 24.9121 15.978 25.793 17.4079 26.2688C18.8377 26.7446 20.3751 26.7948 21.8329 26.4132C23.2908 26.0316 24.6064 25.2347 25.6198 24.1195C26.6332 23.0042 27.3009 21.6185 27.5415 20.1309C27.7821 18.6432 27.5854 17.1177 26.9753 15.7398C26.3652 14.3619 25.3679 13.1909 24.1047 12.3692C22.8415 11.5474 21.3668 11.1104 19.8598 11.1111ZM19.8598 12.2222C21.6164 12.2237 23.3015 12.9185 24.5487 14.1555V14.7111C22.3529 13.9554 19.966 13.9652 17.7765 14.7389C17.6016 14.5684 17.382 14.4509 17.1431 14.4H17.0043C16.9376 14.1666 16.8765 13.9333 16.8265 13.6944C16.7765 13.4555 16.7487 13.2444 16.7209 13.0166C17.6854 12.4962 18.7639 12.2232 19.8598 12.2222ZM18.1931 15.4833C20.2107 14.8077 22.3974 14.8331 24.3987 15.5555C24.128 16.967 23.5369 18.2974 22.6709 19.4444C22.4287 19.3418 22.1606 19.3172 21.9037 19.374C21.6469 19.4307 21.414 19.566 21.2376 19.7611C21.0431 19.65 20.8487 19.5389 20.682 19.4111C19.5605 18.6628 18.6239 17.6692 17.9431 16.5055C18.0532 16.3691 18.1333 16.211 18.1783 16.0416C18.2233 15.8722 18.2321 15.6952 18.2043 15.5222L18.1931 15.4833ZM15.9709 13.4833C15.9709 13.6 16.0043 13.7222 16.0265 13.8389C16.0765 14.0833 16.1431 14.3222 16.2098 14.5611C15.9971 14.6871 15.8258 14.8725 15.7173 15.0947C15.6087 15.3168 15.5674 15.5658 15.5987 15.8111C14.7218 16.3837 13.9385 17.0883 13.2765 17.9C13.4093 17.021 13.7166 16.1774 14.1803 15.4189C14.644 14.6604 15.2547 14.0023 15.9765 13.4833H15.9709ZM15.9709 22.2111C15.754 22.2839 15.5602 22.4126 15.409 22.5843C15.2578 22.756 15.1546 22.9645 15.1098 23.1889H14.7543C13.8571 22.1188 13.3205 20.7928 13.2209 19.4L13.282 19.2944C13.9777 18.2157 14.8872 17.2911 15.9543 16.5778C16.1142 16.7448 16.3164 16.8656 16.5394 16.9272C16.7624 16.9888 16.9978 16.989 17.2209 16.9278C17.964 18.1835 18.9798 19.2562 20.1931 20.0666C20.4209 20.2166 20.6543 20.3555 20.8876 20.4889C20.8689 20.7013 20.9033 20.9151 20.9876 21.1111C19.9709 21.9184 18.7982 22.5067 17.5431 22.8389C17.3976 22.5669 17.1601 22.3556 16.8731 22.2426C16.5861 22.1297 16.2683 22.1224 15.9765 22.2222L15.9709 22.2111ZM19.8598 25.5444C18.7299 25.5447 17.6188 25.2559 16.632 24.7055L16.7876 24.6722C17.0087 24.5997 17.2062 24.4691 17.3596 24.2942C17.5131 24.1193 17.6167 23.9064 17.6598 23.6778C19.0804 23.3155 20.4066 22.6524 21.5487 21.7333C21.82 21.8919 22.1404 21.9444 22.4481 21.8808C22.7558 21.8172 23.0291 21.642 23.2154 21.3889C23.9992 21.5926 24.8055 21.6972 25.6154 21.7H25.9098C25.3738 22.8525 24.5196 23.8278 23.4476 24.5109C22.3757 25.194 21.1309 25.5565 19.8598 25.5555V25.5444ZM23.4765 20.6C23.4759 20.3671 23.4126 20.1387 23.2931 19.9389C24.2177 18.7312 24.8611 17.3323 25.1765 15.8444C25.4543 15.974 25.7283 16.1185 25.9987 16.2778C26.6097 17.7216 26.6923 19.3346 26.232 20.8333C25.3097 20.9046 24.3818 20.8315 23.482 20.6166L23.4765 20.6Z" fill="black"/>
</g>
<rect x="0.5" y="0.5" width="39" height="39" rx="19.5" stroke="black"/>
<defs>
<clipPath id="clip0_413_2909">
<rect width="20" height="20" fill="white" transform="translate(10 10)"/>
</clipPath>
</defs>
</svg>
