<svg width="130" height="50" viewBox="0 0 1190 420" fill="none" xmlns="http://www.w3.org/2000/svg">
    <path
        d="M1107.7 163.26C1062.65 163.26 1026 126.631 1026 81.6299C1026 36.629 1062.63 0 1107.7 0C1152.76 0 1189.43 36.629 1189.43 81.6299C1189.43 126.631 1152.76 163.26 1107.7 163.26ZM1107.7 9.87913C1068.08 9.87913 1035.87 42.0771 1035.87 81.6481C1035.87 121.219 1068.08 153.417 1107.7 153.417C1147.31 153.417 1179.54 121.219 1179.54 81.6481C1179.54 42.0771 1147.31 9.87913 1107.7 9.87913Z"
        fill="white" />
    <path d="M1072.42 108.09V63.0346H1057V55.1895H1097.63V63.0346H1082.25V108.09H1072.42Z" fill="white" />
    <path
        d="M1103.32 108.09V55.1895H1114.88L1130.88 93.4166L1147 55.1895H1158.42V108.09H1149.39V81.9575L1149.68 66.9936L1148.35 70.9343L1134.79 104.494H1126.41L1113.16 70.7709L1111.81 66.7938L1112.16 82.1028V108.09H1103.34H1103.32Z"
        fill="white" />
    <path
        d="M0.00436616 163.073H33.3539V319.591C32.8644 347.848 52.5924 374.634 79.1311 383.029C124.419 398.547 173.554 357.533 165.464 309.613H199.011C205.031 363.365 162.509 415.939 108.831 419.492C73.9007 423.053 38.8764 406.847 18.5557 377.988C6.31699 361.387 -0.193172 340.734 0.00436616 320.185V163.073ZM463.419 320.185C463.222 344.889 472.695 369.292 489.563 387.184C534.061 439.259 622.266 426.416 652.059 365.051C696.651 275.326 597.891 181.756 512.057 232.644V276.023C565.332 214.064 660.347 282.053 620.29 353.396C598.389 392.431 539.291 397.463 511.859 361.791C505.048 353.792 500.316 344.003 498.143 333.732C494.493 277.115 497.946 219.896 496.76 163.082H463.316V320.193H463.411L463.419 320.185ZM695.277 315.445C694.685 329.38 696.755 343.409 701.891 356.355C723.697 415.544 802.523 439.655 852.646 401.316C954.37 325.131 854.029 169.8 743.82 232.541V276.023C804.894 207.544 904.049 297.863 842.383 365.946C815.543 395.295 764.338 391.734 741.553 359.125C733.952 349.147 729.52 336.795 728.73 324.339V163.073H695.183V315.445H695.277ZM926.74 320.09C926.448 334.618 929.703 349.241 935.818 362.385C951.999 396.379 988.011 421.281 1025.9 419.501C1025.7 408.43 1026.29 397.368 1025.8 386.298C993.834 386.986 964.238 360.802 960.39 328.89C958.715 273.649 960.39 218.219 959.798 162.979H926.749V320.09H926.74ZM274.29 340.442C274.195 354.574 277.545 368.699 284.845 380.758C299.643 405.953 327.96 422.064 357.067 419.492C391.103 418.013 421.791 390.341 427.906 356.647C431.461 310.8 428.301 264.557 429.288 218.606H395.844C395.844 260.798 395.939 302.99 395.844 345.181C394.462 377.395 354.31 397.351 328.063 378.978C318.787 372.853 311.393 363.46 308.722 352.398C305.363 308.133 308.43 263.069 307.442 218.606H274.195V340.347L274.29 340.442ZM76.1681 165.938C79.2256 177.894 82.0856 190.048 85.0487 202.005C153.122 192.517 218.636 248.747 214.393 319.195C226.924 319.686 239.455 320.477 252.08 320.778C257.405 231.948 174.825 153.491 87.3161 164.355C83.5629 164.845 79.8182 164.845 76.1681 165.938ZM96.7893 252.101C129.838 250.028 161.711 276.212 165.558 309.613H199.105C195.455 256.652 144.937 213.867 92.6496 218.804C93.9293 229.969 95.3121 241.04 96.7893 252.205V252.11V252.101ZM101.822 287.481C112.678 287.188 123.431 293.605 128.361 303.385C135.859 302.895 143.357 302 150.855 301.51C144.739 280.367 123.526 265.348 101.822 265.641V287.481Z"
        fill="white" />
</svg>