<svg width="374" height="53" viewBox="0 0 374 53" fill="none" xmlns="http://www.w3.org/2000/svg">
<path d="M186.744 45.1718C289.879 45.1718 373.487 37.6064 373.487 28.2739C373.487 18.9414 289.879 11.376 186.744 11.376C83.608 11.376 0 18.9414 0 28.2739C0 37.6064 83.608 45.1718 186.744 45.1718Z" fill="url(#paint0_linear_1573_18)"/>
<path d="M186.447 30.8688C278.889 30.8688 353.828 23.9835 353.828 15.4901C353.828 6.99662 278.889 0.111328 186.447 0.111328C94.0044 0.111328 19.0651 6.99662 19.0651 15.4901C19.0651 23.9835 94.0044 30.8688 186.447 30.8688Z" fill="url(#paint1_linear_1573_18)"/>
<path d="M186.447 30.8489C94.0099 30.8489 19.0651 23.9636 19.0651 15.4901V21.6013C19.0651 30.0952 94.0099 36.98 186.447 36.98C278.883 36.98 353.828 30.0952 353.828 21.6013L353.828 15.4901C353.828 23.984 278.883 30.8688 186.447 30.8688L186.447 30.8489Z" fill="url(#paint2_linear_1573_18)"/>
<path d="M186.744 45.1824C83.6142 45.1824 0 37.4088 0 27.8413V34.741C0 44.3314 83.6142 52.105 186.744 52.105C289.873 52.105 373.487 44.3314 373.487 34.741V27.8413C373.487 37.4318 289.873 45.2054 186.744 45.2054V45.1824Z" fill="url(#paint3_linear_1573_18)"/>
<path d="M338.058 8.52519C338.153 11.255 274.739 15.6851 196.417 18.4202C118.096 21.1552 54.5263 21.1595 54.431 18.4297C54.3357 15.6999 117.75 11.2698 196.072 8.53471C274.393 5.79966 337.963 5.7954 338.058 8.52519Z" fill="black" fill-opacity="0.43"/>
<defs>
<linearGradient id="paint0_linear_1573_18" x1="186.744" y1="0.111328" x2="186.744" y2="52.0706" gradientUnits="userSpaceOnUse">
<stop stop-color="#253059"/>
<stop offset="1" stop-color="#4A587C"/>
</linearGradient>
<linearGradient id="paint1_linear_1573_18" x1="186.744" y1="0.111328" x2="185.596" y2="111.486" gradientUnits="userSpaceOnUse">
<stop offset="0.255208" stop-color="#253059"/>
<stop offset="1" stop-color="#4A587C"/>
</linearGradient>
<linearGradient id="paint2_linear_1573_18" x1="186.744" y1="0.111328" x2="186.744" y2="52.105" gradientUnits="userSpaceOnUse">
<stop stop-color="#AB1EE0"/>
<stop offset="0.520833" stop-color="#DE1848"/>
<stop offset="1" stop-color="#E04FF2"/>
</linearGradient>
<linearGradient id="paint3_linear_1573_18" x1="186.744" y1="0.111328" x2="186.744" y2="52.105" gradientUnits="userSpaceOnUse">
<stop stop-color="#AB1EE0"/>
<stop offset="0.520833" stop-color="#DE1848"/>
<stop offset="1" stop-color="#E04FF2"/>
</linearGradient>
</defs>
</svg>
