<svg width="26" height="26" viewBox="0 0 26 26" fill="none" xmlns="http://www.w3.org/2000/svg">
    <path
        d="M2.60156 5.19998C2.60156 4.51041 2.87549 3.84909 3.36308 3.3615C3.85068 2.8739 4.512 2.59998 5.20156 2.59998H18.2016C18.8911 2.59998 19.5524 2.8739 20.04 3.3615C20.5276 3.84909 20.8016 4.51041 20.8016 5.19998V18.2C20.8016 18.8895 20.5276 19.5509 20.04 20.0385C19.5524 20.526 18.8911 20.8 18.2016 20.8H5.20156C4.512 20.8 3.85068 20.526 3.36308 20.0385C2.87549 19.5509 2.60156 18.8895 2.60156 18.2V5.19998ZM5.20156 3.89998C4.85678 3.89998 4.52612 4.03694 4.28232 4.28074C4.03853 4.52453 3.90156 4.85519 3.90156 5.19998V18.2C3.90156 18.5448 4.03853 18.8754 4.28232 19.1192C4.52612 19.363 4.85678 19.5 5.20156 19.5H18.2016C18.5463 19.5 18.877 19.363 19.1208 19.1192C19.3646 18.8754 19.5016 18.5448 19.5016 18.2V5.19998C19.5016 4.85519 19.3646 4.52453 19.1208 4.28074C18.877 4.03694 18.5463 3.89998 18.2016 3.89998H5.20156ZM7.80156 23.4C7.34518 23.4 6.89684 23.2798 6.5016 23.0516C6.10636 22.8234 5.77815 22.4952 5.54996 22.1H18.2016C19.2359 22.1 20.2279 21.6891 20.9593 20.9577C21.6907 20.2263 22.1016 19.2343 22.1016 18.2V5.54838C22.4968 5.77657 22.825 6.10478 23.0532 6.50001C23.2814 6.89525 23.4016 7.34359 23.4016 7.79998V18.2C23.4016 19.5791 22.8537 20.9017 21.8785 21.8769C20.9033 22.8521 19.5807 23.4 18.2016 23.4H7.80156ZM16.0904 9.52898C16.1467 9.46479 16.1898 9.39013 16.2173 9.30926C16.2448 9.2284 16.2561 9.14292 16.2505 9.05769C16.245 8.97247 16.2227 8.88917 16.185 8.81255C16.1472 8.73594 16.0948 8.66751 16.0306 8.61118C15.9664 8.55484 15.8917 8.5117 15.8109 8.48421C15.73 8.45673 15.6445 8.44544 15.5593 8.45099C15.4741 8.45655 15.3908 8.47883 15.3141 8.51658C15.2375 8.55432 15.1691 8.60679 15.1128 8.67098L11.0204 13.3484L8.91176 11.2398C8.85133 11.1793 8.77958 11.1314 8.70062 11.0987C8.62166 11.066 8.53703 11.0492 8.45156 11.0492C8.3661 11.0492 8.28147 11.066 8.2025 11.0987C8.12354 11.1314 8.0518 11.1793 7.99136 11.2398C7.93093 11.3002 7.88299 11.372 7.85028 11.4509C7.81758 11.5299 7.80074 11.6145 7.80074 11.7C7.80074 11.7854 7.81758 11.8701 7.85028 11.949C7.88299 12.028 7.93093 12.0997 7.99136 12.1602L10.5914 14.7602C10.6544 14.8231 10.7296 14.8724 10.8124 14.905C10.8953 14.9376 10.9839 14.9529 11.0729 14.9499C11.1619 14.9468 11.2493 14.9255 11.3297 14.8873C11.4101 14.8491 11.4818 14.7948 11.5404 14.7277L16.0904 9.52768V9.52898Z"
        fill="#AF38D6" />
</svg>