<svg width="50" height="50" viewBox="0 0 50 50" fill="none" xmlns="http://www.w3.org/2000/svg">
<rect width="50" height="50" rx="5" fill="#AF38D6" fill-opacity="0.06"/>
<path d="M12.2852 15.4533C12.2852 14.6094 12.6204 13.8001 13.2171 13.2034C13.8138 12.6067 14.6231 12.2715 15.467 12.2715H31.3761C32.2199 12.2715 33.0293 12.6067 33.626 13.2034C34.2227 13.8001 34.5579 14.6094 34.5579 15.4533V31.3624C34.5579 32.2063 34.2227 33.0156 33.626 33.6123C33.0293 34.209 32.2199 34.5442 31.3761 34.5442H15.467C14.6231 34.5442 13.8138 34.209 13.2171 33.6123C12.6204 33.0156 12.2852 32.2063 12.2852 31.3624V15.4533ZM15.467 13.8624C15.045 13.8624 14.6404 14.03 14.342 14.3284C14.0437 14.6267 13.8761 15.0314 13.8761 15.4533V31.3624C13.8761 31.7843 14.0437 32.189 14.342 32.4874C14.6404 32.7857 15.045 32.9533 15.467 32.9533H31.3761C31.798 32.9533 32.2027 32.7857 32.501 32.4874C32.7994 32.189 32.967 31.7843 32.967 31.3624V15.4533C32.967 15.0314 32.7994 14.6267 32.501 14.3284C32.2027 14.03 31.798 13.8624 31.3761 13.8624H15.467ZM18.6488 37.726C18.0903 37.726 17.5416 37.579 17.0579 37.2997C16.5742 37.0205 16.1726 36.6188 15.8933 36.1351H31.3761C32.6419 36.1351 33.8558 35.6323 34.7509 34.7372C35.646 33.8422 36.1488 32.6282 36.1488 31.3624V15.8797C36.6325 16.1589 37.0342 16.5606 37.3134 17.0443C37.5927 17.5279 37.7397 18.0766 37.7397 18.6351V31.3624C37.7397 33.0501 37.0693 34.6688 35.8759 35.8622C34.6824 37.0556 33.0638 37.726 31.3761 37.726H18.6488ZM28.7924 20.751C28.8614 20.6725 28.9142 20.5811 28.9478 20.4822C28.9814 20.3832 28.9953 20.2786 28.9885 20.1743C28.9817 20.07 28.9544 19.9681 28.9082 19.8743C28.862 19.7805 28.7978 19.6968 28.7193 19.6279C28.6407 19.5589 28.5493 19.5061 28.4504 19.4725C28.3514 19.4388 28.2468 19.425 28.1425 19.4318C28.0382 19.4386 27.9363 19.4659 27.8425 19.5121C27.7488 19.5583 27.665 19.6225 27.5961 19.701L22.5879 25.4251L20.0074 22.8447C19.9335 22.7707 19.8457 22.712 19.749 22.672C19.6524 22.632 19.5488 22.6114 19.4443 22.6114C19.3397 22.6114 19.2361 22.632 19.1395 22.672C19.0428 22.712 18.955 22.7707 18.8811 22.8447C18.8071 22.9186 18.7484 23.0064 18.7084 23.1031C18.6684 23.1997 18.6478 23.3033 18.6478 23.4079C18.6478 23.5124 18.6684 23.616 18.7084 23.7126C18.7484 23.8093 18.8071 23.8971 18.8811 23.971L22.0629 27.1529C22.14 27.2298 22.2321 27.2902 22.3334 27.3301C22.4348 27.37 22.5433 27.3887 22.6522 27.385C22.7611 27.3813 22.8681 27.3552 22.9665 27.3084C23.0649 27.2617 23.1526 27.1952 23.2243 27.1131L28.7924 20.7494V20.751Z" fill="#AF38D6"/>
</svg>
