<svg width="558" height="563" viewBox="0 0 558 563" fill="none" xmlns="http://www.w3.org/2000/svg">
<path opacity="0.03" d="M0 0.0281195C24.5978 -0.0164347 49.1956 -0.0015833 73.8082 0.0281195C73.7488 114.325 73.734 228.621 73.8082 342.917C72.7536 404.922 116.275 463.466 175.17 482.016C275.299 516.01 383.939 426.219 366.026 321.219C390.728 321.219 415.429 321.19 440.131 321.234C453.44 438.947 359.401 554.208 240.645 561.961C163.347 569.654 86.018 534.174 40.9815 470.966C13.918 434.699 -0.445612 389.417 0.0297075 344.239C0 229.497 0.0742687 114.77 0 0.0281195ZM168.367 6.36967C175.23 32.6567 181.424 59.1219 188.108 85.4534C338.769 64.5723 483.608 187.794 474.206 342.219C501.967 343.229 529.684 344.967 557.461 345.665C569.225 150.963 386.628 -20.9124 192.95 2.93899C184.751 3.94889 176.358 4.038 168.367 6.36967ZM213.909 195.25C287.034 190.646 357.529 248.136 366.026 321.219C390.728 321.219 415.429 321.19 440.131 321.234C431.976 205.126 320.38 111.428 204.67 122.136C207.596 146.522 210.492 170.923 213.909 195.25ZM225.079 272.7C249.112 272.076 272.789 286.2 283.721 307.601C300.357 306.546 316.934 304.571 333.57 303.502C320.068 257.18 273.101 224.314 225.212 224.864C225.212 240.799 225.138 256.749 225.079 272.7Z" fill="white"/>
</svg>
