<svg width="23" height="20" viewBox="0 0 23 20" fill="none" xmlns="http://www.w3.org/2000/svg">
<path d="M20.5444 3.72677C18.3135 2.43913 15.4612 3.20432 14.1709 5.43527L10.9214 11.0647C9.98076 12.6901 11.1919 13.2587 12.5415 14.0675L15.6683 15.8723C16.7277 16.4831 18.08 16.1203 18.6908 15.0636L22.0313 9.2784C23.154 7.33375 22.4878 4.8495 20.5431 3.72677H20.5444Z" fill="#EA4335"/>
<path d="M16.8649 6.05545L13.7381 4.25064C12.0112 3.29283 11.0336 3.2295 10.3251 4.35487L5.71281 12.3433C4.42517 14.5729 5.19168 17.4239 7.42131 18.7089C9.36596 19.8316 11.8502 19.1654 12.9729 17.2207L17.6736 9.07798C18.2871 8.01858 17.9243 6.66497 16.8649 6.05413V6.05545Z" fill="#FBBC04"/>
<path d="M17.4665 1.95066L15.2699 0.681493C12.8397 -0.720928 9.73409 0.110234 8.33167 2.54039L4.14948 9.78338C3.53204 10.852 3.89881 12.2201 4.96745 12.8362L7.42795 14.2571C8.64303 14.959 10.1959 14.5421 10.8977 13.3283L15.6749 5.05367C16.6644 3.33989 18.8558 2.7528 20.5695 3.74228L17.4665 1.95066V1.95066Z" fill="#34A853"/>
<path d="M8.92715 4.61349L6.5524 3.24537C5.493 2.63585 4.14071 2.99734 3.52987 4.05279L0.681493 8.97511C-0.720928 11.3974 0.110234 14.4977 2.54039 15.8962L4.34784 16.9371L6.54052 18.1997L7.49174 18.7472C5.80303 17.6166 5.26608 15.3513 6.29909 13.5663L7.03658 12.2918L9.7372 7.62414C10.3467 6.57002 9.98391 5.22037 8.92583 4.61085L8.92715 4.61349Z" fill="#4285F4"/>
</svg>
