<svg width="40" height="40" viewBox="0 0 40 40" fill="none" xmlns="http://www.w3.org/2000/svg">
<g clip-path="url(#clip0_251_86)">
<path d="M20.0007 40.0013C31.0467 40.0013 40.0013 31.0467 40.0013 20.0007C40.0013 8.9546 31.0467 0 20.0007 0C8.9546 0 0 8.9546 0 20.0007C0 31.0467 8.9546 40.0013 20.0007 40.0013Z" fill="url(#paint0_linear_251_86)"/>
<path d="M14.8923 15.9106H10.5281V30.0114H14.8923V15.9106Z" fill="white"/>
<path d="M12.6891 14.065C14.1152 14.065 15.2696 12.8987 15.2696 11.462C15.2696 10.0253 14.1139 8.86035 12.6891 8.86035C11.2642 8.86035 10.1085 10.0253 10.1085 11.462C10.1085 12.8987 11.2642 14.065 12.6891 14.065Z" fill="white"/>
<path d="M21.8701 22.61C21.8701 20.6271 22.7831 19.4463 24.5298 19.4463C26.1341 19.4463 26.9059 20.5796 26.9059 22.61V30.0113H31.2504V21.0836C31.2504 17.3064 29.1091 15.4805 26.1196 15.4805C23.1301 15.4805 21.8701 17.8104 21.8701 17.8104V15.9106H17.684V30.0113H21.8701V22.61Z" fill="white"/>
<path style="mix-blend-mode:lighten" d="M31.5815 5.45148C29.5643 1.51203 20.9941 -1.86143 12.821 1.32865C4.64923 4.51873 0.0857525 12.1324 1.98819 17.0059C3.89063 21.8795 12.0584 23.2449 20.2302 20.0535C28.402 16.8635 33.9668 10.1086 31.5815 5.45148V5.45148Z" fill="url(#paint1_radial_251_86)"/>
<path style="mix-blend-mode:multiply" d="M37.9894 11.2523C38.397 12.7497 38.6174 14.3157 38.6174 15.9292C38.6174 26.5483 29.2345 35.1581 17.6589 35.1581C11.4173 35.1581 5.81681 32.6514 1.97764 28.6803C5.20993 35.3784 12.065 39.9999 20.0007 39.9999C31.0459 39.9999 40.0013 31.0458 40.0013 19.9993C40.0013 16.862 39.277 13.8949 37.9894 11.251V11.2523Z" fill="url(#paint2_radial_251_86)"/>
</g>
<defs>
<linearGradient id="paint0_linear_251_86" x1="20.0007" y1="0.837758" x2="20.0007" y2="40.2269" gradientUnits="userSpaceOnUse">
<stop stop-color="#0E77B3"/>
<stop offset="0.49" stop-color="#1082BE"/>
<stop offset="1" stop-color="#1493CE"/>
</linearGradient>
<radialGradient id="paint1_radial_251_86" cx="0" cy="0" r="1" gradientUnits="userSpaceOnUse" gradientTransform="translate(28.7268 22.3401) rotate(-4.28) scale(28.1659 23.3959)">
<stop stop-color="white"/>
<stop offset="0.04" stop-color="white" stop-opacity="0.9"/>
<stop offset="0.15" stop-color="white" stop-opacity="0.69"/>
<stop offset="0.26" stop-color="white" stop-opacity="0.51"/>
<stop offset="0.37" stop-color="white" stop-opacity="0.35"/>
<stop offset="0.49" stop-color="white" stop-opacity="0.22"/>
<stop offset="0.6" stop-color="white" stop-opacity="0.13"/>
<stop offset="0.72" stop-color="white" stop-opacity="0.06"/>
<stop offset="0.85" stop-color="white" stop-opacity="0.01"/>
<stop offset="1" stop-color="white" stop-opacity="0"/>
</radialGradient>
<radialGradient id="paint2_radial_251_86" cx="0" cy="0" r="1" gradientUnits="userSpaceOnUse" gradientTransform="translate(22.3599 27.8078) rotate(-22.49) scale(28.0656 17.4007)">
<stop/>
<stop offset="1" stop-color="white" stop-opacity="0"/>
</radialGradient>
<clipPath id="clip0_251_86">
<rect width="40" height="40" fill="white"/>
</clipPath>
</defs>
</svg>
