<svg width="40" height="40" viewBox="0 0 40 40" fill="none" xmlns="http://www.w3.org/2000/svg">
<g clip-path="url(#clip0_250_50)">
<path d="M20.0007 40.0013C31.0467 40.0013 40.0013 31.0467 40.0013 20.0007C40.0013 8.9546 31.0467 0 20.0007 0C8.9546 0 0 8.9546 0 20.0007C0 31.0467 8.9546 40.0013 20.0007 40.0013Z" fill="url(#paint0_radial_250_50)"/>
<path d="M20.0205 10.9396C23.1076 10.9396 23.4731 10.9515 24.6934 11.0069C25.8201 11.0584 26.4336 11.247 26.8399 11.4053C27.3795 11.6151 27.7648 11.8658 28.1698 12.2708C28.5748 12.6758 28.8255 13.0611 29.0353 13.6007C29.1936 14.0083 29.3822 14.6205 29.4337 15.7472C29.4891 16.9662 29.501 17.3317 29.501 20.4202C29.501 23.5086 29.4891 23.8728 29.4337 25.0931C29.3822 26.2211 29.1936 26.8333 29.0353 27.2396C28.8255 27.7792 28.5748 28.1645 28.1698 28.5695C27.7648 28.9745 27.3795 29.2252 26.8399 29.435C26.4323 29.5933 25.8201 29.7819 24.6934 29.8334C23.4744 29.8888 23.1089 29.9007 20.0205 29.9007C16.932 29.9007 16.5665 29.8888 15.3475 29.8334C14.2208 29.7819 13.6073 29.5933 13.201 29.435C12.6614 29.2252 12.2761 28.9745 11.8711 28.5695C11.4661 28.1645 11.2154 27.7792 11.0056 27.2396C10.8473 26.832 10.6587 26.2198 10.6072 25.0931C10.5518 23.8741 10.5399 23.5086 10.5399 20.4202C10.5399 17.3317 10.5518 16.9675 10.6072 15.7472C10.6587 14.6205 10.8473 14.007 11.0056 13.6007C11.2154 13.0611 11.4661 12.6758 11.8711 12.2708C12.2761 11.8658 12.6614 11.6151 13.201 11.4053C13.6086 11.247 14.2208 11.0584 15.3475 11.0069C16.5665 10.9515 16.932 10.9396 20.0205 10.9396M20.0205 8.85645C16.8805 8.85645 16.486 8.86964 15.2525 8.92637C14.0216 8.9831 13.1812 9.17836 12.4463 9.46333C11.6864 9.75885 11.0413 10.1546 10.3988 10.7971C9.75626 11.4396 9.36047 12.0848 9.06495 12.8447C8.77866 13.5809 8.5834 14.4213 8.52799 15.6522C8.47126 16.8857 8.45807 17.2789 8.45807 20.4202C8.45807 23.5614 8.47126 23.9546 8.52799 25.1881C8.58472 26.419 8.77998 27.2594 9.06495 27.9943C9.36047 28.7542 9.75626 29.3993 10.3988 30.0418C11.0413 30.6843 11.6864 31.0801 12.4463 31.3757C13.1812 31.6619 14.0229 31.8572 15.2525 31.9126C16.486 31.9693 16.8792 31.9825 20.0205 31.9825C23.1617 31.9825 23.5549 31.9693 24.7884 31.9126C26.0193 31.8559 26.8597 31.6606 27.5959 31.3757C28.3558 31.0801 29.001 30.6843 29.6435 30.0418C30.286 29.3993 30.6818 28.7542 30.9773 27.9943C31.2636 27.2581 31.4588 26.4177 31.5142 25.1881C31.571 23.9546 31.5842 23.5614 31.5842 20.4202C31.5842 17.2789 31.571 16.8857 31.5142 15.6522C31.4575 14.4213 31.2623 13.5809 30.9773 12.8447C30.6818 12.0848 30.286 11.4396 29.6435 10.7971C29.001 10.1546 28.3558 9.75885 27.5959 9.46333C26.8597 9.17704 26.0193 8.98178 24.7884 8.92637C23.5549 8.86964 23.1617 8.85645 20.0205 8.85645Z" fill="white"/>
<path d="M20.0205 14.4805C16.7407 14.4805 14.0823 17.1389 14.0823 20.4187C14.0823 23.6985 16.7407 26.3568 20.0205 26.3568C23.3002 26.3568 25.9586 23.6985 25.9586 20.4187C25.9586 17.1389 23.3002 14.4805 20.0205 14.4805M20.0205 24.2723C17.8911 24.2723 16.1654 22.5467 16.1654 20.4173C16.1654 18.288 17.8911 16.5623 20.0205 16.5623C22.1498 16.5623 23.8755 18.288 23.8755 20.4173C23.8755 22.5467 22.1498 24.2723 20.0205 24.2723Z" fill="white"/>
<path d="M27.5814 14.2473C27.5814 15.0138 26.96 15.6352 26.1935 15.6352C25.427 15.6352 24.8056 15.0138 24.8056 14.2473C24.8056 13.4808 25.427 12.8594 26.1935 12.8594C26.96 12.8594 27.5814 13.4808 27.5814 14.2473Z" fill="white"/>
<path style="mix-blend-mode:lighten" d="M31.5815 5.4212C29.5643 1.48176 20.9941 -1.8917 12.821 1.29838C4.64923 4.48846 0.0857526 12.1008 1.98819 16.9757C3.89063 21.8505 12.0584 23.2147 20.2302 20.0233C28.402 16.8332 33.9668 10.0784 31.5815 5.4212V5.4212Z" fill="url(#paint1_radial_250_50)"/>
<path style="mix-blend-mode:multiply" d="M37.9894 11.222C38.397 12.7194 38.6174 14.2854 38.6174 15.899C38.6174 26.518 29.2345 35.1278 17.6589 35.1278C11.4173 35.1278 5.81681 32.6211 1.97763 28.65C5.20993 35.3481 12.065 39.9697 20.0007 39.9697C31.0459 39.9697 40.0013 31.0156 40.0013 19.969C40.0013 16.8317 39.277 13.8646 37.9894 11.2207V11.222Z" fill="url(#paint2_radial_250_50)"/>
</g>
<defs>
<radialGradient id="paint0_radial_250_50" cx="0" cy="0" r="1" gradientUnits="userSpaceOnUse" gradientTransform="translate(6.73637 34.856) scale(42.1544)">
<stop stop-color="#E0B44C"/>
<stop offset="0.06" stop-color="#E0A84C"/>
<stop offset="0.16" stop-color="#E18E4D"/>
<stop offset="0.23" stop-color="#DF8254"/>
<stop offset="0.34" stop-color="#DB6A64"/>
<stop offset="0.41" stop-color="#D75E6B"/>
<stop offset="0.55" stop-color="#CF407E"/>
<stop offset="0.57" stop-color="#CE3B82"/>
<stop offset="0.61" stop-color="#CD3685"/>
<stop offset="0.73" stop-color="#A9358C"/>
<stop offset="0.86" stop-color="#863594"/>
<stop offset="0.91" stop-color="#833594"/>
<stop offset="0.95" stop-color="#7B3797"/>
<stop offset="0.97" stop-color="#6D3A9C"/>
<stop offset="0.99" stop-color="#5A3FA3"/>
<stop offset="1" stop-color="#5441A6"/>
</radialGradient>
<radialGradient id="paint1_radial_250_50" cx="0" cy="0" r="1" gradientUnits="userSpaceOnUse" gradientTransform="translate(27.5013 22.3754) rotate(-4.28) scale(28.1659 23.3959)">
<stop stop-color="white"/>
<stop offset="0.07" stop-color="white" stop-opacity="0.82"/>
<stop offset="0.17" stop-color="white" stop-opacity="0.63"/>
<stop offset="0.26" stop-color="white" stop-opacity="0.46"/>
<stop offset="0.36" stop-color="white" stop-opacity="0.32"/>
<stop offset="0.47" stop-color="white" stop-opacity="0.2"/>
<stop offset="0.58" stop-color="white" stop-opacity="0.11"/>
<stop offset="0.69" stop-color="white" stop-opacity="0.05"/>
<stop offset="0.83" stop-color="white" stop-opacity="0.01"/>
<stop offset="1" stop-color="white" stop-opacity="0"/>
</radialGradient>
<radialGradient id="paint2_radial_250_50" cx="0" cy="0" r="1" gradientUnits="userSpaceOnUse" gradientTransform="translate(22.3606 27.7772) rotate(-22.49) scale(28.0656 17.4007)">
<stop/>
<stop offset="1" stop-color="white" stop-opacity="0"/>
</radialGradient>
<clipPath id="clip0_250_50">
<rect width="40" height="40" fill="white"/>
</clipPath>
</defs>
</svg>
