<svg width="40" height="40" viewBox="0 0 40 40" fill="none" xmlns="http://www.w3.org/2000/svg">
<g clip-path="url(#clip0_251_101)">
<path d="M34.1439 34.1431C41.9546 26.3323 41.9546 13.6686 34.1439 5.85789C26.3331 -1.95286 13.6694 -1.95286 5.85869 5.85789C-1.95205 13.6686 -1.95205 26.3323 5.85869 34.1431C13.6694 41.9538 26.3331 41.9538 34.1439 34.1431Z" fill="url(#paint0_linear_251_101)"/>
<path fill-rule="evenodd" clip-rule="evenodd" d="M33.3507 14.647C33.3507 12.4411 31.5644 10.6548 29.3598 10.6548H10.6402C8.43564 10.6548 6.6493 12.4411 6.6493 14.647V25.3518C6.6493 27.5564 8.43564 29.3441 10.6402 29.3441H29.3598C31.5644 29.3441 33.3507 27.5564 33.3507 25.3518V14.647ZM17.3304 24.5167V14.4623L24.956 19.4888L17.3304 24.5167V24.5167Z" fill="white"/>
<path style="mix-blend-mode:lighten" d="M31.5815 5.45148C29.5643 1.51203 20.9941 -1.86143 12.821 1.32865C4.64923 4.51873 0.0857563 12.1324 1.98819 17.0059C3.89063 21.8795 12.0584 23.2449 20.2302 20.0535C28.402 16.8635 33.9668 10.1086 31.5815 5.45148V5.45148Z" fill="url(#paint1_radial_251_101)"/>
<path style="mix-blend-mode:multiply" d="M37.9894 11.2523C38.397 12.7497 38.6174 14.3157 38.6174 15.9292C38.6174 26.5483 29.2345 35.1581 17.6589 35.1581C11.4173 35.1581 5.81681 32.6514 1.97764 28.6803C5.20993 35.3784 12.065 39.9999 20.0007 39.9999C31.0459 39.9999 40.0013 31.0458 40.0013 19.9993C40.0013 16.862 39.277 13.8949 37.9894 11.251V11.2523Z" fill="url(#paint2_radial_251_101)"/>
</g>
<defs>
<linearGradient id="paint0_linear_251_101" x1="20.0017" y1="-0.701597" x2="20.0017" y2="37.5305" gradientUnits="userSpaceOnUse">
<stop stop-color="#E32A2D"/>
<stop offset="0.31" stop-color="#D72329"/>
<stop offset="0.87" stop-color="#B9131E"/>
<stop offset="1" stop-color="#B10F1C"/>
</linearGradient>
<radialGradient id="paint1_radial_251_101" cx="0" cy="0" r="1" gradientUnits="userSpaceOnUse" gradientTransform="translate(27.3957 22.4117) rotate(-4.28) scale(28.1659 23.3959)">
<stop stop-color="white"/>
<stop offset="1" stop-opacity="0"/>
</radialGradient>
<radialGradient id="paint2_radial_251_101" cx="0" cy="0" r="1" gradientUnits="userSpaceOnUse" gradientTransform="translate(22.3599 27.8078) rotate(-22.49) scale(28.0656 17.4007)">
<stop/>
<stop offset="1" stop-color="white" stop-opacity="0"/>
</radialGradient>
<clipPath id="clip0_251_101">
<rect width="40" height="40" fill="white"/>
</clipPath>
</defs>
</svg>
