<svg width="21" height="21" viewBox="0 0 21 21" fill="none" xmlns="http://www.w3.org/2000/svg">
<path d="M6.30583 21C5.72779 21 5.23313 20.7945 4.82186 20.3836C4.40987 19.972 4.20388 19.4775 4.20388 18.9C4.20388 18.3225 4.40987 17.8279 4.82186 17.4163C5.23313 17.0054 5.72779 16.8 6.30583 16.8C6.88386 16.8 7.37852 17.0054 7.7898 17.4163C8.20178 17.8279 8.40777 18.3225 8.40777 18.9C8.40777 19.4775 8.20178 19.972 7.7898 20.3836C7.37852 20.7945 6.88386 21 6.30583 21ZM16.8155 21C16.2375 21 15.7428 20.7945 15.3316 20.3836C14.9196 19.972 14.7136 19.4775 14.7136 18.9C14.7136 18.3225 14.9196 17.8279 15.3316 17.4163C15.7428 17.0054 16.2375 16.8 16.8155 16.8C17.3936 16.8 17.8886 17.0054 18.3006 17.4163C18.7118 17.8279 18.9175 18.3225 18.9175 18.9C18.9175 19.4775 18.7118 19.972 18.3006 20.3836C17.8886 20.7945 17.3936 21 16.8155 21ZM4.41408 2.1H19.9159C20.3188 2.1 20.6253 2.2792 20.8355 2.6376C21.0457 2.9967 21.0545 3.36 20.8618 3.7275L17.1308 10.4475C16.9381 10.7975 16.6796 11.0687 16.3552 11.2612C16.0315 11.4537 15.677 11.55 15.2916 11.55H7.46189L6.30583 13.65H18.9175V15.75H6.30583C5.5176 15.75 4.92205 15.4042 4.51918 14.7126C4.1163 14.0217 4.09879 13.335 4.46663 12.6525L5.88544 10.08L2.10194 2.1H0V0H3.41566L4.41408 2.1Z" fill="#CCCCCC"/>
</svg>
