<svg width="83" height="83" viewBox="0 0 83 83" fill="none" xmlns="http://www.w3.org/2000/svg">
<circle cx="41.5" cy="41.5" r="30.3664" transform="rotate(116.936 41.5 41.5)" stroke="#AF38D6"/>
<path d="M39 62V53.48C38.06 53.82 37.06 54 36 54C31 54 27 50 27 45C27 42.46 28 40.18 29.72 38.54C29.26 37.46 29 36.26 29 35C29 30 33 26 38 26C41.12 26 43.88 27.6 45.5 30H46C47.4445 30 48.8749 30.2845 50.2095 30.8373C51.5441 31.3901 52.7567 32.2004 53.7782 33.2218C54.7996 34.2433 55.6099 35.4559 56.1627 36.7905C56.7155 38.1251 57 39.5555 57 41C57 42.4445 56.7155 43.8749 56.1627 45.2095C55.6099 46.5441 54.7996 47.7567 53.7782 48.7782C52.7567 49.7996 51.5441 50.6099 50.2095 51.1627C48.8749 51.7155 47.4445 52 46 52C45 52 44 51.86 43 51.58V62H39Z" fill="#EBEBEB"/>
</svg>
