<svg width="101" height="26" viewBox="0 0 101 26" fill="none" xmlns="http://www.w3.org/2000/svg">
    <path
        d="M0 0.00125157C1.09465 -0.000731493 2.18931 -7.04717e-05 3.28462 0.00125157C3.28197 5.08847 3.28131 10.1757 3.28462 15.263C3.23769 18.0226 5.17448 20.6285 7.79543 21.4541C12.2514 22.9672 17.0861 18.9706 16.2889 14.2971C17.3882 14.2971 18.4874 14.2958 19.5868 14.2979C20.179 19.5371 15.9941 24.6673 10.7092 25.0123C7.26925 25.3547 3.82798 23.7755 1.82376 20.9622C0.619378 19.348 -0.0198306 17.3325 0.00132205 15.3217C0 10.2147 0.00330511 5.1083 0 0.00125157ZM45.6197 15.3264C45.596 17.7338 46.5326 20.1168 48.1925 21.8612C52.5757 26.9399 61.2556 25.6886 64.1912 19.7063C68.5777 10.9577 58.86 1.82501 50.4089 6.7873C50.4128 8.19925 50.4089 9.61117 50.4108 11.0232C55.6514 4.98403 65.0049 11.6081 61.0684 18.5654C58.9156 22.3722 53.0906 22.8666 50.3982 19.3877C49.7306 18.605 49.2607 17.6552 49.0511 16.6478C48.6909 11.1242 49.03 5.54458 48.9123 0.00257361C47.8136 -0.00139252 46.7157 -7.04715e-05 45.6178 0.00191259C45.6224 5.11029 45.6178 10.218 45.6197 15.3264ZM68.4402 14.8669C68.3853 16.2221 68.5863 17.5924 69.0873 18.8563C71.2344 24.6276 78.9967 26.9808 83.9266 23.2447C93.9375 15.8136 84.0667 0.666239 73.2188 6.78532C73.2221 8.19792 73.2194 9.61053 73.22 11.0238C79.232 4.34218 88.9933 13.1549 82.9192 19.7902C80.2738 22.6552 75.2401 22.3074 72.9986 19.122C72.2504 18.1496 71.8107 16.9486 71.7407 15.725C71.738 10.4837 71.74 5.24183 71.74 0.00059055C70.6394 0.00059055 69.5395 -0.00139252 68.4395 0.00191259C68.4415 4.95693 68.4395 9.91197 68.4395 14.8669H68.4402ZM91.225 15.3225C91.2005 16.7403 91.5171 18.1615 92.1213 19.4439C93.7162 22.7616 97.2549 25.1881 100.992 25.0189C100.971 23.9435 101.029 22.862 100.98 21.7845C97.8351 21.856 94.9208 19.3024 94.5389 16.1877C94.3745 10.801 94.5297 5.39453 94.4801 0.00125157C93.3939 0.00125157 92.3077 -0.00139252 91.2223 0.00191259C91.2217 5.1083 91.2223 10.2153 91.225 15.3225ZM27.0073 17.3101C26.9941 18.6837 27.3293 20.0698 28.0478 21.2471C29.5034 23.7035 32.2883 25.2714 35.1597 25.0288C38.5079 24.8848 41.5313 22.1818 42.1362 18.8992C42.4865 14.4314 42.1719 9.91463 42.2763 5.43089C41.179 5.42956 40.0817 5.42758 38.9844 5.43221C38.9897 9.54644 38.9943 13.6606 38.9844 17.7755C38.8449 20.9213 34.8979 22.8627 32.3108 21.0746C31.4005 20.4725 30.6688 19.5569 30.4057 18.4854C30.0745 14.163 30.3793 9.77709 30.2814 5.43419C29.1894 5.42494 28.0981 5.43023 27.0067 5.43154C27.0094 9.39108 27.0067 13.3506 27.0067 17.3101H27.0073ZM7.49268 0.283507C7.79807 1.45352 8.07372 2.63146 8.37118 3.80344C15.0759 2.87405 21.5216 8.35855 21.1032 15.2318C22.3386 15.2768 23.5721 15.3541 24.8081 15.3852C25.3317 6.71922 17.2057 -0.93079 8.58667 0.130812C8.22179 0.175761 7.84831 0.179727 7.49268 0.283507ZM9.51935 8.69038C12.7736 8.48546 15.9108 11.0443 16.2889 14.2971C17.3882 14.2971 18.4874 14.2958 19.5868 14.2979C19.2238 9.12996 14.2575 4.95957 9.10822 5.43617C9.23848 6.52157 9.3673 7.60762 9.51935 8.69038ZM10.0165 12.1376C11.086 12.1098 12.1397 12.7385 12.6262 13.691C13.3665 13.6441 14.1042 13.5561 14.8445 13.5086C14.2437 11.4468 12.1535 9.98395 10.0224 10.0085C10.0224 10.7178 10.0191 11.4277 10.0165 12.1376Z"
        fill="#F5F5F7" />
</svg>