<svg width="83" height="83" viewBox="0 0 83 83" fill="none" xmlns="http://www.w3.org/2000/svg">
<circle cx="41.5" cy="41.5" r="30.3664" transform="rotate(116.936 41.5 41.5)" stroke="#AF38D6"/>
<path d="M52.667 35.9998L50.5837 31.4165L46.0003 29.3332L50.5837 27.2498L52.667 22.6665L54.7503 27.2498L59.3337 29.3332L54.7503 31.4165L52.667 35.9998ZM52.667 59.3332L50.5837 54.7498L46.0003 52.6665L50.5837 50.5832L52.667 45.9998L54.7503 50.5832L59.3337 52.6665L54.7503 54.7498L52.667 59.3332ZM36.0003 54.3332L31.8337 45.1665L22.667 40.9998L31.8337 36.8332L36.0003 27.6665L40.167 36.8332L49.3337 40.9998L40.167 45.1665L36.0003 54.3332Z" fill="#EBEBEB"/>
</svg>
