<svg width="83" height="83" viewBox="0 0 83 83" fill="none" xmlns="http://www.w3.org/2000/svg">
<circle cx="41.5" cy="41.5" r="30.3664" transform="rotate(116.936 41.5 41.5)" stroke="#AF38D6"/>
<path d="M51 58.5289C51 59.888 49.9312 61 48.625 61H34.375C33.0688 61 32 59.888 32 58.5289C32 57.1698 33.0688 56.0579 34.375 56.0579H48.625C49.9312 56.0579 51 57.1698 51 58.5289ZM39.125 31.3225V48.6447C39.125 50.0038 40.1938 51.1157 41.5 51.1157C42.8062 51.1157 43.875 50.0038 43.875 48.6447V31.3225H48.1262C49.195 31.3225 49.7175 29.9881 48.9575 29.2221L42.3313 22.3525C42.1044 22.1263 41.8023 22 41.4881 22C41.1739 22 40.8718 22.1263 40.645 22.3525L34.0425 29.2221C33.2825 29.9881 33.805 31.3225 34.8738 31.3225H39.125Z" fill="#EBEBEB"/>
</svg>
