<svg width="50" height="50" viewBox="0 0 64 64" fill="none" xmlns="http://www.w3.org/2000/svg">
    <g filter="url(#filter0_d_3225_3684)">
        <path
            d="M30 56C44.3594 56 56 44.3594 56 30C56 15.6406 44.3594 4 30 4C15.6406 4 4 15.6406 4 30C4 44.3594 15.6406 56 30 56Z"
            fill="url(#paint0_linear_3225_3684)" />
    </g>
    <path opacity="0.5"
        d="M30.0014 31.039C40.3586 31.039 48.7547 25.3018 48.7547 18.2246C48.7547 11.1474 40.3586 5.41016 30.0014 5.41016C19.6442 5.41016 11.248 11.1474 11.248 18.2246C11.248 25.3018 19.6442 31.039 30.0014 31.039Z"
        fill="url(#paint1_linear_3225_3684)" />
    <path style="mix-blend-mode:multiply" opacity="0.25"
        d="M6.14844 36.2012C8.80383 46.9084 18.4717 54.8403 30.0013 54.8403C41.5308 54.8403 51.1987 46.9027 53.8541 36.2012H6.14844Z"
        fill="url(#paint2_linear_3225_3684)" />
    <path opacity="0.3"
        d="M34.8941 55.5319C46.1267 53.3905 54.7896 44.0309 55.8803 32.4614L37.1669 13.748L30.497 17.7683L29.2464 20.5379L26.2084 24.9178L22.291 29.8574L26.4483 34.0147L25.4775 46.1096L34.8998 55.5319H34.8941Z"
        fill="#211915" />
    <path
        d="M32.5414 23.5398C32.5414 19.7708 32.5585 19.4625 37.1669 19.4625V13.752H30.794C27.9673 13.752 25.4775 16.4473 25.4775 19.2569V23.5455H22.6565L22.291 29.867H25.4775V46.1192L32.5471 46.2562V29.867H36.8985L37.7151 23.5455H32.5471L32.5414 23.5398Z"
        fill="white" />
    <defs>
        <filter id="filter0_d_3225_3684" x="0" y="0" width="64" height="64" filterUnits="userSpaceOnUse"
            color-interpolation-filters="sRGB">
            <feFlood flood-opacity="0" result="BackgroundImageFix" />
            <feColorMatrix in="SourceAlpha" type="matrix" values="0 0 0 0 0 0 0 0 0 0 0 0 0 0 0 0 0 0 127 0"
                result="hardAlpha" />
            <feOffset dx="2" dy="2" />
            <feGaussianBlur stdDeviation="3" />
            <feColorMatrix type="matrix" values="0 0 0 0 0 0 0 0 0 0 0 0 0 0 0 0 0 0 0.35 0" />
            <feBlend mode="normal" in2="BackgroundImageFix" result="effect1_dropShadow_3225_3684" />
            <feBlend mode="normal" in="SourceGraphic" in2="effect1_dropShadow_3225_3684" result="shape" />
        </filter>
        <linearGradient id="paint0_linear_3225_3684" x1="11.7092" y1="11.7092" x2="49.6785" y2="49.6785"
            gradientUnits="userSpaceOnUse">
            <stop stop-color="#0968B8" />
            <stop offset="1" stop-color="#08259F" />
        </linearGradient>
        <linearGradient id="paint1_linear_3225_3684" x1="30.0014" y1="3.59421" x2="30.0014" y2="30.5479"
            gradientUnits="userSpaceOnUse">
            <stop stop-color="white" />
            <stop offset="1" stop-color="white" stop-opacity="0" />
        </linearGradient>
        <linearGradient id="paint2_linear_3225_3684" x1="30.0013" y1="55.6798" x2="30.0013" y2="35.9613"
            gradientUnits="userSpaceOnUse">
            <stop offset="0.1" />
            <stop offset="1" stop-opacity="0" />
        </linearGradient>
    </defs>
</svg>