<svg width="50" height="50" viewBox="0 0 64 64" fill="none" xmlns="http://www.w3.org/2000/svg">
    <g filter="url(#filter0_d_3225_3654)">
        <path
            d="M30 56C44.3594 56 56 44.3594 56 30C56 15.6406 44.3594 4 30 4C15.6406 4 4 15.6406 4 30C4 44.3594 15.6406 56 30 56Z"
            fill="url(#paint0_radial_3225_3654)" />
    </g>
    <path opacity="0.5"
        d="M29.7612 31.0351C40.1183 31.0351 48.5145 25.2979 48.5145 18.2207C48.5145 11.1435 40.1183 5.40625 29.7612 5.40625C19.404 5.40625 11.0078 11.1435 11.0078 18.2207C11.0078 25.2979 19.404 31.0351 29.7612 31.0351Z"
        fill="url(#paint1_linear_3225_3654)" />
    <path style="mix-blend-mode:multiply" opacity="0.25"
        d="M5.92969 36.1953C8.58508 46.9025 18.253 54.8345 29.7825 54.8345C41.3121 54.8345 50.98 46.8968 53.6354 36.1953H5.92969Z"
        fill="url(#paint2_linear_3225_3654)" />
    <path opacity="0.3"
        d="M55.9294 31.9057L41.8073 17.7836L39.8885 17.0755L27.2854 16.8984L20.4899 17.5266L17.6289 20.5646L18.4626 42.4245L31.9794 55.9413C44.7881 54.9762 55.0043 44.7372 55.9237 31.9114L55.9294 31.9057Z"
        fill="#211915" />
    <path
        d="M35.5961 15.209H24.6434C19.7837 15.209 15.832 19.1607 15.832 24.0203V36.1666C15.832 41.0263 19.7837 44.9779 24.6434 44.9779H35.5961C40.4558 44.9779 44.4075 41.0263 44.4075 36.1666V24.0203C44.4075 19.1607 40.4558 15.209 35.5961 15.209ZM42.0262 36.1666C42.0262 39.7128 39.1424 42.5966 35.5961 42.5966H24.6434C21.0971 42.5966 18.2133 39.7128 18.2133 36.1666V24.0203C18.2133 20.4741 21.0971 17.5903 24.6434 17.5903H35.5961C39.1424 17.5903 42.0262 20.4741 42.0262 24.0203V36.1666Z"
        fill="white" />
    <path
        d="M30.0999 22.2168C25.7656 22.2168 22.2422 25.7402 22.2422 30.0745C22.2422 34.4088 25.7656 37.9322 30.0999 37.9322C34.4342 37.9322 37.9575 34.4088 37.9575 30.0745C37.9575 25.7402 34.4342 22.2168 30.0999 22.2168ZM30.0999 35.5509C27.079 35.5509 24.6235 33.0953 24.6235 30.0745C24.6235 27.0536 27.079 24.5981 30.0999 24.5981C33.1207 24.5981 35.5763 27.0536 35.5763 30.0745C35.5763 33.0953 33.1207 35.5509 30.0999 35.5509Z"
        fill="white" />
    <path
        d="M37.9246 20.3359C36.7426 20.3359 35.7832 21.2953 35.7832 22.4774C35.7832 23.6595 36.7426 24.6188 37.9246 24.6188C39.1067 24.6188 40.0661 23.6595 40.0661 22.4774C40.0661 21.2953 39.1067 20.3359 37.9246 20.3359Z"
        fill="white" />
    <defs>
        <filter id="filter0_d_3225_3654" x="0" y="0" width="64" height="64" filterUnits="userSpaceOnUse"
            color-interpolation-filters="sRGB">
            <feFlood flood-opacity="0" result="BackgroundImageFix" />
            <feColorMatrix in="SourceAlpha" type="matrix" values="0 0 0 0 0 0 0 0 0 0 0 0 0 0 0 0 0 0 127 0"
                result="hardAlpha" />
            <feOffset dx="2" dy="2" />
            <feGaussianBlur stdDeviation="3" />
            <feColorMatrix type="matrix" values="0 0 0 0 0 0 0 0 0 0 0 0 0 0 0 0 0 0 0.35 0" />
            <feBlend mode="normal" in2="BackgroundImageFix" result="effect1_dropShadow_3225_3654" />
            <feBlend mode="normal" in="SourceGraphic" in2="effect1_dropShadow_3225_3654" result="shape" />
        </filter>
        <radialGradient id="paint0_radial_3225_3654" cx="0" cy="0" r="1" gradientUnits="userSpaceOnUse"
            gradientTransform="translate(8.95673 51.6143) scale(59.5836 59.5836)">
            <stop stop-color="#FEBB0C" />
            <stop offset="0.51" stop-color="#E20A1B" />
            <stop offset="1" stop-color="#7009C8" />
        </radialGradient>
        <linearGradient id="paint1_linear_3225_3654" x1="29.7612" y1="3.5903" x2="29.7612" y2="30.544"
            gradientUnits="userSpaceOnUse">
            <stop stop-color="white" />
            <stop offset="1" stop-color="white" stop-opacity="0" />
        </linearGradient>
        <linearGradient id="paint2_linear_3225_3654" x1="29.7768" y1="55.6796" x2="29.7768" y2="35.9612"
            gradientUnits="userSpaceOnUse">
            <stop offset="0.1" />
            <stop offset="1" stop-opacity="0" />
        </linearGradient>
    </defs>
</svg>