<svg width="50" height="50" viewBox="0 0 64 64" fill="none" xmlns="http://www.w3.org/2000/svg">
    <g filter="url(#filter0_d_3225_3673)">
        <path
            d="M30 56C44.3594 56 56 44.3594 56 30C56 15.6406 44.3594 4 30 4C15.6406 4 4 15.6406 4 30C4 44.3594 15.6406 56 30 56Z"
            fill="url(#paint0_linear_3225_3673)" />
    </g>
    <path opacity="0.5"
        d="M11.3906 18.3729C11.3906 25.4482 19.7851 31.1873 30.144 31.1873C40.5029 31.1873 48.8973 25.4482 48.8973 18.3729C48.8973 11.2975 40.5029 5.55273 30.144 5.55273C19.7851 5.55273 11.3906 11.2918 11.3906 18.3729Z"
        fill="url(#paint1_linear_3225_3673)" />
    <path style="mix-blend-mode:multiply" opacity="0.25"
        d="M6.29688 36.3457C8.95227 47.0529 18.6202 54.9906 30.1497 54.9906C41.6793 54.9906 51.3472 47.0529 54.0026 36.3457H6.29688Z"
        fill="url(#paint2_linear_3225_3673)" />
    <path opacity="0.3"
        d="M33.0552 55.8136C43.8538 54.5515 52.6309 46.6767 55.2177 36.3407C49.5872 30.7101 42.8088 23.9317 42.8088 23.9317L34.5114 24.2801L32.3414 22.1101L29.8744 23.5149L22.5022 16.1426L17.6653 19.2948L20.8804 22.5098L17.3398 40.1039L33.0552 55.8193V55.8136Z"
        fill="#211915" />
    <path d="M22.8485 22.1133H17.3379V40.1014H22.8485V22.1133Z" fill="white" />
    <path
        d="M20.1135 14.2793C18.1491 14.2793 16.8242 15.6041 16.8242 17.2773C16.8242 18.9505 18.1434 20.2411 20.1135 20.2411C22.0836 20.2411 23.3685 18.9162 23.3685 17.2773C23.3685 15.6384 22.0493 14.2793 20.1135 14.2793Z"
        fill="white" />
    <path
        d="M37.812 21.9199C35.3965 21.9199 33.4606 22.9821 32.3642 24.5011V22.1141H26.8535V40.1022H32.3642V30.3372C32.3642 27.8874 33.7176 26.534 35.8133 26.534C37.9091 26.534 39.2625 27.8874 39.2625 30.3372V40.1022H44.7446V29.5949C44.7446 24.758 41.975 21.9199 37.812 21.9199Z"
        fill="white" />
    <defs>
        <filter id="filter0_d_3225_3673" x="0" y="0" width="64" height="64" filterUnits="userSpaceOnUse"
            color-interpolation-filters="sRGB">
            <feFlood flood-opacity="0" result="BackgroundImageFix" />
            <feColorMatrix in="SourceAlpha" type="matrix" values="0 0 0 0 0 0 0 0 0 0 0 0 0 0 0 0 0 0 127 0"
                result="hardAlpha" />
            <feOffset dx="2" dy="2" />
            <feGaussianBlur stdDeviation="3" />
            <feColorMatrix type="matrix" values="0 0 0 0 0 0 0 0 0 0 0 0 0 0 0 0 0 0 0.35 0" />
            <feBlend mode="normal" in2="BackgroundImageFix" result="effect1_dropShadow_3225_3673" />
            <feBlend mode="normal" in="SourceGraphic" in2="effect1_dropShadow_3225_3673" result="shape" />
        </filter>
        <linearGradient id="paint0_linear_3225_3673" x1="11.7149" y1="11.7092" x2="49.6842" y2="49.6785"
            gradientUnits="userSpaceOnUse">
            <stop stop-color="#3789CF" />
            <stop offset="1" stop-color="#0867B6" />
        </linearGradient>
        <linearGradient id="paint1_linear_3225_3673" x1="30.144" y1="3.7425" x2="30.144" y2="30.6962"
            gradientUnits="userSpaceOnUse">
            <stop stop-color="white" />
            <stop offset="1" stop-color="white" stop-opacity="0" />
        </linearGradient>
        <linearGradient id="paint2_linear_3225_3673" x1="30.144" y1="55.83" x2="30.144" y2="36.1116"
            gradientUnits="userSpaceOnUse">
            <stop offset="0.1" />
            <stop offset="1" stop-opacity="0" />
        </linearGradient>
    </defs>
</svg>