<svg width="40" height="40" viewBox="0 0 40 40" fill="none" xmlns="http://www.w3.org/2000/svg">
<rect x="0.5" y="0.5" width="39" height="39" rx="19.5" stroke="black"/>
<path d="M27.5 11.375H12.5C12.2016 11.375 11.9155 11.4935 11.7045 11.7045C11.4935 11.9155 11.375 12.2016 11.375 12.5V27.5C11.375 27.7984 11.4935 28.0845 11.7045 28.2955C11.9155 28.5065 12.2016 28.625 12.5 28.625H27.5C27.7984 28.625 28.0845 28.5065 28.2955 28.2955C28.5065 28.0845 28.625 27.7984 28.625 27.5V12.5C28.625 12.2016 28.5065 11.9155 28.2955 11.7045C28.0845 11.4935 27.7984 11.375 27.5 11.375ZM27.875 27.5C27.875 27.5995 27.8355 27.6948 27.7652 27.7652C27.6948 27.8355 27.5995 27.875 27.5 27.875H12.5C12.4005 27.875 12.3052 27.8355 12.2348 27.7652C12.1645 27.6948 12.125 27.5995 12.125 27.5V12.5C12.125 12.4005 12.1645 12.3052 12.2348 12.2348C12.3052 12.1645 12.4005 12.125 12.5 12.125H27.5C27.5995 12.125 27.6948 12.1645 27.7652 12.2348C27.8355 12.3052 27.875 12.4005 27.875 12.5V27.5ZM23 16.625H17C16.9005 16.625 16.8052 16.6645 16.7348 16.7348C16.6645 16.8052 16.625 16.9005 16.625 17V23C16.625 23.0995 16.6645 23.1948 16.7348 23.2652C16.8052 23.3355 16.9005 23.375 17 23.375H23C23.0995 23.375 23.1948 23.3355 23.2652 23.2652C23.3355 23.1948 23.375 23.0995 23.375 23V17C23.375 16.9005 23.3355 16.8052 23.2652 16.7348C23.1948 16.6645 23.0995 16.625 23 16.625ZM22.625 22.625H17.375V17.375H22.625V22.625Z" fill="black"/>
</svg>
