<svg width="110" height="28" viewBox="0 0 110 28" fill="none" xmlns="http://www.w3.org/2000/svg">
<g clip-path="url(#clip0_1_561)">
<path d="M0 0.0013631C1.19219 -0.000796674 2.38439 -7.67504e-05 3.5773 0.0013631C3.57442 5.5419 3.5737 11.0824 3.5773 16.623C3.52619 19.6286 5.63556 22.4666 8.49006 23.3658C13.3431 25.0137 18.6086 20.661 17.7404 15.5712C18.9376 15.5712 20.1348 15.5697 21.3321 15.5719C21.9771 21.278 17.4193 26.8653 11.6635 27.2411C7.917 27.614 4.16908 25.8941 1.98627 22.8301C0.674569 21.0721 -0.0215977 18.877 0.00143985 16.687C0 11.1249 0.00359962 5.56349 0 0.0013631ZM49.6848 16.6921C49.6589 19.314 50.679 21.9094 52.4868 23.8092C57.2606 29.3404 66.7139 27.9776 69.9111 21.4623C74.6885 11.9341 64.1049 1.98763 54.9007 7.3921C54.905 8.92986 54.9007 10.4676 54.9028 12.0054C60.6104 5.42815 70.7973 12.6425 66.5101 20.2197C64.1654 24.3657 57.8214 24.9042 54.8891 21.1153C54.162 20.2629 53.6502 19.2284 53.4219 18.1312C53.0296 12.1155 53.3989 6.03864 53.2708 0.00280294C52.0742 -0.0015166 50.8784 -7.67504e-05 49.6827 0.00208302C49.6877 5.56565 49.6827 11.1285 49.6848 16.6921V16.6921ZM74.5387 16.1917C74.479 17.6676 74.6978 19.16 75.2435 20.5365C77.5819 26.8221 86.0359 29.385 91.4051 25.316C102.308 17.2227 91.5577 0.725606 79.7431 7.38994C79.7467 8.92842 79.7438 10.4669 79.7445 12.0061C86.2922 4.7291 96.9233 14.3271 90.3079 21.5537C87.4268 24.6739 81.9446 24.2952 79.5033 20.8259C78.6884 19.7669 78.2096 18.4588 78.1333 17.1262C78.1304 11.4179 78.1326 5.70892 78.1326 0.000643173C76.9339 0.000643173 75.736 -0.0015166 74.538 0.00208302C74.5402 5.39863 74.538 10.7952 74.538 16.1917H74.5387ZM99.3538 16.6878C99.3272 18.232 99.672 19.7798 100.33 21.1765C102.067 24.7898 105.921 27.4326 109.991 27.2483C109.968 26.077 110.031 24.8992 109.978 23.7257C106.553 23.8035 103.379 21.0224 102.963 17.6301C102.784 11.7635 102.953 5.87522 102.899 0.0013631C101.716 0.0013631 100.533 -0.0015166 99.3509 0.00208302C99.3502 5.56349 99.3509 11.1256 99.3538 16.6878V16.6878ZM29.4139 18.8526C29.3995 20.3486 29.7645 21.8582 30.5471 23.1404C32.1324 25.8157 35.1654 27.5233 38.2927 27.2591C41.9392 27.1022 45.2321 24.1584 45.8908 20.5833C46.2724 15.7173 45.9297 10.7981 46.0434 5.91482C44.8484 5.91338 43.6533 5.91122 42.4582 5.91626C42.464 10.3971 42.469 14.8779 42.4582 19.3594C42.3063 22.7855 38.0076 24.8999 35.1899 22.9525C34.1985 22.2967 33.4016 21.2996 33.115 20.1326C32.7544 15.425 33.0863 10.6483 32.9797 5.91841C31.7904 5.90834 30.6018 5.9141 29.4132 5.91554C29.4161 10.2279 29.4132 14.5402 29.4132 18.8526H29.4139ZM8.16033 0.30877C8.49294 1.58304 8.79315 2.86594 9.11711 4.14236C16.4193 3.13015 23.4393 9.10336 22.9836 16.5891C24.3291 16.6381 25.6725 16.7223 27.0187 16.7561C27.5889 7.31795 18.7389 -1.01373 9.35181 0.142468C8.95441 0.191423 8.54765 0.195742 8.16033 0.30877V0.30877ZM10.3676 9.46476C13.9118 9.24158 17.3286 12.0284 17.7404 15.5712C18.9376 15.5712 20.1348 15.5697 21.3321 15.5719C20.9368 9.94351 15.528 5.40151 9.91983 5.92057C10.0617 7.10269 10.202 8.28552 10.3676 9.46476V9.46476ZM10.909 13.2192C12.0738 13.1889 13.2214 13.8736 13.7513 14.911C14.5576 14.8599 15.361 14.7641 16.1673 14.7123C15.5129 12.4668 13.2365 10.8736 10.9155 10.9003C10.9155 11.6728 10.9119 12.446 10.909 13.2192V13.2192Z" fill="url(#paint0_linear_1_561)"/>
</g>
<defs>
<linearGradient id="paint0_linear_1_561" x1="-0.797675" y1="13.6454" x2="109.202" y2="13.6454" gradientUnits="userSpaceOnUse">
<stop stop-color="#C8C8C8"/>
<stop offset="1" stop-color="white"/>
</linearGradient>
<clipPath id="clip0_1_561">
<rect width="110" height="27.2916" fill="white"/>
</clipPath>
</defs>
</svg>
