<svg width="14" height="14" viewBox="0 0 14 14" fill="none" xmlns="http://www.w3.org/2000/svg">
    <path
        d="M7 8.75C7.9665 8.75 8.75 7.9665 8.75 7C8.75 6.0335 7.9665 5.25 7 5.25C6.0335 5.25 5.25 6.0335 5.25 7C5.25 7.9665 6.0335 8.75 7 8.75Z"
        fill="#ffffff" fill-opacity="0.5" />
    <path
        d="M13.4215 6.52422C12.6979 5.40531 11.7592 4.45484 10.7071 3.77535C9.54303 3.02285 8.25787 2.625 6.99076 2.625C5.8281 2.625 4.68486 2.95723 3.59275 3.61238C2.47904 4.28039 1.47006 5.25629 0.59369 6.51273C0.494756 6.65473 0.440269 6.82294 0.437153 6.99597C0.434037 7.16901 0.482433 7.33906 0.57619 7.48453C1.29834 8.61465 2.22775 9.56648 3.26353 10.2367C4.42974 10.9922 5.68482 11.375 6.99076 11.375C8.26799 11.375 9.55588 10.9804 10.715 10.2342C11.7666 9.55691 12.7034 8.60289 13.4242 7.47469C13.5147 7.3326 13.5626 7.16753 13.5621 6.99905C13.5616 6.83058 13.5128 6.66578 13.4215 6.52422V6.52422ZM7.00006 9.625C6.48088 9.625 5.97336 9.47105 5.54169 9.18261C5.11001 8.89417 4.77355 8.4842 4.57487 8.00454C4.37619 7.52489 4.32421 6.99709 4.4255 6.48789C4.52678 5.97869 4.77679 5.51096 5.1439 5.14384C5.51102 4.77673 5.97875 4.52673 6.48795 4.42544C6.99715 4.32415 7.52495 4.37614 8.0046 4.57482C8.48426 4.7735 8.89423 5.10995 9.18267 5.54163C9.4711 5.97331 9.62506 6.48082 9.62506 7C9.62426 7.69595 9.34744 8.36317 8.85533 8.85528C8.36322 9.34739 7.69601 9.6242 7.00006 9.625V9.625Z"
        fill="#f9eded" fill-opacity="0.5" />
</svg>