<svg width="14" height="14" viewBox="0 0 14 14" fill="none" xmlns="http://www.w3.org/2000/svg">
    <path
        d="M6.90084 5.25L8.75001 7.09333V7C8.75001 6.53587 8.56564 6.09075 8.23745 5.76256C7.90926 5.43437 7.46414 5.25 7.00001 5.25H6.90084ZM4.39251 5.71667L5.29668 6.62083C5.26751 6.74333 5.25001 6.86583 5.25001 7C5.25001 7.46413 5.43438 7.90925 5.76257 8.23744C6.09076 8.56563 6.53588 8.75 7.00001 8.75C7.12834 8.75 7.25668 8.7325 7.37918 8.70333L8.28334 9.6075C7.89251 9.8 7.46084 9.91667 7.00001 9.91667C6.22646 9.91667 5.4846 9.60938 4.93762 9.06239C4.39063 8.51541 4.08334 7.77355 4.08334 7C4.08334 6.53917 4.20001 6.1075 4.39251 5.71667M1.16668 2.49083L2.49668 3.82083L2.75918 4.08333C1.79668 4.84167 1.03834 5.83333 0.583344 7C1.59251 9.56083 4.08334 11.375 7.00001 11.375C7.90418 11.375 8.76751 11.2 9.55501 10.885L9.80584 11.13L11.5092 12.8333L12.25 12.0925L1.90751 1.75M7.00001 4.08333C7.77356 4.08333 8.51542 4.39062 9.0624 4.93761C9.60939 5.48459 9.91668 6.22645 9.91668 7C9.91668 7.37333 9.84084 7.735 9.70668 8.06167L11.4158 9.77083C12.2908 9.04167 12.9908 8.085 13.4167 7C12.4075 4.43917 9.91668 2.625 7.00001 2.625C6.18334 2.625 5.40168 2.77083 4.66668 3.03333L5.93251 4.2875C6.26501 4.15917 6.62084 4.08333 7.00001 4.08333Z"
        fill="#f5f5f5" fill-opacity="0.5" />
</svg>