<svg width="26" height="26" viewBox="0 0 26 26" fill="none" xmlns="http://www.w3.org/2000/svg">
<path d="M25.7239 13.2927C25.7239 12.4368 25.648 11.6243 25.518 10.8335H13.2764V15.7193H20.2855C19.9714 17.3227 19.0505 18.6768 17.6855 19.5977V22.8477H21.8672C24.3155 20.5835 25.7239 17.2468 25.7239 13.2927Z" fill="#4285F4"/>
<path d="M13.2763 26.0001C16.7863 26.0001 19.7222 24.8301 21.8672 22.8476L17.6855 19.5976C16.5155 20.3776 15.0313 20.8543 13.2763 20.8543C9.8855 20.8543 7.01466 18.5685 5.9855 15.481H1.67383V18.8285C3.80799 23.0751 8.1955 26.0001 13.2763 26.0001Z" fill="#34A853"/>
<path d="M5.98553 15.481C5.7147 14.701 5.57387 13.8669 5.57387 13.0002C5.57387 12.1335 5.72553 11.2994 5.98553 10.5194V7.17188H1.67387C0.785533 8.92688 0.276367 10.8985 0.276367 13.0002C0.276367 15.1019 0.785533 17.0735 1.67387 18.8285L5.98553 15.481Z" fill="#FBBC05"/>
<path d="M13.2763 5.14583C15.1938 5.14583 16.9055 5.80667 18.2597 7.09584L21.9647 3.39083C19.7222 1.28917 16.7863 0 13.2763 0C8.1955 0 3.80799 2.925 1.67383 7.17167L5.9855 10.5192C7.01466 7.43167 9.8855 5.14583 13.2763 5.14583Z" fill="#EA4335"/>
</svg>
