<svg width="17" height="17" viewBox="0 0 17 17" fill="none" xmlns="http://www.w3.org/2000/svg">
    <path
        d="M13.4583 7.7915H3.54167C2.75926 7.7915 2.125 8.42577 2.125 9.20817V14.1665C2.125 14.9489 2.75926 15.5832 3.54167 15.5832H13.4583C14.2407 15.5832 14.875 14.9489 14.875 14.1665V9.20817C14.875 8.42577 14.2407 7.7915 13.4583 7.7915Z"
        stroke="#686868" stroke-linecap="round" stroke-linejoin="round" />
    <path
        d="M4.95703 7.7915V4.95817C4.95703 4.01886 5.33017 3.11803 5.99436 2.45383C6.65855 1.78964 7.55939 1.4165 8.4987 1.4165C9.43801 1.4165 10.3388 1.78964 11.003 2.45383C11.6672 3.11803 12.0404 4.01886 12.0404 4.95817V7.7915"
        stroke="#686868" stroke-linecap="round" stroke-linejoin="round" />
</svg>