<svg width="37" height="37" viewBox="0 0 37 37" fill="none" xmlns="http://www.w3.org/2000/svg">
<path d="M7.50625 3.82881L7.58764 4H7.77718H35.0899C35.6892 4 36.1327 4.25572 36.4513 4.79875C36.7689 5.34146 36.782 5.87069 36.4924 6.42513L29.9206 18.2619L29.9201 18.2628C29.6048 18.8355 29.186 19.273 28.6632 19.5833L28.663 19.5834C28.1402 19.8943 27.5687 20.05 26.9424 20.05H13.1471H12.9698L12.8843 20.2053L10.8475 23.9053L10.6027 24.35H11.1103H33.0308V27.45H11.1103C9.83027 27.45 8.87869 26.8992 8.22158 25.7712L8.22152 25.7711C7.56256 24.641 7.53724 23.5427 8.13318 22.4361C8.1334 22.4357 8.13363 22.4353 8.13386 22.4348L10.6323 17.9049L10.7065 17.7703L10.6407 17.6315L3.9745 3.57148L3.8932 3.4H3.70342H0.3V0.3H5.82851L7.50625 3.82881ZM11.1103 36.7C10.1719 36.7 9.37643 36.3699 8.70768 35.7018C8.0376 35.0324 7.70684 34.2371 7.70684 33.3C7.70684 32.3629 8.0376 31.5676 8.70768 30.8982C9.37643 30.23 10.1719 29.9 11.1103 29.9C12.0487 29.9 12.8441 30.23 13.5128 30.8982C14.1829 31.5676 14.5137 32.3629 14.5137 33.3C14.5137 34.2371 14.1829 35.0324 13.5128 35.7018C12.8441 36.3699 12.0487 36.7 11.1103 36.7ZM29.6274 36.7C28.689 36.7 27.8935 36.3699 27.2248 35.7018C26.5547 35.0324 26.2239 34.2371 26.2239 33.3C26.2239 32.3629 26.5547 31.5676 27.2248 30.8982C27.8935 30.23 28.689 29.9 29.6274 29.9C30.5656 29.9 31.3616 30.2299 32.0316 30.898C32.7005 31.5674 33.0308 32.3627 33.0308 33.3C33.0308 34.2372 32.7006 35.0324 32.0319 35.7017C31.3619 36.37 30.5658 36.7 29.6274 36.7Z" fill="#CCCCCC" stroke="url(#paint0_linear_3490_16977)" stroke-width="0.6"/>
<defs>
<linearGradient id="paint0_linear_3490_16977" x1="18.5" y1="0" x2="18.5" y2="37" gradientUnits="userSpaceOnUse">
<stop stop-color="#7F2FE3"/>
<stop offset="1" stop-color="#3F47F8"/>
</linearGradient>
</defs>
</svg>
