<svg width="18" height="18" viewBox="0 0 18 18" fill="none" xmlns="http://www.w3.org/2000/svg">
<path d="M9 0.0625C4.072 0.0625 0.0625 4.072 0.0625 9C0.0625 13.928 4.072 17.9375 9 17.9375C13.928 17.9375 17.9375 13.928 17.9375 9C17.9375 4.072 13.928 0.0625 9 0.0625ZM9 1.4375C13.1848 1.4375 16.5625 4.81519 16.5625 9C16.5625 13.1848 13.1848 16.5625 9 16.5625C4.81519 16.5625 1.4375 13.1848 1.4375 9C1.4375 4.81519 4.81519 1.4375 9 1.4375ZM6.40125 5.41125L5.41125 6.40125L8.01275 9L5.41262 11.5988L6.40263 12.5887L9 9.98794L11.5988 12.5867L12.5887 11.5988L9.98794 9L12.5867 6.40125L11.5988 5.41125L9 8.01275L6.40125 5.41262V5.41125Z" fill="#F05959"/>
</svg>
