<svg width="16" height="10" viewBox="0 0 16 10" fill="none" xmlns="http://www.w3.org/2000/svg">
<g clip-path="url(#clip0_3382_12695)">
<path d="M16 1.00841C15.9933 0.999744 15.9825 0.991995 15.9808 0.982422C15.8118 0.061603 14.7534 -0.394248 13.983 0.43221C13.4484 1.00613 12.9218 1.5887 12.3914 2.16763C10.9666 3.72345 9.54099 5.27836 8.11956 6.83828C8.02358 6.94358 7.97725 6.94723 7.87918 6.83965C5.95487 4.72769 4.02598 2.62075 2.09958 0.511072C1.86671 0.256251 1.61673 0.0474717 1.27327 0.0110036C0.80294 -0.0386841 0.345129 0.210666 0.144811 0.634608C-0.0872246 1.12556 -0.0446561 1.69264 0.289208 2.08011C0.727821 2.5893 1.18521 3.07934 1.63802 3.57393C3.45298 5.55597 5.27045 7.53573 7.08459 9.51823C7.28741 9.73977 7.50525 9.9253 7.79572 9.97955C8.22223 10.0593 8.57028 9.89066 8.86742 9.56746C9.52012 8.85725 10.1732 8.14703 10.8247 7.43545C12.4122 5.70276 13.996 3.96688 15.5843 2.23601C15.7897 2.01219 15.9203 1.75053 16 1.45195C16 1.30425 16 1.1561 16 1.00841Z" fill="white"/>
</g>
<defs>
<clipPath id="clip0_3382_12695">
<rect width="16" height="10" fill="white" transform="matrix(-1 0 0 1 16 0)"/>
</clipPath>
</defs>
</svg>
