<svg width="15" height="15" viewBox="0 0 15 15" fill="none" xmlns="http://www.w3.org/2000/svg">
<path d="M14.2988 14.3068V9.32581C14.2988 6.87781 13.7718 5.00781 10.9158 5.00781C9.53876 5.00781 8.62077 5.75581 8.24677 6.46981H8.21277V5.22881H5.50977V14.3068H8.33177V9.80181C8.33177 8.61181 8.55277 7.47281 10.0148 7.47281C11.4598 7.47281 11.4768 8.81581 11.4768 9.86981V14.2898H14.2988V14.3068Z" fill="white"/>
<path d="M0.919922 5.22656H3.74192V14.3046H0.919922V5.22656Z" fill="white"/>
<path d="M2.33122 0.703125C1.43022 0.703125 0.699219 1.43412 0.699219 2.33512C0.699219 3.23612 1.43022 3.98412 2.33122 3.98412C3.23222 3.98412 3.96322 3.23612 3.96322 2.33512C3.96322 1.43412 3.23222 0.703125 2.33122 0.703125Z" fill="white"/>
</svg>
