<svg width="129" height="33" viewBox="0 0 129 33" fill="none" xmlns="http://www.w3.org/2000/svg">
<path d="M14.0076 32.5377C9.63144 32.9681 5.25525 30.9637 2.71067 27.3854C1.17408 25.3318 0.362763 22.7741 0.399641 20.2164C0.399641 13.7237 0.399641 7.23097 0.399641 0.738281C1.78871 0.738281 3.17779 0.738281 4.57915 0.738281C4.57915 7.20638 4.57915 13.6745 4.57915 20.1426C4.51769 23.6471 6.97623 26.9673 10.3075 28.0125C15.9745 29.9308 22.1208 24.8522 21.1005 18.9129C20.6211 14.7812 16.626 11.5225 12.4956 11.7808C12.299 10.4035 12.1392 9.0263 11.9671 7.63677C18.5191 7.03422 24.8252 12.3341 25.2923 18.9006C26.0422 25.5654 20.7194 32.0827 14.0076 32.5254V32.5377Z" fill="white"/>
<path d="M13.125 16.1704C14.4895 16.1335 15.8294 16.9328 16.444 18.1502C17.3906 18.0887 18.3248 17.978 19.259 17.9165C18.4969 15.2973 15.8417 13.4405 13.125 13.4651C13.125 14.3627 13.125 15.2727 13.125 16.1704Z" fill="white"/>
<path d="M9.91406 1.09578C10.3074 2.58369 10.6516 4.0839 11.0327 5.57181C19.5515 4.39132 27.7507 11.3636 27.2222 20.1066C28.7956 20.1681 30.3568 20.2664 31.9303 20.3033C32.5941 9.28543 22.2682 -0.441311 11.3154 0.911333C10.8483 0.972816 10.3812 0.972816 9.92636 1.10808L9.91406 1.09578Z" fill="white"/>
<path d="M34.7232 22.75C34.7109 24.4962 35.1289 26.2546 36.0508 27.7548C37.907 30.8782 41.4473 32.8702 45.086 32.5628C49.3392 32.3784 53.1868 28.9476 53.949 24.7667C54.3915 19.0856 53.9982 13.343 54.1211 7.6373C52.732 7.6373 51.3306 7.6373 49.9416 7.6373C49.9416 12.8634 49.9539 18.1018 49.9416 23.328C49.7695 27.3244 44.7418 29.7961 41.4596 27.5212C40.3041 26.7588 39.3699 25.5906 39.038 24.2256C38.62 18.729 39.0011 13.1462 38.8782 7.625C37.4891 7.625 36.1 7.625 34.7109 7.625C34.7109 12.6544 34.7109 17.696 34.7109 22.7254L34.7232 22.75Z" fill="white"/>
<path d="M58.3832 20.2281C58.3586 23.29 59.5387 26.315 61.653 28.5407C67.2216 34.9965 78.2605 33.4102 81.9851 25.7985C87.566 14.6699 75.2119 3.06179 64.4681 9.37003C64.4681 11.1654 64.4681 12.9607 64.4681 14.756C71.1307 7.07053 83.0177 15.4938 78.0146 24.3475C75.2733 29.1924 67.8731 29.8195 64.4558 25.3927C63.6076 24.3967 63.0052 23.1916 62.7471 21.9127C62.2923 14.8913 62.7225 7.79604 62.575 0.75C61.1736 0.75 59.7846 0.75 58.3832 0.75C58.3832 7.24269 58.3832 13.7354 58.3832 20.2404V20.2281Z" fill="white"/>
<path d="M87.395 19.6378C87.3213 21.3594 87.5794 23.1055 88.2187 24.7164C90.9476 32.0576 100.819 35.0457 107.088 30.2991C119.811 20.8552 107.26 1.58618 93.4799 9.37003C93.4799 11.1654 93.4799 12.9607 93.4799 14.756C101.126 6.25895 113.529 17.4613 105.809 25.9092C102.441 29.549 96.0491 29.1063 93.1972 25.0607C92.2506 23.8187 91.6852 22.2939 91.5991 20.7445C91.5991 14.0797 91.5991 7.41484 91.5991 0.75C90.1978 0.75 88.7964 0.75 87.4073 0.75C87.4073 7.04594 87.4073 13.3542 87.4073 19.6501L87.395 19.6378Z" fill="white"/>
<path d="M116.354 20.2164C116.317 22.024 116.723 23.8316 117.497 25.4548C119.525 29.6726 124.025 32.759 128.769 32.55C128.745 31.1851 128.819 29.8078 128.757 28.4429C124.762 28.529 121.05 25.2826 120.57 21.3231C120.361 14.4738 120.57 7.59987 120.497 0.738281C119.12 0.738281 117.731 0.738281 116.354 0.738281C116.354 7.23097 116.354 13.7237 116.354 20.2164Z" fill="white"/>
</svg>
