<svg width="976" height="65" viewBox="0 0 976 65" fill="none" xmlns="http://www.w3.org/2000/svg">
<g filter="url(#filter0_b_3382_12678)">
<path d="M0 32.5C0 14.5507 14.5507 0 32.5 0H943.5C961.449 0 976 14.5507 976 32.5V32.5C976 50.4493 961.449 65 943.5 65H32.5C14.5508 65 0 50.4493 0 32.5V32.5Z" fill="url(#paint0_linear_3382_12678)"/>
<path d="M32.5 0.1H943.5C961.394 0.1 975.9 14.606 975.9 32.5C975.9 50.394 961.394 64.9 943.5 64.9H32.5C14.606 64.9 0.1 50.394 0.1 32.5C0.1 14.606 14.606 0.1 32.5 0.1Z" stroke="url(#paint1_linear_3382_12678)" stroke-width="0.2"/>
</g>
<defs>
<filter id="filter0_b_3382_12678" x="-30" y="-30" width="1036" height="125" filterUnits="userSpaceOnUse" color-interpolation-filters="sRGB">
<feFlood flood-opacity="0" result="BackgroundImageFix"/>
<feGaussianBlur in="BackgroundImageFix" stdDeviation="15"/>
<feComposite in2="SourceAlpha" operator="in" result="effect1_backgroundBlur_3382_12678"/>
<feBlend mode="normal" in="SourceGraphic" in2="effect1_backgroundBlur_3382_12678" result="shape"/>
</filter>
<linearGradient id="paint0_linear_3382_12678" x1="-26.107" y1="5.59536e-07" x2="21.2298" y2="247.241" gradientUnits="userSpaceOnUse">
<stop stop-color="#7A7A7A" stop-opacity="0.3"/>
<stop offset="1" stop-color="#303030" stop-opacity="0.25"/>
</linearGradient>
<linearGradient id="paint1_linear_3382_12678" x1="0" y1="0" x2="46.8629" y2="243.683" gradientUnits="userSpaceOnUse">
<stop offset="0.008842" stop-color="white" stop-opacity="0.6"/>
<stop offset="0.392253" stop-color="#A756BF" stop-opacity="0.05"/>
<stop offset="0.907987" stop-color="white" stop-opacity="0.5"/>
</linearGradient>
</defs>
</svg>
