<svg width="336" height="211" viewBox="0 0 336 211" fill="none" xmlns="http://www.w3.org/2000/svg">
<path d="M244.555 187.048C244.328 187.105 241.701 186.26 236.674 184.513C231.648 182.766 225.173 181.382 217.25 180.361C209.327 179.341 201.673 179.757 194.29 181.61C186.906 183.462 179.963 186.708 173.46 191.348C166.957 195.988 161.93 200.257 158.381 204.156C154.831 208.054 152.886 210.047 152.545 210.132C150.5 210.645 144.125 207.732 133.418 201.394C122.712 195.055 117.103 190.867 116.592 188.83C116.223 187.358 116.464 185.914 117.316 184.497C123.99 173.557 133.403 163.916 145.558 155.572C157.712 147.228 170.321 141.418 183.384 138.14C196.447 134.863 210.305 134.033 224.959 135.651C239.612 137.269 252.463 141.325 263.51 147.818C264.93 148.665 265.824 149.825 266.193 151.296C266.705 153.334 263.737 159.674 257.291 170.315C250.845 180.957 246.6 186.535 244.555 187.048ZM279.483 129.191C278.234 129.504 276.814 129.379 275.224 128.816C256.793 120.805 240.286 115.652 225.704 113.354C211.121 111.056 195.197 112.073 177.931 116.405C168.275 118.828 158.904 122.503 149.817 127.43C140.729 132.357 133.019 137.48 126.687 142.799C120.354 148.118 114.788 153.244 109.989 158.179C105.19 163.113 101.455 167.238 98.7859 170.555C96.1166 173.872 94.6683 175.559 94.4411 175.616C92.51 176.101 86.2197 173.167 75.5702 166.814C64.9207 160.461 59.3403 156.266 58.8291 154.228C58.4883 152.87 58.7438 151.482 59.5957 150.065C70.841 131.361 86.1047 115.198 105.387 101.576C124.669 87.9544 145.215 78.4077 167.025 72.9359C188.834 67.464 211.454 66.181 234.882 69.0869C258.311 71.9928 279.397 79.0361 298.14 90.2169C299.56 91.0639 300.44 92.1666 300.781 93.525C301.292 95.5627 298.353 101.895 291.964 112.523C285.575 123.15 281.414 128.706 279.483 129.191ZM314.114 71.5895C312.864 71.903 311.487 71.7071 309.982 71.0017C285.19 58.3304 260.731 50.238 236.607 46.7246C212.482 43.2111 187.471 44.7033 161.572 51.2011C135.672 57.6989 112.919 68.1907 93.3099 82.6763C73.7013 97.1619 55.9599 115.842 40.0858 138.716C39.0919 140.048 37.9702 140.871 36.7207 141.185C34.7896 141.669 28.4709 138.742 17.7646 132.404C7.05827 126.065 1.4495 121.877 0.938282 119.839C0.569066 118.368 0.810414 116.924 1.66233 115.507C17.6215 89.1216 38.8061 66.4795 65.216 47.5801C91.626 28.6807 120.109 15.3979 150.665 7.73162C181.222 0.0653394 212.602 -1.67091 244.806 2.52288C277.01 6.71667 306.374 16.6767 332.898 32.4029C334.318 33.2499 335.213 34.4092 335.582 35.8808C336.093 37.9185 333.126 44.2582 326.679 54.9C320.233 65.5418 316.045 71.105 314.114 71.5895Z" fill="#384BAA" fill-opacity="0.09"/>
</svg>
