<svg width="46" height="46" viewBox="0 0 46 46" fill="none" xmlns="http://www.w3.org/2000/svg">
<circle cx="23.406" cy="23.4138" r="21.656" fill="#D9D9D9"/>
<path d="M0 21.1258C0.117327 20.3246 0.210952 19.5199 0.354353 18.7235C1.19935 14.0186 3.33613 9.98086 6.71848 6.6151C10.0001 3.34889 13.9252 1.22988 18.4809 0.409777C25.2076 -0.801422 31.3419 0.666949 36.733 4.88718C41.3419 8.49589 44.1377 13.2494 45.126 19.0222C46.8457 29.0721 41.4119 39.1954 32.0944 43.4026C29.7182 44.4751 27.2437 45.1435 24.6447 45.3486C24.5286 45.3581 24.4065 45.3509 24.3069 45.4327H21.113C20.5999 45.2834 20.0654 45.3059 19.5427 45.2277C15.1281 44.5664 11.2089 42.8136 7.84554 39.8709C3.83033 36.3582 1.31549 31.9756 0.354353 26.7196C0.208582 25.9244 0.116142 25.1197 0 24.3197C0 23.2555 0 22.1912 0 21.1258ZM22.7094 2.14006C11.3867 2.14006 2.12256 11.4101 2.1273 22.7328C2.13323 34.0354 11.3737 43.2829 22.6869 43.3054C33.9989 43.3279 43.282 34.0591 43.2927 22.734C43.3033 11.4149 34.0333 2.14006 22.7094 2.14125V2.14006Z" fill="url(#paint0_linear_3490_16979)"/>
<path d="M23.1803 35.9985C18.5666 35.9926 14.4673 35.5458 10.4236 34.6036C9.74574 34.446 9.39731 34.0051 9.45064 33.3355C9.81211 28.7562 11.9145 25.2174 15.7911 22.7429C16.3967 22.3565 16.7534 22.3838 17.3246 22.8234C20.579 25.3312 24.8407 25.3418 28.0749 22.8507C28.6935 22.3743 29.0313 22.3423 29.6831 22.7618C33.1413 24.9875 35.2354 28.1079 35.8505 32.1942C35.905 32.5593 35.9418 32.9266 35.9761 33.294C36.0389 33.9648 35.7356 34.4294 35.092 34.5811C32.9659 35.0812 30.8173 35.4486 28.6438 35.6844C26.6729 35.8978 24.6949 35.9677 23.1803 35.9997V35.9985ZM22.7098 33.838C26.296 33.8582 29.8431 33.5026 33.357 32.7761C33.7351 32.6979 33.7647 32.5296 33.7102 32.2345C33.1638 29.2528 31.686 26.8505 29.2482 25.0396C29.0514 24.8927 28.9211 24.8986 28.7125 25.0266C24.7068 27.4952 20.6975 27.4857 16.6977 25.0112C16.5258 24.9045 16.4109 24.882 16.2379 25.0088C13.7586 26.8221 12.2653 29.2468 11.7213 32.2642C11.6692 32.5521 11.7166 32.6991 12.0662 32.7714C15.5789 33.4979 19.126 33.8593 22.7122 33.838H22.7098Z" fill="url(#paint1_linear_3490_16979)"/>
<path d="M29.2761 16.0382C29.2737 19.66 26.3263 22.611 22.7117 22.611C19.0793 22.611 16.1449 19.6517 16.1484 15.9932C16.152 12.381 19.1231 9.42762 22.7354 9.44539C26.3583 9.46317 29.2785 12.4058 29.2773 16.0382H29.2761ZM22.6986 20.4434C25.1424 20.4517 27.1417 18.4749 27.1488 16.0406C27.1571 13.6052 25.172 11.6189 22.7259 11.6118C20.2798 11.6059 18.2852 13.5779 18.2757 16.0122C18.2663 18.4441 20.2525 20.4339 22.6986 20.4422V20.4434Z" fill="url(#paint2_linear_3490_16979)"/>
<defs>
<linearGradient id="paint0_linear_3490_16979" x1="4.26645" y1="8.65142" x2="42.0127" y2="35.9686" gradientUnits="userSpaceOnUse">
<stop stop-color="#7F2FE3"/>
<stop offset="1" stop-color="#3D48F8"/>
</linearGradient>
<linearGradient id="paint1_linear_3490_16979" x1="22.7148" y1="22.4688" x2="22.7148" y2="35.9997" gradientUnits="userSpaceOnUse">
<stop stop-color="#7F2FE3"/>
<stop offset="1" stop-color="#3D48F8"/>
</linearGradient>
<linearGradient id="paint2_linear_3490_16979" x1="22.7129" y1="9.44531" x2="22.7129" y2="22.611" gradientUnits="userSpaceOnUse">
<stop stop-color="#7F2FE3"/>
<stop offset="1" stop-color="#3D48F8"/>
</linearGradient>
</defs>
</svg>
