<svg width="27" height="27" viewBox="0 0 27 27" fill="none" xmlns="http://www.w3.org/2000/svg">
<path d="M10.8062 3.08749C12.9365 3.08749 14.8662 3.95198 16.271 5.34135L12.3499 9.26244H21.6123V1.20786e-05L18.4477 3.16468C17.4454 2.15961 16.2543 1.36261 14.9429 0.819497C13.6314 0.276387 12.2256 -0.00211374 10.8062 1.20786e-05C5.35677 1.20786e-05 0.879931 4.02917 0.123499 9.26244H3.24185C3.59773 7.519 4.54505 5.95206 5.92348 4.82681C7.3019 3.70156 9.02678 3.08713 10.8062 3.08749ZM19.5129 17.1973C20.565 15.7713 21.2443 14.1051 21.4888 12.3499H18.3705C18.0146 14.0934 17.0673 15.6603 15.6889 16.7856C14.3104 17.9108 12.5856 18.5252 10.8062 18.5249C8.67581 18.5249 6.74614 17.6604 5.34134 16.271L9.26243 12.3499H0V21.6124L3.16466 18.4477C4.16697 19.4528 5.35808 20.2498 6.66949 20.7929C7.9809 21.336 9.38675 21.6145 10.8062 21.6124C13.199 21.6124 15.4065 20.825 17.1973 19.5129L24.6998 27L27 24.6998L19.5129 17.1973Z" fill="#DE1848"/>
</svg>
