<svg width="18" height="17" viewBox="0 0 18 17" fill="none" xmlns="http://www.w3.org/2000/svg">
<path d="M6.1921 4.29709H7.89017V12.0705C7.89017 12.1716 7.97289 12.2544 8.07399 12.2544H9.45267C9.55377 12.2544 9.63649 12.1716 9.63649 12.0705V4.29709H11.3392C11.4931 4.29709 11.5781 4.12016 11.4839 4.00068L8.91039 0.742406C8.89319 0.720435 8.87122 0.702666 8.84614 0.690446C8.82106 0.678226 8.79352 0.671875 8.76562 0.671875C8.73773 0.671875 8.71019 0.678226 8.68511 0.690446C8.66003 0.702666 8.63806 0.720435 8.62086 0.742406L6.04733 3.99838C5.95313 4.12016 6.03814 4.29709 6.1921 4.29709V4.29709ZM17.1756 11.3812H15.7969C15.6958 11.3812 15.6131 11.4639 15.6131 11.565V15.1036H1.9182V11.565C1.9182 11.4639 1.83548 11.3812 1.73437 11.3812H0.355699C0.254596 11.3812 0.171875 11.4639 0.171875 11.565V16.1146C0.171875 16.5214 0.50046 16.8499 0.907169 16.8499H16.6241C17.0308 16.8499 17.3594 16.5214 17.3594 16.1146V11.565C17.3594 11.4639 17.2767 11.3812 17.1756 11.3812Z" fill="#DA49F1"/>
</svg>
