<svg width="40" height="40" viewBox="0 0 40 40" fill="none" xmlns="http://www.w3.org/2000/svg">
<rect x="0.5" y="0.5" width="39" height="39" rx="19.5" stroke="black"/>
<path d="M18.7608 16.2857H24.9513M15.0465 16.2857H16.2846M18.7608 20H24.9513M15.0465 20H16.2846M18.7608 23.7143H24.9513M15.0465 23.7143H16.2846M27.4275 26.1905V13.8095C27.4275 13.1528 27.1666 12.5229 26.7022 12.0586C26.2378 11.5942 25.608 11.3333 24.9513 11.3333H15.0465C14.3898 11.3333 13.7599 11.5942 13.2956 12.0586C12.8312 12.5229 12.5703 13.1528 12.5703 13.8095V26.1905C12.5703 26.8472 12.8312 27.477 13.2956 27.9414C13.7599 28.4058 14.3898 28.6666 15.0465 28.6666H24.9513C25.608 28.6666 26.2378 28.4058 26.7022 27.9414C27.1666 27.477 27.4275 26.8472 27.4275 26.1905V26.1905Z" stroke="black" stroke-linecap="round" stroke-linejoin="round"/>
</svg>
