<svg width="10" height="10" viewBox="0 0 10 10" fill="none" xmlns="http://www.w3.org/2000/svg">
<g clip-path="url(#clip0_3388_12703)">
<path d="M9.99908 2.3046C9.95627 2.4499 9.94135 2.60157 9.89193 2.7459C9.78112 3.06929 9.60059 3.34645 9.36012 3.58667C8.51543 4.43111 7.67123 5.27579 6.82654 6.11999C6.36836 6.57792 5.81526 6.79711 5.16896 6.75258C4.65378 6.71711 4.2093 6.50967 3.84505 6.14127C3.68654 5.98104 3.68898 5.73177 3.84089 5.56812C3.99109 5.40618 4.24135 5.38759 4.41258 5.53778C4.58602 5.68994 4.76851 5.82302 4.99528 5.87855C5.45762 5.99156 5.86932 5.88931 6.20764 5.55393C7.07214 4.69726 7.93273 3.83667 8.78965 2.97242C9.13335 2.62579 9.2471 2.20234 9.1106 1.73414C8.97655 1.274 8.66123 0.977271 8.19204 0.869636C7.73508 0.764937 7.33756 0.896545 7.00634 1.2263C6.54987 1.68081 6.09585 2.13801 5.63889 2.59252C5.43805 2.79213 5.15086 2.78039 4.99161 2.5705C4.87468 2.41639 4.87541 2.21727 4.99381 2.06413C5.00776 2.04603 5.0217 2.02793 5.03784 2.01203C5.5315 1.52082 6.02026 1.02473 6.52076 0.540618C6.83094 0.240465 7.21305 0.0758333 7.64114 0.0195699C7.66022 0.0171236 7.68053 0.0173683 7.69398 0H8.12379C8.1458 0.0163898 8.17222 0.0163898 8.19791 0.0205484C9.00223 0.151422 9.55533 0.59737 9.86527 1.34959C9.93499 1.51887 9.95725 1.69915 9.99908 1.87528V2.30509V2.3046Z" fill="#AB39D2"/>
<path d="M0 7.90338C0.00978497 7.329 0.222608 6.83119 0.634555 6.41851C1.40268 5.64916 2.17153 4.88031 2.94087 4.11219C3.39661 3.65719 3.94726 3.43923 4.59038 3.48179C5.10604 3.51579 5.55077 3.72324 5.91673 4.08968C6.07696 4.25016 6.07769 4.49772 5.92725 4.66308C5.77827 4.82723 5.52802 4.84924 5.35605 4.69978C5.17943 4.5464 4.99523 4.41087 4.7643 4.3551C4.3049 4.24404 3.89589 4.34629 3.56026 4.67825C2.7711 5.45885 1.9861 6.24385 1.20551 7.03276C0.864502 7.37743 0.754421 7.79941 0.889209 8.26371C1.02277 8.72385 1.33736 9.02156 1.8068 9.12968C2.264 9.23487 2.66151 9.1035 2.99298 8.774C3.37141 8.39752 3.74716 8.01811 4.12608 7.64212C4.33034 7.43957 4.62193 7.45523 4.77923 7.67245C4.8898 7.82534 4.88637 8.02153 4.77017 8.17124C4.75623 8.1891 4.74204 8.2072 4.7259 8.22335C4.30563 8.64092 3.8954 9.06926 3.46266 9.47338C2.59497 10.2838 1.13946 10.1373 0.429805 9.18301C0.148976 8.80506 0.00513711 8.38358 0 7.90338Z" fill="#AB39D2"/>
</g>
<defs>
<clipPath id="clip0_3388_12703">
<rect width="10.0017" height="10" fill="white"/>
</clipPath>
</defs>
</svg>
