<svg width="16" height="17" viewBox="0 0 16 17" fill="none" xmlns="http://www.w3.org/2000/svg">
<path d="M0.446927 16.8602H8H15.5531C15.6716 16.8602 15.7853 16.8104 15.8691 16.7218C15.9529 16.6332 16 16.5131 16 16.3878C16 16.2625 15.9529 16.1423 15.8691 16.0537C15.7853 15.9651 15.6716 15.9153 15.5531 15.9153H8H0.446927C0.328395 15.9153 0.214717 15.9651 0.130902 16.0537C0.0470867 16.1423 0 16.2625 0 16.3878C0 16.5131 0.0470867 16.6332 0.130902 16.7218C0.214717 16.8104 0.328395 16.8602 0.446927 16.8602ZM5.95486 13.3092C6.33242 13.1975 6.67692 12.9862 6.95598 12.695L15.4834 3.6805C15.7754 3.37058 15.9393 2.95097 15.9393 2.51353C15.9393 2.07609 15.7754 1.65648 15.4834 1.34656L14.6431 0.467782C14.3458 0.167539 13.9504 0 13.5392 0C13.128 0 12.7327 0.167539 12.4353 0.467782L3.90793 9.47285C3.63204 9.76591 3.43463 10.1311 3.33587 10.5312L2.67441 13.1391C2.64303 13.2583 2.64222 13.3841 2.67207 13.5036C2.70192 13.6232 2.76135 13.7322 2.84425 13.8195C2.97077 13.951 3.14058 14.0255 3.31799 14.0274L5.95486 13.3092ZM6.32134 12.0241C6.15656 12.2015 5.94972 12.3288 5.72246 12.3926L4.85542 12.6383L3.96156 11.6934L4.19397 10.7768C4.25649 10.5375 4.37659 10.3194 4.54257 10.1437L4.88223 9.79412L6.66101 11.6745L6.32134 12.0241ZM7.29564 11.0036L5.51687 9.12323L11.5325 2.76393L13.3113 4.64432L7.29564 11.0036ZM14.8487 3.01906L13.9459 3.97343L12.1672 2.09304L13.0699 1.12922C13.1321 1.06328 13.2059 1.01096 13.2872 0.975261C13.3685 0.93956 13.4557 0.921181 13.5437 0.921181C13.6317 0.921181 13.7189 0.93956 13.8002 0.975261C13.8815 1.01096 13.9553 1.06328 14.0174 1.12922L14.8487 2.01745C14.9734 2.15081 15.0433 2.33075 15.0433 2.51825C15.0433 2.70575 14.9734 2.8857 14.8487 3.01906Z" fill="white"/>
</svg>
