<svg width="28" height="28" viewBox="0 0 28 28" fill="none" xmlns="http://www.w3.org/2000/svg">
<path d="M13.1501 11.9818C13.5341 12.0658 13.9181 12.0058 14.3021 12.0298C14.4341 12.0418 14.4341 11.9458 14.4341 11.8498C14.4341 11.5498 14.4341 11.2618 14.4341 10.9618C14.4341 10.8058 14.4821 10.7578 14.6381 10.7578C14.9141 10.7698 15.1901 10.7578 15.4661 10.7698C15.6461 10.7698 15.7061 10.8418 15.6581 11.0458C15.5861 11.3578 15.7421 11.6698 15.7301 11.9938C15.7301 12.0778 15.8501 12.0418 15.9101 12.0418C16.6301 12.0418 17.3381 12.0418 18.0581 12.0418C18.2141 12.0418 18.2621 11.9938 18.2621 11.8378C18.2621 11.5618 18.2741 11.2858 18.2621 11.0098C18.2621 10.8538 18.2981 10.7938 18.4781 10.7938C20.4701 10.8058 22.4501 10.8058 24.4421 10.8058C24.6221 10.8058 24.6701 10.8778 24.6701 11.0458C24.6581 11.3098 24.6701 11.5618 24.6461 11.8258C24.6221 12.0298 24.7181 12.0898 24.9101 12.0898C25.5941 12.0898 26.2901 12.1018 26.9741 12.1018C27.1661 12.1018 27.2501 12.1378 27.2261 12.3538C27.2021 12.6058 27.2141 12.8578 27.2261 13.1098C27.2381 13.3018 27.1781 13.3858 26.9621 13.3618C26.6981 13.3378 26.4221 13.3618 26.1581 13.3498C25.9781 13.3378 25.9301 13.4098 25.9301 13.5898C25.9301 14.2858 25.9181 14.9698 25.9181 15.6658C25.9181 15.8818 25.8461 15.9418 25.6421 15.9298C24.9581 15.9058 24.2861 15.8938 23.6021 15.8938C23.4221 15.8938 23.3741 15.8218 23.3741 15.6538C23.3861 15.3898 23.3741 15.1138 23.3861 14.8498C23.3981 14.6578 23.3021 14.5978 23.1341 14.5978C22.8821 14.5978 22.6301 14.5738 22.3781 14.5978C22.1381 14.6098 22.1021 14.5138 22.1021 14.2978C22.1261 13.6498 22.1141 12.9898 22.1261 12.3298C22.1261 12.1138 22.0541 12.0298 21.8381 12.0418C21.5741 12.0538 21.3221 12.0538 21.0581 12.0418C20.8901 12.0298 20.8301 12.0898 20.8301 12.2698C20.8421 12.9538 20.8181 13.6378 20.8301 14.3098C20.8301 14.5138 20.7701 14.5978 20.5541 14.5738C20.2901 14.5498 20.0141 14.5738 19.7501 14.5618C19.5701 14.5498 19.5101 14.6338 19.5101 14.7898C19.5101 15.0538 19.4861 15.3058 19.4981 15.5698C19.5101 15.7858 19.4501 15.8698 19.2221 15.8578C18.5501 15.8338 17.8781 15.8578 17.2061 15.8338C17.0021 15.8338 16.9541 15.8938 16.9541 16.0858C16.9661 16.7218 16.9541 17.3578 16.9541 17.9938C16.9541 18.2458 16.9061 18.3778 16.6181 18.3298C16.4021 18.2938 16.1741 18.3058 15.9461 18.3178C15.7661 18.3298 15.7181 18.2698 15.7181 18.0898C15.7301 17.4298 15.7061 16.7578 15.7301 16.0978C15.7421 15.8578 15.6341 15.7858 15.4181 15.7858C15.1421 15.7858 14.8661 15.7858 14.5901 15.7738C14.4221 15.7618 14.3741 15.8338 14.3741 16.0018C14.3861 16.6978 14.3741 17.3818 14.3861 18.0778C14.3861 18.2578 14.3501 18.3058 14.1581 18.2938C13.0661 18.2698 11.9741 18.2578 10.8821 18.2578C10.7021 18.2578 10.6301 18.2098 10.6421 18.0178C10.6541 17.7778 10.6301 17.5378 10.6421 17.2978C10.6541 17.0578 10.5461 16.9858 10.3301 16.9858C9.68213 16.9858 9.02213 16.9618 8.37413 16.9738C8.14613 16.9738 8.07414 16.9018 8.09814 16.6858C8.11014 16.4458 8.11014 16.2058 8.09814 15.9658C8.09814 15.8338 8.13414 15.7978 8.26614 15.7978C8.54214 15.8098 8.81813 15.7978 9.09413 15.8098C9.28613 15.8218 9.35813 15.7378 9.34613 15.5578C9.33413 15.2698 9.33414 14.9818 9.33414 14.6938C9.33414 14.5498 9.27413 14.4898 9.13013 14.4898C8.85413 14.5018 8.57814 14.4778 8.30214 14.4898C8.15814 14.4898 8.08614 14.4658 8.09814 14.2978C8.11014 14.0098 8.11014 13.7218 8.09814 13.4338C8.09814 13.2898 8.14613 13.2538 8.27813 13.2538C8.96213 13.2658 9.65813 13.2658 10.3421 13.2538C10.5221 13.2538 10.5701 13.3018 10.5701 13.4818C10.5581 14.1778 10.5701 14.8618 10.5581 15.5578C10.5581 15.7618 10.6181 15.8338 10.8221 15.8218C11.0861 15.8098 11.3621 15.8338 11.6261 15.8218C11.7941 15.8218 11.8421 15.8818 11.8421 16.0378C11.8421 16.3018 11.8541 16.5778 11.8421 16.8418C11.8301 17.0218 11.9021 17.0818 12.0821 17.0698C12.3461 17.0578 12.6221 17.0458 12.8861 17.0698C13.1261 17.0938 13.1621 16.9858 13.1621 16.7818C13.1501 15.4378 13.1501 14.0938 13.1501 12.7498C13.1501 12.5098 13.1621 12.2458 13.1501 11.9818ZM15.0461 14.5738C15.0701 14.5738 15.0941 14.5738 15.1301 14.5738C15.7421 14.5738 15.7421 14.5738 15.7421 13.9498C15.7421 13.2778 15.7421 13.2778 15.0701 13.2778C14.4101 13.2778 14.4101 13.2778 14.3981 13.9258C14.3861 14.5738 14.3861 14.5738 15.0461 14.5738ZM17.6021 14.5978C17.7581 14.5978 17.9261 14.5858 18.0821 14.5978C18.2261 14.6098 18.2741 14.5618 18.2621 14.4178C18.2501 14.1178 18.2621 13.8058 18.2741 13.5058C18.2741 13.3618 18.2261 13.2898 18.0701 13.2898C17.8421 13.2898 17.6021 13.2778 17.3741 13.2778C16.9661 13.2778 16.9661 13.2778 16.9661 13.6738C16.9661 13.7578 16.9661 13.8538 16.9661 13.9378C16.9661 14.5738 16.9661 14.5738 17.6021 14.5978Z" fill="white"/>
<path d="M22.8329 0.560571C24.2609 0.560571 25.6769 0.560571 27.1049 0.560571C27.2969 0.560571 27.3449 0.620586 27.3449 0.800586C27.3089 3.59659 27.2729 6.39257 27.2609 9.18857C27.2609 9.45257 27.1889 9.52457 26.9129 9.52457C24.1529 9.50057 21.3929 9.48859 18.6329 9.46459C18.2969 9.46459 18.2969 9.46457 18.2969 9.10456C18.3089 6.33257 18.3089 3.56059 18.3089 0.800586C18.3089 0.536586 18.3809 0.476562 18.6329 0.476562C20.0249 0.488562 21.4289 0.488574 22.8209 0.488574C22.8329 0.512574 22.8329 0.536571 22.8329 0.560571ZM26.0009 5.04856C26.0249 5.04856 26.0369 5.04856 26.0609 5.04856C26.0609 4.08856 26.0609 3.12857 26.0609 2.16857C26.0609 1.79657 26.0609 1.79657 25.6769 1.79657C23.7329 1.78457 21.7889 1.78457 19.8449 1.76057C19.6049 1.76057 19.5569 1.84456 19.5569 2.04856C19.5569 4.04056 19.5569 6.03257 19.5449 8.02457C19.5449 8.19257 19.5809 8.24056 19.7489 8.24056C21.7529 8.25256 23.7569 8.26457 25.7729 8.28857C25.9529 8.28857 26.0009 8.24057 26.0009 8.06057C26.0009 7.05257 26.0009 6.04456 26.0009 5.04856Z" fill="white"/>
<path d="M9.27344 4.97656C9.27344 6.38056 9.27344 7.78459 9.27344 9.20059C9.27344 9.34459 9.28544 9.44056 9.06944 9.44056C6.28544 9.42856 3.50144 9.41658 0.717441 9.41658C0.465441 9.41658 0.393442 9.35655 0.381442 9.09255C0.357442 6.30855 0.321438 3.52456 0.273438 0.740564C0.273438 0.524564 0.333439 0.476562 0.537439 0.476562C3.34544 0.488562 6.16544 0.488562 8.97344 0.476562C9.17744 0.476562 9.23744 0.536552 9.22544 0.728552C9.21344 2.14455 9.22544 3.56056 9.22544 4.97656C9.24944 4.97656 9.26144 4.97656 9.27344 4.97656ZM8.02544 4.96459C8.01344 4.96459 8.00144 4.96459 7.98944 4.96459C7.98944 4.02859 7.98944 3.08058 7.98944 2.14458C7.98944 1.74858 7.98944 1.74858 7.58144 1.73658C7.55744 1.73658 7.53344 1.73658 7.49744 1.73658C5.63744 1.73658 3.78943 1.73658 1.92943 1.73658C1.55743 1.73658 1.55744 1.73657 1.55744 2.09657C1.58144 4.05257 1.60544 6.00858 1.61744 7.95258C1.61744 8.15658 1.71344 8.18058 1.86944 8.18058C3.82544 8.18058 5.79344 8.18055 7.74944 8.19255C7.96544 8.19255 8.00144 8.12055 8.00144 7.92855C8.02544 6.93255 8.02544 5.94859 8.02544 4.96459Z" fill="white"/>
<path d="M4.88 18.3334C6.248 18.3334 7.616 18.3454 8.996 18.3334C9.248 18.3334 9.284 18.4174 9.284 18.6454C9.296 21.3214 9.31999 24.0094 9.34399 26.6854C9.34399 26.9134 9.272 26.9494 9.068 26.9494C6.332 26.9134 3.608 26.8774 0.871997 26.8534C0.691997 26.8534 0.619998 26.8174 0.619998 26.6134C0.583998 23.9374 0.548 21.2494 0.5 18.5734C0.5 18.3334 0.547997 18.2734 0.787997 18.2734C2.144 18.2854 3.512 18.2854 4.868 18.2854C4.88 18.2974 4.88 18.3094 4.88 18.3334ZM4.92799 19.5094C4.92799 19.4974 4.92799 19.4734 4.92799 19.4614C3.95599 19.4614 2.996 19.4734 2.024 19.4614C1.808 19.4614 1.736 19.5214 1.736 19.7494C1.76 21.6454 1.784 23.5534 1.796 25.4494C1.796 25.6414 1.85599 25.7254 2.05999 25.7254C3.99199 25.7014 5.924 25.7974 7.868 25.8214C8.12 25.8214 8.18 25.7254 8.168 25.5094C8.156 24.9694 8.156 24.4294 8.156 23.9014C8.144 22.5814 8.144 21.2614 8.132 19.9534C8.132 19.5334 8.12 19.5334 7.724 19.5334C6.8 19.5094 5.86399 19.5094 4.92799 19.5094Z" fill="white"/>
<path d="M13.8005 24.6181C14.3525 24.6181 14.9165 24.6061 15.4685 24.6181C15.6605 24.6181 15.7445 24.5581 15.7325 24.3541C15.7205 24.0901 15.7205 23.8141 15.7325 23.5501C15.7445 23.3701 15.6725 23.3101 15.4925 23.3221C15.2285 23.3341 14.9765 23.3101 14.7125 23.3221C14.5085 23.3341 14.4125 23.2741 14.4365 23.0461C14.4485 22.7821 14.4365 22.5301 14.4365 22.2661C14.4365 22.0981 14.3645 22.0381 14.2085 22.0501C13.9325 22.0501 13.6565 22.0381 13.3805 22.0501C13.2365 22.0501 13.1645 22.0141 13.1645 21.8581C13.1645 21.1621 13.1525 20.4661 13.1525 19.7581C13.1525 19.6261 13.2005 19.5781 13.3205 19.5781C13.6205 19.5901 13.9325 19.5901 14.2325 19.5901C14.3645 19.5901 14.3765 19.6501 14.3765 19.7581C14.3765 20.0581 14.3765 20.3701 14.3765 20.6701C14.3765 20.8261 14.4245 20.8741 14.5685 20.8741C14.8685 20.8621 15.1805 20.8741 15.4805 20.8741C15.6245 20.8741 15.6725 20.9101 15.6605 21.0541C15.6485 21.3421 15.6605 21.6301 15.6485 21.9181C15.6485 22.0621 15.6845 22.1221 15.8405 22.1221C16.1405 22.1101 16.4285 22.1221 16.7285 22.1341C16.8845 22.1341 16.9565 22.0861 16.9445 21.9181C16.9325 21.6421 16.9565 21.3661 16.9445 21.0901C16.9445 20.9341 16.9925 20.8861 17.1365 20.8861C17.4245 20.8981 17.7125 20.8981 18.0005 20.8861C18.1445 20.8861 18.1925 20.9341 18.1925 21.0661C18.1805 21.3301 18.2045 21.5821 18.1805 21.8461C18.1565 22.0861 18.2525 22.1581 18.4805 22.1581C19.5605 22.1581 20.6525 22.1701 21.7325 22.1701C21.9365 22.1701 22.0325 22.2061 22.0085 22.4341C21.9845 22.6621 21.9845 22.9021 21.9965 23.1301C22.0085 23.3221 21.9605 23.3941 21.7445 23.3821C21.0725 23.3581 20.4005 23.3701 19.7285 23.3461C19.5005 23.3341 19.4165 23.4061 19.4165 23.6461C19.4285 24.2821 19.4165 24.9181 19.4285 25.5541C19.4285 25.7701 19.3805 25.8421 19.1525 25.8421C18.4925 25.8181 17.8325 25.8421 17.1605 25.8301C16.9565 25.8301 16.8725 25.8781 16.8845 26.1061C16.9085 26.3581 16.8845 26.6101 16.8845 26.8621C16.8845 26.9941 16.8365 27.0301 16.7045 27.0301C16.4405 27.0181 16.1645 27.0181 15.9005 27.0301C15.7445 27.0301 15.6965 26.9821 15.6965 26.8261C15.7085 26.5741 15.6965 26.3221 15.6965 26.0701C15.6965 25.9021 15.6365 25.8301 15.4565 25.8301C15.1685 25.8301 14.8805 25.8301 14.5925 25.8181C14.4005 25.8061 14.3165 25.8661 14.3285 26.0821C14.3405 26.3221 14.3285 26.5621 14.3405 26.8021C14.3405 26.9461 14.3045 27.0181 14.1485 27.0061C13.8845 26.9941 13.6325 26.9941 13.3685 26.9941C13.2245 26.9941 13.1645 26.9461 13.1645 26.7901C13.1765 26.5261 13.1645 26.2741 13.1645 26.0101C13.1645 25.8541 13.0925 25.7821 12.9365 25.7821C12.6485 25.7821 12.3605 25.7701 12.0725 25.7701C11.9165 25.7701 11.8685 25.7101 11.8805 25.5661C11.8925 25.3141 11.8925 25.0621 11.8685 24.8101C11.8565 24.6181 11.9285 24.5821 12.0965 24.5941C12.6485 24.6061 13.2125 24.5941 13.7645 24.5941C13.8005 24.5941 13.8005 24.6061 13.8005 24.6181ZM17.5805 23.3341C17.4245 23.3341 17.2805 23.3461 17.1245 23.3341C16.9565 23.3221 16.9085 23.3941 16.9085 23.5501C16.9205 23.8261 16.9205 24.1021 16.9085 24.3781C16.8965 24.5581 16.9565 24.6421 17.1485 24.6301C17.3165 24.6181 17.4845 24.6301 17.6525 24.6301C18.2525 24.6301 18.2525 24.6301 18.2525 24.0181C18.2645 23.3341 18.2645 23.3341 17.5805 23.3341Z" fill="white"/>
<path d="M6.11857 10.7464C7.09057 10.7464 8.07456 10.7464 9.04656 10.7464C9.21456 10.7464 9.28656 10.7824 9.27456 10.9624C9.26256 11.2264 9.26256 11.4784 9.27456 11.7424C9.28656 11.9344 9.22657 11.9824 9.03457 11.9824C7.53457 11.9584 6.04656 11.9584 4.54656 11.9344C4.28256 11.9344 4.17456 11.9944 4.21056 12.2704C4.23456 12.5224 4.23456 12.7744 4.21056 13.0264C4.19856 13.2304 4.27056 13.2904 4.46256 13.2904C5.13456 13.2784 5.80656 13.3024 6.47856 13.2784C6.69456 13.2784 6.75457 13.3504 6.75457 13.5544C6.74257 13.8064 6.74257 14.0584 6.76657 14.3104C6.77857 14.4904 6.70657 14.5144 6.55057 14.5144C5.86657 14.5024 5.17057 14.5024 4.48657 14.4784C4.27057 14.4664 4.19856 14.5264 4.21056 14.7424C4.23456 15.0064 4.22256 15.2824 4.21056 15.5464C4.19856 15.7384 4.25856 15.8224 4.46256 15.8104C4.75056 15.7984 5.03856 15.8104 5.32656 15.8104C5.43456 15.8104 5.50656 15.8224 5.50656 15.9664C5.49456 16.2544 5.49456 16.5424 5.50656 16.8304C5.50656 16.9624 5.44656 16.9984 5.32656 16.9984C4.18656 16.9864 3.04657 16.9624 1.91857 16.9624C1.78657 16.9624 1.75057 16.9024 1.75057 16.7824C1.75057 16.0864 1.73856 15.4024 1.72656 14.7064C1.72656 14.5624 1.77457 14.5144 1.91857 14.5264C2.18257 14.5384 2.45856 14.5144 2.72256 14.5384C2.92656 14.5504 2.98657 14.4784 2.98657 14.2864C2.96257 13.2184 2.95056 12.1504 2.92656 11.0824C2.92656 10.7224 2.92657 10.7344 3.28657 10.7344C4.22257 10.7344 5.17056 10.7344 6.10656 10.7344C6.11856 10.7344 6.11857 10.7464 6.11857 10.7464Z" fill="white"/>
<path d="M25.2596 17.1604C25.8116 17.1604 26.3756 17.1724 26.9276 17.1604C27.1196 17.1604 27.1796 17.2204 27.1676 17.4124C27.1436 17.6884 27.1436 17.9644 27.1436 18.2404C27.1436 18.4084 27.0716 18.4324 26.9276 18.4204C26.6516 18.4084 26.3756 18.4084 26.0996 18.3964C25.9796 18.3964 25.8956 18.4084 25.8956 18.5644C25.8956 18.8644 25.8956 19.1764 25.8836 19.4764C25.8836 19.6204 25.9316 19.6684 26.0756 19.6684C26.3636 19.6684 26.6516 19.6804 26.9396 19.6684C27.0836 19.6684 27.1556 19.7044 27.1436 19.8604C27.1316 20.1364 27.1316 20.4124 27.1316 20.6884C27.1316 20.8324 27.0836 20.8924 26.9276 20.8924C26.6396 20.8804 26.3516 20.8924 26.0636 20.8804C25.9076 20.8804 25.8356 20.9284 25.8356 21.0964C25.8476 21.3604 25.8236 21.6364 25.8356 21.9004C25.8476 22.0804 25.7756 22.1284 25.6076 22.1284C25.3196 22.1164 25.0316 22.1164 24.7436 22.1164C24.6116 22.1164 24.5876 22.0804 24.5996 21.9604C24.6116 21.6964 24.5876 21.4204 24.6116 21.1564C24.6356 20.9044 24.5276 20.8564 24.3116 20.8564C23.6636 20.8684 23.0036 20.8444 22.3556 20.8564C22.1276 20.8564 22.0676 20.7844 22.0796 20.5684C22.1036 20.3044 22.0916 20.0524 22.0916 19.7884C22.0916 19.6564 22.1396 19.6084 22.2596 19.6204C22.5236 19.6324 22.7996 19.6084 23.0636 19.6324C23.3036 19.6564 23.3876 19.5844 23.3876 19.3324C23.3636 18.6844 23.3876 18.0364 23.3756 17.4004C23.3756 17.1964 23.4356 17.1484 23.6276 17.1484C24.1676 17.1724 24.7076 17.1604 25.2596 17.1604Z" fill="white"/>
<path d="M14.4459 5.64565C14.4459 5.29765 14.4219 4.94966 14.4459 4.60166C14.4579 4.37366 14.3619 4.32564 14.1699 4.32564C13.9059 4.33764 13.6299 4.31367 13.3659 4.31367C13.2099 4.31367 13.1379 4.27765 13.1499 4.10965C13.1619 3.82165 13.1619 3.53365 13.1499 3.24565C13.1379 3.08965 13.1979 3.05365 13.3539 3.05365C13.6179 3.06565 13.8939 3.04166 14.1579 3.06566C14.3739 3.07766 14.4699 3.01765 14.4459 2.78964C14.4219 2.53765 14.4579 2.28568 14.4339 2.03368C14.4099 1.80568 14.5059 1.75767 14.7099 1.76967C14.9499 1.78167 15.1899 1.75765 15.4299 1.78165C15.6939 1.80565 15.7539 1.69767 15.7299 1.46967C15.7179 1.20567 15.7299 0.953645 15.7179 0.689645C15.7179 0.545645 15.7419 0.473665 15.9099 0.485665C16.1979 0.497665 16.4859 0.497665 16.7739 0.485665C16.9299 0.485665 16.9779 0.545645 16.9779 0.689645C16.9779 1.85364 16.9779 3.01765 16.9779 4.18165C16.9779 4.31365 16.9419 4.34967 16.8099 4.34967C16.5219 4.33767 16.2339 4.36167 15.9459 4.34967C15.7659 4.33767 15.7179 4.40967 15.7179 4.57767C15.7299 4.93767 15.7179 5.29766 15.7179 5.65766L15.7299 5.64565C15.2979 5.63365 14.8659 5.63365 14.4459 5.64565Z" fill="white"/>
<path d="M13.1623 5.63702C12.7903 5.62502 12.4303 5.625 12.0583 5.613C11.9143 5.613 11.8183 5.63701 11.8183 5.81701C11.8303 7.46101 11.8063 9.105 11.8663 10.749L11.8783 10.737C11.5183 10.737 11.1583 10.737 10.7983 10.737C10.6303 10.737 10.5823 10.677 10.5823 10.509C10.5823 8.08502 10.5823 5.64901 10.5703 3.22501C10.5703 3.06901 10.6183 3.021 10.7743 3.033C11.0503 3.045 11.3263 3.045 11.6023 3.033C11.7703 3.021 11.8183 3.081 11.8183 3.249C11.8063 3.549 11.8303 3.86101 11.8183 4.16101C11.8183 4.30501 11.8663 4.353 12.0103 4.341C12.3103 4.329 12.5983 4.353 12.8983 4.341C13.0903 4.329 13.1743 4.37699 13.1623 4.59299C13.1383 4.94099 13.1503 5.28902 13.1623 5.63702Z" fill="white"/>
<path d="M23.2298 25.856C22.8938 25.856 22.5698 25.868 22.2338 25.856C22.0178 25.844 21.9458 25.928 21.9578 26.132C21.9698 26.36 21.9578 26.6 21.9578 26.828C21.9698 26.996 21.9218 27.08 21.7418 27.068C21.4778 27.056 21.2258 27.056 20.9618 27.056C20.8298 27.056 20.7578 27.02 20.7578 26.876C20.7698 26.192 20.7698 25.496 20.7698 24.812C20.7698 24.68 20.8298 24.644 20.9498 24.644C21.2138 24.644 21.4658 24.632 21.7298 24.644C21.9458 24.656 22.0418 24.596 22.0298 24.368C22.0178 24.116 22.0418 23.864 22.0298 23.612C22.0298 23.444 22.0898 23.396 22.2578 23.408C22.5098 23.432 22.7618 23.432 23.0138 23.408C23.2418 23.396 23.2898 23.48 23.2658 23.684C23.2418 23.912 23.2658 24.152 23.2538 24.38C23.2298 24.608 23.3378 24.656 23.5298 24.656C23.7818 24.644 24.0338 24.668 24.2858 24.656C24.4658 24.644 24.5258 24.716 24.5138 24.884C24.5018 25.148 24.4898 25.4 24.5018 25.664C24.5018 25.82 24.4538 25.868 24.2978 25.856C23.9498 25.856 23.5898 25.868 23.2298 25.856Z" fill="white"/>
<path d="M15.7284 6.93245C15.7284 7.36445 15.7284 7.79643 15.7164 8.22843L15.7284 8.21646C15.3444 8.13246 14.9604 8.18044 14.5884 8.16844C14.4564 8.16844 14.4204 8.24045 14.4204 8.36045C14.4204 8.62445 14.3964 8.87644 14.4204 9.14044C14.4444 9.40444 14.3484 9.48847 14.0964 9.46447C13.8564 9.44047 13.6164 9.45247 13.3764 9.46447C13.1964 9.47647 13.1484 9.40446 13.1484 9.23646C13.1604 8.03646 13.1604 6.83644 13.1604 5.64844L13.1484 5.66045C13.5804 5.66045 14.0124 5.66045 14.4444 5.66045L14.4324 5.64844C14.4324 5.99644 14.4324 6.34443 14.4204 6.69243C14.4084 6.87243 14.4684 6.94446 14.6604 6.94446C15.0204 6.92046 15.3804 6.93245 15.7284 6.93245Z" fill="white"/>
<path d="M10.6641 22.0556C10.6641 21.2996 10.6641 20.5556 10.6641 19.7996C10.6641 19.6196 10.7241 19.5716 10.8921 19.5716C11.1441 19.5836 11.3961 19.5836 11.6481 19.5716C11.8161 19.5596 11.8641 19.6316 11.8641 19.7876C11.8641 21.2996 11.8641 22.8116 11.8641 24.3236C11.8641 24.4796 11.8041 24.5276 11.6601 24.5156C11.4321 24.5036 11.1921 24.5036 10.9641 24.5156C10.7601 24.5276 10.6881 24.4676 10.6881 24.2516C10.7001 23.5196 10.6881 22.7876 10.6881 22.0556C10.6761 22.0556 10.6641 22.0556 10.6641 22.0556Z" fill="white"/>
<path d="M1.69806 12.6086C1.69806 13.1486 1.69806 13.7006 1.69806 14.2406C1.69806 14.3966 1.66206 14.4446 1.50606 14.4326C1.21806 14.4086 0.930059 14.4086 0.654059 14.4086C0.522059 14.4086 0.462064 14.3726 0.462064 14.2286C0.450064 13.1126 0.438062 11.9966 0.414062 10.8806C0.414062 10.7126 0.48606 10.6886 0.61806 10.6886C0.88206 10.7006 1.15806 10.7006 1.42206 10.6886C1.61406 10.6766 1.66206 10.7606 1.66206 10.9406C1.65006 11.4926 1.66206 12.0446 1.66206 12.6086C1.67406 12.6086 1.68606 12.6086 1.69806 12.6086Z" fill="white"/>
<path d="M20.7805 18.3808C20.4445 18.3808 20.0965 18.3688 19.7605 18.3808C19.5925 18.3808 19.5205 18.3448 19.5325 18.1528C19.5445 17.8888 19.5445 17.6128 19.5445 17.3488C19.5445 17.1928 19.5805 17.1328 19.7485 17.1328C20.4565 17.1448 21.1645 17.1448 21.8605 17.1448C22.0045 17.1448 22.0765 17.1688 22.0645 17.3368C22.0525 17.6128 22.0525 17.8888 22.0525 18.1648C22.0525 18.3448 21.9805 18.3928 21.8125 18.3808C21.4765 18.3808 21.1285 18.3928 20.7805 18.3808Z" fill="white"/>
<path d="M12.4996 0.476562C13.1356 0.476562 13.1356 0.476586 13.1356 1.10059C13.1356 1.73659 13.1356 1.73656 12.4876 1.74856C11.8516 1.76056 11.8516 1.76057 11.8516 1.12457C11.8516 0.476573 11.8516 0.476562 12.4996 0.476562Z" fill="white"/>
<path d="M11.8653 10.7475C12.2253 10.7475 12.5853 10.7595 12.9333 10.7595C13.1013 10.7595 13.1493 10.8075 13.1493 10.9755C13.1373 11.3115 13.1493 11.6595 13.1493 11.9955L13.1613 11.9835C12.7893 11.9835 12.4173 11.9835 12.0333 11.9955C11.8893 11.9955 11.8413 11.9595 11.8533 11.8155C11.8653 11.4435 11.8653 11.0955 11.8653 10.7475Z" fill="white"/>
<path d="M20.1438 20.8674C19.5078 20.8674 19.5078 20.8674 19.5078 20.2434C19.5078 19.6314 19.5078 19.6314 20.1678 19.6434C20.7798 19.6434 20.7798 19.6434 20.7798 20.2554C20.7798 20.8674 20.7798 20.8674 20.1438 20.8674Z" fill="white"/>
<path d="M15.7266 5.64844C16.0746 5.64844 16.4226 5.66044 16.7706 5.64844C16.9146 5.64844 16.9746 5.69645 16.9746 5.85245C16.9626 6.15245 16.9626 6.44044 16.9746 6.74044C16.9746 6.88444 16.9386 6.93243 16.7946 6.92043C16.5306 6.90843 16.2546 6.90846 15.9906 6.90846C15.9066 6.90846 15.8106 6.88446 15.7266 6.94446H15.7386C15.7266 6.50046 15.7266 6.06844 15.7266 5.64844Z" fill="white"/>
<path d="M8.04069 15.1502C8.04069 15.7862 8.04069 15.7862 7.40469 15.7742C6.80469 15.7622 6.80469 15.7622 6.80469 15.1502C6.80469 14.5142 6.80468 14.5142 7.41668 14.5262C8.04068 14.5262 8.04069 14.5262 8.04069 15.1502Z" fill="white"/>
<path d="M24.5521 22.7641C24.5521 23.3881 24.5521 23.388 23.9281 23.388C23.3281 23.388 23.3281 23.388 23.3281 22.788C23.3281 22.164 23.3281 22.1641 23.9641 22.1641C24.5521 22.1641 24.5521 22.1641 24.5521 22.7641Z" fill="white"/>
<path d="M15.7188 8.23073C16.0788 8.23073 16.4507 8.23075 16.8107 8.21875C16.9187 8.21875 16.9668 8.25476 16.9668 8.37476C16.9668 8.68676 16.9548 8.99875 16.9668 9.31075C16.9668 9.43075 16.9187 9.46675 16.8107 9.45475C16.5347 9.44275 16.2588 9.44275 15.9828 9.45475C15.8148 9.45475 15.7427 9.38273 15.7427 9.21473C15.7427 8.89073 15.7308 8.55473 15.7188 8.23073Z" fill="white"/>
<path d="M17.6126 19.5786C16.9766 19.5786 16.9766 19.5787 16.9766 18.9427C16.9766 18.4027 16.9766 18.4026 17.5406 18.3906C18.2486 18.3906 18.2486 18.3906 18.2486 19.0506C18.2486 19.5786 18.2486 19.5786 17.7326 19.5786C17.6846 19.5786 17.6486 19.5786 17.6126 19.5786Z" fill="white"/>
<path d="M15.0573 19.5716C14.4453 19.5716 14.4453 19.5716 14.4453 18.9476C14.4453 18.3956 14.4453 18.3955 15.0093 18.3955C15.1413 18.3955 15.2733 18.4075 15.4053 18.3955C15.6213 18.3715 15.7053 18.4315 15.6933 18.6595C15.6693 18.8995 15.6813 19.1396 15.6933 19.3796C15.7053 19.5356 15.6453 19.5836 15.5013 19.5716C15.3453 19.5596 15.2013 19.5716 15.0573 19.5716Z" fill="white"/>
<path d="M24.5469 26.49C24.5469 25.926 24.5469 25.9261 25.1229 25.9141C25.7829 25.9141 25.7829 25.9141 25.7829 26.5621C25.7829 27.0901 25.7829 27.09 25.2549 27.09C25.2189 27.09 25.1829 27.09 25.1469 27.09C24.5469 27.09 24.5469 27.09 24.5469 26.49Z" fill="white"/>
<path d="M11.2515 26.947C10.6875 26.947 10.6875 26.947 10.6875 26.383C10.6875 25.819 10.6875 25.819 11.2635 25.831C11.8515 25.831 11.8515 25.831 11.8515 26.419C11.8515 26.959 11.8515 26.959 11.3115 26.959C11.2875 26.947 11.2635 26.947 11.2515 26.947Z" fill="white"/>
<path d="M20.8887 5.0227C20.8887 4.43471 20.8887 3.85872 20.8887 3.27072C20.8887 3.10272 20.9367 3.05469 21.1047 3.05469C22.2447 3.06669 23.3847 3.07871 24.5127 3.07871C24.6807 3.07871 24.7287 3.13871 24.7287 3.30671C24.7167 4.45871 24.7167 5.59871 24.7047 6.75071C24.7047 6.89471 24.6567 6.9307 24.5247 6.9307C23.3727 6.9187 22.2328 6.9187 21.0808 6.9307C20.9128 6.9307 20.8647 6.87071 20.8767 6.71471C20.8887 6.15071 20.8887 5.5867 20.8887 5.0227Z" fill="white"/>
<path d="M4.78831 3.01681C5.34031 3.01681 5.88031 3.02881 6.43231 3.01681C6.62431 3.01681 6.70831 3.05284 6.69631 3.26884C6.68431 4.40884 6.69631 5.54883 6.69631 6.67683C6.69631 6.82083 6.66031 6.88081 6.50431 6.88081C5.36431 6.86881 4.23631 6.86881 3.09631 6.88081C2.92831 6.88081 2.89231 6.82082 2.88031 6.66482C2.86831 5.53682 2.85631 4.40881 2.82031 3.28081C2.82031 3.05281 2.88031 3.01681 3.09631 3.01681C3.66031 3.01681 4.22431 3.00481 4.78831 3.01681C4.78831 3.00481 4.78831 3.00481 4.78831 3.01681Z" fill="white"/>
<path d="M4.95488 20.8172C5.49488 20.8172 6.04688 20.8172 6.58688 20.8172C6.74288 20.8172 6.80288 20.8532 6.80288 21.0212C6.80288 22.1012 6.80287 23.1933 6.81487 24.2733C6.81487 24.4173 6.77888 24.4772 6.62288 24.4772C5.54288 24.4652 4.46288 24.4532 3.37088 24.4412C3.16688 24.4412 3.09488 24.3813 3.09488 24.1653C3.09488 23.1213 3.07087 22.0652 3.04688 21.0212C3.04688 20.8292 3.09488 20.7812 3.28688 20.7812C3.83888 20.7933 4.39088 20.7812 4.95488 20.7812C4.95488 20.7933 4.95488 20.8052 4.95488 20.8172Z" fill="white"/>
</svg>
