<svg width="29" height="30" viewBox="0 0 29 30" fill="none" xmlns="http://www.w3.org/2000/svg">
<path fill-rule="evenodd" clip-rule="evenodd" d="M19.6209 23.5612L8.66494 17.5133C6.09694 20.6813 0.960938 18.8572 0.960938 14.7892C0.960938 10.7212 6.09694 8.89726 8.66494 12.0653L19.6209 6.01725C18.6609 3.22125 20.7489 0.28125 23.7249 0.28125C27.5769 0.28125 29.5089 4.96127 26.7849 7.68527C24.9609 9.50927 21.9729 9.34127 20.3529 7.34927L9.39694 13.3853C9.70894 14.2853 9.70894 15.2813 9.39694 16.1813L20.3529 22.2293C22.9209 19.0613 28.0569 20.8852 28.0569 24.9532C28.0569 28.8052 23.3769 30.7373 20.6529 28.0133C19.5009 26.8613 19.0809 25.1332 19.6209 23.5612Z" fill="white"/>
</svg>
