<svg width="59" height="59" viewBox="0 0 59 59" fill="none" xmlns="http://www.w3.org/2000/svg">
<path d="M0 10C0 4.47715 4.47715 0 10 0H49C54.5228 0 59 4.47715 59 10V49C59 54.5228 54.5228 59 49 59H10C4.47715 59 0 54.5228 0 49V10Z" fill="#1A1A1A"/>
<path d="M51.2121 49.2121C51.3293 49.095 51.3293 48.905 51.2121 48.7879L49.3029 46.8787C49.1858 46.7615 48.9958 46.7615 48.8787 46.8787C48.7615 46.9958 48.7615 47.1858 48.8787 47.3029L50.5757 49L48.8787 50.6971C48.7615 50.8142 48.7615 51.0042 48.8787 51.1213C48.9958 51.2385 49.1858 51.2385 49.3029 51.1213L51.2121 49.2121ZM6 49.3H51V48.7H6V49.3Z" fill="white"/>
<path d="M8.07422 33L5.98047 27.1875H6.53516L7.85547 30.9336C7.90755 31.1029 7.96484 31.2786 8.02734 31.4609C8.09245 31.6406 8.14844 31.8034 8.19531 31.9492C8.24219 32.0951 8.29036 32.2669 8.33984 32.4648C8.35807 32.3711 8.38411 32.2695 8.41797 32.1602C8.45443 32.0508 8.51302 31.8763 8.59375 31.6367C8.67708 31.3945 8.75781 31.1523 8.83594 30.9102C9.02604 30.306 9.2526 29.668 9.51562 28.9961C9.77865 28.3242 9.99609 27.7214 10.168 27.1875H10.7305L8.60938 33H8.07422ZM11.3359 33V28.7188H11.8242V33H11.3359ZM11.3359 27.8438V27.1875H11.8203V27.8438H11.3359ZM14.7617 33.0938C14.1706 33.0938 13.7005 32.8958 13.3516 32.5C13.0052 32.1042 12.832 31.5677 12.832 30.8906C12.832 30.237 13.0013 29.7018 13.3398 29.2852C13.681 28.8685 14.1211 28.6536 14.6602 28.6406C15.1628 28.6406 15.5664 28.8203 15.8711 29.1797C16.1758 29.5391 16.3281 30.0208 16.3281 30.625C16.3281 30.6484 16.3268 30.6966 16.3242 30.7695C16.3242 30.8398 16.3242 30.8893 16.3242 30.918H13.3438C13.349 31.4674 13.4818 31.9036 13.7422 32.2266C14.0026 32.5469 14.3464 32.707 14.7734 32.707C15.0521 32.707 15.2943 32.6745 15.5 32.6094C15.7057 32.5443 15.9206 32.4518 16.1445 32.332L16.2266 32.6953C15.7943 32.9609 15.306 33.0938 14.7617 33.0938ZM13.3633 30.5273H15.8008C15.8008 30.0508 15.6979 29.6862 15.4922 29.4336C15.2865 29.1784 15.0039 29.0508 14.6445 29.0508C14.2799 29.0508 13.9857 29.1862 13.7617 29.457C13.5378 29.7279 13.4049 30.0846 13.3633 30.5273ZM18.0078 33L16.8125 28.7188H17.3203L18.3086 32.543C19.0195 30.2565 19.4167 28.9818 19.5 28.7188H20.0938C20.8724 31.2604 21.2656 32.5312 21.2734 32.5312L22.2188 28.7188H22.7227L21.5469 33H20.9844C20.9766 33.0026 20.793 32.4023 20.4336 31.1992C20.0742 29.9961 19.8659 29.2891 19.8086 29.0781C19.7773 29.2188 19.6589 29.6159 19.4531 30.2695C19.2474 30.9206 19.0495 31.5391 18.8594 32.125C18.6693 32.7109 18.5729 33.0026 18.5703 33H18.0078ZM25.2109 33C25.2031 30.4115 25.1992 28.9844 25.1992 28.7188H25.6211L25.6836 29.375C25.8086 29.1615 25.9948 28.9857 26.2422 28.8477C26.4922 28.7096 26.7565 28.6406 27.0352 28.6406C27.7201 28.6406 28.1497 28.9102 28.3242 29.4492C28.6289 28.9102 29.1094 28.6406 29.7656 28.6406C30.2344 28.6406 30.5781 28.7747 30.7969 29.043C31.0182 29.3086 31.1289 29.7057 31.1289 30.2344V33H30.6445V30.9062C30.6445 30.7083 30.6419 30.543 30.6367 30.4102C30.6315 30.2773 30.6185 30.1328 30.5977 29.9766C30.5794 29.8203 30.5495 29.6927 30.5078 29.5938C30.4688 29.4948 30.4167 29.401 30.3516 29.3125C30.2865 29.224 30.2031 29.1589 30.1016 29.1172C30 29.0755 29.8802 29.0547 29.7422 29.0547C29.4141 29.0547 29.1354 29.1523 28.9062 29.3477C28.6797 29.5404 28.5221 29.8125 28.4336 30.1641C28.4388 30.4297 28.4453 30.6354 28.4531 30.7812V33H27.9727V30.8203C27.9727 30.599 27.9661 30.4076 27.9531 30.2461C27.9401 30.082 27.9141 29.9219 27.875 29.7656C27.8359 29.6094 27.7826 29.4818 27.7148 29.3828C27.6497 29.2839 27.5612 29.2044 27.4492 29.1445C27.3398 29.0846 27.2083 29.0547 27.0547 29.0547C26.7005 29.0547 26.4036 29.1497 26.1641 29.3398C25.9271 29.5273 25.7734 29.7839 25.7031 30.1094C25.6979 30.2161 25.6953 30.3685 25.6953 30.5664V33H25.2109ZM34.0273 32.707C34.3398 32.707 34.6029 32.625 34.8164 32.4609C35.0326 32.2943 35.1888 32.0755 35.2852 31.8047C35.3841 31.5339 35.4336 31.2227 35.4336 30.8711C35.4336 30.319 35.3164 29.875 35.082 29.5391C34.8477 29.2031 34.4909 29.0352 34.0117 29.0352C33.6992 29.0352 33.4323 29.1198 33.2109 29.2891C32.9922 29.4557 32.832 29.6758 32.7305 29.9492C32.6289 30.2201 32.5781 30.5312 32.5781 30.8828C32.5781 31.4167 32.7018 31.8542 32.9492 32.1953C33.1992 32.5365 33.5586 32.707 34.0273 32.707ZM33.9922 33.0938C33.6042 33.0938 33.2617 32.9961 32.9648 32.8008C32.6706 32.6055 32.4453 32.3411 32.2891 32.0078C32.1354 31.6719 32.0586 31.293 32.0586 30.8711C32.0586 30.5534 32.1029 30.2591 32.1914 29.9883C32.2826 29.7148 32.4115 29.4792 32.5781 29.2812C32.7448 29.0807 32.9518 28.9245 33.1992 28.8125C33.4466 28.6979 33.7214 28.6406 34.0234 28.6406C34.4245 28.6406 34.7721 28.7396 35.0664 28.9375C35.3607 29.1328 35.5807 29.3971 35.7266 29.7305C35.875 30.0612 35.9492 30.4388 35.9492 30.8633C35.9492 31.2904 35.8737 31.6706 35.7227 32.0039C35.5716 32.3372 35.3464 32.6029 35.0469 32.8008C34.7474 32.9961 34.3958 33.0938 33.9922 33.0938ZM36.9102 33C36.9049 30.487 36.9023 29.0599 36.9023 28.7188H37.3008L37.332 29.5625C37.4857 29.3073 37.681 29.099 37.918 28.9375C38.1549 28.776 38.4023 28.6953 38.6602 28.6953C38.7669 28.6953 38.8815 28.7044 39.0039 28.7227L38.9688 29.125C38.875 29.1094 38.776 29.1016 38.6719 29.1016C38.3099 29.1016 38.0052 29.2448 37.7578 29.5312C37.513 29.8151 37.3906 30.1523 37.3906 30.543V33H36.9102ZM41.3555 33.0938C40.7643 33.0938 40.2943 32.8958 39.9453 32.5C39.599 32.1042 39.4258 31.5677 39.4258 30.8906C39.4258 30.237 39.5951 29.7018 39.9336 29.2852C40.2747 28.8685 40.7148 28.6536 41.2539 28.6406C41.7565 28.6406 42.1602 28.8203 42.4648 29.1797C42.7695 29.5391 42.9219 30.0208 42.9219 30.625C42.9219 30.6484 42.9206 30.6966 42.918 30.7695C42.918 30.8398 42.918 30.8893 42.918 30.918H39.9375C39.9427 31.4674 40.0755 31.9036 40.3359 32.2266C40.5964 32.5469 40.9401 32.707 41.3672 32.707C41.6458 32.707 41.888 32.6745 42.0938 32.6094C42.2995 32.5443 42.5143 32.4518 42.7383 32.332L42.8203 32.6953C42.388 32.9609 41.8997 33.0938 41.3555 33.0938ZM39.957 30.5273H42.3945C42.3945 30.0508 42.2917 29.6862 42.0859 29.4336C41.8802 29.1784 41.5977 29.0508 41.2383 29.0508C40.8737 29.0508 40.5794 29.1862 40.3555 29.457C40.1315 29.7279 39.9987 30.0846 39.957 30.5273Z" fill="white"/>
<path d="M7.93799 44V38.5156H6.06152V37.562H11.001V38.5156H9.1333V44H7.93799ZM13.6772 44.0923C12.9009 44.0923 12.2959 43.8696 11.8623 43.4243C11.4316 42.9761 11.2163 42.3579 11.2163 41.5698C11.2163 40.8022 11.4199 40.1914 11.8271 39.7373C12.2344 39.2832 12.7896 39.0547 13.4927 39.0518C14.1577 39.0518 14.6733 39.2598 15.0396 39.6758C15.4087 40.0918 15.5933 40.644 15.5933 41.3325C15.5933 41.3823 15.5918 41.4629 15.5889 41.5742C15.5889 41.6855 15.5889 41.7676 15.5889 41.8203H12.3765C12.3882 42.2715 12.5112 42.6216 12.7456 42.8706C12.9829 43.1167 13.3081 43.2397 13.7212 43.2397C14.2485 43.2397 14.7554 43.1021 15.2417 42.8267L15.4043 43.644C14.9209 43.9429 14.3452 44.0923 13.6772 44.0923ZM12.3984 41.0952H14.5078C14.5078 40.7026 14.4185 40.4009 14.2397 40.1899C14.061 39.979 13.8135 39.8735 13.4971 39.8735C13.2012 39.8735 12.9507 39.9761 12.7456 40.1812C12.5435 40.3862 12.4277 40.6909 12.3984 41.0952ZM16.5337 44V39.1704H17.4653L17.5972 39.7856C17.6558 39.7124 17.7114 39.6479 17.7642 39.5923C17.8198 39.5337 17.8945 39.4692 17.9883 39.3989C18.085 39.3257 18.186 39.2656 18.2915 39.2188C18.3999 39.1719 18.5317 39.1323 18.687 39.1001C18.8452 39.0679 19.0137 39.0518 19.1924 39.0518C19.5762 39.0518 19.8823 39.1294 20.1108 39.2847C20.3423 39.4399 20.5049 39.6216 20.5986 39.8296C20.7715 39.5806 20.9956 39.3887 21.271 39.2539C21.5464 39.1191 21.8525 39.0518 22.1895 39.0518C22.7432 39.0518 23.1489 39.2085 23.4067 39.522C23.6675 39.8354 23.7979 40.2998 23.7979 40.915V44H22.6421V41.2578C22.6421 40.7861 22.5894 40.4463 22.4839 40.2383C22.3813 40.0273 22.1836 39.9219 21.8906 39.9219C21.4424 39.9219 21.1201 40.124 20.9238 40.5283C20.8418 40.707 20.7861 40.9224 20.7568 41.1743V44H19.6055V41.2051C19.6055 40.7744 19.5483 40.4536 19.4341 40.2427C19.3198 40.0317 19.1133 39.9263 18.8145 39.9263C18.5713 39.9263 18.3618 39.9878 18.186 40.1108C18.0103 40.2339 17.877 40.395 17.7861 40.5942C17.7188 40.8901 17.6851 41.2446 17.6851 41.6577V44H16.5337ZM24.936 46.0083V39.1704H25.9248L26.0479 39.8472C26.2061 39.5923 26.4155 39.396 26.6763 39.2583C26.9399 39.1177 27.2329 39.0474 27.5552 39.0474C27.9507 39.0474 28.2979 39.1572 28.5967 39.377C28.8984 39.5967 29.127 39.897 29.2822 40.2778C29.4375 40.6558 29.5151 41.0835 29.5151 41.561C29.5151 42.3081 29.3335 42.9175 28.9702 43.3892C28.6099 43.8579 28.1206 44.0923 27.5024 44.0923C27.1978 44.0923 26.9209 44.0322 26.6719 43.9121C26.4258 43.7891 26.2192 43.6235 26.0522 43.4155C26.0757 43.8374 26.0874 44.0747 26.0874 44.1274V45.9512L24.936 46.0083ZM27.2563 43.2134C27.5991 43.2134 27.8687 43.0698 28.0649 42.7827C28.2642 42.4956 28.3638 42.0854 28.3638 41.5522C28.3638 41.0103 28.2642 40.603 28.0649 40.3306C27.8657 40.0581 27.5889 39.9219 27.2344 39.9219C26.4727 39.9219 26.0874 40.4404 26.0786 41.4775C26.0786 42.0752 26.1768 42.5146 26.373 42.7959C26.5723 43.0742 26.8667 43.2134 27.2563 43.2134ZM32.1475 44.0659C31.8164 44.0659 31.541 44.0278 31.3213 43.9517C31.1045 43.8726 30.9331 43.748 30.8071 43.5781C30.6812 43.4082 30.5933 43.2061 30.5435 42.9717C30.4937 42.7373 30.4688 42.4458 30.4688 42.0972V37.3906L31.6201 37.3159V42.0752C31.6201 42.5088 31.6714 42.8032 31.7739 42.9585C31.8765 43.1108 32.0757 43.187 32.3716 43.187C32.5181 43.187 32.7041 43.1709 32.9297 43.1387L32.9604 43.9604C32.9575 43.9604 32.9209 43.9678 32.8506 43.9824C32.7832 43.9971 32.7173 44.0088 32.6528 44.0176C32.5913 44.0293 32.5122 44.0396 32.4155 44.0483C32.3188 44.0601 32.2295 44.0659 32.1475 44.0659ZM34.8062 44.0923C34.3579 44.0923 33.9946 43.9692 33.7163 43.7231C33.4409 43.4741 33.3032 43.1167 33.3032 42.6509C33.3032 42.1499 33.4673 41.7793 33.7954 41.5391C34.1235 41.2959 34.6187 41.1421 35.2808 41.0776C35.3716 41.0659 35.4697 41.0542 35.5752 41.0425C35.6807 41.0308 35.7993 41.019 35.9312 41.0073C36.063 40.9956 36.167 40.9854 36.2432 40.9766V40.7217C36.2432 40.4287 36.1758 40.2163 36.041 40.0845C35.9062 39.9497 35.7012 39.8823 35.4258 39.8823C35.0332 39.8823 34.5483 39.9922 33.9712 40.2119C33.9683 40.2031 33.9199 40.0698 33.8262 39.812C33.7324 39.5542 33.6841 39.4224 33.6812 39.4165C34.2495 39.1733 34.8647 39.0518 35.5269 39.0518C36.1772 39.0518 36.6504 39.1938 36.9463 39.478C37.2422 39.7593 37.3901 40.2163 37.3901 40.8491V44H36.5376C36.5347 43.9883 36.5024 43.8901 36.4409 43.7056C36.3794 43.521 36.3486 43.4229 36.3486 43.4111C36.1084 43.6455 35.8726 43.8184 35.6411 43.9297C35.4126 44.0381 35.1343 44.0923 34.8062 44.0923ZM35.1182 43.2749C35.3848 43.2749 35.6162 43.2119 35.8125 43.0859C36.0117 42.957 36.1538 42.8018 36.2388 42.6201V41.6885C36.23 41.6885 36.1523 41.6943 36.0059 41.7061C35.8623 41.7178 35.7847 41.7236 35.7729 41.7236C35.3071 41.7646 34.9658 41.8525 34.749 41.9873C34.5322 42.1221 34.4238 42.3389 34.4238 42.6377C34.4238 42.8428 34.4839 43.001 34.604 43.1123C34.7241 43.2207 34.8955 43.2749 35.1182 43.2749ZM40.4795 44.0659C40.1514 44.0659 39.8774 44.0278 39.6577 43.9517C39.4409 43.8726 39.271 43.7495 39.1479 43.5825C39.0249 43.4155 38.937 43.2192 38.8843 42.9937C38.8345 42.7651 38.8096 42.4839 38.8096 42.1499V39.8691H38.0186L38.0625 39.2451L38.8887 39.1704L39.2578 37.8608L39.9609 37.8564V39.1704H41.1606V39.8691H39.9609V42.1719C39.9609 42.5381 40.0137 42.7988 40.1191 42.9541C40.2246 43.1094 40.4194 43.187 40.7036 43.187C40.8706 43.187 41.0493 43.1724 41.2397 43.1431L41.2705 43.9692C41.2646 43.9692 41.228 43.9766 41.1606 43.9912C41.0962 44.0029 41.0332 44.0132 40.9717 44.022C40.9131 44.0337 40.8369 44.0439 40.7432 44.0527C40.6494 44.0615 40.5615 44.0659 40.4795 44.0659ZM44.272 44.0923C43.4956 44.0923 42.8906 43.8696 42.457 43.4243C42.0264 42.9761 41.811 42.3579 41.811 41.5698C41.811 40.8022 42.0146 40.1914 42.4219 39.7373C42.8291 39.2832 43.3843 39.0547 44.0874 39.0518C44.7524 39.0518 45.2681 39.2598 45.6343 39.6758C46.0034 40.0918 46.188 40.644 46.188 41.3325C46.188 41.3823 46.1865 41.4629 46.1836 41.5742C46.1836 41.6855 46.1836 41.7676 46.1836 41.8203H42.9712C42.9829 42.2715 43.106 42.6216 43.3403 42.8706C43.5776 43.1167 43.9028 43.2397 44.3159 43.2397C44.8433 43.2397 45.3501 43.1021 45.8364 42.8267L45.999 43.644C45.5156 43.9429 44.9399 44.0923 44.272 44.0923ZM42.9932 41.0952H45.1025C45.1025 40.7026 45.0132 40.4009 44.8345 40.1899C44.6558 39.979 44.4082 39.8735 44.0918 39.8735C43.7959 39.8735 43.5454 39.9761 43.3403 40.1812C43.1382 40.3862 43.0225 40.6909 42.9932 41.0952ZM48.6709 44.0879C47.959 44.0879 47.3892 43.9663 46.9614 43.7231L47.0801 42.8574C47.2734 42.9629 47.5195 43.0581 47.8184 43.1431C48.1172 43.2251 48.3896 43.2661 48.6357 43.2661C48.8906 43.2661 49.0884 43.2192 49.229 43.1255C49.3726 43.0288 49.4458 42.8882 49.4487 42.7036C49.4487 42.5366 49.3813 42.4048 49.2466 42.3081C49.1147 42.2114 48.8613 42.0913 48.4863 41.9478C48.3574 41.9009 48.2739 41.8701 48.2358 41.8555C47.7905 41.6826 47.4697 41.4907 47.2734 41.2798C47.0771 41.0659 46.979 40.7773 46.979 40.4141C46.979 39.9746 47.1372 39.6377 47.4536 39.4033C47.7729 39.1689 48.2168 39.0518 48.7852 39.0518C49.4004 39.0518 49.9409 39.1675 50.4067 39.3989L50.1211 40.1943C49.6611 39.9805 49.2231 39.8735 48.8071 39.8735C48.5757 39.8735 48.394 39.9131 48.2622 39.9922C48.1333 40.0684 48.0688 40.1855 48.0688 40.3438C48.0688 40.4932 48.1318 40.6104 48.2578 40.6953C48.3838 40.7773 48.6299 40.8857 48.9961 41.0205C49.0078 41.0234 49.0459 41.0366 49.1104 41.0601C49.1748 41.0835 49.2246 41.1025 49.2598 41.1172C49.7021 41.2783 50.0273 41.4717 50.2354 41.6973C50.4434 41.9199 50.5474 42.2114 50.5474 42.5718C50.5444 43.0552 50.3804 43.4287 50.0552 43.6924C49.73 43.9561 49.2686 44.0879 48.6709 44.0879Z" fill="#AB39D2"/>
</svg>
