<svg width="104" height="26" viewBox="0 0 104 26" fill="none" xmlns="http://www.w3.org/2000/svg">
<g clip-path="url(#clip0_413_1938)">
<path d="M0 0.00129859C1.12716 -0.000758971 2.25433 -7.31181e-05 3.38218 0.00129859C3.37945 5.27962 3.37877 10.5579 3.38218 15.8363C3.33385 18.6997 5.32817 21.4033 8.02697 22.26C12.6153 23.8299 17.5936 19.6832 16.7727 14.8342C17.9046 14.8342 19.0366 14.8329 20.1685 14.8349C20.7784 20.271 16.4691 25.5939 11.0273 25.9519C7.48516 26.3072 3.94167 24.6687 1.87793 21.7497C0.637774 20.0748 -0.0204197 17.9837 0.00136131 15.8973C0 10.5984 0.00340328 5.3002 0 0.00129859ZM46.9747 15.9021C46.9502 18.4 47.9147 20.8725 49.6238 22.6825C54.1373 27.9519 63.0749 26.6535 66.0977 20.4466C70.6146 11.3693 60.6083 1.89357 51.9061 7.04227C51.9102 8.50725 51.9061 9.97223 51.9081 11.4372C57.3044 5.17126 66.9356 12.0442 62.8823 19.2628C60.6654 23.2126 54.6675 23.7256 51.8952 20.116C51.2077 19.3039 50.7238 18.3184 50.508 17.2731C50.1371 11.5421 50.4862 5.75286 50.3651 0.00267029C49.2338 -0.00144482 48.1033 -7.31181e-05 46.9727 0.00198444C46.9775 5.30226 46.9727 10.6018 46.9747 15.9021V15.9021ZM70.473 15.4254C70.4165 16.8314 70.6234 18.2532 71.1393 19.5646C73.3501 25.5528 81.343 27.9944 86.4194 24.1179C96.7279 16.4076 86.5637 0.691267 75.3934 7.04021C75.3968 8.50588 75.3941 9.97154 75.3948 11.4379C81.5854 4.5053 91.6366 13.6491 85.3821 20.5337C82.6581 23.5062 77.4749 23.1454 75.1668 19.8403C74.3963 18.8314 73.9436 17.5852 73.8715 16.3157C73.8688 10.8776 73.8708 5.43874 73.8708 0.000612735C72.7375 0.000612735 71.6049 -0.00144482 70.4723 0.00198444C70.4743 5.14314 70.4723 10.2843 70.4723 15.4254H70.473ZM93.9345 15.898C93.9093 17.3692 94.2353 18.8437 94.8575 20.1743C96.4999 23.6166 100.143 26.1344 103.991 25.9588C103.969 24.8429 104.029 23.7208 103.98 22.6029C100.741 22.677 97.74 20.0275 97.3466 16.7958C97.1778 11.2068 97.3378 5.59717 97.286 0.00129859C96.1677 0.00129859 95.0494 -0.00144482 93.9318 0.00198444C93.9311 5.3002 93.9318 10.5991 93.9345 15.898V15.898ZM27.8095 17.9604C27.7959 19.3856 28.141 20.8238 28.8809 22.0453C30.3797 24.5939 33.2473 26.2208 36.204 25.9691C39.6516 25.8196 42.7649 23.0151 43.3877 19.6092C43.7484 14.9735 43.4244 10.287 43.532 5.6349C42.4021 5.63352 41.2722 5.63147 40.1423 5.63627C40.1478 9.90502 40.1525 14.1738 40.1423 18.4432C39.9987 21.7072 35.9345 23.7215 33.2704 21.8663C32.3332 21.2415 31.5797 20.2916 31.3088 19.1798C30.9678 14.695 31.2815 10.1444 31.1808 5.63832C30.0564 5.62872 28.9326 5.63421 27.8088 5.63558C27.8116 9.74384 27.8088 13.8521 27.8088 17.9604H27.8095ZM7.71523 0.294158C8.02969 1.50812 8.31352 2.73031 8.61982 3.94633C15.5237 2.98202 22.1608 8.67254 21.7299 15.804C23.0021 15.8507 24.2722 15.9309 25.545 15.9632C26.0841 6.97162 17.7168 -0.965754 8.84171 0.135726C8.46599 0.182364 8.08142 0.186479 7.71523 0.294158V0.294158ZM9.80211 9.01684C13.153 8.80422 16.3834 11.4592 16.7727 14.8342C17.9046 14.8342 19.0366 14.8329 20.1685 14.8349C19.7948 9.47293 14.681 5.14588 9.37875 5.64038C9.51284 6.76655 9.64556 7.89341 9.80211 9.01684V9.01684ZM10.314 12.5936C11.4153 12.5648 12.5002 13.217 13.0012 14.2053C13.7635 14.1566 14.5231 14.0654 15.2855 14.016C14.6668 11.8768 12.5145 10.3591 10.3201 10.3844C10.3201 11.1203 10.3167 11.857 10.314 12.5936V12.5936Z" fill="url(#paint0_linear_413_1938)"/>
</g>
<defs>
<linearGradient id="paint0_linear_413_1938" x1="-0.754166" y1="12.9996" x2="103.246" y2="12.9996" gradientUnits="userSpaceOnUse">
<stop stop-color="#2A5179"/>
<stop offset="0.19" stop-color="#2B507C"/>
<stop offset="0.38" stop-color="#304F88"/>
<stop offset="0.56" stop-color="#394C9B"/>
<stop offset="0.74" stop-color="#4549B6"/>
<stop offset="0.91" stop-color="#5544D8"/>
<stop offset="1" stop-color="#5F42ED"/>
</linearGradient>
<clipPath id="clip0_413_1938">
<rect width="104" height="26" fill="white"/>
</clipPath>
</defs>
</svg>
