<svg width="32" height="31" viewBox="0 0 32 31" fill="none" xmlns="http://www.w3.org/2000/svg">
<circle cx="15.6118" cy="15.5" r="15.4868" fill="white"/>
<path d="M20.4122 20.4093H9.85219C9.70819 20.4093 9.56419 20.3133 9.46819 20.2173C9.37219 20.1213 9.37219 19.9293 9.42019 19.7853L10.3322 17.4813L9.42019 8.88932H6.49219V7.92932H9.85219C10.0922 7.92932 10.2842 8.12132 10.3322 8.36132L11.2922 17.4813C11.2922 17.5773 11.2922 17.6253 11.2442 17.7213L10.5722 19.4493H20.8922L20.4122 20.4093Z" fill="#AF38D6"/>
<path d="M10.9091 18.0094L10.7171 17.0494L21.8531 14.7454V10.8094H10.3331V9.84937H22.3331C22.6211 9.84937 22.8131 10.0414 22.8131 10.3294V15.1294C22.8131 15.3694 22.6691 15.5614 22.4291 15.6094L10.9091 18.0094V18.0094ZM20.8931 23.2894C19.8371 23.2894 18.9731 22.4254 18.9731 21.3694C18.9731 20.3134 19.8371 19.4494 20.8931 19.4494C21.9491 19.4494 22.8131 20.3134 22.8131 21.3694C22.8131 22.4254 21.9491 23.2894 20.8931 23.2894ZM20.8931 20.4094C20.3651 20.4094 19.9331 20.8414 19.9331 21.3694C19.9331 21.8974 20.3651 22.3294 20.8931 22.3294C21.4211 22.3294 21.8531 21.8974 21.8531 21.3694C21.8531 20.8414 21.4211 20.4094 20.8931 20.4094ZM9.37313 23.2894C8.31713 23.2894 7.45312 22.4254 7.45312 21.3694C7.45312 20.3134 8.31713 19.4494 9.37313 19.4494C10.4291 19.4494 11.2931 20.3134 11.2931 21.3694C11.2931 22.4254 10.4291 23.2894 9.37313 23.2894ZM9.37313 20.4094C8.84513 20.4094 8.41313 20.8414 8.41313 21.3694C8.41313 21.8974 8.84513 22.3294 9.37313 22.3294C9.90113 22.3294 10.3331 21.8974 10.3331 21.3694C10.3331 20.8414 9.90113 20.4094 9.37313 20.4094Z" fill="#AF38D6"/>
</svg>
