<svg width="32" height="31" viewBox="0 0 32 31" fill="none" xmlns="http://www.w3.org/2000/svg">
<circle cx="15.8344" cy="15.5" r="15.4868" fill="#AF38D6"/>
<g clip-path="url(#clip0_413_1604)">
<path d="M23.8979 20.4611C23.3622 19.9835 22.8932 19.436 22.5035 18.8333C22.078 18.0014 21.8231 17.0929 21.7535 16.1611V13.4166C21.7572 11.9531 21.2263 10.5386 20.2605 9.43885C19.2948 8.33912 17.9608 7.6299 16.509 7.44442V6.72775C16.509 6.53105 16.4309 6.3424 16.2918 6.20331C16.1527 6.06422 15.9641 5.98608 15.7674 5.98608C15.5707 5.98608 15.382 6.06422 15.2429 6.20331C15.1038 6.3424 15.0257 6.53105 15.0257 6.72775V7.45553C13.5869 7.65438 12.269 8.36789 11.316 9.46392C10.363 10.5599 9.83943 11.9642 9.84236 13.4166V16.1611C9.77278 17.0929 9.51779 18.0014 9.09236 18.8333C8.70952 19.4346 8.24802 19.9821 7.72014 20.4611C7.66088 20.5131 7.61338 20.5772 7.58082 20.6491C7.54825 20.7209 7.53135 20.7989 7.53125 20.8778V21.6333C7.53125 21.7806 7.58978 21.922 7.69397 22.0261C7.79816 22.1303 7.93946 22.1889 8.08681 22.1889H23.5313C23.6786 22.1889 23.8199 22.1303 23.9241 22.0261C24.0283 21.922 24.0868 21.7806 24.0868 21.6333V20.8778C24.0867 20.7989 24.0698 20.7209 24.0372 20.6491C24.0047 20.5772 23.9572 20.5131 23.8979 20.4611ZM8.68681 21.0778C9.2037 20.5784 9.6588 20.0189 10.0424 19.4111C10.5783 18.4063 10.8909 17.2978 10.959 16.1611V13.4166C10.937 12.7655 11.0462 12.1167 11.2802 11.5087C11.5141 10.9007 11.868 10.346 12.3208 9.87758C12.7736 9.40921 13.3161 9.03673 13.9158 8.78235C14.5155 8.52796 15.1603 8.39687 15.8118 8.39687C16.4633 8.39687 17.1081 8.52796 17.7078 8.78235C18.3076 9.03673 18.85 9.40921 19.3028 9.87758C19.7556 10.346 20.1095 10.9007 20.3434 11.5087C20.5774 12.1167 20.6866 12.7655 20.6646 13.4166V16.1611C20.7327 17.2978 21.0454 18.4063 21.5813 19.4111C21.9648 20.0189 22.4199 20.5784 22.9368 21.0778H8.68681Z" fill="#F2F0E4"/>
<path d="M15.8365 24.0445C16.1865 24.0364 16.5223 23.9049 16.7847 23.6731C17.047 23.4413 17.2188 23.1241 17.2699 22.7778H14.3477C14.4001 23.1336 14.5801 23.4581 14.8539 23.6911C15.1278 23.9241 15.477 24.0497 15.8365 24.0445V24.0445Z" fill="#F2F0E4"/>
</g>
<defs>
<clipPath id="clip0_413_1604">
<rect width="20" height="20" fill="white" transform="translate(5.83594 5)"/>
</clipPath>
</defs>
</svg>
