<svg width="18" height="18" viewBox="0 0 18 18" fill="none" xmlns="http://www.w3.org/2000/svg">
<path d="M11.25 10.5C12.2163 10.5001 13.1454 10.8732 13.8433 11.5415C14.5413 12.2098 14.9543 13.1218 14.9963 14.0873L15 14.25V15C15.0001 15.3784 14.8572 15.7429 14.5999 16.0204C14.3426 16.2979 13.9899 16.4679 13.6125 16.4963L13.5 16.5H3C2.62157 16.5001 2.25708 16.3572 1.97959 16.0999C1.7021 15.8426 1.53213 15.4899 1.50375 15.1125L1.5 15V14.25C1.50006 13.2837 1.87316 12.3546 2.54149 11.6567C3.20983 10.9587 4.12181 10.5457 5.08725 10.5037L5.25 10.5H11.25ZM15.75 9.75C15.9489 9.75 16.1397 9.82902 16.2803 9.96967C16.421 10.1103 16.5 10.3011 16.5 10.5C16.5 10.6989 16.421 10.8897 16.2803 11.0303C16.1397 11.171 15.9489 11.25 15.75 11.25H15C14.8011 11.25 14.6103 11.171 14.4697 11.0303C14.329 10.8897 14.25 10.6989 14.25 10.5C14.25 10.3011 14.329 10.1103 14.4697 9.96967C14.6103 9.82902 14.8011 9.75 15 9.75H15.75ZM8.25 1.5C9.24456 1.5 10.1984 1.89509 10.9017 2.59835C11.6049 3.30161 12 4.25544 12 5.25C12 6.24456 11.6049 7.19839 10.9017 7.90165C10.1984 8.60491 9.24456 9 8.25 9C7.25544 9 6.30161 8.60491 5.59835 7.90165C4.89509 7.19839 4.5 6.24456 4.5 5.25C4.5 4.25544 4.89509 3.30161 5.59835 2.59835C6.30161 1.89509 7.25544 1.5 8.25 1.5ZM15.75 7.5C15.9489 7.5 16.1397 7.57902 16.2803 7.71967C16.421 7.86032 16.5 8.05109 16.5 8.25C16.5 8.44891 16.421 8.63968 16.2803 8.78033C16.1397 8.92098 15.9489 9 15.75 9H14.25C14.0511 9 13.8603 8.92098 13.7197 8.78033C13.579 8.63968 13.5 8.44891 13.5 8.25C13.5 8.05109 13.579 7.86032 13.7197 7.71967C13.8603 7.57902 14.0511 7.5 14.25 7.5H15.75ZM15.75 5.25C15.9412 5.25021 16.125 5.32341 16.264 5.45464C16.403 5.58586 16.4867 5.76521 16.4979 5.95605C16.5091 6.14688 16.447 6.33478 16.3243 6.48137C16.2016 6.62796 16.0276 6.72217 15.8378 6.74475L15.75 6.75H13.5C13.3088 6.74979 13.125 6.67659 12.986 6.54536C12.847 6.41414 12.7633 6.23479 12.7521 6.04395C12.7409 5.85312 12.803 5.66522 12.9257 5.51863C13.0484 5.37204 13.2224 5.27783 13.4122 5.25525L13.5 5.25H15.75Z" fill="white"/>
</svg>
