<svg width="50" height="50" viewBox="0 0 55 55" fill="none" xmlns="http://www.w3.org/2000/svg">
    <g clip-path="url(#clip0_3868_96)">
        <path
            d="M27.5 55C42.6878 55 55 42.6878 55 27.5C55 12.3122 42.6878 0 27.5 0C12.3122 0 0 12.3122 0 27.5C0 42.6878 12.3122 55 27.5 55Z"
            fill="url(#paint0_linear_3868_96)" />
        <path
            d="M27.501 50.2071C40.0412 50.2071 50.2071 40.0412 50.2071 27.501C50.2071 14.9608 40.0412 4.79492 27.501 4.79492C14.9608 4.79492 4.79492 14.9608 4.79492 27.501C4.79492 40.0412 14.9608 50.2071 27.501 50.2071Z"
            fill="url(#paint1_linear_3868_96)" />
        <path
            d="M27.5008 50.4723C14.8338 50.4723 4.5293 40.1678 4.5293 27.5008C4.5293 14.8338 14.8338 4.5293 27.5008 4.5293C40.1678 4.5293 50.4723 14.8338 50.4723 27.5008C50.4723 40.1678 40.1678 50.4723 27.5008 50.4723ZM27.5008 5.06018C15.1258 5.06018 5.06018 15.1258 5.06018 27.5008C5.06018 39.8758 15.1258 49.9415 27.5008 49.9415C39.8758 49.9415 49.9415 39.8758 49.9415 27.5008C49.9415 15.1258 39.8758 5.06018 27.5008 5.06018Z"
            fill="white" />
        <path fill-rule="evenodd" clip-rule="evenodd"
            d="M24.4373 26.7152V38.0337C24.4373 38.1983 24.57 38.331 24.7346 38.331H28.9392C29.1038 38.331 29.2365 38.1983 29.2365 38.0337V26.5293H32.2838C32.4378 26.5293 32.5652 26.4125 32.5758 26.2586L32.8678 22.7919C32.8837 22.622 32.7457 22.4734 32.5758 22.4734H29.2365V20.0153C29.2365 19.4367 29.7037 18.9695 30.2824 18.9695H32.6289C32.7935 18.9695 32.9262 18.8368 32.9262 18.6722V15.2055C32.9262 15.0409 32.7935 14.9082 32.6289 14.9082H28.6578C26.3272 14.9082 24.4426 16.7982 24.4426 19.1235V22.468H22.3403C22.1757 22.468 22.043 22.6008 22.043 22.7653V26.232C22.043 26.3966 22.1757 26.5293 22.3403 26.5293H24.4426V26.7152H24.4373Z"
            fill="#F9FBFC" />
    </g>
    <defs>
        <linearGradient id="paint0_linear_3868_96" x1="45.805" y1="45.805" x2="7.35811" y2="7.35811"
            gradientUnits="userSpaceOnUse">
            <stop stop-color="#245A9C" />
            <stop offset="1" stop-color="#2B1882" />
        </linearGradient>
        <linearGradient id="paint1_linear_3868_96" x1="16.4532" y1="8.8456" x2="40.3485" y2="49.1931"
            gradientUnits="userSpaceOnUse">
            <stop stop-color="#245A9C" />
            <stop offset="1" stop-color="#2B1882" />
        </linearGradient>
        <clipPath id="clip0_3868_96">
            <rect width="55" height="55" fill="white" />
        </clipPath>
    </defs>
</svg>