<svg width="50" height="50" viewBox=" 0 0 55 55" fill="none" xmlns="http://www.w3.org/2000/svg">
    <g clip-path="url(#clip0_3868_82)">
        <path
            d="M27.5 55C42.6878 55 55 42.6878 55 27.5C55 12.3122 42.6878 0 27.5 0C12.3122 0 0 12.3122 0 27.5C0 42.6878 12.3122 55 27.5 55Z"
            fill="url(#paint0_linear_3868_82)" />
        <path
            d="M27.4053 50.2071C39.9455 50.2071 50.1114 40.0412 50.1114 27.501C50.1114 14.9608 39.9455 4.79492 27.4053 4.79492C14.8651 4.79492 4.69922 14.9608 4.69922 27.501C4.69922 40.0412 14.8651 50.2071 27.4053 50.2071Z"
            fill="url(#paint1_linear_3868_82)" />
        <path
            d="M27.4051 50.4724C14.7381 50.4724 4.43359 40.1679 4.43359 27.5008C4.43359 14.8338 14.7381 4.5293 27.4051 4.5293C40.0721 4.5293 50.3767 14.8338 50.3767 27.5008C50.3767 40.1679 40.0721 50.4724 27.4051 50.4724ZM27.4051 5.06019C15.0301 5.06019 4.96448 15.1258 4.96448 27.5008C4.96448 39.8759 15.0301 49.9415 27.4051 49.9415C39.7802 49.9415 49.8458 39.8759 49.8458 27.5008C49.8458 15.1258 39.7748 5.06019 27.4051 5.06019Z"
            fill="white" />
        <path
            d="M33.6264 19.5957C32.8672 19.5957 32.2461 20.2115 32.2461 20.976C32.2461 21.7405 32.8619 22.3563 33.6264 22.3563C34.3909 22.3563 35.0067 21.7405 35.0067 20.976C35.0067 20.2115 34.3909 19.5957 33.6264 19.5957Z"
            fill="#F9FBFC" />
        <path
            d="M27.4996 21.3633C24.3089 21.3633 21.7129 23.9593 21.7129 27.15C21.7129 30.3406 24.3089 32.9367 27.4996 32.9367C30.6902 32.9367 33.2863 30.3406 33.2863 27.15C33.2863 23.9593 30.6902 21.3633 27.4996 21.3633ZM27.4996 30.8609C25.4557 30.8609 23.794 29.1992 23.794 27.1553C23.794 25.1114 25.4557 23.4497 27.4996 23.4497C29.5435 23.4497 31.2052 25.1114 31.2052 27.1553C31.2052 29.1992 29.5435 30.8609 27.4996 30.8609Z"
            fill="#F9FBFC" />
        <path
            d="M32.0914 38.9042H22.7053C18.8139 38.9042 15.6445 35.7348 15.6445 31.8434V22.4573C15.6445 18.5659 18.8139 15.3965 22.7053 15.3965H32.0914C35.9828 15.3965 39.1522 18.5659 39.1522 22.4573V31.8434C39.1522 35.7348 35.9828 38.9042 32.0914 38.9042ZM22.7053 17.6103C20.0297 17.6103 17.8583 19.7869 17.8583 22.4573V31.8434C17.8583 34.5191 20.035 36.6904 22.7053 36.6904H32.0914C34.7671 36.6904 36.9384 34.5138 36.9384 31.8434V22.4573C36.9384 19.7816 34.7618 17.6103 32.0914 17.6103H22.7053Z"
            fill="#F9FBFC" />
    </g>
    <defs>
        <linearGradient id="paint0_linear_3868_82" x1="45.805" y1="45.805" x2="7.35811" y2="7.35811"
            gradientUnits="userSpaceOnUse">
            <stop stop-color="#FFE286" />
            <stop offset="0.21" stop-color="#FFBC36" />
            <stop offset="0.38" stop-color="#FF5176" />
            <stop offset="0.53" stop-color="#F73396" />
            <stop offset="0.74" stop-color="#A536D3" />
            <stop offset="1" stop-color="#5A4BDB" />
        </linearGradient>
        <linearGradient id="paint1_linear_3868_82" x1="7.69874" y1="7.79444" x2="48.3276" y2="48.4233"
            gradientUnits="userSpaceOnUse">
            <stop stop-color="#FFE286" />
            <stop offset="0.21" stop-color="#FFBC36" />
            <stop offset="0.38" stop-color="#FF5176" />
            <stop offset="0.53" stop-color="#F73396" />
            <stop offset="0.74" stop-color="#A536D3" />
            <stop offset="1" stop-color="#5A4BDB" />
        </linearGradient>
        <clipPath id="clip0_3868_82">
            <rect width="55" height="55" fill="white" />
        </clipPath>
    </defs>
</svg>