<svg width="50" height="50" viewBox="0 0 55 55" fill="none" xmlns="http://www.w3.org/2000/svg">
    <g clip-path="url(#clip0_3868_11)">
        <path
            d="M27.5 55C42.6878 55 55 42.6878 55 27.5C55 12.3122 42.6878 0 27.5 0C12.3122 0 0 12.3122 0 27.5C0 42.6878 12.3122 55 27.5 55Z"
            fill="url(#paint0_linear_3868_11)" />
        <path
            d="M27.5166 49.8184C40.0569 49.8184 50.2227 39.6526 50.2227 27.1123C50.2227 14.5721 40.0569 4.40625 27.5166 4.40625C14.9764 4.40625 4.81055 14.5721 4.81055 27.1123C4.81055 39.6526 14.9764 49.8184 27.5166 49.8184Z"
            fill="url(#paint1_linear_3868_11)" />
        <path
            d="M27.5164 50.0837C14.8495 50.0837 4.54492 39.7791 4.54492 27.1122C4.54492 14.4452 14.8495 4.14062 27.5164 4.14062C40.1834 4.14062 50.488 14.4452 50.488 27.1122C50.488 39.7791 40.1834 50.0837 27.5164 50.0837ZM27.5164 4.67151C15.1414 4.67151 5.07581 14.7372 5.07581 27.1122C5.07581 39.4871 15.1414 49.5528 27.5164 49.5528C39.8914 49.5528 49.9571 39.4871 49.9571 27.1122C49.9571 14.7372 39.8914 4.67151 27.5164 4.67151Z"
            fill="white" />
        <path
            d="M17.1484 21.9584H21.9317V37.3223H17.1484V21.9584ZM19.5427 14.3242C21.0717 14.3242 22.314 15.5665 22.314 17.0901C22.314 18.6138 21.077 19.8614 19.5427 19.8614C18.0085 19.8614 16.7715 18.6191 16.7715 17.0901C16.7715 15.5612 18.0085 14.3242 19.5427 14.3242Z"
            fill="#F9FBFC" />
        <path
            d="M24.9297 21.957H29.5113V24.0593H29.575C30.212 22.8489 31.7728 21.5801 34.0981 21.5801C38.9345 21.5801 39.8264 24.7601 39.8264 28.8957V37.3209H35.0537V29.8513C35.0537 28.0675 35.0166 25.7794 32.5745 25.7794C30.1324 25.7794 29.7077 27.7225 29.7077 29.7239V37.3209H24.935V21.957H24.9297Z"
            fill="#F9FBFC" />
    </g>
    <defs>
        <linearGradient id="paint0_linear_3868_11" x1="45.805" y1="45.805" x2="7.35811" y2="7.35811"
            gradientUnits="userSpaceOnUse">
            <stop stop-color="#007DF8" />
            <stop offset="1" stop-color="#003FD1" />
        </linearGradient>
        <linearGradient id="paint1_linear_3868_11" x1="17.1218" y1="9.89032" x2="40.9959" y2="49.4362"
            gradientUnits="userSpaceOnUse">
            <stop stop-color="#007DF8" />
            <stop offset="1" stop-color="#003FD1" />
        </linearGradient>
        <clipPath id="clip0_3868_11">
            <rect width="55" height="55" fill="white" />
        </clipPath>
    </defs>
</svg>