<svg width="50" height="50" viewBox="0 0 55 55" fill="none" xmlns="http://www.w3.org/2000/svg">
    <g clip-path="url(#clip0_3868_90)">
        <path
            d="M27.5 55C42.6878 55 55 42.6878 55 27.5C55 12.3122 42.6878 0 27.5 0C12.3122 0 0 12.3122 0 27.5C0 42.6878 12.3122 55 27.5 55Z"
            fill="url(#paint0_linear_3868_90)" />
        <path
            d="M27.501 50.0157C40.0412 50.0157 50.2071 39.8498 50.2071 27.3096C50.2071 14.7694 40.0412 4.60352 27.501 4.60352C14.9608 4.60352 4.79492 14.7694 4.79492 27.3096C4.79492 39.8498 14.9608 50.0157 27.501 50.0157Z"
            fill="url(#paint1_linear_3868_90)" />
        <path
            d="M27.5008 50.2751C14.8338 50.2751 4.5293 39.9705 4.5293 27.3036C4.5293 14.6366 14.8338 4.33203 27.5008 4.33203C40.1678 4.33203 50.4723 14.6366 50.4723 27.3036C50.4723 39.9705 40.1678 50.2751 27.5008 50.2751ZM27.5008 4.86292C15.1258 4.86292 5.06018 14.9286 5.06018 27.3036C5.06018 39.6786 15.1258 49.7442 27.5008 49.7442C39.8758 49.7442 49.9415 39.6786 49.9415 27.3036C49.9415 14.9286 39.8758 4.86292 27.5008 4.86292Z"
            fill="white" />
        <path
            d="M40.7722 19.2347C39.9547 19.6063 39.0521 19.8293 38.1709 19.9779C38.5903 19.9089 39.2061 19.1497 39.4503 18.8418C39.8272 18.3746 40.1405 17.8437 40.3157 17.2651C40.3369 17.2226 40.3528 17.1642 40.3103 17.127C40.2519 17.1058 40.2148 17.1164 40.1723 17.1376C39.1902 17.6632 38.1709 18.0455 37.0879 18.3162C36.9976 18.3375 36.9339 18.3162 36.8755 18.2578C36.7852 18.157 36.7003 18.0614 36.6047 17.9818C36.1482 17.5942 35.6598 17.2916 35.1076 17.0633C34.3856 16.766 33.5946 16.6439 32.8142 16.6917C32.055 16.7395 31.3118 16.9571 30.6376 17.3075C29.9633 17.6579 29.3634 18.1516 28.8803 18.7409C28.3866 19.3515 28.0203 20.0735 27.8345 20.8379C27.654 21.5759 27.6699 22.3085 27.7814 23.0517C27.7973 23.1738 27.7867 23.1898 27.6752 23.1738C23.4387 22.5421 19.9242 21.0291 17.0734 17.7747C16.9513 17.6314 16.8823 17.6314 16.7814 17.7853C15.5338 19.6541 16.139 22.6589 17.6998 24.1401C17.9069 24.3365 18.1192 24.5329 18.3528 24.7134C18.2679 24.7293 17.2326 24.6179 16.3089 24.1401C16.1868 24.0604 16.1231 24.1082 16.1125 24.2462C16.1018 24.448 16.1178 24.6338 16.1443 24.8515C16.3832 26.7467 17.6945 28.504 19.4942 29.1835C19.7066 29.2738 19.9455 29.3534 20.1738 29.3905C19.765 29.4808 19.3403 29.5445 18.167 29.4543C18.0184 29.4277 17.9653 29.4967 18.0184 29.6401C18.8996 32.045 20.8055 32.7617 22.2336 33.1705C22.4247 33.2023 22.6158 33.2023 22.807 33.2501C22.7963 33.266 22.7857 33.266 22.7751 33.282C22.3026 34.004 20.6622 34.5402 19.8977 34.8056C18.5068 35.294 16.9937 35.5117 15.5232 35.363C15.2896 35.3259 15.2365 35.3312 15.1728 35.363C15.1091 35.4002 15.1622 35.4586 15.2418 35.5223C15.5391 35.7187 15.8417 35.8939 16.1549 36.0638C17.0893 36.5575 18.0608 36.9504 19.0801 37.2318C24.3359 38.6811 30.25 37.614 34.1945 33.696C37.2896 30.6169 38.3779 26.3751 38.3779 22.1227C38.3779 21.9581 38.5743 21.8626 38.6911 21.7776C39.4981 21.1724 40.1458 20.4451 40.7457 19.6381C40.8784 19.4576 40.8837 19.2931 40.8837 19.2293V19.2081C40.8837 19.1391 40.8837 19.1603 40.7775 19.2081L40.7722 19.2347Z"
            fill="#F9FBFC" />
    </g>
    <defs>
        <linearGradient id="paint0_linear_3868_90" x1="45.805" y1="45.805" x2="7.35811" y2="7.35811"
            gradientUnits="userSpaceOnUse">
            <stop stop-color="#00CDFF" />
            <stop offset="1" stop-color="#0080FF" />
        </linearGradient>
        <linearGradient id="paint1_linear_3868_90" x1="13.958" y1="8.30911" x2="40.821" y2="45.9915"
            gradientUnits="userSpaceOnUse">
            <stop stop-color="#00CDFF" />
            <stop offset="1" stop-color="#0080FF" />
        </linearGradient>
        <clipPath id="clip0_3868_90">
            <rect width="55" height="55" fill="white" />
        </clipPath>
    </defs>
</svg>