<svg width="50" height="50" viewBox="0 0 50 50" fill="none" xmlns="http://www.w3.org/2000/svg">
<g clip-path="url(#clip0_4526_16)">
<path d="M25 50C38.8071 50 50 38.8071 50 25C50 11.1929 38.8071 0 25 0C11.1929 0 0 11.1929 0 25C0 38.8071 11.1929 50 25 50Z" fill="url(#paint0_linear_4526_16)"/>
<path d="M25.0013 45.6432C36.4015 45.6432 45.6432 36.4015 45.6432 25.0013C45.6432 13.6011 36.4015 4.35938 25.0013 4.35938C13.6011 4.35938 4.35938 13.6011 4.35938 25.0013C4.35938 36.4015 13.6011 45.6432 25.0013 45.6432Z" fill="url(#paint1_linear_4526_16)"/>
<path d="M25.0004 45.8836C13.4849 45.8836 4.11719 36.5158 4.11719 25.0004C4.11719 13.4849 13.4849 4.11719 25.0004 4.11719C36.5158 4.11719 45.8836 13.4849 45.8836 25.0004C45.8836 36.5158 36.5158 45.8836 25.0004 45.8836ZM25.0004 4.59981C13.7504 4.59981 4.59981 13.7504 4.59981 25.0004C4.59981 36.2504 13.7504 45.401 25.0004 45.401C36.2504 45.401 45.401 36.2504 45.401 25.0004C45.401 13.7504 36.2504 4.59981 25.0004 4.59981Z" fill="white"/>
</g>
<path d="M17.5463 16.3652H31.5471C34.2071 16.3652 36.3649 18.523 36.3649 21.183V28.5521C36.3649 31.212 34.2071 33.3698 31.5471 33.3698H17.5463C14.8863 33.3698 12.7285 31.212 12.7285 28.5521V21.183C12.7285 18.523 14.8863 16.3652 17.5463 16.3652Z" fill="white"/>
<path d="M21.8203 20.9102L28.1806 24.3482L21.8203 27.7907V20.9102Z" fill="url(#paint2_linear_4526_16)"/>
<defs>
<linearGradient id="paint0_linear_4526_16" x1="41.6409" y1="41.6409" x2="6.68919" y2="6.68919" gradientUnits="userSpaceOnUse">
<stop stop-color="#CD201F"/>
<stop offset="1" stop-color="#740100"/>
</linearGradient>
<linearGradient id="paint1_linear_4526_16" x1="14.9578" y1="8.04181" x2="36.6808" y2="44.7213" gradientUnits="userSpaceOnUse">
<stop stop-color="#CD201F"/>
<stop offset="1" stop-color="#740100"/>
</linearGradient>
<linearGradient id="paint2_linear_4526_16" x1="21.8203" y1="24.3482" x2="28.1806" y2="24.3482" gradientUnits="userSpaceOnUse">
<stop stop-color="#CD201F"/>
<stop offset="1" stop-color="#740100"/>
</linearGradient>
<clipPath id="clip0_4526_16">
<rect width="50" height="50" fill="white"/>
</clipPath>
</defs>
</svg>
