<svg width="16" height="16" viewBox="0 0 16 16" fill="none" xmlns="http://www.w3.org/2000/svg">
<path d="M9.77848 0.997059C9.81301 0.870779 9.8958 0.763136 10.009 0.697362C10.1222 0.631588 10.2567 0.612958 10.3835 0.645492C11.5751 0.965759 12.6615 1.59358 13.534 2.46604C14.4064 3.3385 15.0342 4.42494 15.3545 5.61649C15.3717 5.67931 15.3763 5.74493 15.3679 5.80953C15.3595 5.87412 15.3383 5.93639 15.3056 5.99271C15.2728 6.04903 15.2292 6.09827 15.1773 6.13755C15.1253 6.17684 15.066 6.20538 15.0029 6.22152L14.8803 6.23787C14.7717 6.2377 14.6662 6.20148 14.5804 6.13489C14.4945 6.06831 14.4332 5.97512 14.4061 5.86995C14.1288 4.84586 13.5882 3.91225 12.838 3.16204C12.0877 2.41183 11.1541 1.87118 10.1301 1.59391C10.0056 1.55934 9.89932 1.47781 9.83375 1.36647C9.76817 1.25514 9.74836 1.12271 9.77848 0.997059ZM9.45144 4.12029C10.0322 4.27928 10.5616 4.58682 10.9874 5.01261C11.4132 5.4384 11.7207 5.96776 11.8797 6.54856C11.9069 6.65373 11.9682 6.74692 12.054 6.8135C12.1398 6.88009 12.2453 6.9163 12.3539 6.91648L12.4766 6.90012C12.6017 6.86379 12.708 6.78066 12.7735 6.668C12.8389 6.55535 12.8585 6.42181 12.8281 6.2951C12.6261 5.54685 12.2314 4.86467 11.6834 4.31663C11.1353 3.76859 10.4531 3.37388 9.7049 3.17187C9.5782 3.14148 9.44465 3.16105 9.332 3.22652C9.21934 3.29198 9.13621 3.39831 9.09988 3.52344C9.06756 3.6492 9.08642 3.78264 9.15232 3.89452C9.21822 4.0064 9.32578 4.08758 9.45144 4.12029ZM15.9922 12.1409C15.8552 13.2067 15.3348 14.1862 14.5284 14.8964C13.7219 15.6065 12.6845 15.9988 11.6099 16C5.20811 16 0 10.7919 0 4.3901C0.00115565 3.31551 0.393458 2.2781 1.10363 1.47164C1.8138 0.665175 2.79326 0.144818 3.85907 0.00776459C4.10431 -0.0209447 4.35227 0.030421 4.56593 0.154196C4.77959 0.27797 4.94749 0.467517 5.04459 0.694548L6.68796 4.52909C6.76251 4.70258 6.79329 4.89174 6.77761 5.07992C6.76193 5.2681 6.70026 5.44955 6.59802 5.60832L5.23263 7.68502C5.21914 7.70844 5.21136 7.73472 5.20994 7.76171C5.20852 7.78871 5.2135 7.81565 5.22446 7.84036C5.85248 9.12802 6.89478 10.1674 8.18417 10.7919C8.2092 10.8031 8.23676 10.8075 8.26404 10.8047C8.29133 10.8018 8.31737 10.7917 8.33951 10.7755L10.3917 9.41015C10.5489 9.30454 10.7301 9.24019 10.9187 9.22305C11.1074 9.2059 11.2972 9.23651 11.4709 9.31204L15.3055 10.9554C15.5325 11.0525 15.722 11.2204 15.8458 11.4341C15.9696 11.6477 16.0209 11.8957 15.9922 12.1409ZM15.0193 12.0183C15.0221 11.9842 15.0141 11.9501 14.9965 11.9208C14.9789 11.8914 14.9526 11.8683 14.9212 11.8548L11.0866 10.2114C11.0613 10.2016 11.034 10.198 11.007 10.2009C10.98 10.2037 10.9541 10.2129 10.9313 10.2278L8.8873 11.5931C8.72181 11.7018 8.53127 11.7664 8.33379 11.7807C8.13631 11.795 7.93845 11.7586 7.75901 11.6749C6.27182 10.9509 5.06901 9.75097 4.34145 8.26551C4.25648 8.08821 4.21862 7.89201 4.23151 7.69582C4.2444 7.49963 4.3076 7.31007 4.41503 7.1454L5.77225 5.0687C5.78845 5.04656 5.7985 5.02052 5.80137 4.99324C5.80424 4.96595 5.79984 4.93839 5.7886 4.91336L4.14523 1.07882C4.13269 1.05008 4.11215 1.02554 4.08605 1.00815C4.05996 0.990752 4.02941 0.981227 3.99806 0.980707H3.98171C3.15362 1.08956 2.39313 1.49509 1.84133 2.12207C1.28953 2.74904 0.983891 3.55489 0.981119 4.3901C0.983284 7.20836 2.10379 9.91058 4.09661 11.9034C6.08943 13.8962 8.79164 15.0167 11.6099 15.0189C12.4451 15.0161 13.251 14.7105 13.8779 14.1587C14.5049 13.6069 14.9104 12.8464 15.0193 12.0183Z" fill="#2A3E71"/>
</svg>
