<svg width="22" height="22" viewBox="0 0 22 22" fill="none" xmlns="http://www.w3.org/2000/svg">
<path d="M4.78418 7.05078H0.419922V21.1515H4.78418V7.05078Z" fill="white"/>
<path d="M2.58056 5.20466C4.00673 5.20466 5.16112 4.03839 5.16112 2.60167C5.16112 1.16495 4.00541 0 2.58056 0C1.15571 0 0 1.16495 0 2.60167C0 4.03839 1.15571 5.20466 2.58056 5.20466Z" fill="white"/>
<path d="M11.7623 13.7496C11.7623 11.7667 12.6753 10.5859 14.422 10.5859C16.0263 10.5859 16.7981 11.7192 16.7981 13.7496V21.1509H21.1426V12.2232C21.1426 8.44604 19.0014 6.62012 16.0118 6.62012C13.0223 6.62012 11.7623 8.95001 11.7623 8.95001V7.05021H7.57617V21.1509H11.7623V13.7496Z" fill="white"/>
</svg>
