<svg width="15" height="15" viewBox="0 0 15 15" fill="none" xmlns="http://www.w3.org/2000/svg">
<path d="M7.9239 -0.000976562C7.62157 -0.000976562 7.31962 -0.000976562 7.01729 -0.000976562C6.97427 0.0290203 6.92375 0.0215211 6.87599 0.0250733C5.80242 0.104407 4.7916 0.395692 3.84749 0.915111C1.01121 2.47534 -0.489422 5.94116 0.197742 8.94558C0.524156 10.3732 1.11541 11.6678 2.11991 12.7425C3.85183 14.596 6.03608 15.1786 8.48871 14.894C9.73674 14.7496 10.877 14.2748 11.9052 13.5505C13.5404 12.3984 14.5414 10.837 14.8836 8.86191C14.9341 8.57062 14.9617 8.27499 15 7.98134C15 7.6498 15 7.31865 15 6.9871C14.9913 6.9354 14.9779 6.88409 14.9743 6.83238C14.8997 5.81446 14.6531 4.84193 14.1601 3.94598C12.9799 1.80081 11.1205 0.601328 8.76026 0.117827C8.48516 0.0613853 8.20295 0.0377036 7.9239 -0.000976562ZM13.0569 7.7236C13.4954 7.7236 13.9339 7.72755 14.372 7.72084C14.4849 7.71926 14.5197 7.75281 14.5047 7.86175C14.4897 7.96753 14.4877 8.07528 14.477 8.18185C14.3409 9.55025 13.8384 10.7699 12.9878 11.849C12.9156 11.9405 12.8785 11.9334 12.8019 11.8557C12.3658 11.4128 11.8787 11.0331 11.342 10.7193C11.2555 10.6688 11.233 10.6215 11.2575 10.524C11.4777 9.64696 11.5883 8.75455 11.6068 7.85109C11.6088 7.74808 11.6407 7.72005 11.7414 7.72124C12.1799 7.72637 12.6184 7.72321 13.0569 7.72321V7.7236ZM13.0632 7.24523C12.62 7.24523 12.1767 7.24287 11.7331 7.24721C11.638 7.248 11.6052 7.21997 11.6072 7.12367C11.61 6.98276 11.5997 6.84146 11.5918 6.70055C11.55 5.9305 11.4402 5.17072 11.2547 4.42198C11.2374 4.35212 11.2421 4.3087 11.3124 4.26844C11.8728 3.94598 12.3769 3.5497 12.8292 3.08791C12.8829 3.03305 12.9168 3.02713 12.9638 3.09343C13.0455 3.20829 13.137 3.31644 13.2187 3.43169C13.9971 4.5321 14.4241 5.75565 14.5051 7.10117C14.5122 7.21682 14.4802 7.24997 14.3638 7.24839C13.9304 7.24168 13.4966 7.24563 13.0632 7.24563V7.24523ZM1.97979 7.24523C1.53655 7.24523 1.0937 7.24208 0.650458 7.2476C0.546654 7.24879 0.51113 7.21761 0.52455 7.11538C0.538759 7.0096 0.541127 6.90224 0.551785 6.79568C0.687165 5.42253 1.19158 4.19937 2.04452 3.11712C2.10846 3.03581 2.14477 3.02989 2.21937 3.10646C2.65669 3.55483 3.14848 3.93611 3.68803 4.25305C3.7796 4.30673 3.78907 4.36001 3.76618 4.45158C3.54831 5.32386 3.4374 6.21034 3.42003 7.10827C3.41806 7.21563 3.38925 7.24958 3.27913 7.248C2.84575 7.24168 2.41238 7.24563 1.9794 7.24563L1.97979 7.24523ZM0.526128 7.91661C0.545863 7.84241 0.459031 7.72005 0.642959 7.72124C1.52905 7.72716 2.41514 7.72518 3.30123 7.72242C3.39043 7.72242 3.41806 7.75084 3.41964 7.83886C3.43701 8.75179 3.55068 9.65248 3.77092 10.5394C3.78947 10.6136 3.78394 10.6593 3.70737 10.7043C3.1548 11.0292 2.65196 11.4187 2.20398 11.8778C2.14398 11.939 2.11241 11.9366 2.05952 11.8699C1.13712 10.7126 0.632301 9.39435 0.526128 7.91701V7.91661ZM7.27542 12.3096C7.27542 12.962 7.27542 13.6148 7.27542 14.2673C7.27542 14.4107 7.20358 14.4645 7.05992 14.4287C7.05518 14.4275 7.05084 14.4255 7.0461 14.4243C6.4805 14.2799 6.04357 13.9389 5.67177 13.5075C5.03671 12.7706 4.66135 11.8991 4.37717 10.9806C4.34836 10.8867 4.40006 10.8733 4.45729 10.8453C5.29918 10.436 6.18922 10.2114 7.12228 10.1482C7.24226 10.1399 7.27976 10.1668 7.27858 10.2935C7.27226 10.9656 7.27542 11.6374 7.27542 12.3096ZM7.75379 2.65966C7.75379 2.00723 7.75379 1.35441 7.75379 0.701976C7.75379 0.558307 7.82562 0.504365 7.96929 0.540151C7.97403 0.541335 7.97837 0.543308 7.98311 0.544492C8.5641 0.694082 9.00853 1.04773 9.38625 1.49452C10.0039 2.2255 10.3734 3.08396 10.652 3.98821C10.6812 4.08294 10.628 4.09557 10.5715 4.12319C9.7249 4.53526 8.83052 4.75944 7.89233 4.8222C7.76642 4.83049 7.75063 4.78312 7.75142 4.67616C7.75537 4.004 7.7534 3.33223 7.7534 2.66006L7.75379 2.65966ZM7.27542 2.65848C7.27542 3.33538 7.27266 4.01229 7.27818 4.68919C7.27897 4.80128 7.24779 4.82852 7.13806 4.82102C6.19514 4.75786 5.29602 4.53091 4.44427 4.11964C4.3752 4.08649 4.35625 4.05452 4.38112 3.97558C4.47742 3.66929 4.58162 3.36617 4.70753 3.07054C5.00553 2.37114 5.37575 1.71792 5.93385 1.18824C6.27487 0.86459 6.66325 0.624615 7.12978 0.522389C7.24582 0.497129 7.27937 0.518442 7.27818 0.641982C7.27266 1.31375 7.27542 1.98592 7.27542 2.65809V2.65848ZM7.75379 12.2934C7.75379 11.6264 7.75734 10.9589 7.75063 10.2919C7.74945 10.1628 7.79089 10.1332 7.90851 10.149C8.08218 10.1727 8.25742 10.1814 8.43109 10.2043C9.18456 10.3029 9.90251 10.5208 10.5869 10.8512C10.6584 10.8855 10.6745 10.9202 10.6469 10.9956C10.5802 11.1784 10.5293 11.3662 10.4606 11.5482C10.1831 12.2859 9.83344 12.9841 9.29784 13.5734C8.91419 13.9957 8.46779 14.3201 7.89667 14.4465C7.77431 14.4733 7.75024 14.4405 7.75103 14.3233C7.75576 13.6464 7.7534 12.9695 7.7534 12.2926L7.75379 12.2934ZM9.4498 7.24523C8.93353 7.24523 8.41767 7.24247 7.90141 7.24721C7.79286 7.24839 7.74905 7.22747 7.75063 7.10472C7.75774 6.54978 7.75655 5.99444 7.75142 5.4395C7.75063 5.33372 7.77787 5.29741 7.88799 5.29268C8.86723 5.25005 9.79949 5.01284 10.6864 4.59762C10.774 4.55657 10.804 4.55696 10.8289 4.66432C11.0136 5.47384 11.102 6.29441 11.1344 7.12288C11.1383 7.22155 11.1083 7.24721 11.0132 7.24681C10.4922 7.24287 9.97119 7.24484 9.45019 7.24523H9.4498ZM9.43993 7.7236C9.96093 7.7236 10.4819 7.72558 11.0029 7.72163C11.1012 7.72084 11.1387 7.74176 11.1344 7.8503C11.1012 8.67364 11.0136 9.48947 10.8308 10.2943C10.8068 10.4004 10.7799 10.4146 10.682 10.3685C9.79515 9.95324 8.86288 9.71682 7.88364 9.67498C7.78379 9.67064 7.75103 9.64064 7.75221 9.53881C7.75655 8.97913 7.75734 8.41906 7.75182 7.85899C7.75063 7.74768 7.78458 7.72005 7.89233 7.72084C8.40819 7.72597 8.92446 7.72321 9.44072 7.72321L9.43993 7.7236ZM5.60033 7.24523C5.0746 7.24523 4.54886 7.24405 4.02273 7.24642C3.93669 7.24681 3.89051 7.23734 3.89485 7.12959C3.92722 6.30625 4.01642 5.49081 4.19482 4.68485C4.22363 4.5542 4.2631 4.56131 4.36375 4.60827C5.24274 5.0156 6.16593 5.25123 7.1353 5.29228C7.25371 5.29741 7.27897 5.33886 7.27779 5.44819C7.27305 5.99839 7.27147 6.5486 7.27858 7.09841C7.28016 7.22708 7.23437 7.24879 7.11951 7.2476C6.61312 7.24208 6.10673 7.24523 5.60033 7.24523ZM5.5877 7.7236C6.10396 7.7236 6.61983 7.72637 7.13609 7.72124C7.24187 7.72005 7.27937 7.74452 7.27818 7.8578C7.27226 8.41748 7.27345 8.97755 7.27779 9.53762C7.27858 9.63788 7.24937 9.67103 7.14754 9.67498C6.16751 9.71405 5.23524 9.95008 4.34915 10.3677C4.25482 10.4123 4.22403 10.4067 4.19916 10.2962C4.01602 9.48631 3.92801 8.66574 3.89525 7.83728C3.89091 7.72676 3.94222 7.72242 4.0251 7.72282C4.5461 7.72479 5.0671 7.724 5.5881 7.724L5.5877 7.7236ZM5.74203 14.2349C5.69506 14.2349 5.67967 14.2381 5.66625 14.2345C4.45374 13.8962 3.40622 13.2778 2.51737 12.3861C2.44356 12.3119 2.4779 12.2788 2.53079 12.2255C2.9168 11.8367 3.34228 11.4985 3.80447 11.204C3.90156 11.1425 3.93945 11.1421 3.97695 11.2636C4.15575 11.8415 4.39256 12.3952 4.69569 12.9194C4.97474 13.4021 5.30826 13.8426 5.74163 14.2349H5.74203ZM5.73374 0.721711C5.57586 0.890245 5.42706 1.03589 5.29326 1.19456C4.67477 1.92711 4.27455 2.77728 3.98326 3.68193C3.93748 3.82441 3.89722 3.82125 3.78552 3.74942C3.33715 3.46169 2.92588 3.12975 2.54578 2.75676C2.46724 2.67979 2.45895 2.63677 2.54263 2.55349C3.30044 1.80081 4.18022 1.2431 5.18472 0.882352C5.3572 0.820384 5.53008 0.756444 5.73374 0.721316V0.721711ZM9.29942 0.744998C9.34046 0.722105 9.3677 0.734735 9.39533 0.742235C10.5909 1.08286 11.6258 1.69463 12.5036 2.5752C12.5793 2.65098 12.5537 2.6869 12.4941 2.7465C12.1065 3.1333 11.6814 3.47195 11.2196 3.76678C11.1111 3.83625 11.085 3.80704 11.0507 3.69969C10.8 2.91187 10.4602 2.16669 9.97198 1.49452C9.77463 1.22258 9.55044 0.974316 9.29942 0.745392V0.744998ZM9.31678 14.2321C9.45966 14.0743 9.60925 13.9286 9.74266 13.7684C10.3596 13.0279 10.761 12.1746 11.0523 11.2644C11.0858 11.1602 11.1103 11.135 11.2129 11.2005C11.6747 11.4941 12.099 11.8332 12.4882 12.218C12.5655 12.2946 12.5663 12.3333 12.4882 12.4102C11.846 13.0488 11.1123 13.5517 10.2818 13.912C9.9704 14.047 9.65188 14.1627 9.31599 14.2325L9.31678 14.2321Z" fill="#2A3E71"/>
</svg>
