<svg width="55" height="55" viewBox="0 0 64 64" fill="none" xmlns="http://www.w3.org/2000/svg">
    <g filter="url(#filter0_d_3924_88)">
        <path
            d="M31 55C44.8071 55 56 43.8071 56 30C56 16.1929 44.8071 5 31 5C17.1929 5 6 16.1929 6 30C6 43.8071 17.1929 55 31 55Z"
            fill="white" />
    </g>
    <g clip-path="url(#clip0_3924_88)">
        <path
            d="M30.9999 52.7283C43.5525 52.7283 53.7283 42.5525 53.7283 29.9999C53.7283 17.4473 43.5525 7.27148 30.9999 7.27148C18.4473 7.27148 8.27148 17.4473 8.27148 29.9999C8.27148 42.5525 18.4473 52.7283 30.9999 52.7283Z"
            fill="#4B69B1" />
        <path
            d="M33.0257 30.714V45.5831H27.0668V30.714H24.0039V24.8108H27.1225V21.2188C27.1225 18.2209 29.5543 15.7891 32.5523 15.7891H37.8707V21.0796H34.6824C33.9817 21.0796 33.4155 21.6458 33.4155 22.3465V24.7551H37.8707L37.4252 30.6861L33.0257 30.714Z"
            fill="white" />
    </g>
    <defs>
        <filter id="filter0_d_3924_88" x="0" y="0" width="64" height="64" filterUnits="userSpaceOnUse"
            color-interpolation-filters="sRGB">
            <feFlood flood-opacity="0" result="BackgroundImageFix" />
            <feColorMatrix in="SourceAlpha" type="matrix" values="0 0 0 0 0 0 0 0 0 0 0 0 0 0 0 0 0 0 127 0"
                result="hardAlpha" />
            <feOffset dx="1" dy="2" />
            <feGaussianBlur stdDeviation="3.5" />
            <feComposite in2="hardAlpha" operator="out" />
            <feColorMatrix type="matrix" values="0 0 0 0 0 0 0 0 0 0 0 0 0 0 0 0 0 0 0.13 0" />
            <feBlend mode="normal" in2="BackgroundImageFix" result="effect1_dropShadow_3924_88" />
            <feBlend mode="normal" in="SourceGraphic" in2="effect1_dropShadow_3924_88" result="shape" />
        </filter>
        <clipPath id="clip0_3924_88">
            <rect width="45.4545" height="45.4545" fill="white" transform="translate(8.27148 7.27148)" />
        </clipPath>
    </defs>
</svg>