<svg width="55" height="55" viewBox="0 0 64 64" fill="none" xmlns="http://www.w3.org/2000/svg">
    <g filter="url(#filter0_d_3924_94)">
        <path
            d="M31 55C44.8071 55 56 43.8071 56 30C56 16.1929 44.8071 5 31 5C17.1929 5 6 16.1929 6 30C6 43.8071 17.1929 55 31 55Z"
            fill="white" />
    </g>
    <g clip-path="url(#clip0_3924_94)">
        <path
            d="M30.9999 52.7283C43.5525 52.7283 53.7283 42.5525 53.7283 29.9999C53.7283 17.4473 43.5525 7.27148 30.9999 7.27148C18.4473 7.27148 8.27148 17.4473 8.27148 29.9999C8.27148 42.5525 18.4473 52.7283 30.9999 52.7283Z"
            fill="#37B1E2" />
        <path
            d="M41.1277 22.0728C41.1277 22.0728 32.4796 16.3925 30.9968 27.1685C30.9968 27.1685 25.9244 28.2544 19.0745 21.4046C19.0745 21.4046 16.4014 25.7112 20.6617 29.0712L18.2462 28.3379C18.2462 28.3379 18.3227 33.2665 22.583 34.0183H20.4111C20.4111 34.0183 20.4111 37.2762 25.3397 38.028C25.3397 38.028 24.8384 40.2834 17.3203 40.534C17.3203 40.534 24.922 46.8827 35.3638 40.534C35.3638 40.534 42.882 35.2713 42.7149 26.2496L45.6386 23.0753L42.4643 23.8271C42.4643 23.8271 44.3856 22.5044 44.7197 20.5762C44.7197 20.5762 42.3808 22.1564 41.1277 22.0728Z"
            fill="#EEEEEE" />
    </g>
    <defs>
        <filter id="filter0_d_3924_94" x="0" y="0" width="64" height="64" filterUnits="userSpaceOnUse"
            color-interpolation-filters="sRGB">
            <feFlood flood-opacity="0" result="BackgroundImageFix" />
            <feColorMatrix in="SourceAlpha" type="matrix" values="0 0 0 0 0 0 0 0 0 0 0 0 0 0 0 0 0 0 127 0"
                result="hardAlpha" />
            <feOffset dx="1" dy="2" />
            <feGaussianBlur stdDeviation="3.5" />
            <feComposite in2="hardAlpha" operator="out" />
            <feColorMatrix type="matrix" values="0 0 0 0 0 0 0 0 0 0 0 0 0 0 0 0 0 0 0.13 0" />
            <feBlend mode="normal" in2="BackgroundImageFix" result="effect1_dropShadow_3924_94" />
            <feBlend mode="normal" in="SourceGraphic" in2="effect1_dropShadow_3924_94" result="shape" />
        </filter>
        <clipPath id="clip0_3924_94">
            <rect width="45.4545" height="45.4545" fill="white" transform="translate(8.27148 7.27148)" />
        </clipPath>
    </defs>
</svg>