<svg width="48" height="48" viewBox="0 0 52 52" fill="none" xmlns="http://www.w3.org/2000/svg">
    <mask id="mask0_4526_68" style="mask-type:alpha" maskUnits="userSpaceOnUse" x="0" y="0" width="52" height="52">
        <rect width="52" height="52" fill="#D9D9D9" />
    </mask>
    <g mask="url(#mask0_4526_68)">
        <g filter="url(#filter0_d_4526_68)">
            <path
                d="M26 51C39.8071 51 51 39.8071 51 26C51 12.1929 39.8071 1 26 1C12.1929 1 1 12.1929 1 26C1 39.8071 12.1929 51 26 51Z"
                fill="white" />
        </g>
        <mask id="mask1_4526_68" style="mask-type:luminance" maskUnits="userSpaceOnUse" x="3" y="3" width="46"
            height="46">
            <path d="M48.726 3.27148H3.27148V48.726H48.726V3.27148Z" fill="white" />
        </mask>
        <g mask="url(#mask1_4526_68)">
            <path
                d="M25.9999 48.7283C38.5525 48.7283 48.7283 38.5525 48.7283 25.9999C48.7283 13.4473 38.5525 3.27148 25.9999 3.27148C13.4473 3.27148 3.27148 13.4473 3.27148 25.9999C3.27148 38.5525 13.4473 48.7283 25.9999 48.7283Z"
                fill="#CD201F" />
            <path
                d="M17.2057 15H35.24C38.6663 15 41.4457 17.7794 41.4457 21.2057V30.6977C41.4457 34.124 38.6663 36.9034 35.24 36.9034H17.2057C13.7794 36.9034 11 34.124 11 30.6977V21.2057C11 17.7794 13.7794 15 17.2057 15Z"
                fill="white" />
            <path d="M22.6133 21.5195L30.8059 25.948L22.6133 30.3823V21.5195Z" fill="url(#paint0_linear_4526_68)" />
        </g>
    </g>
    <defs>
        <filter id="filter0_d_4526_68" x="-5" y="-4" width="64" height="64" filterUnits="userSpaceOnUse"
            color-interpolation-filters="sRGB">
            <feFlood flood-opacity="0" result="BackgroundImageFix" />
            <feColorMatrix in="SourceAlpha" type="matrix" values="0 0 0 0 0 0 0 0 0 0 0 0 0 0 0 0 0 0 127 0"
                result="hardAlpha" />
            <feOffset dx="1" dy="2" />
            <feGaussianBlur stdDeviation="3.5" />
            <feComposite in2="hardAlpha" operator="out" />
            <feColorMatrix type="matrix" values="0 0 0 0 0 0 0 0 0 0 0 0 0 0 0 0 0 0 0.13 0" />
            <feBlend mode="normal" in2="BackgroundImageFix" result="effect1_dropShadow_4526_68" />
            <feBlend mode="normal" in="SourceGraphic" in2="effect1_dropShadow_4526_68" result="shape" />
        </filter>
        <linearGradient id="paint0_linear_4526_68" x1="22.6133" y1="25.948" x2="30.8059" y2="25.948"
            gradientUnits="userSpaceOnUse">
            <stop stop-color="#CD201F" />
            <stop offset="1" stop-color="#740100" />
        </linearGradient>
    </defs>
</svg>