<svg width="22" height="22" viewBox="0 0 22 22" fill="none" xmlns="http://www.w3.org/2000/svg">
<path d="M4.78378 7.05078H0.419525V21.1515H4.78378V7.05078Z" fill="#1A488A"/>
<path d="M2.58056 5.20466C4.00673 5.20466 5.16112 4.03839 5.16112 2.60167C5.16112 1.16495 4.00541 0 2.58056 0C1.15571 0 0 1.16495 0 2.60167C0 4.03839 1.15571 5.20466 2.58056 5.20466Z" fill="#1A488A"/>
<path d="M11.7616 13.7506C11.7616 11.7677 12.6746 10.5869 14.4213 10.5869C16.0256 10.5869 16.7974 11.7202 16.7974 13.7506V21.1519H21.1418V12.2242C21.1418 8.44701 19.0006 6.62109 16.0111 6.62109C13.0215 6.62109 11.7616 8.95099 11.7616 8.95099V7.05119H7.57544V21.1519H11.7616V13.7506Z" fill="#1A488A"/>
</svg>
