<svg width="80" height="20" viewBox="0 0 80 20" fill="none" xmlns="http://www.w3.org/2000/svg">
<path d="M0 0.000991345C0.867048 -0.0005794 1.7341 -5.58191e-05 2.60168 0.000991345C2.59958 4.03047 2.59906 8.05993 2.60168 12.0895C2.56451 14.2753 4.09859 16.3393 6.1746 16.9933C9.70409 18.1918 13.5335 15.0262 12.9021 11.3244C13.7728 11.3244 14.6435 11.3234 15.5143 11.325C15.9834 15.4749 12.6686 19.5384 8.48256 19.8117C5.75783 20.0829 3.03206 18.8321 1.44456 16.6037C0.490596 15.3252 -0.0157074 13.7287 0.00104716 12.136C0 8.09084 0.00261791 4.04617 0 0.000991345ZM36.1344 12.1397C36.1156 14.0465 36.8575 15.9341 38.1723 17.3158C41.6441 21.3385 48.5193 20.3473 50.8445 15.6089C54.319 8.67934 46.6218 1.44555 39.9278 5.37607C39.931 6.49444 39.9278 7.6128 39.9294 8.7312C44.0803 3.94774 51.489 9.19454 48.371 14.7052C46.6658 17.7205 42.052 18.1121 39.9194 15.3566C39.3906 14.7367 39.0184 13.9843 38.8523 13.1863C38.567 8.81127 38.8356 4.39174 38.7425 0.0020385C37.8722 -0.00110298 37.0025 -5.58189e-05 36.1329 0.00151492C36.1366 4.04775 36.1329 8.09345 36.1344 12.1397ZM54.21 11.7758C54.1666 12.8492 54.3257 13.9345 54.7226 14.9356C56.4233 19.507 62.5716 21.3709 66.4765 18.4116C74.4059 12.5256 66.5875 0.527713 57.9951 5.3745C57.9977 6.4934 57.9956 7.61229 57.9961 8.73171C62.758 3.43934 70.4898 10.4197 65.6786 15.6754C63.5832 17.9447 59.5961 17.6692 57.8207 15.1461C57.228 14.3759 56.8798 13.4246 56.8243 12.4554C56.8222 8.30393 56.8238 4.15194 56.8238 0.000467762C55.952 0.000467762 55.0808 -0.00110298 54.2095 0.00151492C54.2111 3.92628 54.2095 7.85105 54.2095 11.7758H54.21ZM72.2574 12.1366C72.2381 13.2596 72.4888 14.3853 72.9674 15.4011C74.2306 18.0289 77.0335 19.951 79.9936 19.8169C79.9768 18.9651 80.0226 18.1085 79.9841 17.2551C77.4932 17.3116 75.1848 15.289 74.8823 12.8219C74.7521 8.55527 74.875 4.27289 74.8357 0.000991345C73.9754 0.000991345 73.115 -0.00110298 72.2553 0.00151492C72.2548 4.04617 72.2553 8.09134 72.2574 12.1366ZM21.392 13.711C21.3815 14.799 21.6469 15.8969 22.2161 16.8294C23.369 18.7751 25.5749 20.0169 27.8493 19.8248C30.5013 19.7107 32.8961 17.5697 33.3752 14.9697C33.6527 11.4308 33.4035 7.85316 33.4862 4.30169C32.6171 4.30064 31.7479 4.29907 30.8787 4.30273C30.8829 7.56153 30.8866 10.8203 30.8787 14.0796C30.7683 16.5713 27.6419 18.109 25.5927 16.6927C24.8717 16.2158 24.2921 15.4906 24.0837 14.6419C23.8214 11.2182 24.0628 7.74422 23.9853 4.3043C23.1203 4.29697 22.2559 4.30116 21.3914 4.3022C21.3936 7.43847 21.3914 10.5747 21.3914 13.711H21.392ZM5.93479 0.22456C6.17669 1.1513 6.39503 2.08432 6.63063 3.01263C11.9413 2.27647 17.0468 6.62062 16.7154 12.0648C17.6939 12.1004 18.6709 12.1617 19.65 12.1863C20.0647 5.32214 13.6283 -0.737258 6.80133 0.103613C6.51231 0.139217 6.21648 0.142358 5.93479 0.22456ZM7.54008 6.88346C10.1177 6.72115 12.6026 8.74793 12.9021 11.3244C13.7728 11.3244 14.6435 11.3234 15.5143 11.325C15.2268 7.23164 11.2931 3.92837 7.21443 4.30587C7.31761 5.16559 7.41965 6.02583 7.54008 6.88346ZM7.93383 9.61396C8.78096 9.59193 9.61558 10.0899 10.001 10.8444C10.5874 10.8072 11.1716 10.7375 11.7581 10.6999C11.2821 9.06676 9.62656 7.90807 7.93856 7.92749C7.93856 8.48931 7.93594 9.05163 7.93383 9.61396Z" fill="#F5F5F7"/>
</svg>
