<svg width="23" height="23" viewBox="0 0 23 23" fill="none" xmlns="http://www.w3.org/2000/svg">
<path d="M4.58125 17.2375C5.5375 16.5063 6.60625 15.9295 7.7875 15.5072C8.96875 15.0858 10.2063 14.875 11.5 14.875C12.7937 14.875 14.0312 15.0858 15.2125 15.5072C16.3937 15.9295 17.4625 16.5063 18.4187 17.2375C19.075 16.4688 19.5861 15.5969 19.9521 14.6219C20.3174 13.6469 20.5 12.6062 20.5 11.5C20.5 9.00625 19.6236 6.88263 17.8709 5.12912C16.1174 3.37637 13.9937 2.5 11.5 2.5C9.00625 2.5 6.883 3.37637 5.13025 5.12912C3.37675 6.88263 2.5 9.00625 2.5 11.5C2.5 12.6062 2.683 13.6469 3.049 14.6219C3.41425 15.5969 3.925 16.4688 4.58125 17.2375ZM11.5 12.625C10.3938 12.625 9.46075 12.2455 8.701 11.4865C7.942 10.7268 7.5625 9.79375 7.5625 8.6875C7.5625 7.58125 7.942 6.64825 8.701 5.8885C9.46075 5.1295 10.3938 4.75 11.5 4.75C12.6062 4.75 13.5393 5.1295 14.299 5.8885C15.058 6.64825 15.4375 7.58125 15.4375 8.6875C15.4375 9.79375 15.058 10.7268 14.299 11.4865C13.5393 12.2455 12.6062 12.625 11.5 12.625ZM11.5 22.75C9.94375 22.75 8.48125 22.4545 7.1125 21.8635C5.74375 21.2733 4.55313 20.4719 3.54063 19.4594C2.52813 18.4469 1.72675 17.2563 1.1365 15.8875C0.5455 14.5187 0.25 13.0562 0.25 11.5C0.25 9.94375 0.5455 8.48125 1.1365 7.1125C1.72675 5.74375 2.52813 4.55313 3.54063 3.54063C4.55313 2.52813 5.74375 1.72637 7.1125 1.13537C8.48125 0.545125 9.94375 0.25 11.5 0.25C13.0562 0.25 14.5187 0.545125 15.8875 1.13537C17.2563 1.72637 18.4469 2.52813 19.4594 3.54063C20.4719 4.55313 21.2733 5.74375 21.8635 7.1125C22.4545 8.48125 22.75 9.94375 22.75 11.5C22.75 13.0562 22.4545 14.5187 21.8635 15.8875C21.2733 17.2563 20.4719 18.4469 19.4594 19.4594C18.4469 20.4719 17.2563 21.2733 15.8875 21.8635C14.5187 22.4545 13.0562 22.75 11.5 22.75ZM11.5 20.5C12.4937 20.5 13.4312 20.3549 14.3125 20.0646C15.1938 19.7736 16 19.3563 16.7312 18.8125C16 18.2687 15.1938 17.8514 14.3125 17.5604C13.4312 17.2701 12.4937 17.125 11.5 17.125C10.5063 17.125 9.56875 17.2701 8.6875 17.5604C7.80625 17.8514 7 18.2687 6.26875 18.8125C7 19.3563 7.80625 19.7736 8.6875 20.0646C9.56875 20.3549 10.5063 20.5 11.5 20.5ZM11.5 10.375C11.9875 10.375 12.3906 10.2156 12.7094 9.89687C13.0281 9.57812 13.1875 9.175 13.1875 8.6875C13.1875 8.2 13.0281 7.79688 12.7094 7.47813C12.3906 7.15938 11.9875 7 11.5 7C11.0125 7 10.6094 7.15938 10.2906 7.47813C9.97188 7.79688 9.8125 8.2 9.8125 8.6875C9.8125 9.175 9.97188 9.57812 10.2906 9.89687C10.6094 10.2156 11.0125 10.375 11.5 10.375Z" fill="white"/>
</svg>
