<svg width="180" height="180" viewBox="0 0 180 180" fill="none" xmlns="http://www.w3.org/2000/svg">
<circle cx="90" cy="90" r="90" fill="#385897"/>
<mask id="mask0_5946_691" style="mask-type:alpha" maskUnits="userSpaceOnUse" x="0" y="0" width="180" height="180">
<circle cx="90" cy="90" r="90" fill="#385897"/>
</mask>
<g mask="url(#mask0_5946_691)">
<g clip-path="url(#clip0_5946_691)">
<path d="M105.209 109.461L110.281 123.037L69.6326 125.918L75.2235 110.974C89.4974 119.196 100.454 113.174 105.209 109.461Z" fill="#F4D2B5"/>
<path d="M75.225 110.988L79.0478 100.781H101.959L105.211 109.481C100.456 113.193 89.4989 119.21 75.225 110.988Z" fill="#E2C2AA"/>
<path d="M157.585 150.895C157.758 151.199 157.924 151.509 158.086 151.826C142.323 167.467 121.196 177.712 97.7089 179.556C101.692 165.017 110.984 131.068 113.89 120.227C128.314 132.636 152.516 141.97 157.585 150.895Z" fill="#2E4D89"/>
<path d="M22.4989 150.895C27.5681 141.97 51.7697 132.636 66.194 120.227C69.1004 131.067 78.3932 165.017 82.375 179.556C58.8877 177.712 37.7618 167.468 21.9988 151.826C22.1603 151.509 22.327 151.199 22.4989 150.895Z" fill="#2E4D89"/>
<path d="M95.7852 179.695C93.885 179.807 91.9701 179.864 90.0422 179.864C88.1144 179.864 86.1995 179.807 84.2993 179.695H90.0396H95.7852Z" fill="#8AD3E2"/>
<path d="M73.015 112.992L90.0157 124.092L89.9648 124.11V179.681H90.0391L84.2987 179.686C83.6509 179.648 83.0057 179.606 82.3614 179.555C78.3788 165.016 69.0954 131.069 66.189 120.228C68.864 117.927 71.1969 115.521 73.015 112.992Z" fill="#E5E5E5"/>
<path d="M90.0501 179.681V124.11L90.0302 124.092L107.061 112.992C108.879 115.522 111.216 117.929 113.891 120.23C110.984 131.071 101.699 165.018 97.7165 179.559C97.0739 179.609 96.4295 179.649 95.7826 179.687L90.038 179.682H90.0501V179.681Z" fill="#E5E5E5"/>
<path d="M90.0508 179.682H90.0387H89.9644V124.112L90.0076 124.094L90.0508 124.112V179.682Z" fill="#E5E5E5"/>
<path d="M89.7759 28.0547C109.701 28.0547 125.855 34.3389 125.855 57.3231C125.855 80.3073 109.701 111.289 89.7759 111.289C89.7638 111.289 89.7388 111.289 89.7388 111.289V28.0547C89.7388 28.0547 89.7647 28.0547 89.7768 28.0547H89.7759Z" fill="#FDD9B7"/>
<path d="M53.6998 57.3231C53.6998 34.3518 69.8653 28.0625 89.7422 28.0547V111.289C69.8653 111.252 53.6998 80.2935 53.6998 57.3231Z" fill="#F3D0B3"/>
<path d="M118.063 69.3215C117.099 74.6832 118.585 79.3469 121.38 79.739C124.176 80.1312 127.224 76.1024 128.187 70.7408C129.151 65.3791 127.665 60.7154 124.869 60.3232C122.073 59.9311 119.026 63.9599 118.063 69.3215Z" fill="#FDD9B7"/>
<path d="M61.73 69.3215C62.693 74.6832 61.2083 79.3469 58.4124 79.739C55.6165 80.1312 52.5693 76.1024 51.6062 70.7408C50.6432 65.3791 52.1279 60.7154 54.9238 60.3232C57.7197 59.9311 60.7669 63.9599 61.73 69.3215Z" fill="#F3D0B3"/>
</g>
</g>
<defs>
<clipPath id="clip0_5946_691">
<rect width="136.086" height="162.857" fill="white" transform="matrix(-1 0 0 1 158.086 17)"/>
</clipPath>
</defs>
</svg>
