<svg width="25" height="25" viewBox="0 0 25 25" fill="none" xmlns="http://www.w3.org/2000/svg">
<path d="M17.4122 16.4092H6.85219C6.70819 16.4092 6.56419 16.3132 6.46819 16.2172C6.37219 16.1212 6.37219 15.9292 6.42019 15.7852L7.33219 13.4812L6.42019 4.8892H3.49219V3.9292H6.85219C7.09219 3.9292 7.28419 4.1212 7.33219 4.3612L8.29219 13.4812C8.29219 13.5772 8.29219 13.6252 8.24419 13.7212L7.57219 15.4492H17.8922L17.4122 16.4092Z" fill="#AF38D6"/>
<path d="M7.90913 14.0091L7.71713 13.0491L18.8531 10.7451V6.80912H7.33313V5.84912H19.3331C19.6211 5.84912 19.8131 6.04112 19.8131 6.32912V11.1291C19.8131 11.3691 19.6691 11.5611 19.4291 11.6091L7.90913 14.0091ZM17.8931 19.2891C16.8371 19.2891 15.9731 18.4251 15.9731 17.3691C15.9731 16.3131 16.8371 15.4491 17.8931 15.4491C18.9491 15.4491 19.8131 16.3131 19.8131 17.3691C19.8131 18.4251 18.9491 19.2891 17.8931 19.2891ZM17.8931 16.4091C17.3651 16.4091 16.9331 16.8411 16.9331 17.3691C16.9331 17.8971 17.3651 18.3291 17.8931 18.3291C18.4211 18.3291 18.8531 17.8971 18.8531 17.3691C18.8531 16.8411 18.4211 16.4091 17.8931 16.4091ZM6.37313 19.2891C5.31713 19.2891 4.45312 18.4251 4.45312 17.3691C4.45312 16.3131 5.31713 15.4491 6.37313 15.4491C7.42913 15.4491 8.29313 16.3131 8.29313 17.3691C8.29313 18.4251 7.42913 19.2891 6.37313 19.2891ZM6.37313 16.4091C5.84513 16.4091 5.41313 16.8411 5.41313 17.3691C5.41313 17.8971 5.84513 18.3291 6.37313 18.3291C6.90113 18.3291 7.33313 17.8971 7.33313 17.3691C7.33313 16.8411 6.90113 16.4091 6.37313 16.4091Z" fill="#AF38D6"/>
</svg>
