<svg width="21" height="21" viewBox="0 0 21 21" fill="none" xmlns="http://www.w3.org/2000/svg">
<g clip-path="url(#clip0_472_4)">
<path d="M18.5503 15.8603C18.0145 15.3827 17.5455 14.8352 17.1558 14.2325C16.7304 13.4006 16.4754 12.492 16.4058 11.5603V8.81581C16.4095 7.35226 15.8786 5.93774 14.9129 4.83802C13.9472 3.73829 12.6131 3.02907 11.1614 2.84359V2.12692C11.1614 1.93022 11.0832 1.74157 10.9441 1.60248C10.8051 1.46339 10.6164 1.38525 10.4197 1.38525C10.223 1.38525 10.0344 1.46339 9.89527 1.60248C9.75618 1.74157 9.67804 1.93022 9.67804 2.12692V2.8547C8.23929 3.05355 6.92136 3.76706 5.96833 4.86309C5.01531 5.95912 4.49178 7.36339 4.4947 8.81581V11.5603C4.42512 12.492 4.17014 13.4006 3.74471 14.2325C3.36186 14.8338 2.90037 15.3812 2.37248 15.8603C2.31322 15.9123 2.26573 15.9764 2.23316 16.0482C2.20059 16.1201 2.18369 16.198 2.18359 16.2769V17.0325C2.18359 17.1798 2.24213 17.3211 2.34631 17.4253C2.4505 17.5295 2.59181 17.588 2.73915 17.588H18.1836C18.3309 17.588 18.4722 17.5295 18.5764 17.4253C18.6806 17.3211 18.7391 17.1798 18.7391 17.0325V16.2769C18.739 16.198 18.7222 16.1201 18.6896 16.0482C18.657 15.9764 18.6095 15.9123 18.5503 15.8603ZM3.33915 16.4769C3.85604 15.9776 4.31115 15.418 4.69471 14.8103C5.2306 13.8055 5.54328 12.6969 5.61137 11.5603V8.81581C5.58934 8.16472 5.69855 7.51585 5.93251 6.90785C6.16646 6.29984 6.52038 5.74513 6.97318 5.27675C7.42597 4.80838 7.96839 4.4359 8.56814 4.18152C9.16788 3.92713 9.81269 3.79604 10.4641 3.79604C11.1156 3.79604 11.7604 3.92713 12.3602 4.18152C12.9599 4.4359 13.5023 4.80838 13.9551 5.27675C14.4079 5.74513 14.7618 6.29984 14.9958 6.90785C15.2297 7.51585 15.339 8.16472 15.3169 8.81581V11.5603C15.385 12.6969 15.6977 13.8055 16.2336 14.8103C16.6172 15.418 17.0723 15.9776 17.5892 16.4769H3.33915Z" fill="#AF38D6"/>
<path d="M10.4889 19.4434C10.8389 19.4354 11.1747 19.3038 11.437 19.072C11.6993 18.8402 11.8712 18.5231 11.9222 18.1768H9C9.05249 18.5325 9.2324 18.857 9.50628 19.09C9.78016 19.323 10.1293 19.4486 10.4889 19.4434V19.4434Z" fill="#AF38D6"/>
</g>
<defs>
<clipPath id="clip0_472_4">
<rect width="20" height="20" fill="white" transform="translate(0.488281 0.398926)"/>
</clipPath>
</defs>
</svg>
