<svg width="43" height="43" viewBox="0 0 43 43" fill="none" xmlns="http://www.w3.org/2000/svg">
<path d="M42.578 21.5486C42.5779 17.5471 41.431 13.6294 39.2732 10.2595C37.1154 6.88958 34.037 4.20869 30.4026 2.53428C26.7682 0.85987 22.7301 0.26209 18.7665 0.811735C14.8029 1.36138 11.0798 3.03542 8.03818 5.63561C4.99656 8.2358 2.76384 11.6532 1.60442 15.4831C0.444994 19.313 0.407448 23.3949 1.49622 27.2455C2.585 31.0961 4.75448 34.554 7.74775 37.2097C10.741 39.8654 14.4327 41.6076 18.3855 42.2301V27.6122H13.06V21.5486H18.3762V16.9334C18.3762 11.6886 21.5026 8.7886 26.2853 8.7886C27.8554 8.81057 29.4217 8.94741 30.9718 9.19802V14.3498H28.3323C25.7301 14.3498 24.9206 15.9657 24.9206 17.6189V21.5486H30.7268L29.7963 27.5998H24.9144V42.2301C29.8385 41.4496 34.3226 38.9381 37.5604 35.147C40.7983 31.356 42.5775 26.5342 42.578 21.5486Z" fill="#4676ED"/>
<path d="M29.7888 27.6122L30.7193 21.561H24.913V17.6188C24.913 15.9657 25.7226 14.3498 28.3248 14.3498H30.9643V9.19799C29.4142 8.94738 27.8478 8.81054 26.2778 8.78857C21.4951 8.78857 18.3687 11.6886 18.3687 16.9334V21.5486H13.0587V27.6122H18.3749V42.2425C20.5431 42.5816 22.751 42.5816 24.9193 42.2425V27.6122H29.7888Z" fill="white"/>
</svg>
