<svg width="43" height="43" viewBox="0 0 43 43" fill="none" xmlns="http://www.w3.org/2000/svg">
<path d="M21.088 42.4968C32.6538 42.4968 42.0298 33.1209 42.0298 21.555C42.0298 9.98922 32.6538 0.613281 21.088 0.613281C9.52219 0.613281 0.14624 9.98922 0.14624 21.555C0.14624 33.1209 9.52219 42.4968 21.088 42.4968Z" fill="#4467AD"/>
<path d="M22.7077 18.6972C23.0521 18.3094 23.3282 17.9154 23.6881 17.5834C24.1987 17.0857 24.8031 16.6945 25.4662 16.4324C26.1293 16.1704 26.8378 16.0428 27.5507 16.057C28.3722 16.0428 29.1917 16.142 29.9861 16.3517C31.8042 16.8792 32.859 18.1294 33.3648 19.9041C33.6999 21.234 33.8513 22.6035 33.8146 23.9745C33.8146 26.8691 33.8146 29.7607 33.8146 32.6615C33.8146 32.9314 33.7402 33.0028 33.4734 32.9996C31.98 32.9872 30.4898 32.9872 29.0027 32.9996C28.739 32.9996 28.6924 32.9221 28.6924 32.6894C28.6924 29.9365 28.6924 27.1835 28.6924 24.4306C28.7079 23.7391 28.6265 23.0488 28.4504 22.3799C28.0936 21.1389 27.2094 20.5184 25.9157 20.5835C24.1504 20.6766 23.2289 21.5546 23.0056 23.3509C22.9508 23.7789 22.9239 24.2101 22.9249 24.6416C22.9249 27.319 22.9249 29.9964 22.9249 32.6739C22.9249 32.9407 22.8566 33.0183 22.5836 33.0152C21.0851 33.0152 19.5835 33.0152 18.0819 33.0152C17.8399 33.0152 17.7717 32.9531 17.7717 32.7049C17.7717 27.4059 17.7717 22.1058 17.7717 16.8047C17.7717 16.541 17.8554 16.4944 18.1036 16.4944C19.5308 16.5069 20.9569 16.5069 22.382 16.4944C22.6426 16.4944 22.7108 16.5782 22.6922 16.8264C22.6984 17.4283 22.7077 18.0612 22.7077 18.6972Z" fill="#FEFEFE"/>
<path d="M14.5418 24.7544C14.5418 27.376 14.5418 29.9976 14.5418 32.6192C14.5418 32.9109 14.4704 33.0008 14.1695 32.9977C12.6772 32.9791 11.188 32.9977 9.6988 32.9977C9.45991 32.9977 9.38855 32.9388 9.38855 32.6875C9.38855 27.376 9.38855 22.0666 9.38855 16.7593C9.38855 16.5391 9.44439 16.4491 9.67708 16.4646C11.188 16.4646 12.6989 16.4646 14.2098 16.4646C14.5014 16.4646 14.5387 16.5732 14.5387 16.8245C14.5366 19.4678 14.5376 22.1111 14.5418 24.7544Z" fill="#FEFEFE"/>
<path d="M14.9516 11.2044C14.9547 11.7938 14.7827 12.3708 14.4573 12.8622C14.132 13.3537 13.668 13.7374 13.1243 13.9648C12.5805 14.1922 11.9815 14.253 11.4032 14.1394C10.8248 14.0259 10.2932 13.7432 9.87584 13.3271C9.45843 12.911 9.17402 12.3803 9.05865 11.8023C8.94329 11.2243 9.00218 10.6251 9.22787 10.0806C9.45355 9.53617 9.83586 9.071 10.3263 8.74413C10.8167 8.41726 11.3932 8.24341 11.9825 8.24464C12.7671 8.24869 13.5186 8.56152 14.0742 9.11545C14.6299 9.66937 14.9451 10.4198 14.9516 11.2044Z" fill="#FEFEFE"/>
</svg>
