<svg width="18" height="18" viewBox="0 0 26 26" fill="none" xmlns="http://www.w3.org/2000/svg">
    <g filter="url(#filter0_d_3291_21829)">
        <path
            d="M2 20.4539C2.54688 19.3282 3.09424 18.2024 3.64014 17.0762C3.94287 16.4514 4.24463 15.8257 4.54395 15.1989C4.60938 15.0619 4.69385 14.944 4.80127 14.8364C9.14941 10.4899 13.4971 6.14248 17.8423 1.79356C18.2388 1.39678 18.6904 1.11155 19.2549 1.02887C19.2725 1.02642 19.2881 1.01027 19.3047 1C19.5259 1 19.7476 1 19.9688 1C19.9971 1.01272 20.0239 1.0318 20.0532 1.03767C20.8667 1.20108 21.4424 1.66587 21.7998 2.41001C21.895 2.60865 21.9214 2.82832 22 3.03135V3.69526C21.9644 3.8254 21.9312 3.95652 21.8926 4.08519C21.769 4.49371 21.5327 4.83081 21.2339 5.12974C20.1836 6.17819 19.1348 7.22812 18.0855 8.27755C18.0669 8.29614 18.0488 8.31474 18.0303 8.33284C17.8652 8.48842 17.6885 8.50603 17.5679 8.37932C17.4429 8.24771 17.4629 8.08919 17.6313 7.91845C17.8599 7.68703 18.0884 7.45464 18.3232 7.23008C18.4062 7.15033 18.4238 7.09847 18.3286 7.01432C18.1924 6.89396 18.0649 6.76235 17.9419 6.6283C17.8711 6.551 17.8184 6.55296 17.7583 6.6327C17.7427 6.65325 17.7222 6.66989 17.7036 6.68848C14.2749 10.1171 10.8472 13.5467 7.41504 16.972C7.29785 17.0889 7.271 17.1564 7.41113 17.2684C7.5376 17.3697 7.64844 17.4915 7.75684 17.6119C7.82764 17.6902 7.87988 17.6887 7.94238 17.609C7.97021 17.5733 8.00635 17.5439 8.03857 17.5116C10.749 14.8007 13.4595 12.0898 16.1704 9.37885C16.23 9.31916 16.2881 9.25458 16.3574 9.20859C16.4795 9.12738 16.6074 9.1352 16.7129 9.23941C16.8179 9.34313 16.8364 9.4674 16.7505 9.59314C16.7105 9.65185 16.6592 9.70322 16.6089 9.75361C13.7881 12.5751 10.9668 15.3961 8.14648 18.2186C8.05322 18.312 7.94922 18.3849 7.83057 18.4422C6.12793 19.2626 4.42676 20.0846 2.72461 20.906C2.37207 21.0763 2.19727 21.022 2.00049 20.6878C2.00049 20.6095 2.00049 20.5317 2.00049 20.4535L2 20.4539ZM7.00977 14.7234C7.12305 14.74 7.21631 14.788 7.26025 14.8922C7.31738 15.0267 7.27637 15.1471 7.17578 15.2479C6.90918 15.5155 6.64453 15.7846 6.37305 16.0473C6.29883 16.1192 6.30029 16.1623 6.37451 16.2298C6.49512 16.3389 6.61816 16.449 6.71777 16.5762C6.83105 16.7205 6.89941 16.6838 7.0127 16.5703C10.439 13.1382 13.8691 9.70958 17.2988 6.28045C17.3218 6.25745 17.3428 6.23152 17.3682 6.21195C17.4375 6.15862 17.4287 6.1141 17.3677 6.05686C17.2578 5.9551 17.1548 5.84599 17.0488 5.74032C16.9264 5.61801 16.8063 5.61589 16.6885 5.73396C13.9912 8.43167 11.2944 11.1294 8.59619 13.8261C8.53223 13.8902 8.46484 13.9548 8.38818 14.0003C8.26465 14.0732 8.146 14.036 8.0542 13.9352C7.96729 13.8398 7.94775 13.7239 8.021 13.6118C8.06689 13.5419 8.12842 13.4817 8.18799 13.422C10.8066 10.8026 13.4258 8.18313 16.0449 5.5637C16.1782 5.43062 16.4082 5.29804 16.4136 5.15762C16.4199 4.99519 16.1636 4.88413 16.0439 4.73149C15.9277 4.58276 15.8511 4.59205 15.7163 4.72758C12.3003 8.15182 8.87939 11.5712 5.45947 14.9915C5.43164 15.0189 5.40625 15.0492 5.37646 15.0737C5.31103 15.127 5.31299 15.172 5.375 15.2312C5.5166 15.3658 5.65674 15.5023 5.78857 15.6461C5.86084 15.7249 5.90479 15.7092 5.97217 15.6402C6.22656 15.379 6.48682 15.1241 6.74365 14.8653C6.81934 14.7889 6.90185 14.7307 7.00879 14.7244L7.00977 14.7234ZM19.6821 1.57682C19.1875 1.58759 18.8032 1.71919 18.4736 2.00198C18.1274 2.29895 17.8262 2.64191 17.4956 2.95454C17.4268 3.01961 17.4312 3.06022 17.4971 3.12578C18.29 3.91494 19.0811 4.70605 19.8706 5.49863C19.9302 5.55832 19.9707 5.58474 20.0415 5.50939C20.3584 5.17377 20.7134 4.87435 21.0054 4.51573C21.4658 3.94967 21.5552 3.3112 21.2651 2.65219C20.9565 1.9511 20.3823 1.60716 19.6821 1.57682ZM4.96973 15.6769C4.96973 15.6769 4.94922 15.6887 4.94141 15.7048C4.64795 16.312 4.35791 16.9206 4.05957 17.5253C4.01025 17.6246 4.0625 17.6667 4.11768 17.722C4.50391 18.1075 4.89258 18.4911 5.27344 18.882C5.35791 18.9686 5.42334 18.9701 5.52441 18.9187C5.82471 18.7655 6.12988 18.6222 6.43359 18.4749C6.73584 18.3286 7.03809 18.1829 7.33203 18.041C6.53857 17.2464 5.75488 16.4627 4.96973 15.6764V15.6769ZM17.0083 3.45798C16.9814 3.47902 16.9595 3.49271 16.9419 3.51033C16.7441 3.70749 16.5483 3.90711 16.3486 4.10232C16.2847 4.16494 16.3242 4.20114 16.3682 4.24469C17.1631 5.03923 17.9585 5.83327 18.7515 6.63026C18.8193 6.69826 18.8599 6.69337 18.9233 6.62781C19.1035 6.44043 19.2871 6.25647 19.4751 6.07741C19.5474 6.00842 19.5303 5.96831 19.4683 5.90617C18.6763 5.11751 17.8867 4.32688 17.0962 3.53675C17.0698 3.51033 17.0405 3.48635 17.0083 3.45798ZM2.77393 20.1927C2.78467 20.2044 2.7959 20.2162 2.80664 20.2274C3.45215 19.9153 4.09717 19.6026 4.74316 19.2925C4.83838 19.247 4.79004 19.2088 4.74707 19.1653C4.44434 18.8624 4.14062 18.5601 3.83887 18.2558C3.78271 18.199 3.74609 18.1745 3.70068 18.2699C3.39404 18.9118 3.0835 19.5518 2.77393 20.1922V20.1927Z"
            fill="white" />
    </g>
    <defs>
        <filter id="filter0_d_3291_21829" x="0.8" y="0.8" width="24.4" height="24.4" filterUnits="userSpaceOnUse"
            color-interpolation-filters="sRGB">
            <feFlood flood-opacity="0" result="BackgroundImageFix" />
            <feColorMatrix in="SourceAlpha" type="matrix" values="0 0 0 0 0 0 0 0 0 0 0 0 0 0 0 0 0 0 127 0"
                result="hardAlpha" />
            <feOffset dx="1" dy="2" />
            <feGaussianBlur stdDeviation="1.1" />
            <feComposite in2="hardAlpha" operator="out" />
            <feColorMatrix type="matrix" values="0 0 0 0 0.444434 0 0 0 0 0.444434 0 0 0 0 0.444434 0 0 0 0.27 0" />
            <feBlend mode="normal" in2="BackgroundImageFix" result="effect1_dropShadow_3291_21829" />
            <feBlend mode="normal" in="SourceGraphic" in2="effect1_dropShadow_3291_21829" result="shape" />
        </filter>
    </defs>
</svg>