<svg width="20" height="20" viewBox="0 0 20 24" fill="none" xmlns="http://www.w3.org/2000/svg">
    <path
        d="M15.7667 15.7982C14.7208 15.7982 13.7785 16.2534 13.1244 16.9775L7.24177 13.3057C7.39883 12.9005 7.48593 12.4604 7.48593 12C7.48593 11.5394 7.39883 11.0993 7.24177 10.6943L13.1244 7.02234C13.7785 7.74643 14.7208 8.2018 15.7667 8.2018C17.737 8.2018 19.3398 6.58644 19.3398 4.60081C19.3398 2.61519 17.737 1 15.7667 1C13.7964 1 12.1936 2.61536 12.1936 4.60098C12.1936 5.06139 12.2809 5.50148 12.4377 5.90666L6.55526 9.57848C5.90123 8.85439 4.9589 8.39902 3.91297 8.39902C1.9427 8.39902 0.339844 10.0145 0.339844 12C0.339844 13.9856 1.9427 15.601 3.91297 15.601C4.9589 15.601 5.90123 15.1458 6.55526 14.4215L12.4377 18.0933C12.2809 18.4985 12.1936 18.9386 12.1936 19.3992C12.1936 21.3846 13.7964 23 15.7667 23C17.737 23 19.3398 21.3846 19.3398 19.3992C19.3398 17.4136 17.737 15.7982 15.7667 15.7982ZM13.4965 4.60098C13.4965 3.33945 14.5149 2.31306 15.7667 2.31306C17.0185 2.31306 18.0369 3.33945 18.0369 4.60098C18.0369 5.86252 17.0185 6.8889 15.7667 6.8889C14.5149 6.8889 13.4965 5.86252 13.4965 4.60098ZM3.91297 14.2879C2.66103 14.2879 1.64258 13.2615 1.64258 12C1.64258 10.7385 2.66103 9.71208 3.91297 9.71208C5.16475 9.71208 6.18303 10.7385 6.18303 12C6.18303 13.2615 5.16475 14.2879 3.91297 14.2879ZM13.4965 19.399C13.4965 18.1375 14.5149 17.1111 15.7667 17.1111C17.0185 17.1111 18.0369 18.1375 18.0369 19.399C18.0369 20.6606 17.0185 21.6869 15.7667 21.6869C14.5149 21.6869 13.4965 20.6606 13.4965 19.399Z"
        fill="white" stroke="white" stroke-width="0.5" />
</svg>