<svg width="43" height="43" viewBox="0 0 43 43" fill="none" xmlns="http://www.w3.org/2000/svg">
<path d="M21.8079 42.4968C33.3738 42.4968 42.7497 33.1209 42.7497 21.555C42.7497 9.98923 33.3738 0.613281 21.8079 0.613281C10.2421 0.613281 0.86618 9.98923 0.86618 21.555C0.86618 33.1209 10.2421 42.4968 21.8079 42.4968Z" fill="url(#paint0_linear_2526_2743)"/>
<path fill-rule="evenodd" clip-rule="evenodd" d="M31.8808 11.7385C29.6037 9.45557 26.5739 8.07872 23.3565 7.86475C20.1391 7.65077 16.9538 8.61429 14.3944 10.5756C11.835 12.5369 10.0762 15.3622 9.4462 18.5245C8.81616 21.6869 9.35778 24.9704 10.9701 27.7629L9.08685 34.6442L16.1264 32.7982C18.0756 33.8576 20.2587 34.4133 22.4772 34.4146C25.1045 34.4148 27.6728 33.636 29.8575 32.1766C32.0422 30.7173 33.7451 28.6429 34.7509 26.2158C35.7567 23.7887 36.0203 21.1179 35.5084 18.541C34.9964 15.9641 33.7318 13.5968 31.8746 11.7385H31.8808ZM22.4803 32.1715C20.5023 32.1669 18.5618 31.6311 16.8617 30.6203L16.4584 30.3814L12.2793 31.4765L13.3776 27.4154L13.1294 26.9997C11.8287 24.9257 11.254 22.4783 11.4958 20.0422C11.7377 17.6061 12.7822 15.3194 14.4653 13.5416C16.1484 11.7639 18.3745 10.5959 20.7937 10.2212C23.213 9.84655 25.6882 10.2865 27.8301 11.4719C29.9721 12.6573 31.6594 14.5209 32.6267 16.7698C33.5941 19.0186 33.7866 21.5252 33.1741 23.8954C32.5616 26.2657 31.1788 28.3652 29.2431 29.8638C27.3073 31.3625 24.9284 32.1753 22.4803 32.1746V32.1715ZM28.5394 23.8972C28.2075 23.7296 26.5756 22.9292 26.2715 22.8175C25.9675 22.7058 25.7441 22.6531 25.5238 22.9851C25.3035 23.317 24.6675 24.0647 24.4721 24.285C24.2766 24.5053 24.0843 24.5332 23.7523 24.3688C22.7747 23.9773 21.8721 23.4199 21.0842 22.7213C20.3531 22.0516 19.7257 21.2768 19.2227 20.4224C19.0272 20.0904 19.201 19.9105 19.3685 19.7461C19.536 19.5816 19.7004 19.3582 19.8649 19.1628C20.0028 18.9999 20.1167 18.8181 20.2031 18.623C20.2466 18.5309 20.2669 18.4296 20.262 18.3278C20.2571 18.2261 20.2273 18.1272 20.1751 18.0397C20.0914 17.8753 19.4274 16.2403 19.1513 15.5763C18.8752 14.9124 18.6084 15.0179 18.4067 15.0086C18.2051 14.9993 17.991 15.0086 17.7676 15.0086C17.5996 15.0133 17.4343 15.0527 17.2822 15.1242C17.13 15.1958 16.9943 15.2979 16.8834 15.4243C16.5086 15.7798 16.2118 16.2095 16.0121 16.6859C15.8123 17.1624 15.7139 17.6752 15.7231 18.1917C15.7231 19.8236 16.9113 21.4028 17.0789 21.6231C17.2464 21.8433 19.4181 25.1971 22.7471 26.6336C23.3654 26.8999 23.9971 27.1339 24.6396 27.3347C25.317 27.5402 26.033 27.5848 26.7307 27.465C27.3698 27.3689 28.6946 26.6615 28.9707 25.889C29.2468 25.1165 29.2499 24.4494 29.1661 24.3098C29.0824 24.1702 28.8714 24.0709 28.5394 23.8972Z" fill="white"/>
<defs>
<linearGradient id="paint0_linear_2526_2743" x1="21.8079" y1="39.4533" x2="21.8079" y2="-2.43025" gradientUnits="userSpaceOnUse">
<stop stop-color="#78CD51"/>
<stop offset="1" stop-color="#A0FC84"/>
</linearGradient>
</defs>
</svg>
