<svg width="43" height="43" viewBox="0 0 43 43" fill="none" xmlns="http://www.w3.org/2000/svg">
<path d="M21.368 42.4968C32.9339 42.4968 42.3098 33.1209 42.3098 21.555C42.3098 9.98922 32.9339 0.613281 21.368 0.613281C9.80223 0.613281 0.42627 9.98922 0.42627 21.555C0.42627 33.1209 9.80223 42.4968 21.368 42.4968Z" fill="#DA0000"/>
<path d="M34.3999 15.0632C34.245 14.4891 33.9399 13.9656 33.5154 13.5454C33.0909 13.1253 32.5621 12.8232 31.9821 12.6698C29.8726 12.1313 21.368 12.1313 21.368 12.1313C21.368 12.1313 12.8635 12.1313 10.7419 12.6938C10.1619 12.8472 9.63306 13.1492 9.20859 13.5694C8.78412 13.9895 8.47903 14.513 8.32407 15.0871C7.75589 17.1813 7.75589 21.5671 7.75589 21.5671C7.75589 21.5671 7.75589 25.9499 8.32407 28.0501C8.48051 28.6218 8.78634 29.1427 9.21078 29.5602C9.63523 29.9777 10.1633 30.2772 10.7419 30.4285C12.8635 30.9789 21.368 30.9789 21.368 30.9789C21.368 30.9789 29.8726 30.9789 31.9942 30.4165C32.5728 30.2652 33.1008 29.9658 33.5253 29.5482C33.9497 29.1307 34.2556 28.6098 34.412 28.0381C34.9802 25.9439 34.9802 21.5551 34.9802 21.5551C34.9802 21.5551 34.9681 17.1633 34.3999 15.0632ZM18.648 25.5939V17.5164L25.714 21.5551L18.648 25.5939Z" fill="white"/>
</svg>
