<svg width="12" height="23" viewBox="0 0 12 23" fill="none" xmlns="http://www.w3.org/2000/svg">
<path d="M7.80276 17.1699C7.80276 18.752 7.80394 20.3342 7.80276 21.9163C7.80159 22.7139 7.51499 22.9958 6.70805 22.9981C5.60981 23.0017 4.5104 22.9993 3.41217 22.9981C2.50069 22.9981 2.25637 22.7573 2.2552 21.86C2.25402 18.7109 2.24698 15.5618 2.26342 12.4116C2.26577 12.0217 2.16358 11.8901 1.77597 11.9324C1.47175 11.9653 1.16166 11.9453 0.853922 11.9371C0.345327 11.923 0.0164442 11.6235 0.0105713 11.1219C-0.00352375 10.053 -0.00352375 8.983 0.0105713 7.91413C0.0176188 7.41376 0.344153 7.11776 0.856271 7.10484C1.20747 7.09545 1.55985 7.08722 1.91105 7.10719C2.18355 7.12246 2.26577 7.02145 2.2599 6.75716C2.2458 6.0254 2.24228 5.29246 2.2599 4.56069C2.32215 1.91318 4.18857 0.0526405 6.83255 0.0103555C7.97425 -0.00726324 9.11712 0.000958844 10.26 0.0103555C10.9448 0.0150539 11.2443 0.325144 11.2466 1.01228C11.2502 1.96486 11.249 2.91628 11.2466 3.86886C11.2443 4.58184 10.953 4.87313 10.2259 4.88018C9.61044 4.88605 8.99496 4.88958 8.38066 4.88018C7.97425 4.87313 7.78866 5.04932 7.80159 5.4616C7.81568 5.88562 7.81921 6.312 7.79924 6.73602C7.78632 7.01675 7.86619 7.12129 8.16336 7.11306C8.86576 7.0931 9.56933 7.10132 10.2729 7.10837C10.9201 7.11541 11.2138 7.41846 11.1679 8.068C11.0963 9.08989 11.0105 10.1106 10.9119 11.1301C10.8555 11.7092 10.5736 11.9383 9.97809 11.943C9.42134 11.9465 8.86341 11.9664 8.30901 11.9359C7.92257 11.9148 7.78632 12.0087 7.79336 12.4292C7.82038 14.0102 7.80393 15.5936 7.80393 17.1745L7.80276 17.1699ZM6.74211 16.404C6.74211 14.7044 6.75033 13.0048 6.73506 11.3052C6.73272 10.9857 6.80437 10.8706 7.14617 10.8823C7.92139 10.9093 8.70014 10.8682 9.47537 10.8999C9.84066 10.9152 9.91936 10.7648 9.93698 10.4501C9.97339 9.80756 10.0274 9.16506 10.0991 8.52491C10.1308 8.24536 10.0744 8.1373 9.76667 8.14435C8.88808 8.16314 8.00831 8.13848 7.12972 8.15727C6.81846 8.16432 6.72919 8.06213 6.73624 7.75909C6.75503 6.96859 6.73154 6.17692 6.74564 5.38525C6.76208 4.41622 7.34467 3.8395 8.31605 3.81601C8.82817 3.80426 9.34147 3.80074 9.85476 3.81836C10.1214 3.82658 10.2118 3.74318 10.2036 3.4695C10.1848 2.81056 10.1801 2.15045 10.2048 1.49151C10.2165 1.17084 10.1367 1.05808 9.7972 1.06513C8.81643 1.08745 7.83448 1.06513 6.85252 1.07453C4.75237 1.0945 3.33347 2.51692 3.31937 4.61473C3.31233 5.6695 3.30998 6.72428 3.3229 7.77905C3.32642 8.06213 3.24655 8.16784 2.95173 8.15492C2.42552 8.1326 1.89695 8.16079 1.36956 8.14435C1.1182 8.13613 1.0442 8.22187 1.0489 8.46854C1.063 9.17094 1.06535 9.87569 1.0489 10.5781C1.04303 10.8388 1.13935 10.8999 1.37896 10.8929C1.84762 10.8776 2.3198 10.9246 2.78376 10.8776C3.25242 10.8306 3.32994 11.0127 3.3276 11.4379C3.30998 14.7784 3.32172 18.1189 3.31115 21.4594C3.31115 21.7977 3.35931 21.9598 3.75514 21.9457C4.60437 21.9152 5.45477 21.921 6.30399 21.9434C6.65049 21.9528 6.75386 21.8494 6.75033 21.4994C6.73271 19.7997 6.74211 18.1001 6.74329 16.4005L6.74211 16.404Z" fill="#DE5D2E"/>
</svg>
