<svg width="23" height="23" viewBox="0 0 23 23" fill="none" xmlns="http://www.w3.org/2000/svg">
<path d="M22.9548 11.5084C22.9548 13.5917 22.9613 15.675 22.9527 17.7575C22.9433 20.0757 21.6022 21.9822 19.4801 22.7228C18.9068 22.9226 18.3156 22.998 17.7122 22.998C13.5543 22.998 9.3964 23.0037 5.2385 22.9958C2.68327 22.9908 0.660357 21.3666 0.108652 18.9019C0.0238846 18.5233 0.0037703 18.1375 0.00305194 17.7518C0.0016152 13.586 -0.0034132 9.41943 0.00377045 5.25363C0.00808065 2.68906 1.62225 0.664711 4.08265 0.109414C4.47847 0.0203365 4.88075 0.00165899 5.28376 0.00165899C9.41508 0.000222263 13.5457 -0.00121447 17.677 0.00165899C20.2581 0.00381409 22.2846 1.60864 22.8428 4.08341C22.9362 4.49791 22.9527 4.91887 22.9527 5.34055C22.9541 7.39651 22.9527 9.45248 22.9527 11.5092L22.9548 11.5084ZM22.0231 11.5063C22.0231 9.36915 22.0217 7.23201 22.0246 5.09487C22.0246 4.82405 21.998 4.55682 21.9405 4.29389C21.4994 2.28175 19.8357 0.936253 17.7769 0.934816C13.5737 0.931942 9.37054 0.934098 5.16738 0.934816C5.01509 0.934816 4.86136 0.930506 4.7105 0.947746C2.50943 1.20348 0.935491 2.96779 0.934054 5.18826C0.931181 9.39932 0.933336 13.6111 0.933336 17.8222C0.933336 18.0463 0.947703 18.269 0.979311 18.4924C1.26091 20.4808 3.02162 22.0562 5.01796 22.0605C9.32888 22.0706 13.6391 22.0634 17.95 22.0648C18.1935 22.0648 18.4334 22.0339 18.6691 21.9815C20.6769 21.5397 22.0188 19.8717 22.0224 17.8099C22.026 15.7087 22.0231 13.6075 22.0224 11.5063H22.0231Z" fill="#DE5D2E"/>
<path d="M11.4719 18.9465C7.36429 18.94 4.04616 15.6118 4.04688 11.4999C4.04759 7.37575 7.38943 4.03823 11.4999 4.05475C15.6111 4.07199 18.9271 7.40952 18.9113 11.5143C18.8955 15.6355 15.5745 18.9529 11.4719 18.9465ZM17.9889 11.4941C17.9875 7.9095 15.0716 4.98216 11.4999 4.97857C7.89085 4.97498 4.96926 7.89585 4.96997 11.5064C4.97141 15.1003 7.89372 18.0234 11.4856 18.0219C15.0731 18.0205 17.9904 15.0917 17.9889 11.4934V11.4941Z" fill="#DE5D2E"/>
<path d="M17.5 3.81832C17.5022 2.95197 18.2155 2.23647 19.0725 2.24222C19.931 2.24797 20.645 2.96705 20.6464 3.82694C20.6479 4.70334 19.9317 5.41237 19.0502 5.40734C18.1846 5.40303 17.4978 4.69903 17.5 3.81832ZM19.0739 3.19118C18.7112 3.18831 18.421 3.47063 18.4174 3.82837C18.4145 4.17534 18.7162 4.48496 19.0617 4.48855C19.4116 4.49214 19.7075 4.19689 19.7104 3.83987C19.7133 3.47206 19.4403 3.19334 19.0739 3.19118Z" fill="#DE5D2E"/>
<path d="M11.475 15.7215C9.14817 15.7194 7.25384 13.8171 7.26174 11.4889C7.26965 9.15493 9.1726 7.25844 11.4922 7.27353C13.8175 7.28933 15.6867 9.16714 15.6918 11.4925C15.6968 13.8229 13.8017 15.7229 11.475 15.7215ZM8.19203 11.4796C8.18843 13.3013 9.64528 14.7826 11.4455 14.7898C13.2781 14.797 14.7586 13.3358 14.7622 11.5162C14.7658 9.68364 13.3032 8.2074 11.4814 8.20668C9.66827 8.20597 8.1949 9.67143 8.19203 11.4803V11.4796Z" fill="#DE5D2E"/>
</svg>
