<svg width="24" height="23" viewBox="0 0 24 23" fill="none" xmlns="http://www.w3.org/2000/svg">
<path d="M0 2.73284C0.0354468 2.58647 0.0686067 2.43954 0.107484 2.29432C0.481962 0.905038 1.80436 -0.0531695 3.26911 0.00228759C4.66068 0.0554578 5.94592 1.13316 6.18947 2.50929C6.55194 4.55663 4.95512 6.26551 3.12389 6.24779C1.60197 6.23292 0.290435 5.13521 0.0440227 3.63559C0.0365903 3.59213 0.0148648 3.55097 0 3.50866C0 3.25024 0 2.99125 0 2.73284ZM5.44108 3.11703C5.43708 1.82894 4.42113 0.798126 3.15305 0.796982C1.75233 0.795267 0.778686 1.84724 0.787834 3.13418C0.797553 4.54291 1.8621 5.45652 3.24281 5.45767C4.42228 5.45881 5.44452 4.36682 5.44108 3.1176V3.11703Z" fill="#DE5D2E"/>
<path d="M13.2087 8.32473C13.5134 8.02343 13.7781 7.7753 14.0789 7.57063C14.9016 7.01091 15.8066 6.6936 16.8014 6.63986C17.7842 6.58726 18.7647 6.58212 19.7081 6.92001C21.5959 7.59635 22.7525 8.93304 23.2304 10.8689C23.3362 11.2977 23.3745 11.7362 23.3739 12.1793C23.3717 15.4884 23.3728 18.7975 23.3722 22.1067C23.3722 22.6412 23.0252 22.9928 22.4912 22.9934C21.2814 22.9957 20.0722 22.9946 18.8625 22.994C18.2462 22.994 17.9106 22.655 17.9106 22.0306C17.91 19.3607 17.9117 16.6907 17.9083 14.0202C17.9083 13.7555 17.8963 13.4914 17.8631 13.2255C17.7436 12.2708 16.8655 11.7556 16.1588 11.6207C14.8107 11.3629 13.5998 12.3954 13.6009 13.9316C13.6032 16.6319 13.6015 19.3327 13.6015 22.0329C13.6015 22.7247 13.3305 22.9934 12.6341 22.994C11.3032 22.994 9.97162 22.9928 8.64065 22.9951C8.42053 22.9951 8.21814 22.9511 8.04034 22.819C7.86654 22.6898 7.75962 22.5229 7.75734 22.2999C7.75676 22.2393 7.75391 22.1781 7.75391 22.1175C7.75391 17.386 7.75391 12.6544 7.75391 7.92281C7.75391 7.44999 7.92199 7.19272 8.3039 7.05608C8.41539 7.01605 8.52802 7.01834 8.64122 7.01834C9.86585 7.0172 11.0905 7.01605 12.3157 7.01834C12.8754 7.01948 13.2013 7.34823 13.2081 7.91252C13.2099 8.02572 13.2081 8.13835 13.2081 8.3253L13.2087 8.32473ZM12.4649 10.2354C12.4649 9.49219 12.4586 8.75638 12.4695 8.02057C12.4723 7.83419 12.4117 7.79188 12.2356 7.79303C11.0945 7.79989 9.9539 7.80103 8.81274 7.79188C8.62407 7.79017 8.57376 7.83705 8.57433 8.02858C8.58005 12.6761 8.58005 17.3242 8.57433 21.9718C8.57433 22.1696 8.63665 22.2079 8.8196 22.2067C10.0597 22.1993 11.2992 22.2027 12.5392 22.2027C12.745 22.2027 12.848 22.1012 12.848 21.898C12.848 19.2738 12.8451 16.6496 12.8491 14.0248C12.852 12.197 13.9788 10.9261 15.6974 10.7991C16.7517 10.7214 17.9151 11.36 18.3874 12.2822C18.6544 12.8036 18.7058 13.3708 18.7087 13.9436C18.7224 16.6136 18.735 19.2835 18.7401 21.9535C18.7401 22.1553 18.795 22.209 18.9957 22.2073C20.114 22.1976 21.2323 22.1976 22.35 22.2073C22.5547 22.209 22.601 22.1461 22.6004 21.9489C22.5941 18.7238 22.5975 15.4981 22.5941 12.273C22.5941 11.8545 22.5621 11.4366 22.4586 11.0295C22.0361 9.37041 21.0447 8.2081 19.4125 7.64952C18.3971 7.30249 17.3406 7.33736 16.3006 7.50545C15.2189 7.6804 14.3464 8.24183 13.6392 9.08855C13.2956 9.50019 12.8703 9.8438 12.4649 10.2349V10.2354Z" fill="#DE5D2E"/>
<path d="M5.84263 15.0073C5.84263 17.2433 5.82605 19.4799 5.85235 21.7159C5.86035 22.3951 5.32636 23.0097 4.55797 22.9982C3.59976 22.9834 2.64155 22.996 1.68277 22.9942C0.894368 22.9925 0.38725 22.4894 0.381532 21.6964C0.376387 21.0269 0.380389 20.358 0.380389 19.6885C0.380389 15.9237 0.380389 12.1584 0.380389 8.39358C0.380389 8.2032 0.390108 8.01396 0.444994 7.82986C0.589068 7.34905 0.9847 7.02831 1.48439 7.02374C2.5415 7.01459 3.59862 7.0123 4.6563 7.02145C5.3418 7.02717 5.84149 7.544 5.84263 8.23007C5.84491 10.4889 5.84377 12.7484 5.84377 15.0073H5.84263ZM1.17851 14.9787C1.17851 17.2141 1.17851 19.4496 1.17851 21.685C1.17851 22.0503 1.31115 22.1995 1.65876 22.2013C2.63183 22.2058 3.60548 22.2058 4.57855 22.2013C4.93931 22.1995 5.06508 22.0618 5.06508 21.6959C5.06508 17.2479 5.06508 12.7998 5.06508 8.35128C5.06508 7.94935 4.91472 7.79728 4.51795 7.79728C3.59004 7.7967 2.66271 7.79728 1.7348 7.79728C1.28142 7.79728 1.17794 7.9019 1.17794 8.36385C1.17794 10.569 1.17794 12.7741 1.17794 14.9793L1.17851 14.9787Z" fill="#DE5D2E"/>
</svg>
