<svg width="29" height="23" viewBox="0 0 29 23" fill="none" xmlns="http://www.w3.org/2000/svg">
<path d="M0.00139169 20.1043C0.216407 19.6713 0.617908 19.6284 1.03472 19.6209C2.11188 19.6022 3.17095 19.453 4.20985 19.1713C5.06712 18.9386 5.88474 18.6099 6.67243 18.1444C6.48456 18.036 6.29598 18.0422 6.12133 18.0111C3.79652 17.5954 2.27123 16.2633 1.49328 14.0631C1.40491 13.8138 1.4564 13.6053 1.65541 13.4451C1.87947 13.2641 2.14876 13.2503 2.38396 13.3912C2.86965 13.6819 3.39084 13.8442 3.94821 13.905C4.14513 13.9264 4.34484 13.9278 4.62039 13.9416C4.27178 13.6902 3.98579 13.4948 3.71093 13.2848C2.47302 12.3381 1.50232 11.1745 0.848928 9.76086C0.71463 9.47013 0.614429 9.1642 0.501702 8.8638C0.40498 8.60484 0.454385 8.37143 0.663138 8.18912C0.85519 8.02131 1.14188 8.01509 1.38125 8.19464C1.91357 8.59448 2.4932 8.88107 3.15008 9.00813C3.18487 9.01504 3.22175 9.01435 3.32056 9.02264C2.22252 7.85073 1.4564 6.55522 1.23373 4.9966C1.00967 3.42486 1.47797 2.00504 2.25314 0.655663C2.37421 0.692263 2.43893 0.799302 2.52173 0.88148C3.5154 1.87038 4.51532 2.85168 5.67877 3.65206C7.32374 4.7839 9.13572 5.53732 11.0618 6.04696C11.7848 6.23825 12.5168 6.38741 13.2447 6.55591C13.4569 6.60494 13.5091 6.58008 13.5112 6.35634C13.5195 5.38954 13.7213 4.4621 14.1576 3.59405C15.1652 1.58724 16.7788 0.38703 19.0188 0.0458876C20.0709 -0.114325 21.0513 0.177096 22.006 0.577628C22.5251 0.795159 23.0407 1.02167 23.5285 1.30411C23.6767 1.38974 23.8062 1.38767 23.969 1.33588C25.026 0.999568 26.037 0.548624 27.0627 0.134281C27.1399 0.103205 27.2158 0.0700577 27.293 0.0403631C27.5046 -0.0397433 27.6987 -0.000380627 27.8553 0.156379C28.0049 0.306233 28.0299 0.486473 27.9576 0.690192C27.7439 1.29168 27.4475 1.84897 27.0704 2.36414C26.9896 2.47463 26.9034 2.58236 26.7941 2.72462C27.0822 2.69009 27.309 2.57891 27.5407 2.49742C27.8156 2.40074 28.0724 2.38624 28.2867 2.60308C28.5024 2.82199 28.469 3.08164 28.3716 3.3482C27.9583 4.48212 27.2923 5.41371 26.2096 6.00691C26.0496 6.09461 26.0586 6.21684 26.0586 6.35288C26.0586 8.04272 25.8178 9.69871 25.3342 11.3181C24.3559 14.5976 22.5954 17.3827 19.9415 19.5822C17.7934 21.3625 15.3385 22.4798 12.5537 22.8686C11.1411 23.0661 9.72927 23.0012 8.31462 22.9294C6.95495 22.861 5.6064 22.7036 4.27595 22.4184C3.01787 22.149 1.78414 21.8024 0.677055 21.1159C0.409851 20.9502 0.155173 20.7734 0 20.4896V20.1036L0.00139169 20.1043ZM1.78971 20.5276V20.6028C2.01725 20.6961 2.242 20.7962 2.47372 20.8811C3.88698 21.3963 5.35381 21.6712 6.84639 21.83C8.44961 21.9999 10.0542 22.109 11.6665 21.9888C14.0839 21.8086 16.2799 21.002 18.2631 19.636C21.1195 17.6686 23.0386 14.9975 24.175 11.7545C24.8569 9.80851 25.1192 7.79756 25.0921 5.74518C25.0893 5.5166 25.131 5.39644 25.3788 5.31081C26.1846 5.03251 26.7176 4.44414 27.1462 3.66587C27.0119 3.70799 26.9347 3.73078 26.8588 3.75633C26.3509 3.92414 25.845 4.09748 25.3349 4.25907C25.0914 4.33572 24.8548 4.33158 24.6975 4.08435C24.5514 3.85577 24.5959 3.56712 24.8061 3.35649C24.8513 3.31091 24.9007 3.2681 24.9508 3.22735C25.2452 2.98773 25.5172 2.72393 25.7677 2.44079C26.0433 2.12934 26.3188 1.81513 26.5304 1.38905C26.3947 1.43601 26.3091 1.46363 26.2256 1.4954C25.5597 1.74331 24.891 1.98156 24.2306 2.2426C23.8194 2.40557 23.4422 2.36069 23.0595 2.16111C22.6184 1.93115 22.173 1.70602 21.7179 1.50438C21.0151 1.19224 20.2956 0.928439 19.5038 0.974707C17.2165 1.10937 15.2181 2.77986 14.6656 4.98969C14.4596 5.81424 14.4895 6.64776 14.4944 7.48128C14.4958 7.71884 14.438 7.77892 14.1959 7.73196C13.054 7.51028 11.9163 7.27618 10.7904 6.982C8.27983 6.32664 5.98146 5.25764 3.98509 3.59198C3.50565 3.19213 3.04779 2.76605 2.5774 2.34964C2.29628 2.86204 2.12371 3.89168 2.18286 4.58364C2.28515 5.78869 2.78546 6.81971 3.5488 7.74301C4.23211 8.56962 5.08313 9.2008 5.95919 9.80436C6.0594 9.87342 6.15334 9.94938 6.30364 10.0619C4.76374 10.0737 3.29829 10.1538 1.88365 9.57371C1.89687 9.64139 1.89687 9.66073 1.90452 9.67592C1.93653 9.74221 1.96784 9.80851 2.00472 9.87204C2.99143 11.586 4.39772 12.8408 6.209 13.6515C6.43167 13.751 6.77959 13.7379 6.85822 13.945C6.93824 14.1557 6.80464 14.4429 6.78098 14.6978C6.76846 14.8303 6.7121 14.8649 6.58824 14.8663C6.33843 14.869 6.08932 14.887 5.84021 14.8966C5.16524 14.9229 4.49166 14.9484 3.816 14.8815C3.49035 14.849 3.18 14.7433 2.83347 14.7026C2.8627 14.7668 2.87453 14.8013 2.89262 14.8324C2.93367 14.9042 2.97681 14.9754 3.02065 15.0451C3.77077 16.2301 4.90221 16.8185 6.24449 17.0789C7.25137 17.2743 8.27078 17.2425 9.2881 17.246C9.38135 17.246 9.48433 17.2149 9.56157 17.2688C7.32513 19.1892 4.79575 20.4164 1.7904 20.5283L1.78971 20.5276Z" fill="#DE5D2E"/>
</svg>
