<svg width="25" height="25" viewBox="0 0 25 25" fill="none" xmlns="http://www.w3.org/2000/svg">
<path d="M0 0.00124864C1.08381 -0.00072978 2.16763 -7.03065e-05 3.25209 0.00124864C3.24947 5.07656 3.24882 10.1518 3.25209 15.2272C3.20563 17.9805 5.12324 20.5801 7.71824 21.4038C12.1301 22.9134 16.9169 18.9262 16.1276 14.2637C17.216 14.2637 18.3044 14.2624 19.3928 14.2643C19.9792 19.4913 15.8357 24.6095 10.6032 24.9538C7.19727 25.2954 3.79007 23.7199 1.8057 20.9132C0.613244 19.3027 -0.0196343 17.292 0.00130895 15.2859C0 10.1908 0.00327238 5.09635 0 0.00124864ZM7.41849 0.282844C7.72086 1.45012 7.99377 2.6253 8.28829 3.79455C14.9266 2.86733 21.3085 8.33898 20.8941 15.1962C22.1174 15.2411 23.3387 15.3182 24.5625 15.3492C25.0809 6.70348 17.0354 -0.92861 8.50164 0.130506C8.14037 0.17535 7.7706 0.179307 7.41849 0.282844ZM9.42511 8.67004C12.6471 8.4656 15.7533 11.0185 16.1276 14.2637C17.216 14.2637 18.3044 14.2624 19.3928 14.2643C19.0335 9.10859 14.1163 4.94796 9.01803 5.42344C9.14696 6.5063 9.27458 7.58982 9.42511 8.67004ZM9.91731 12.1092C10.9763 12.0815 12.0194 12.7087 12.5012 13.6589C13.2341 13.6121 13.9645 13.5244 14.6976 13.4769C14.1027 11.42 12.0332 9.96067 9.92317 9.985C9.92317 10.6926 9.9199 11.401 9.91731 12.1092Z" fill="blue"/>
</svg>
