<svg width="19" height="9" viewBox="0 0 19 9" fill="none" xmlns="http://www.w3.org/2000/svg">
<path d="M1.08008 9H0.0664062V0.333984H1.08008V9ZM10.0273 9H8.87891L4.37891 2.17969L4.08594 1.77539C4.11719 2.5957 4.13281 3.32812 4.13281 3.97266V9H3.18359V0.333984H4.31445L8.82617 7.1543L9.125 7.55859C9.09766 6.3125 9.08398 5.5918 9.08398 5.39648V0.333984H10.0273V9ZM12.9453 1.14258V4.07227C13.1055 4.07227 13.4355 4.07617 13.9355 4.08398C14.4395 4.0918 14.8281 4.0957 15.1016 4.0957C15.8477 4.0957 16.3672 3.97266 16.6602 3.72656C16.9531 3.47656 17.0996 3.08203 17.0996 2.54297C17.0996 2.07031 16.959 1.71875 16.6777 1.48828C16.3965 1.25781 15.9258 1.14258 15.2656 1.14258H12.9453ZM18.5 9H17.3281L16.1328 6.28125C15.8086 5.55078 15.6016 5.11133 15.5117 4.96289C15.2266 4.98242 14.8887 4.99219 14.498 4.99219L12.9453 4.94531V9H11.9082V0.234375H14.6797C15 0.234375 15.2832 0.242187 15.5293 0.257812C15.7754 0.273438 16.0195 0.302734 16.2617 0.345703C16.5078 0.384766 16.7207 0.441406 16.9004 0.515625C17.0801 0.585938 17.248 0.679688 17.4043 0.796875C17.5605 0.910156 17.6855 1.04688 17.7793 1.20703C17.877 1.36719 17.9531 1.55859 18.0078 1.78125C18.0625 2 18.0898 2.24805 18.0898 2.52539C18.0898 3.07227 17.9453 3.54297 17.6562 3.9375C17.3711 4.33203 16.9648 4.60547 16.4375 4.75781C16.4375 4.76562 16.4766 4.83594 16.5547 4.96875C16.6328 5.10156 16.7246 5.26562 16.8301 5.46094C16.9395 5.65234 17.0234 5.8125 17.082 5.94141L18.5 9Z" fill="#111111"/>
</svg>
