<svg width="20" height="8" viewBox="0 0 20 8" fill="none" xmlns="http://www.w3.org/2000/svg">
    <path
        d="M0.837891 7V0.572266H1.6582L1.78125 1.49219C2.03516 1.17578 2.35156 0.921875 2.73047 0.730469C3.11328 0.535156 3.52539 0.4375 3.9668 0.4375C4.70898 0.4375 5.25781 0.646484 5.61328 1.06445C5.96875 1.47852 6.14648 2.11719 6.14648 2.98047V7H5.16797C5.16797 4.42188 5.16602 3.04102 5.16211 2.85742C5.14648 2.31055 5.03516 1.91016 4.82812 1.65625C4.625 1.40234 4.2832 1.27539 3.80273 1.27539C3.29883 1.27539 2.87891 1.39648 2.54297 1.63867C2.20703 1.88086 1.98828 2.19531 1.88672 2.58203C1.84766 2.84375 1.82812 3.14453 1.82812 3.48438V7H0.837891ZM8.49023 3.80078C8.49023 4.5625 8.6582 5.17383 8.99414 5.63477C9.33398 6.0918 9.82812 6.32031 10.4766 6.32031C11.1172 6.32031 11.5996 6.0918 11.9238 5.63477C12.252 5.17773 12.416 4.5625 12.416 3.78906C12.416 3.00391 12.2539 2.38672 11.9297 1.9375C11.6094 1.48438 11.1191 1.25781 10.459 1.25781C9.81836 1.25781 9.33008 1.48828 8.99414 1.94922C8.6582 2.41016 8.49023 3.02734 8.49023 3.80078ZM13.4297 3.7832C13.4297 4.7793 13.1641 5.58789 12.6328 6.20898C12.1016 6.82617 11.3672 7.13477 10.4297 7.13477C9.52734 7.13477 8.80859 6.82227 8.27344 6.19727C7.74219 5.57227 7.47656 4.76953 7.47656 3.78906C7.47656 2.78906 7.74414 1.98047 8.2793 1.36328C8.81445 0.746094 9.54883 0.4375 10.4824 0.4375C11.4004 0.4375 12.1211 0.748047 12.6445 1.36914C13.168 1.98633 13.4297 2.79102 13.4297 3.7832ZM16.7344 7.13477C16.2969 7.13477 15.8926 7.08789 15.5215 6.99414C15.1543 6.90039 14.8555 6.7793 14.625 6.63086L14.748 5.80469C15.4004 6.15234 16.041 6.32617 16.6699 6.32617C17.623 6.32617 18.1133 5.99023 18.1406 5.31836C18.1406 5.0332 18.0391 4.80859 17.8359 4.64453C17.6328 4.48047 17.2344 4.29688 16.6406 4.09375L16.1543 3.92383C15.5918 3.73633 15.1895 3.50391 14.9473 3.22656C14.709 2.94922 14.5879 2.60352 14.584 2.18945C14.584 1.68555 14.7852 1.26758 15.1875 0.935547C15.5938 0.603516 16.1484 0.4375 16.8516 0.4375C17.5781 0.4375 18.2402 0.578125 18.8379 0.859375L18.5508 1.60938C17.9453 1.35938 17.3789 1.23438 16.8516 1.23438C16.4414 1.23438 16.1191 1.31641 15.8848 1.48047C15.6543 1.64062 15.5391 1.86719 15.5391 2.16016C15.5391 2.41016 15.623 2.60156 15.791 2.73438C15.959 2.86719 16.2949 3.01953 16.7988 3.19141C16.9277 3.23828 17.0898 3.29297 17.2852 3.35547C17.9336 3.56641 18.3926 3.81641 18.6621 4.10547C18.9316 4.39062 19.0664 4.77734 19.0664 5.26562C19.0586 5.85938 18.8457 6.32031 18.4277 6.64844C18.0098 6.97266 17.4453 7.13477 16.7344 7.13477Z"
        fill="#111111" />
</svg>