<svg width="14" height="18" viewBox="0 0 14 18" fill="none" xmlns="http://www.w3.org/2000/svg">
<path d="M6.51258 17.2992C6.18437 17.2098 5.9725 16.9972 5.79002 16.7371C4.32776 14.6559 2.85999 12.5782 1.39405 10.4993C0.761503 9.60196 0.305923 8.63644 0.095279 7.57351C-0.0816868 6.67962 -0.00453217 5.8012 0.263672 4.9371C0.66108 3.65528 1.42895 2.60037 2.54708 1.77123C3.37496 1.15754 4.30694 0.739814 5.34424 0.562755C7.64541 0.169671 9.66061 0.731219 11.339 2.25256C12.3978 3.21234 13.0193 4.40191 13.2373 5.77254C13.4687 7.22569 13.0842 8.56138 12.3439 9.82142C11.7671 10.803 11.0549 11.706 10.4015 12.6429C9.4463 14.0118 8.47635 15.3716 7.51804 16.7388C7.33557 16.9989 7.12309 17.2109 6.79487 17.3003H6.5132L6.51258 17.2992ZM6.67057 1.15868C6.37848 1.19306 6.10844 1.18676 5.84024 1.22286C4.89417 1.35064 4.03016 1.66809 3.25433 2.18838C2.20601 2.89089 1.47243 3.81687 1.07196 4.96346C0.785384 5.78343 0.69782 6.62117 0.871724 7.47896C1.06645 8.43818 1.49141 9.304 2.05966 10.1125C3.52866 12.2023 5.00378 14.2892 6.47646 16.3766C6.50891 16.4225 6.54198 16.4672 6.57565 16.5124C6.62464 16.5778 6.67547 16.5835 6.72751 16.5159C6.76181 16.4712 6.79487 16.4265 6.82733 16.3806C7.65398 15.2083 8.48554 14.0393 9.30546 12.8629C10.0837 11.7467 10.9128 10.6609 11.6305 9.50856C12.102 8.75104 12.4076 7.93393 12.4951 7.06009C12.6133 5.8797 12.3188 4.77723 11.6403 3.78077C10.4799 2.07722 8.79109 1.23489 6.66995 1.15926L6.67057 1.15868Z" fill="#4E2C13"/>
<path d="M6.65046 9.97099C4.70452 9.96927 3.1278 8.48933 3.13086 6.66822C3.13393 4.84998 4.72595 3.36546 6.66332 3.37406C8.60007 3.38266 10.1737 4.86088 10.1743 6.67224C10.1743 8.49392 8.59517 9.97271 6.65046 9.97099ZM6.65168 4.10571C5.146 4.10686 3.90483 5.272 3.91034 6.67912C3.91585 8.08624 5.14355 9.2359 6.64495 9.23991C8.15308 9.24392 9.39118 8.09025 9.39486 6.6774C9.39853 5.26971 8.15553 4.10457 6.65168 4.10571Z" fill="#4E2C13"/>
</svg>
