<svg width="16" height="13" viewBox="0 0 16 13" fill="none" xmlns="http://www.w3.org/2000/svg">
<path d="M0 2.00734V11.022C0.0433583 11.1561 0.0636703 11.2969 0.133981 11.4234C0.400771 11.9028 0.829277 12.1319 1.39918 12.1334C2.41986 12.136 3.44054 12.1341 4.46122 12.1341C7.83067 12.1341 11.1997 12.1341 14.5692 12.1345C14.9356 12.1345 15.2656 12.048 15.5477 11.8167C15.807 11.6037 15.9324 11.328 16 11.0216V2.00697C15.9566 1.87281 15.9363 1.73204 15.866 1.60558C15.5992 1.12611 15.1707 0.897003 14.6008 0.895537C13.5852 0.892971 12.57 0.894804 11.5544 0.894804C8.17988 0.894804 4.80535 0.894804 1.43082 0.894438C1.06443 0.894438 0.734357 0.980947 0.452333 1.21225C0.192964 1.42523 0.0675765 1.70089 0 2.00734ZM14.7746 11.4582C14.7727 11.4703 14.7707 11.482 14.7688 11.4941H1.22145C1.24724 11.4208 1.30036 11.3944 1.34098 11.3599C3.3714 9.62424 5.40299 7.88928 7.4338 6.15395C7.84434 5.80314 8.15527 5.80351 8.56659 6.15468C10.0517 7.42301 11.538 8.69023 13.0231 9.95819C13.6079 10.4575 14.1907 10.9582 14.7746 11.4582ZM1.21208 1.53556H14.8184C14.7621 1.59092 14.7325 1.62317 14.6996 1.65213C13.7419 2.4923 12.7845 3.33248 11.8259 4.17155C11.1029 4.80425 10.3583 5.41422 9.6193 6.03005C9.53414 6.10116 9.48571 6.10226 9.40602 6.02748C9.26657 5.89662 9.11579 5.77565 8.96814 5.65248C8.37089 5.15579 7.7127 5.13782 7.0924 5.60666C6.93069 5.7291 6.77327 5.8585 6.62953 5.99926C6.52289 6.10336 6.45883 6.09457 6.34477 6.00146C4.61903 4.58907 2.95618 3.11327 1.28903 1.6415C1.26013 1.61621 1.21755 1.59825 1.21208 1.53556ZM0.683577 1.97801C0.741388 2.0209 0.762481 2.0341 0.78084 2.05059C2.46517 3.54105 4.14756 5.03299 5.89712 6.4571C5.99673 6.53811 5.9522 6.57294 5.88228 6.63232C4.20068 8.0678 2.52064 9.50511 0.839433 10.941C0.799199 10.9754 0.76795 11.0264 0.683577 11.03V1.97801ZM15.3188 11.0326C15.2367 11.0242 15.2102 10.9838 15.177 10.9556C13.4883 9.51281 11.8009 8.0689 10.1107 6.62719C10.0298 6.55791 10.0228 6.52235 10.1095 6.4516C11.8466 5.03665 13.518 3.55499 15.1918 2.07552C15.2223 2.04876 15.2438 1.99781 15.3188 2.02127V11.0326Z" fill="#4E2C13"/>
</svg>
