<svg width="15" height="15" viewBox="0 0 15 15" fill="none" xmlns="http://www.w3.org/2000/svg">
<path d="M7.8907 0.230469C7.58836 0.230469 7.28642 0.230469 6.98408 0.230469C6.94106 0.258564 6.89054 0.25154 6.84278 0.254867C5.76921 0.329172 4.7584 0.601991 3.81429 1.08848C0.978006 2.5498 -0.522625 5.79591 0.164539 8.60987C0.490952 9.94699 1.0822 11.1595 2.08671 12.1661C3.81863 13.9021 6.00287 14.4478 8.45551 14.1812C9.70354 14.0459 10.8438 13.6012 11.872 12.9229C13.5072 11.8438 14.5082 10.3814 14.8504 8.5315C14.9009 8.25868 14.9285 7.9818 14.9668 7.70676C14.9668 7.39623 14.9668 7.08608 14.9668 6.77555C14.9581 6.72712 14.9447 6.67906 14.9411 6.63064C14.8665 5.67725 14.6199 4.76637 14.1269 3.92721C12.9467 1.91803 11.0873 0.794592 8.72706 0.341741C8.45196 0.288877 8.16975 0.266697 7.8907 0.230469ZM13.0237 7.46536C13.4622 7.46536 13.9007 7.46906 14.3388 7.46277C14.4517 7.4613 14.4865 7.49272 14.4715 7.59475C14.4565 7.69382 14.4545 7.79474 14.4438 7.89455C14.3077 9.17621 13.8052 10.3185 12.9546 11.3292C12.8824 11.415 12.8453 11.4083 12.7687 11.3355C12.3326 10.9207 11.8455 10.5651 11.3088 10.2712C11.2223 10.2239 11.1998 10.1795 11.2243 10.0882C11.4445 9.26678 11.5551 8.43095 11.5736 7.58477C11.5756 7.48828 11.6075 7.46204 11.7082 7.46314C12.1467 7.46795 12.5852 7.46499 13.0237 7.46499V7.46536ZM13.03 7.01732C12.5868 7.01732 12.1435 7.0151 11.6999 7.01917C11.6048 7.01991 11.572 6.99366 11.574 6.90346C11.5768 6.77148 11.5665 6.63914 11.5586 6.50717C11.5168 5.78593 11.407 5.07431 11.2215 4.37304C11.2042 4.30761 11.2089 4.26694 11.2792 4.22923C11.8396 3.92721 12.3437 3.55606 12.796 3.12354C12.8497 3.07215 12.8836 3.06661 12.9306 3.12871C13.0123 3.23629 13.1038 3.33758 13.1855 3.44553C13.9639 4.47618 14.3909 5.62217 14.4718 6.88239C14.479 6.9907 14.447 7.02175 14.3305 7.02027C13.8972 7.01399 13.4634 7.01769 13.03 7.01769V7.01732ZM1.94659 7.01732C1.50335 7.01732 1.0605 7.01436 0.617255 7.01954C0.513451 7.02064 0.477927 6.99144 0.491347 6.89569C0.505556 6.79662 0.507924 6.69607 0.518581 6.59626C0.653962 5.31016 1.15838 4.16454 2.01132 3.15089C2.07526 3.07474 2.11157 3.0692 2.18617 3.14091C2.62349 3.56086 3.11528 3.91797 3.65483 4.21482C3.7464 4.26509 3.75587 4.315 3.73298 4.40076C3.51511 5.21774 3.4042 6.04803 3.38683 6.88904C3.38486 6.98959 3.35604 7.02138 3.24592 7.0199C2.81255 7.01399 2.37917 7.01769 1.94619 7.01769L1.94659 7.01732ZM0.492925 7.64613C0.51266 7.57663 0.425828 7.46204 0.609756 7.46314C1.49585 7.46869 2.38194 7.46684 3.26803 7.46425C3.35723 7.46425 3.38486 7.49087 3.38644 7.57331C3.4038 8.42836 3.51748 9.27196 3.73772 10.1026C3.75627 10.1721 3.75074 10.215 3.67417 10.2571C3.1216 10.5614 2.61875 10.9263 2.17078 11.3562C2.11078 11.4135 2.07921 11.4113 2.02632 11.3488C1.10391 10.2649 0.599098 9.03019 0.492925 7.6465V7.64613ZM7.24222 11.7606C7.24222 12.3717 7.24222 12.9831 7.24222 13.5942C7.24222 13.7285 7.17038 13.7789 7.02671 13.7454C7.02198 13.7443 7.01763 13.7424 7.0129 13.7413C6.4473 13.606 6.01037 13.2866 5.63857 12.8826C5.0035 12.1924 4.62815 11.3761 4.34397 10.5159C4.31515 10.4279 4.36686 10.4154 4.42409 10.3891C5.26597 10.0058 6.15601 9.79542 7.08907 9.73627C7.20906 9.72851 7.24656 9.75365 7.24537 9.87231C7.23906 10.5019 7.24222 11.1311 7.24222 11.7606ZM7.72059 2.72244C7.72059 2.11137 7.72059 1.49993 7.72059 0.888858C7.72059 0.754297 7.79242 0.703775 7.93609 0.737292C7.94083 0.738401 7.94517 0.740249 7.9499 0.741359C8.5309 0.881465 8.97532 1.21269 9.35305 1.63116C9.97074 2.3158 10.3402 3.11984 10.6188 3.96677C10.648 4.05549 10.5948 4.06732 10.5383 4.09319C9.69169 4.47913 8.79731 4.68911 7.85912 4.74789C7.73322 4.75565 7.71743 4.71129 7.71822 4.61111C7.72217 3.98155 7.72019 3.35237 7.72019 2.72281L7.72059 2.72244ZM7.24222 2.72133C7.24222 3.35532 7.23945 3.98932 7.24498 4.62331C7.24577 4.72829 7.21459 4.7538 7.10486 4.74678C6.16193 4.68763 5.26282 4.47507 4.41107 4.08987C4.34199 4.05881 4.32305 4.02887 4.34791 3.95494C4.44422 3.66807 4.54842 3.38416 4.67433 3.10727C4.97232 2.45221 5.34255 1.8404 5.90065 1.3443C6.24166 1.04116 6.63004 0.816402 7.09657 0.720657C7.21261 0.696998 7.24616 0.71696 7.24498 0.832668C7.23945 1.46185 7.24222 2.09141 7.24222 2.72096V2.72133ZM7.72059 11.7455C7.72059 11.1207 7.72414 10.4956 7.71743 9.87083C7.71624 9.74995 7.75769 9.72222 7.87531 9.73701C8.04897 9.75919 8.22422 9.76732 8.39788 9.78876C9.15136 9.88118 9.86931 10.0852 10.5537 10.3947C10.6251 10.4268 10.6413 10.4594 10.6137 10.53C10.547 10.7011 10.4961 10.8771 10.4274 11.0475C10.1499 11.7384 9.80024 12.3924 9.26463 12.9443C8.88099 13.3399 8.43459 13.6437 7.86347 13.762C7.74111 13.7872 7.71703 13.7565 7.71782 13.6467C7.72256 13.0127 7.72019 12.3787 7.72019 11.7447L7.72059 11.7455ZM9.41659 7.01732C8.90033 7.01732 8.38446 7.01473 7.8682 7.01917C7.75966 7.02027 7.71585 7.00068 7.71743 6.88571C7.72453 6.36595 7.72335 5.84582 7.71822 5.32606C7.71743 5.22698 7.74466 5.19298 7.85478 5.18854C8.83402 5.14861 9.76629 4.92644 10.6532 4.53754C10.7408 4.4991 10.7708 4.49947 10.7957 4.60002C10.9804 5.35822 11.0688 6.12677 11.1012 6.90272C11.1051 6.99514 11.0751 7.01917 10.98 7.0188C10.459 7.0151 9.93798 7.01695 9.41699 7.01732H9.41659ZM9.40672 7.46536C9.92772 7.46536 10.4487 7.46721 10.9697 7.46351C11.068 7.46277 11.1055 7.48237 11.1012 7.58403C11.068 8.35517 10.9804 9.11928 10.7976 9.87305C10.7736 9.97249 10.7467 9.9858 10.6488 9.94255C9.76195 9.55365 8.82968 9.33222 7.85044 9.29303C7.75058 9.28897 7.71782 9.26087 7.71901 9.16549C7.72335 8.6413 7.72414 8.11673 7.71861 7.59216C7.71743 7.48791 7.75137 7.46204 7.85912 7.46277C8.37499 7.46758 8.89125 7.46499 9.40751 7.46499L9.40672 7.46536ZM5.56713 7.01732C5.04139 7.01732 4.51566 7.01621 3.98953 7.01843C3.90349 7.0188 3.85731 7.00992 3.86165 6.909C3.89401 6.13786 3.98322 5.37412 4.16162 4.61924C4.19043 4.49688 4.2299 4.50353 4.33055 4.54752C5.20953 4.92903 6.13273 5.14972 7.1021 5.18817C7.22051 5.19298 7.24577 5.23179 7.24458 5.33419C7.23985 5.84952 7.23827 6.36484 7.24537 6.8798C7.24695 7.00031 7.20117 7.02064 7.08631 7.01954C6.57992 7.01436 6.07352 7.01732 5.56713 7.01732ZM5.5545 7.46536C6.07076 7.46536 6.58663 7.46795 7.10289 7.46314C7.20867 7.46204 7.24616 7.48496 7.24498 7.59105C7.23906 8.11525 7.24024 8.63982 7.24458 9.16438C7.24537 9.25828 7.21617 9.28933 7.11433 9.29303C6.13431 9.32963 5.20203 9.55069 4.31594 9.94181C4.22161 9.98358 4.19083 9.97841 4.16596 9.8749C3.98282 9.11633 3.8948 8.34777 3.86204 7.57183C3.8577 7.46832 3.90901 7.46425 3.9919 7.46462C4.5129 7.46647 5.0339 7.46573 5.55489 7.46573L5.5545 7.46536ZM5.70882 13.5639C5.66186 13.5639 5.64646 13.5668 5.63304 13.5635C4.42054 13.2467 3.37302 12.6674 2.48416 11.8323C2.41036 11.7628 2.44469 11.7318 2.49758 11.6819C2.88359 11.3177 3.30908 11.0009 3.77126 10.7252C3.86836 10.6675 3.90625 10.6671 3.94375 10.781C4.12254 11.3222 4.35936 11.8408 4.66249 12.3318C4.94154 12.7839 5.27505 13.1964 5.70843 13.5639H5.70882ZM5.70054 0.907342C5.54266 1.06519 5.39386 1.2016 5.26006 1.35021C4.64157 2.03633 4.24135 2.83261 3.95006 3.6799C3.90428 3.81335 3.86402 3.81039 3.75232 3.74311C3.30395 3.47362 2.89267 3.16272 2.51258 2.81338C2.43404 2.7413 2.42575 2.701 2.50942 2.623C3.26724 1.91803 4.14702 1.39568 5.15152 1.0578C5.324 0.999761 5.49687 0.939874 5.70054 0.906973V0.907342ZM9.26621 0.929153C9.30726 0.907712 9.3345 0.919541 9.36212 0.926565C10.5577 1.24559 11.5925 1.81859 12.4703 2.64333C12.5461 2.71431 12.5205 2.74795 12.4609 2.80377C12.0733 3.16605 11.6482 3.48323 11.1864 3.75938C11.0779 3.82444 11.0518 3.79709 11.0175 3.69653C10.7668 2.95866 10.427 2.26072 9.93877 1.63116C9.74143 1.37646 9.51724 1.14393 9.26621 0.929523V0.929153ZM9.28358 13.5613C9.42646 13.4134 9.57605 13.277 9.70946 13.1269C10.3264 12.4334 10.7278 11.6342 11.0191 10.7817C11.0526 10.6841 11.0771 10.6605 11.1797 10.7218C11.6415 10.9969 12.0658 11.3144 12.455 11.6748C12.5323 11.7466 12.5331 11.7828 12.455 11.8549C11.8128 12.453 11.079 12.924 10.2486 13.2615C9.93719 13.3879 9.61868 13.4962 9.28279 13.5617L9.28358 13.5613Z" fill="#4E2C13"/>
</svg>
