<svg width="40" height="40" viewBox="0 0 40 40" fill="none" xmlns="http://www.w3.org/2000/svg">
    <rect x="0.5" y="0.5" width="39" height="39" rx="19.5" stroke="#f9f9f9" />
    <path
        d="M18.7619 16.2857H24.9524M15.0476 16.2857H16.2857M18.7619 20H24.9524M15.0476 20H16.2857M18.7619 23.7143H24.9524M15.0476 23.7143H16.2857M27.4286 26.1905V13.8095C27.4286 13.1528 27.1677 12.523 26.7033 12.0586C26.2389 11.5942 25.6091 11.3333 24.9524 11.3333H15.0476C14.3909 11.3333 13.7611 11.5942 13.2967 12.0586C12.8323 12.523 12.5714 13.1528 12.5714 13.8095V26.1905C12.5714 26.8472 12.8323 27.477 13.2967 27.9414C13.7611 28.4058 14.3909 28.6667 15.0476 28.6667H24.9524C25.6091 28.6667 26.2389 28.4058 26.7033 27.9414C27.1677 27.477 27.4286 26.8472 27.4286 26.1905V26.1905Z"
        stroke="#f8f8f8" stroke-linecap="round" stroke-linejoin="round" />
</svg>