<svg width="344" height="980" viewBox="0 0 344 980" fill="none" xmlns="http://www.w3.org/2000/svg">
<rect width="344" height="980" rx="18" fill="url(#paint0_linear_4872_15161)" fill-opacity="0.34"/>
<g opacity="0.75" filter="url(#filter0_b_4872_15161)">
<path d="M0 20C0 8.9543 8.95431 0 20 0H324C335.046 0 344 8.9543 344 20V960C344 971.046 335.046 980 324 980H20C8.95432 980 0 971.046 0 960V20Z" fill="url(#paint1_linear_4872_15161)"/>
<path d="M20 0.5H324C334.77 0.5 343.5 9.23045 343.5 20V960C343.5 970.77 334.77 979.5 324 979.5H20C9.23046 979.5 0.5 970.77 0.5 960V20C0.5 9.23044 9.23045 0.5 20 0.5Z" stroke="url(#paint2_linear_4872_15161)"/>
</g>
<g opacity="0.34" filter="url(#filter1_b_4872_15161)">
<path d="M0 20C0 8.95431 8.95431 0 20 0H324C335.046 0 344 8.95431 344 20V63C344 74.0457 335.046 83 324 83H20C8.95432 83 0 74.0457 0 63V20Z" fill="url(#paint3_linear_4872_15161)"/>
<path d="M20 0.5H324C334.77 0.5 343.5 9.23045 343.5 20V63C343.5 73.7696 334.77 82.5 324 82.5H20C9.23046 82.5 0.5 73.7696 0.5 63V20C0.5 9.23045 9.23045 0.5 20 0.5Z" stroke="url(#paint4_linear_4872_15161)"/>
</g>
<defs>
<filter id="filter0_b_4872_15161" x="-10" y="-10" width="364" height="1000" filterUnits="userSpaceOnUse" color-interpolation-filters="sRGB">
<feFlood flood-opacity="0" result="BackgroundImageFix"/>
<feGaussianBlur in="BackgroundImageFix" stdDeviation="5"/>
<feComposite in2="SourceAlpha" operator="in" result="effect1_backgroundBlur_4872_15161"/>
<feBlend mode="normal" in="SourceGraphic" in2="effect1_backgroundBlur_4872_15161" result="shape"/>
</filter>
<filter id="filter1_b_4872_15161" x="-10" y="-10" width="364" height="103" filterUnits="userSpaceOnUse" color-interpolation-filters="sRGB">
<feFlood flood-opacity="0" result="BackgroundImageFix"/>
<feGaussianBlur in="BackgroundImageFix" stdDeviation="5"/>
<feComposite in2="SourceAlpha" operator="in" result="effect1_backgroundBlur_4872_15161"/>
<feBlend mode="normal" in="SourceGraphic" in2="effect1_backgroundBlur_4872_15161" result="shape"/>
</filter>
<linearGradient id="paint0_linear_4872_15161" x1="-8.49635" y1="30.9473" x2="618.807" y2="294.536" gradientUnits="userSpaceOnUse">
<stop stop-color="#812DE2"/>
<stop offset="0.4" stop-color="#812DE2"/>
<stop offset="1" stop-color="#3A49F9"/>
</linearGradient>
<linearGradient id="paint1_linear_4872_15161" x1="-141.803" y1="-7.5039e-05" x2="323.098" y2="56.7646" gradientUnits="userSpaceOnUse">
<stop stop-color="#CBBAE9" stop-opacity="0.05"/>
<stop offset="1" stop-color="#C1B3E7" stop-opacity="0.25"/>
</linearGradient>
<linearGradient id="paint2_linear_4872_15161" x1="-132.601" y1="-0.000174509" x2="323.784" y2="55.4782" gradientUnits="userSpaceOnUse">
<stop offset="0.008842" stop-color="white" stop-opacity="0.6"/>
<stop offset="0.392253" stop-color="#A756BF" stop-opacity="0.05"/>
<stop offset="0.907987" stop-color="white" stop-opacity="0.5"/>
</linearGradient>
<linearGradient id="paint3_linear_4872_15161" x1="-141.803" y1="-6.35534e-06" x2="11.4684" y2="220.966" gradientUnits="userSpaceOnUse">
<stop stop-color="#CBBAE9" stop-opacity="0.05"/>
<stop offset="1" stop-color="#C1B3E7" stop-opacity="0.25"/>
</linearGradient>
<linearGradient id="paint4_linear_4872_15161" x1="-132.601" y1="-1.47798e-05" x2="18.7455" y2="217.226" gradientUnits="userSpaceOnUse">
<stop offset="0.008842" stop-color="white" stop-opacity="0.6"/>
<stop offset="0.392253" stop-color="#A756BF" stop-opacity="0.05"/>
<stop offset="0.907987" stop-color="white" stop-opacity="0.5"/>
</linearGradient>
</defs>
</svg>
