<svg width="40" height="40" viewBox="0 0 40 40" fill="none" xmlns="http://www.w3.org/2000/svg">
<rect x="0.5" y="0.5" width="39" height="39" rx="19.5" stroke="white"/>
<path d="M18.7608 16.2883H24.9513M15.0465 16.2883H16.2846M18.7608 20.0026H24.9513M15.0465 20.0026H16.2846M18.7608 23.7169H24.9513M15.0465 23.7169H16.2846M27.4275 26.1931V13.8121C27.4275 13.1554 27.1666 12.5256 26.7022 12.0612C26.2378 11.5968 25.608 11.3359 24.9513 11.3359H15.0465C14.3898 11.3359 13.7599 11.5968 13.2956 12.0612C12.8312 12.5256 12.5703 13.1554 12.5703 13.8121V26.1931C12.5703 26.8498 12.8312 27.4796 13.2956 27.944C13.7599 28.4084 14.3898 28.6693 15.0465 28.6693H24.9513C25.608 28.6693 26.2378 28.4084 26.7022 27.944C27.1666 27.4796 27.4275 26.8498 27.4275 26.1931V26.1931Z" stroke="white" stroke-linecap="round" stroke-linejoin="round"/>
</svg>
