<svg width="790" height="1050" viewBox="0 0 790 1050" fill="none" xmlns="http://www.w3.org/2000/svg">
<rect width="790" height="1050" rx="18" fill="url(#paint0_linear_5407_2322)" fill-opacity="0.34"/>
<rect opacity="0.21" width="446" height="99.4863" rx="18" fill="url(#paint1_linear_5407_2322)" fill-opacity="0.34"/>
<g opacity="0.75" filter="url(#filter0_b_5407_2322)">
<path d="M446 20C446 8.9543 454.954 0 466 0H770C781.046 0 790 8.95431 790 20V1030C790 1041.05 781.046 1050 770 1050H466C454.954 1050 446 1041.05 446 1030V20Z" fill="url(#paint2_linear_5407_2322)"/>
<path d="M466 0.5H770C780.77 0.5 789.5 9.23045 789.5 20V1030C789.5 1040.77 780.77 1049.5 770 1049.5H466C455.23 1049.5 446.5 1040.77 446.5 1030V20C446.5 9.23045 455.23 0.5 466 0.5Z" stroke="url(#paint3_linear_5407_2322)"/>
</g>
<g opacity="0.34" filter="url(#filter1_b_5407_2322)">
<path d="M446 20C446 8.95431 454.954 0 466 0H770C781.046 0 790 8.95431 790 20V63C790 74.0457 781.046 83 770 83H466C454.954 83 446 74.0457 446 63V20Z" fill="url(#paint4_linear_5407_2322)"/>
<path d="M466 0.5H770C780.77 0.5 789.5 9.23045 789.5 20V63C789.5 73.7696 780.77 82.5 770 82.5H466C455.23 82.5 446.5 73.7696 446.5 63V20C446.5 9.23045 455.23 0.5 466 0.5Z" stroke="url(#paint5_linear_5407_2322)"/>
</g>
<defs>
<filter id="filter0_b_5407_2322" x="436" y="-10" width="364" height="1070" filterUnits="userSpaceOnUse" color-interpolation-filters="sRGB">
<feFlood flood-opacity="0" result="BackgroundImageFix"/>
<feGaussianBlur in="BackgroundImageFix" stdDeviation="5"/>
<feComposite in2="SourceAlpha" operator="in" result="effect1_backgroundBlur_5407_2322"/>
<feBlend mode="normal" in="SourceGraphic" in2="effect1_backgroundBlur_5407_2322" result="shape"/>
</filter>
<filter id="filter1_b_5407_2322" x="436" y="-10" width="364" height="103" filterUnits="userSpaceOnUse" color-interpolation-filters="sRGB">
<feFlood flood-opacity="0" result="BackgroundImageFix"/>
<feGaussianBlur in="BackgroundImageFix" stdDeviation="5"/>
<feComposite in2="SourceAlpha" operator="in" result="effect1_backgroundBlur_5407_2322"/>
<feBlend mode="normal" in="SourceGraphic" in2="effect1_backgroundBlur_5407_2322" result="shape"/>
</filter>
<linearGradient id="paint0_linear_5407_2322" x1="-19.512" y1="33.1578" x2="916.331" y2="876.022" gradientUnits="userSpaceOnUse">
<stop stop-color="#812DE2"/>
<stop offset="0.4" stop-color="#812DE2"/>
<stop offset="1" stop-color="#3A49F9"/>
</linearGradient>
<linearGradient id="paint1_linear_5407_2322" x1="-0.000155902" y1="49.1439" x2="44.2825" y2="159.641" gradientUnits="userSpaceOnUse">
<stop stop-color="#812DE2"/>
<stop offset="0.253735" stop-color="#812DE2"/>
<stop offset="0.482019" stop-color="#3A49F9" stop-opacity="0.67"/>
<stop offset="1" stop-color="#3A49F9" stop-opacity="0.1"/>
</linearGradient>
<linearGradient id="paint2_linear_5407_2322" x1="304.197" y1="-8.03989e-05" x2="769.98" y2="53.0808" gradientUnits="userSpaceOnUse">
<stop stop-color="#CBBAE9" stop-opacity="0.05"/>
<stop offset="1" stop-color="#C1B3E7" stop-opacity="0.25"/>
</linearGradient>
<linearGradient id="paint3_linear_5407_2322" x1="313.399" y1="-0.000186974" x2="770.642" y2="51.877" gradientUnits="userSpaceOnUse">
<stop offset="0.008842" stop-color="white" stop-opacity="0.6"/>
<stop offset="0.392253" stop-color="#A756BF" stop-opacity="0.05"/>
<stop offset="0.907987" stop-color="white" stop-opacity="0.5"/>
</linearGradient>
<linearGradient id="paint4_linear_5407_2322" x1="304.197" y1="-6.35534e-06" x2="457.468" y2="220.966" gradientUnits="userSpaceOnUse">
<stop stop-color="#CBBAE9" stop-opacity="0.05"/>
<stop offset="1" stop-color="#C1B3E7" stop-opacity="0.25"/>
</linearGradient>
<linearGradient id="paint5_linear_5407_2322" x1="313.399" y1="-1.47798e-05" x2="464.745" y2="217.226" gradientUnits="userSpaceOnUse">
<stop offset="0.008842" stop-color="white" stop-opacity="0.6"/>
<stop offset="0.392253" stop-color="#A756BF" stop-opacity="0.05"/>
<stop offset="0.907987" stop-color="white" stop-opacity="0.5"/>
</linearGradient>
</defs>
</svg>
