<svg width="500" height="643" viewBox="0 0 500 643" fill="none" xmlns="http://www.w3.org/2000/svg">
<rect width="500" height="643" rx="7" fill="url(#paint0_linear_5335_1297)" fill-opacity="0.34"/>
<g opacity="0.75" filter="url(#filter0_b_5335_1297)">
<path d="M122 9C122 4.58173 125.582 1 130 1H200C204.418 1 208 4.58172 208 9V635C208 639.418 204.418 643 200 643H130C125.582 643 122 639.418 122 635V9Z" fill="url(#paint1_linear_5335_1297)"/>
<path d="M130 1.5H200C204.142 1.5 207.5 4.85786 207.5 9V635C207.5 639.142 204.142 642.5 200 642.5H130C125.858 642.5 122.5 639.142 122.5 635V9C122.5 4.85787 125.858 1.5 130 1.5Z" stroke="url(#paint2_linear_5335_1297)"/>
</g>
<g opacity="0.75" filter="url(#filter1_b_5335_1297)">
<path d="M217 9C217 4.58173 220.582 1 225 1H295C299.418 1 303 4.58172 303 9V635C303 639.418 299.418 643 295 643H225C220.582 643 217 639.418 217 635V9Z" fill="url(#paint3_linear_5335_1297)" fill-opacity="0.48"/>
<path d="M225 1.5H295C299.142 1.5 302.5 4.85786 302.5 9V635C302.5 639.142 299.142 642.5 295 642.5H225C220.858 642.5 217.5 639.142 217.5 635V9C217.5 4.85787 220.858 1.5 225 1.5Z" stroke="url(#paint4_linear_5335_1297)"/>
</g>
<defs>
<filter id="filter0_b_5335_1297" x="112" y="-9" width="106" height="662" filterUnits="userSpaceOnUse" color-interpolation-filters="sRGB">
<feFlood flood-opacity="0" result="BackgroundImageFix"/>
<feGaussianBlur in="BackgroundImageFix" stdDeviation="5"/>
<feComposite in2="SourceAlpha" operator="in" result="effect1_backgroundBlur_5335_1297"/>
<feBlend mode="normal" in="SourceGraphic" in2="effect1_backgroundBlur_5335_1297" result="shape"/>
</filter>
<filter id="filter1_b_5335_1297" x="207" y="-9" width="106" height="662" filterUnits="userSpaceOnUse" color-interpolation-filters="sRGB">
<feFlood flood-opacity="0" result="BackgroundImageFix"/>
<feGaussianBlur in="BackgroundImageFix" stdDeviation="5"/>
<feComposite in2="SourceAlpha" operator="in" result="effect1_backgroundBlur_5335_1297"/>
<feBlend mode="normal" in="SourceGraphic" in2="effect1_backgroundBlur_5335_1297" result="shape"/>
</filter>
<linearGradient id="paint0_linear_5335_1297" x1="-7.82949" y1="20.3052" x2="496.614" y2="318.005" gradientUnits="userSpaceOnUse">
<stop stop-color="#812DE2"/>
<stop offset="0.4" stop-color="#812DE2"/>
<stop offset="1" stop-color="#3A49F9"/>
</linearGradient>
<linearGradient id="paint1_linear_5335_1297" x1="86.5493" y1="0.999951" x2="204.252" y2="6.48441" gradientUnits="userSpaceOnUse">
<stop stop-color="#CBBAE9" stop-opacity="0.05"/>
<stop offset="1" stop-color="#C1B3E7" stop-opacity="0.25"/>
</linearGradient>
<linearGradient id="paint2_linear_5335_1297" x1="88.8498" y1="0.999886" x2="204.383" y2="6.35948" gradientUnits="userSpaceOnUse">
<stop offset="0.008842" stop-color="white" stop-opacity="0.6"/>
<stop offset="0.392253" stop-color="#A756BF" stop-opacity="0.05"/>
<stop offset="0.907987" stop-color="white" stop-opacity="0.5"/>
</linearGradient>
<linearGradient id="paint3_linear_5335_1297" x1="181.549" y1="0.999951" x2="299.252" y2="6.48441" gradientUnits="userSpaceOnUse">
<stop stop-color="#812DE2"/>
<stop offset="1" stop-color="#3A49F9"/>
</linearGradient>
<linearGradient id="paint4_linear_5335_1297" x1="183.85" y1="0.999886" x2="299.383" y2="6.35948" gradientUnits="userSpaceOnUse">
<stop offset="0.008842" stop-color="white" stop-opacity="0.6"/>
<stop offset="0.392253" stop-color="#A756BF" stop-opacity="0.05"/>
<stop offset="0.907987" stop-color="white" stop-opacity="0.5"/>
</linearGradient>
</defs>
</svg>
