<svg width="40" height="40" viewBox="0 0 40 40" fill="none" xmlns="http://www.w3.org/2000/svg">
<path d="M21.67 18.537C21.5908 18.5365 21.5146 18.5673 21.458 18.6227C21.4014 18.6782 21.3691 18.7538 21.368 18.833V21.045C21.3691 21.1244 21.4015 21.2001 21.4583 21.2556C21.5151 21.3111 21.5916 21.3418 21.671 21.341H28.334C28.4134 21.3418 28.4899 21.3111 28.5467 21.2556C28.6035 21.2001 28.6359 21.1244 28.637 21.045V18.833C28.6359 18.7536 28.6035 18.6779 28.5467 18.6224C28.4899 18.5669 28.4134 18.5362 28.334 18.537H21.671H21.67ZM25.756 11.501C26.678 11.545 27.341 11.727 27.761 12.113C28.176 12.495 28.389 13.048 28.431 13.78V15.877C28.4289 16.0556 28.356 16.226 28.2283 16.3509C28.1006 16.4758 27.9286 16.5449 27.75 16.543C27.6615 16.5441 27.5736 16.5277 27.4915 16.4948C27.4093 16.4619 27.3344 16.4131 27.2711 16.3513C27.2077 16.2894 27.1572 16.2157 27.1224 16.1343C27.0875 16.053 27.069 15.9655 27.068 15.877L27.069 13.818C27.047 13.438 26.956 13.202 26.826 13.082C26.7 12.966 26.316 12.862 25.723 12.832H12.647C12.11 12.852 11.761 12.954 11.592 13.099C11.462 13.21 11.364 13.516 11.363 14.045L11.36 25.815C11.41 26.329 11.523 26.672 11.668 26.843C11.778 26.973 12.119 27.103 12.621 27.167H25.737C26.351 27.179 26.713 27.087 26.835 26.964C26.97 26.827 27.068 26.467 27.068 25.878V23.833C27.068 23.466 27.373 23.167 27.75 23.167C28.126 23.167 28.431 23.466 28.431 23.833V25.878C28.431 26.778 28.247 27.451 27.816 27.888C27.372 28.338 26.666 28.518 25.723 28.498L12.54 28.495C11.643 28.391 11 28.145 10.617 27.692C10.27 27.282 10.077 26.697 10 25.879V14.044C10.002 13.168 10.212 12.509 10.694 12.097C11.136 11.717 11.774 11.532 12.621 11.5H25.756V11.501ZM28.334 17.205C29.254 17.205 30 17.934 30 18.833V21.045C30 21.944 29.254 22.673 28.334 22.673H21.671C20.751 22.673 20.005 21.943 20.005 21.045V18.833C20.005 17.934 20.751 17.205 21.671 17.205H28.334ZM23.337 19.145C22.877 19.145 22.504 19.505 22.504 19.948C22.504 20.392 22.877 20.751 23.337 20.751C23.797 20.751 24.17 20.391 24.17 19.948C24.17 19.504 23.797 19.144 23.337 19.144V19.145Z" fill="black"/>
<rect x="0.5" y="0.5" width="39" height="39" rx="19.5" stroke="black"/>
</svg>
