<svg width="41" height="41" viewBox="0 0 41 41" fill="none" xmlns="http://www.w3.org/2000/svg">
<path d="M32.4164 35.962C32.4164 38.3747 30.542 40.3496 28.17 40.51L27.8579 40.5205H12.6627C10.2499 40.5205 8.27502 38.6461 8.11463 36.2741L8.10411 35.962V4.55856C8.10411 2.14584 9.97851 0.170906 12.3506 0.0105168L12.6627 0H27.8579C30.2706 0 32.2455 1.8744 32.4059 4.24645L32.4164 4.55856V35.962ZM34.4425 6.07808H35.962C38.3747 6.07808 40.3496 7.95249 40.51 10.3245L40.5205 10.6366V29.8839C40.5205 32.2966 38.6461 34.2716 36.2741 34.432L35.962 34.4425H34.4425V6.07808ZM6.07808 34.4425H4.55856C2.14584 34.4425 0.170906 32.5681 0.0105168 30.196L0 29.8839V10.6366C0 8.22392 1.8744 6.24899 4.24645 6.0886L4.55856 6.07808H6.07808V34.4425Z" fill="#CCA716"/>
</svg>
