<svg width="612" height="617" viewBox="0 0 612 617" fill="none" xmlns="http://www.w3.org/2000/svg">
<path opacity="0.01" d="M0 0.0308166C26.9782 -0.018011 53.9564 -0.00173516 80.951 0.0308166C80.8858 125.29 80.8695 250.549 80.951 375.808C79.7943 443.76 127.527 507.919 192.122 528.248C301.941 565.503 421.095 467.099 401.448 352.029C428.54 352.029 455.632 351.997 482.724 352.045C497.321 481.048 394.182 607.365 263.934 615.861C179.154 624.292 94.3423 585.409 44.9474 516.139C15.2649 476.393 -0.488736 426.768 0.0325824 377.257C0 251.509 0.081456 125.778 0 0.0308166ZM184.661 6.98061C192.187 35.7889 198.981 64.7925 206.312 93.6496C371.553 70.7658 530.409 205.807 520.096 375.043C550.545 376.15 580.944 378.054 611.409 378.819C624.311 165.442 424.044 -22.9182 211.623 3.22089C202.63 4.32765 193.425 4.4253 184.661 6.98061ZM234.61 213.977C314.811 208.932 392.129 271.935 401.448 352.029C428.54 352.029 455.632 351.997 482.724 352.045C473.781 224.801 351.385 122.116 224.476 133.851C227.686 160.576 230.863 187.317 234.61 213.977ZM246.861 298.856C273.22 298.172 299.188 313.651 311.178 337.104C329.424 335.949 347.605 333.784 365.851 332.612C351.043 281.848 299.53 245.829 247.007 246.431C247.007 263.895 246.926 281.376 246.861 298.856Z" fill="white"/>
</svg>
