<svg width="344" height="1200" viewBox="0 0 344 1200" fill="none" xmlns="http://www.w3.org/2000/svg">
<rect width="344" height="1200" rx="18" fill="url(#paint0_linear_5282_766)" fill-opacity="0.34"/>
<g opacity="0.75" filter="url(#filter0_b_5282_766)">
<path d="M0 20C0 8.95429 8.95431 0 20 0H324C335.046 0 344 8.95431 344 20V1180C344 1191.05 335.046 1200 324 1200H20C8.95432 1200 0 1191.05 0 1180V20Z" fill="url(#paint1_linear_5282_766)"/>
<path d="M20 0.5H324C334.77 0.5 343.5 9.23045 343.5 20V1180C343.5 1190.77 334.77 1199.5 324 1199.5H20C9.23046 1199.5 0.5 1190.77 0.5 1180V20C0.5 9.23043 9.23045 0.5 20 0.5Z" stroke="url(#paint2_linear_5282_766)"/>
</g>
<g opacity="0.34" filter="url(#filter1_b_5282_766)">
<path d="M0 20C0 8.95431 8.95431 0 20 0H324C335.046 0 344 8.95431 344 20V63C344 74.0457 335.046 83 324 83H20C8.95432 83 0 74.0457 0 63V20Z" fill="url(#paint3_linear_5282_766)"/>
<path d="M20 0.5H324C334.77 0.5 343.5 9.23045 343.5 20V63C343.5 73.7696 334.77 82.5 324 82.5H20C9.23046 82.5 0.5 73.7696 0.5 63V20C0.5 9.23045 9.23045 0.5 20 0.5Z" stroke="url(#paint4_linear_5282_766)"/>
</g>
<defs>
<filter id="filter0_b_5282_766" x="-10" y="-10" width="364" height="1220" filterUnits="userSpaceOnUse" color-interpolation-filters="sRGB">
<feFlood flood-opacity="0" result="BackgroundImageFix"/>
<feGaussianBlur in="BackgroundImageFix" stdDeviation="5"/>
<feComposite in2="SourceAlpha" operator="in" result="effect1_backgroundBlur_5282_766"/>
<feBlend mode="normal" in="SourceGraphic" in2="effect1_backgroundBlur_5282_766" result="shape"/>
</filter>
<filter id="filter1_b_5282_766" x="-10" y="-10" width="364" height="103" filterUnits="userSpaceOnUse" color-interpolation-filters="sRGB">
<feFlood flood-opacity="0" result="BackgroundImageFix"/>
<feGaussianBlur in="BackgroundImageFix" stdDeviation="5"/>
<feComposite in2="SourceAlpha" operator="in" result="effect1_backgroundBlur_5282_766"/>
<feBlend mode="normal" in="SourceGraphic" in2="effect1_backgroundBlur_5282_766" result="shape"/>
</filter>
<linearGradient id="paint0_linear_5282_766" x1="-8.49635" y1="37.8946" x2="651.809" y2="264.484" gradientUnits="userSpaceOnUse">
<stop stop-color="#812DE2"/>
<stop offset="0.4" stop-color="#812DE2"/>
<stop offset="1" stop-color="#3A49F9"/>
</linearGradient>
<linearGradient id="paint1_linear_5282_766" x1="-141.803" y1="-9.18845e-05" x2="325.384" y2="46.5856" gradientUnits="userSpaceOnUse">
<stop stop-color="#CBBAE9" stop-opacity="0.05"/>
<stop offset="1" stop-color="#C1B3E7" stop-opacity="0.25"/>
</linearGradient>
<linearGradient id="paint2_linear_5282_766" x1="-132.601" y1="-0.000213684" x2="326.008" y2="45.5279" gradientUnits="userSpaceOnUse">
<stop offset="0.008842" stop-color="white" stop-opacity="0.6"/>
<stop offset="0.392253" stop-color="#A756BF" stop-opacity="0.05"/>
<stop offset="0.907987" stop-color="white" stop-opacity="0.5"/>
</linearGradient>
<linearGradient id="paint3_linear_5282_766" x1="-141.803" y1="-6.35534e-06" x2="11.4684" y2="220.966" gradientUnits="userSpaceOnUse">
<stop stop-color="#CBBAE9" stop-opacity="0.05"/>
<stop offset="1" stop-color="#C1B3E7" stop-opacity="0.25"/>
</linearGradient>
<linearGradient id="paint4_linear_5282_766" x1="-132.601" y1="-1.47798e-05" x2="18.7455" y2="217.226" gradientUnits="userSpaceOnUse">
<stop offset="0.008842" stop-color="white" stop-opacity="0.6"/>
<stop offset="0.392253" stop-color="#A756BF" stop-opacity="0.05"/>
<stop offset="0.907987" stop-color="white" stop-opacity="0.5"/>
</linearGradient>
</defs>
</svg>
