<svg width="43" height="31" viewBox="0 0 43 31" fill="none" xmlns="http://www.w3.org/2000/svg">
<g filter="url(#filter0_d_2526_2673)">
<path d="M18.3993 10.4149C18.3744 10.4037 18.3533 10.3856 18.3385 10.3628C18.3236 10.3399 18.3157 10.3133 18.3157 10.286C18.3157 10.2588 18.3236 10.2322 18.3385 10.2093C18.3533 10.1865 18.3744 10.1683 18.3993 10.1571C19.1844 9.74081 19.8458 9.12569 20.3169 8.37361C20.8652 7.52936 21.155 6.54408 21.1507 5.53824C21.1617 4.63523 20.9315 3.74558 20.4837 2.96063C20.08 2.23505 19.5157 1.61082 18.8338 1.13535C18.1519 0.659891 17.3702 0.345721 16.5483 0.21673C15.4977 0.065263 14.4372 -0.00701212 13.3758 0.000535285H4.80876C4.06253 0.000535285 4 0.062908 4 0.141899V21.8562C4 21.9352 4.06253 22.0017 4.80876 22.0017H12.0626C14.1845 21.9809 15.948 21.931 16.6817 21.852C17.7274 21.7566 18.7317 21.3975 19.5999 20.8085C20.4099 20.2253 21.0571 19.4453 21.4801 18.5427C21.9293 17.6376 22.1659 16.6424 22.1721 15.6325C22.1984 14.4362 21.8227 13.2654 21.1049 12.3066C20.4149 11.4184 19.4718 10.759 18.3993 10.4149ZM9.05684 3.8046C9.05629 3.78603 9.05939 3.76753 9.066 3.75017C9.07262 3.73281 9.08262 3.71692 9.09539 3.7034C9.10817 3.68989 9.12349 3.67904 9.14048 3.67143C9.15747 3.66382 9.17578 3.65964 9.1944 3.6591H10.9036C12.9881 3.6591 14.2137 3.68404 14.6556 3.73393C15.2898 3.77117 15.886 4.04763 16.3232 4.50721C16.7077 4.97414 16.9052 5.56657 16.8776 6.17018C16.892 6.48537 16.8426 6.80022 16.7323 7.09593C16.622 7.39165 16.4531 7.66217 16.2356 7.89136C15.7521 8.34702 15.127 8.62423 14.4639 8.6771C14.047 8.72699 12.9881 8.75195 11.2788 8.75195H9.1944C9.15753 8.75087 9.12255 8.73549 9.09687 8.7091C9.07118 8.6827 9.05683 8.64737 9.05684 8.61059V3.8046ZM17.0444 17.2788C16.6308 17.7463 16.0684 18.0575 15.4519 18.1602C14.4533 18.2797 13.4472 18.3242 12.442 18.2932H9.17773C9.14087 18.2922 9.10589 18.2768 9.0802 18.2504C9.05451 18.224 9.04014 18.1887 9.04015 18.1519V12.5518C9.04014 12.5151 9.05451 12.4797 9.0802 12.4533C9.10589 12.4269 9.14087 12.4116 9.17773 12.4105H11.9083C13.9011 12.4105 15.1976 12.5158 15.7979 12.7265C16.3522 12.9029 16.8327 13.2564 17.1653 13.7326C17.4905 14.2254 17.6563 14.8058 17.6405 15.3955C17.6847 16.0755 17.4721 16.7474 17.0444 17.2788Z" fill="#0082E1"/>
<path d="M36.9301 7.63732C35.4876 6.04363 33.5213 5.24816 31.0311 5.25093C30.0046 5.22208 28.9836 5.41017 28.0352 5.80283C27.0868 6.19549 26.2324 6.78384 25.5282 7.52922C24.0774 9.05084 23.3521 11.1545 23.3521 13.8402C23.3521 16.088 23.9079 17.9491 25.0196 19.4236C26.4092 21.2668 28.5631 22.1883 31.4813 22.1883C33.1007 22.24 34.6983 21.8055 36.0671 20.9411C37.2427 20.1554 38.6435 18.3178 38.6977 16.9333C38.6977 16.8336 38.6727 16.7338 38.5684 16.7171L34.4829 16.6964C34.4444 16.6897 34.4048 16.6975 34.3717 16.7183C34.3387 16.739 34.3144 16.7712 34.3037 16.8086C33.8868 18.3635 32.4444 18.6462 31.5064 18.6462C30.485 18.6462 29.6429 18.4425 28.9592 17.7357C28.6202 17.3932 28.3521 16.9874 28.1705 16.5416C27.9888 16.0957 27.8969 15.6186 27.9003 15.1373C27.8997 15.1151 27.9036 15.0931 27.9118 15.0724C27.9199 15.0518 27.9321 15.0329 27.9476 15.017C27.9632 15.0012 27.9818 14.9885 28.0023 14.9799C28.0228 14.9713 28.0448 14.9669 28.067 14.9669H38.8311C38.8746 14.9669 38.9164 14.9499 38.9475 14.9196C38.9787 14.8893 38.9967 14.8481 38.9978 14.8047C39.0479 10.5018 38.3308 9.18804 36.9301 7.63732ZM34.4287 11.9153H28.1421C28.1204 11.9159 28.0988 11.9121 28.0786 11.9042C28.0584 11.8963 28.04 11.8844 28.0244 11.8693C28.0089 11.8542 27.9965 11.8361 27.9881 11.8162C27.9797 11.7962 27.9753 11.7748 27.9753 11.7532C27.9965 10.9295 28.3285 10.1441 28.905 9.55389C29.2058 9.23564 29.5678 8.9811 29.9695 8.80548C30.3711 8.62985 30.8041 8.53673 31.2426 8.53168C31.6811 8.52664 32.1162 8.60978 32.5218 8.77612C32.9274 8.94246 33.2952 9.1886 33.6033 9.49984C34.2098 10.0937 34.5636 10.8977 34.5913 11.7449C34.5913 11.7901 34.5733 11.8334 34.5413 11.8654C34.5092 11.8974 34.4657 11.9153 34.4204 11.9153H34.4287Z" fill="#0082E1"/>
<path d="M34.8994 0.873535H27.4496C27.095 0.873535 26.8076 1.16019 26.8076 1.51378V2.59472C26.8076 2.94832 27.095 3.23495 27.4496 3.23495H34.8994C35.254 3.23495 35.5414 2.94832 35.5414 2.59472V1.51378C35.5414 1.16019 35.254 0.873535 34.8994 0.873535Z" fill="#0082E1"/>
</g>
<defs>
<filter id="filter0_d_2526_2673" x="0" y="0" width="43.0005" height="30.1924" filterUnits="userSpaceOnUse" color-interpolation-filters="sRGB">
<feFlood flood-opacity="0" result="BackgroundImageFix"/>
<feColorMatrix in="SourceAlpha" type="matrix" values="0 0 0 0 0 0 0 0 0 0 0 0 0 0 0 0 0 0 127 0" result="hardAlpha"/>
<feOffset dy="4"/>
<feGaussianBlur stdDeviation="2"/>
<feComposite in2="hardAlpha" operator="out"/>
<feColorMatrix type="matrix" values="0 0 0 0 0 0 0 0 0 0 0 0 0 0 0 0 0 0 0.25 0"/>
<feBlend mode="normal" in2="BackgroundImageFix" result="effect1_dropShadow_2526_2673"/>
<feBlend mode="normal" in="SourceGraphic" in2="effect1_dropShadow_2526_2673" result="shape"/>
</filter>
</defs>
</svg>
