<svg width="44" height="44" viewBox="0 0 44 44" fill="none" xmlns="http://www.w3.org/2000/svg">
<g filter="url(#filter0_d_2526_2660)">
<path d="M28.8647 0H15.1182C12.1698 0.00338425 9.34314 1.17644 7.25868 3.26169C5.17422 5.34695 4.00225 8.17404 4 11.1225V24.8775C4.00225 27.826 5.17422 30.653 7.25868 32.7383C9.34314 34.8236 12.1698 35.9966 15.1182 36H28.8775C31.826 35.9966 34.6526 34.8236 36.7371 32.7383C38.8215 30.653 39.9935 27.826 39.9957 24.8775V11.1225C39.9935 8.17182 38.8198 5.3428 36.7325 3.25718C34.6453 1.17155 31.8154 -8.64307e-07 28.8647 0ZM35.9915 24.8775C35.9903 26.7621 35.2415 28.5691 33.9094 29.9021C32.5772 31.235 30.7706 31.985 28.886 31.9872H15.1182C13.2337 31.985 11.4271 31.235 10.0949 29.9021C8.76274 28.5691 8.01391 26.7621 8.01278 24.8775V11.1225C8.01391 9.23795 8.76274 7.43087 10.0949 6.09791C11.4271 4.76495 13.2337 4.01503 15.1182 4.01278H28.8775C30.7635 4.01278 32.5723 4.7617 33.9063 6.0949C35.2403 7.42811 35.9903 9.23647 35.9915 11.1225V24.8775Z" fill="#0082E1"/>
<path d="M21.985 8.80078C20.1649 8.80078 18.3858 9.34053 16.8726 10.3518C15.3593 11.363 14.18 12.8003 13.4837 14.4819C12.7874 16.1634 12.6054 18.0137 12.9608 19.7987C13.3162 21.5837 14.1929 23.2232 15.4802 24.5098C16.7674 25.7965 18.4074 26.6725 20.1925 27.0271C21.9777 27.3816 23.8279 27.1988 25.5091 26.5017C27.1903 25.8046 28.6271 24.6246 29.6376 23.1109C30.6482 21.5972 31.1871 19.8178 31.1862 17.9978C31.1829 15.5589 30.2122 13.2209 28.4873 11.4968C26.7623 9.77259 24.4239 8.80304 21.985 8.80078ZM21.985 23.5867C20.8796 23.5867 19.799 23.2589 18.8799 22.6448C17.9608 22.0307 17.2445 21.1578 16.8215 20.1366C16.3985 19.1153 16.2878 17.9916 16.5034 16.9075C16.7191 15.8233 17.2514 14.8275 18.033 14.0458C18.8146 13.2642 19.8105 12.7319 20.8946 12.5163C21.9788 12.3006 23.1025 12.4113 24.1238 12.8343C25.145 13.2573 26.0179 13.9737 26.632 14.8928C27.2461 15.8119 27.5739 16.8924 27.5739 17.9978C27.5728 19.4797 26.9836 20.9006 25.9357 21.9485C24.8878 22.9964 23.4669 23.5856 21.985 23.5867Z" fill="#0082E1"/>
<path d="M31.651 6.70899C31.3435 6.70899 31.0429 6.80018 30.7872 6.97103C30.5315 7.14188 30.3322 7.38471 30.2145 7.66882C30.0969 7.95293 30.0661 8.26556 30.1261 8.56717C30.1861 8.86878 30.3341 9.14583 30.5516 9.36328C30.769 9.58073 31.0461 9.72881 31.3477 9.78881C31.6493 9.8488 31.9619 9.81801 32.246 9.70032C32.5302 9.58264 32.773 9.38336 32.9438 9.12767C33.1147 8.87197 33.2059 8.57136 33.2059 8.26384C33.2064 8.0595 33.1666 7.85705 33.0887 7.66816C33.0107 7.47926 32.8962 7.30763 32.7517 7.16314C32.6072 7.01865 32.4356 6.90414 32.2467 6.82621C32.0578 6.74827 31.8554 6.70843 31.651 6.70899Z" fill="#0082E1"/>
</g>
<defs>
<filter id="filter0_d_2526_2660" x="0" y="0" width="43.9956" height="44" filterUnits="userSpaceOnUse" color-interpolation-filters="sRGB">
<feFlood flood-opacity="0" result="BackgroundImageFix"/>
<feColorMatrix in="SourceAlpha" type="matrix" values="0 0 0 0 0 0 0 0 0 0 0 0 0 0 0 0 0 0 127 0" result="hardAlpha"/>
<feOffset dy="4"/>
<feGaussianBlur stdDeviation="2"/>
<feComposite in2="hardAlpha" operator="out"/>
<feColorMatrix type="matrix" values="0 0 0 0 0 0 0 0 0 0 0 0 0 0 0 0 0 0 0.25 0"/>
<feBlend mode="normal" in2="BackgroundImageFix" result="effect1_dropShadow_2526_2660"/>
<feBlend mode="normal" in="SourceGraphic" in2="effect1_dropShadow_2526_2660" result="shape"/>
</filter>
</defs>
</svg>
