<?xml version="1.0" encoding="utf-8"?>
<!-- Generator: Adobe Illustrator 26.0.1, SVG Export Plug-In . SVG Version: 6.00 Build 0)  -->
<svg version="1.1" id="Layer_1" xmlns="http://www.w3.org/2000/svg" xmlns:xlink="http://www.w3.org/1999/xlink" x="0px" y="0px"
	 viewBox="0 0 43 43" style="enable-background:new 0 0 43 43;" xml:space="preserve">
<style type="text/css">
	.st0{fill:#0082E1;}
</style>
<g>
	<path class="st0" d="M37.8,25.5c-0.1-0.2-0.2-0.5-0.1-0.8c0.5-2.6,0.3-5.2-0.4-7.7c-0.8-2.5-2.1-4.8-4-6.6c-1.9-1.9-4.1-3.2-6.6-4
		c-2.5-0.8-5.2-0.9-7.8-0.5c-0.3,0.1-0.6,0-0.9-0.2c-1.7-1.1-3.8-1.7-5.9-1.5c-2.1,0.2-4,1.1-5.5,2.6S4.2,10.1,4,12.2
		c-0.2,2.1,0.3,4.1,1.5,5.8c0.2,0.3,0.2,0.6,0.2,0.9c-0.4,2.6-0.3,5.2,0.5,7.7c0.8,2.5,2.2,4.7,4,6.6c1.9,1.8,4.1,3.2,6.6,4
		c2.5,0.8,5.1,0.9,7.7,0.5c0.3-0.1,0.6,0,0.8,0.1c1.7,1,3.7,1.5,5.7,1.2c2-0.2,3.8-1.1,5.2-2.5c1.4-1.4,2.3-3.2,2.6-5.2
		C39.2,29.2,38.8,27.2,37.8,25.5z M29.7,29.4c-0.8,1.1-1.9,1.9-3.2,2.4c-1.6,0.6-3.3,0.9-5,0.9c-2.3,0-4.3-0.4-5.8-1.2
		c-1-0.6-1.9-1.3-2.6-2.3c-0.6-0.8-0.9-1.7-1-2.7c0-0.2,0-0.4,0.1-0.6c0.1-0.2,0.2-0.4,0.4-0.5c0.2-0.2,0.4-0.3,0.6-0.4
		c0.2-0.1,0.5-0.1,0.7-0.1c0.4,0,0.8,0.1,1.1,0.4c0.4,0.3,0.6,0.8,0.8,1.2c0.3,0.7,0.6,1.3,1,1.9c0.4,0.6,1,1,1.6,1.3
		c0.9,0.4,1.8,0.5,2.7,0.5c1.3,0.1,2.6-0.3,3.7-1c0.5-0.3,0.8-0.7,1.1-1.1c0.3-0.5,0.4-1,0.4-1.5c0-0.4-0.1-0.8-0.2-1.1
		c-0.1-0.4-0.4-0.7-0.6-0.9c-0.6-0.5-1.3-0.9-2-1.1c-0.8-0.2-1.8-0.5-3.2-0.8c-1.5-0.3-2.9-0.7-4.3-1.3c-1-0.4-2-1.1-2.7-2
		c-0.7-0.9-1-1.9-1-3c0-1.1,0.3-2.2,1-3.1c0.8-1,1.8-1.7,3-2.1c1.5-0.5,3.1-0.8,4.7-0.7c1.3,0,2.5,0.1,3.8,0.5
		c0.9,0.3,1.8,0.7,2.6,1.3c0.6,0.4,1.1,1,1.5,1.7c0.3,0.5,0.4,1.1,0.5,1.7c0,0.5-0.2,0.9-0.5,1.2c-0.3,0.3-0.8,0.5-1.3,0.5
		c-0.4,0-0.7-0.1-1-0.3c-0.3-0.4-0.6-0.8-0.9-1.2c-0.4-0.8-1-1.5-1.7-2.1c-0.7-0.5-1.7-0.8-3.2-0.8c-1.1-0.1-2.3,0.2-3.3,0.8
		c-0.9,0.6-1.3,1.3-1.3,2.2c0,0.5,0.2,1,0.5,1.4c0.3,0.4,0.7,0.7,1.2,0.9c0.5,0.2,1,0.4,1.5,0.6c0.5,0.1,1.3,0.3,2.4,0.6
		c1.4,0.3,2.6,0.6,3.7,1c1,0.3,1.9,0.7,2.7,1.3c0.7,0.5,1.3,1.1,1.7,1.8c0.4,0.8,0.6,1.8,0.6,2.7C30.8,27.2,30.4,28.4,29.7,29.4
		L29.7,29.4z"/>
</g>
</svg>
