<?xml version="1.0" encoding="utf-8"?>
<!-- Generator: Adobe Illustrator 26.0.1, SVG Export Plug-In . SVG Version: 6.00 Build 0)  -->
<svg version="1.1" id="Layer_1" xmlns="http://www.w3.org/2000/svg" xmlns:xlink="http://www.w3.org/1999/xlink" x="0px" y="0px"
	 viewBox="0 0 43 42" style="enable-background:new 0 0 43 42;" xml:space="preserve">
<style type="text/css">
	.st0{fill:#0082E1;}
</style>
<g>
	<path class="st0" d="M36.6,28.9c-2.6-1.2-5.8-5.7-5.7-6.7c0.1-1,6-1.1,4.8-3.8c-0.3-0.6-1-0.8-2.3-0.5c-2.4,0.5-2.4,0.3-2.3,0.3
		c0,0,1.3-13.8-9.6-13.7c-10.9-0.1-9.6,13.7-9.6,13.7s0,0.2-2.3-0.3c-1.3-0.2-2-0.1-2.3,0.5c-1.1,2.7,4.8,2.9,4.8,3.8
		c0.1,1-3.1,5.5-5.7,6.7c-2,0.9-2.7,1.3-2.3,2c0.6,1,4,0.5,4.6,1c0.4,0.4-0.5,1.9,0.5,2.4c1,0.5,4.6-0.2,6,0.2
		c1.8,0.6,2.1,1,3.2,2.2c0.6,0.7,1.9,0.9,3.2,0.9c1.2,0,2.5-0.2,3.2-0.9c1.1-1.2,1.4-1.6,3.2-2.2c1.3-0.5,5,0.2,5.9-0.2
		c1-0.5,0.1-2,0.5-2.4c0.6-0.6,4-0.1,4.6-1C39.3,30.1,38.6,29.7,36.6,28.9z"/>
</g>
</svg>
