<svg width="40" height="40" viewBox="0 0 40 40" fill="none" xmlns="http://www.w3.org/2000/svg">
<g filter="url(#filter0_d_2526_2665)">
<path d="M19.9919 0.0150734C17.0583 0.0164721 14.1816 0.824234 11.6762 2.35004C9.17083 3.87584 7.13327 6.06095 5.78629 8.66648C4.43931 11.272 3.83475 14.1976 4.03873 17.1235C4.2427 20.0494 5.24735 22.8629 6.94283 25.2564L7.08978 25.4636L5.28861 30.8095L10.3982 28.8053L10.6168 28.9635C12.662 30.4428 15.0282 31.4173 17.5222 31.8076C20.0161 32.1978 22.567 31.9927 24.9665 31.2089C27.366 30.4252 29.546 29.085 31.3285 27.2979C33.111 25.5109 34.4453 23.3276 35.2225 20.9264C35.9998 18.5252 36.1978 15.9743 35.8006 13.4819C35.4033 10.9896 34.4219 8.62658 32.9367 6.58589C31.4514 4.5452 29.5044 2.88472 27.2546 1.74012C25.0049 0.595514 22.5162 -0.000761315 19.9919 7.29504e-07V0.0150734ZM16.3933 11.7467C16.198 12.0971 15.9429 12.4107 15.6397 12.6734C15.1122 13.2122 14.5092 13.8036 14.5582 14.5571C14.5582 14.7229 14.5921 15.1712 16.3556 16.972C17.3969 18.0436 18.5235 19.0289 19.7243 19.9181C21.4728 21.1726 22.2113 21.1688 22.6145 21.0483C23.3681 20.8411 23.745 20.227 24.069 19.6845C24.3931 19.142 24.5928 18.8707 24.9093 18.8142C25.7081 18.6748 28.4438 19.7523 29.3369 20.6979C29.359 20.7212 29.3753 20.7493 29.3845 20.7801C29.3937 20.8109 29.3954 20.8434 29.3896 20.875C29.2728 21.6284 28.8357 23.531 27.3435 24.4201C26.2809 25.053 24.8566 25.0643 23.1119 24.4464C16.5516 22.137 12.1617 18.0947 10.7637 13.0954C10.0101 10.4092 10.8315 8.9249 11.653 8.15635C12.212 7.60969 12.9428 7.27296 13.7217 7.2032C13.7654 7.19603 13.8099 7.19603 13.8536 7.2032C14.0608 7.28231 14.7052 8.00565 15.4362 9.30539C16.1672 10.6051 16.4385 11.5394 16.3933 11.7467Z" fill="#0082E1"/>
</g>
<defs>
<filter id="filter0_d_2526_2665" x="0" y="0" width="40" height="40" filterUnits="userSpaceOnUse" color-interpolation-filters="sRGB">
<feFlood flood-opacity="0" result="BackgroundImageFix"/>
<feColorMatrix in="SourceAlpha" type="matrix" values="0 0 0 0 0 0 0 0 0 0 0 0 0 0 0 0 0 0 127 0" result="hardAlpha"/>
<feOffset dy="4"/>
<feGaussianBlur stdDeviation="2"/>
<feComposite in2="hardAlpha" operator="out"/>
<feColorMatrix type="matrix" values="0 0 0 0 0 0 0 0 0 0 0 0 0 0 0 0 0 0 0.25 0"/>
<feBlend mode="normal" in2="BackgroundImageFix" result="effect1_dropShadow_2526_2665"/>
<feBlend mode="normal" in="SourceGraphic" in2="effect1_dropShadow_2526_2665" result="shape"/>
</filter>
</defs>
</svg>
