<svg width="50" height="43" viewBox="0 0 50 43" fill="none" xmlns="http://www.w3.org/2000/svg">
<rect width="50" height="43" rx="5" fill="#F6F6F6"/>
<path d="M34.5425 15.7268C32.3115 14.4391 29.4592 15.2043 28.1689 17.4353L24.9195 23.0647C23.9788 24.6901 25.1899 25.2587 26.5396 26.0675L29.6663 27.8723C30.7257 28.4831 32.078 28.1203 32.6889 27.0636L36.0293 21.2784C37.1521 19.3337 36.4858 16.8495 34.5412 15.7268H34.5425Z" fill="#EA4335"/>
<path d="M30.8668 18.0574L27.7401 16.2526C26.0131 15.2948 25.0355 15.2315 24.3271 16.3568L19.7148 24.3452C18.4271 26.5748 19.1936 29.4259 21.4233 30.7109C23.3679 31.8336 25.8522 31.1673 26.9749 29.2227L31.6756 21.0799C32.2891 20.0205 31.9262 18.6669 30.8668 18.0561V18.0574Z" fill="#FBBC04"/>
<path d="M31.4685 13.9507L29.2718 12.6815C26.8417 11.2791 23.736 12.1102 22.3336 14.5404L18.1514 21.7834C17.534 22.852 17.9008 24.2201 18.9694 24.8362L21.4299 26.2571C22.645 26.959 24.1978 26.5421 24.8997 25.3283L29.6769 17.0537C30.6664 15.3399 32.8577 14.7528 34.5715 15.7423L31.4685 13.9507Z" fill="#34A853"/>
<path d="M22.9271 16.6135L20.5524 15.2454C19.493 14.6359 18.1407 14.9973 17.5299 16.0528L14.6815 20.9751C13.2791 23.3974 14.1102 26.4977 16.5404 27.8962L18.3478 28.9371L20.5405 30.1997L21.4917 30.7472C19.803 29.6166 19.2661 27.3513 20.2991 25.5663L21.0366 24.2918L23.7372 19.6241C24.3467 18.57 23.9839 17.2204 22.9258 16.6109L22.9271 16.6135Z" fill="#4285F4"/>
</svg>
