<svg width="23" height="20" viewBox="0 0 23 20" fill="none" xmlns="http://www.w3.org/2000/svg">
<path d="M20.5436 3.72677C18.3126 2.43913 15.4603 3.20432 14.17 5.43527L10.9206 11.0647C9.97991 12.6901 11.191 13.2587 12.5407 14.0675L15.6674 15.8723C16.7268 16.4831 18.0791 16.1203 18.69 15.0636L22.0304 9.2784C23.1532 7.33375 22.4869 4.8495 20.5423 3.72677H20.5436Z" fill="#EA4335"/>
<path d="M16.8654 6.0574L13.7386 4.25259C12.0117 3.29478 11.0341 3.23145 10.3256 4.35682L5.7133 12.3452C4.42566 14.5748 5.19217 17.4259 7.4218 18.7109C9.36645 19.8336 11.8507 19.1673 12.9734 17.2227L17.6741 9.07993C18.2876 8.02053 17.9248 6.66692 16.8654 6.05608V6.0574Z" fill="#FBBC04"/>
<path d="M17.467 1.95066L15.2704 0.681493C12.8402 -0.720928 9.73458 0.110234 8.33216 2.54039L4.14997 9.78338C3.53253 10.852 3.8993 12.2201 4.96794 12.8362L7.42844 14.2571C8.64352 14.959 10.1963 14.5421 10.8982 13.3283L15.6754 5.05367C16.6649 3.33989 18.8563 2.7528 20.57 3.74228L17.467 1.95066V1.95066Z" fill="#34A853"/>
<path d="M8.92715 4.61349L6.5524 3.24537C5.493 2.63585 4.14071 2.99734 3.52987 4.05279L0.681493 8.97511C-0.720928 11.3974 0.110234 14.4977 2.54039 15.8962L4.34784 16.9371L6.54052 18.1997L7.49174 18.7472C5.80303 17.6166 5.26608 15.3513 6.29909 13.5663L7.03658 12.2918L9.7372 7.62414C10.3467 6.57002 9.98391 5.22037 8.92583 4.61085L8.92715 4.61349Z" fill="#4285F4"/>
</svg>
