<svg width="23" height="23" viewBox="0 0 23 23" fill="none" xmlns="http://www.w3.org/2000/svg">
<path d="M14.064 1.80317C14.1111 1.63076 14.2242 1.4838 14.3787 1.394C14.5332 1.3042 14.7169 1.27876 14.89 1.32318C16.5168 1.76044 18.0002 2.61759 19.1913 3.80875C20.3825 4.99991 21.2396 6.48322 21.6769 8.11004C21.7004 8.1958 21.7066 8.28539 21.6951 8.37358C21.6837 8.46177 21.6548 8.54679 21.6101 8.62368C21.5654 8.70058 21.5058 8.7678 21.4349 8.82144C21.364 8.87507 21.2831 8.91404 21.1969 8.93607L21.0295 8.95839C20.8812 8.95816 20.7371 8.90871 20.62 8.8178C20.5028 8.7269 20.4191 8.59967 20.382 8.45608C20.0035 7.0579 19.2653 5.78325 18.2411 4.759C17.2168 3.73474 15.9422 2.9966 14.544 2.61804C14.374 2.57085 14.229 2.45953 14.1394 2.30753C14.0499 2.15553 14.0229 1.97472 14.064 1.80317ZM13.6175 6.06728C14.4104 6.28436 15.1332 6.70423 15.7145 7.28556C16.2958 7.86689 16.7157 8.58962 16.9328 9.38257C16.9699 9.52617 17.0535 9.65339 17.1707 9.7443C17.2879 9.83521 17.4319 9.88466 17.5802 9.88489L17.7477 9.86256C17.9185 9.81295 18.0637 9.69947 18.153 9.54565C18.2424 9.39184 18.2691 9.20952 18.2276 9.03653C17.9518 8.01495 17.4129 7.08357 16.6647 6.33535C15.9165 5.58712 14.9851 5.04822 13.9635 4.77242C13.7905 4.73093 13.6082 4.75765 13.4544 4.84703C13.3006 4.9364 13.1871 5.08158 13.1375 5.25241C13.0934 5.42411 13.1191 5.6063 13.2091 5.75904C13.2991 5.91179 13.4459 6.02263 13.6175 6.06728ZM22.5476 17.0178C22.3605 18.4729 21.65 19.8102 20.549 20.7798C19.4479 21.7493 18.0315 22.285 16.5644 22.2865C7.82411 22.2865 0.713531 15.176 0.713531 6.43565C0.715109 4.96853 1.25072 3.55217 2.2203 2.45111C3.18989 1.35005 4.52714 0.639613 5.98228 0.452495C6.31711 0.413299 6.65564 0.483428 6.94735 0.652416C7.23905 0.821405 7.46829 1.08019 7.60085 1.39015L9.84453 6.62541C9.94631 6.86229 9.98834 7.12054 9.96693 7.37746C9.94552 7.63438 9.86133 7.88211 9.72175 8.09887L7.85759 10.9342C7.83917 10.9662 7.82855 11.002 7.82661 11.0389C7.82467 11.0757 7.83146 11.1125 7.84643 11.1463C8.70387 12.9043 10.1269 14.3234 11.8873 15.176C11.9215 15.1913 11.9591 15.1973 11.9963 15.1934C12.0336 15.1895 12.0691 15.1758 12.0994 15.1536L14.9012 13.2895C15.1158 13.1453 15.3633 13.0574 15.6208 13.034C15.8783 13.0106 16.1375 13.0524 16.3747 13.1555L21.6099 15.3992C21.9199 15.5318 22.1787 15.761 22.3476 16.0527C22.5166 16.3444 22.5868 16.683 22.5476 17.0178ZM21.2192 16.8503C21.2231 16.8038 21.2122 16.7572 21.1882 16.7172C21.1641 16.6771 21.1281 16.6456 21.0853 16.6271L15.85 14.3834C15.8154 14.3701 15.7782 14.3652 15.7413 14.3691C15.7044 14.3729 15.669 14.3855 15.6379 14.4057L12.8473 16.2699C12.6213 16.4183 12.3612 16.5065 12.0916 16.526C11.8219 16.5456 11.5518 16.4958 11.3068 16.3815C9.27639 15.393 7.6342 13.7548 6.64087 11.7267C6.52487 11.4846 6.47317 11.2168 6.49077 10.9489C6.50836 10.6811 6.59466 10.4223 6.74133 10.1974L8.59432 7.36214C8.61644 7.33191 8.63016 7.29636 8.63408 7.25911C8.638 7.22186 8.63199 7.18423 8.61665 7.15005L6.37297 1.9148C6.35585 1.87555 6.3278 1.84206 6.29218 1.81831C6.25655 1.79456 6.21485 1.78155 6.17204 1.78084H6.14972C5.01914 1.92946 3.98084 2.48313 3.22748 3.33913C2.47411 4.19513 2.05683 5.29535 2.05304 6.43565C2.056 10.2834 3.58582 13.9727 6.30659 16.6935C9.02736 19.4142 12.7167 20.9441 16.5644 20.947C17.7047 20.9432 18.8049 20.526 19.6609 19.7726C20.5169 19.0192 21.0706 17.9809 21.2192 16.8503Z" fill="black"/>
</svg>
