<svg width="16" height="13" viewBox="0 0 16 13" fill="none" xmlns="http://www.w3.org/2000/svg">
<path d="M0 2.1871V11.8119C0.0433583 11.9551 0.0636703 12.1054 0.133981 12.2404C0.400771 12.7524 0.829277 12.997 1.39918 12.9985C2.41986 13.0013 3.44054 12.9993 4.46122 12.9993C7.83067 12.9993 11.1997 12.9993 14.5692 12.9997C14.9356 12.9997 15.2656 12.9073 15.5477 12.6604C15.807 12.433 15.9324 12.1387 16 11.8115V2.18671C15.9566 2.04347 15.9363 1.89318 15.866 1.75815C15.5992 1.24623 15.1707 1.00162 14.6008 1.00005C13.5852 0.997314 12.57 0.99927 11.5544 0.99927C8.17988 0.99927 4.80535 0.999271 1.43082 0.998879C1.06443 0.998879 0.734357 1.09124 0.452333 1.3382C0.192964 1.56559 0.0675765 1.85991 0 2.1871ZM14.7746 12.2776C14.7727 12.2905 14.7707 12.3031 14.7688 12.316H1.22145C1.24724 12.2377 1.30036 12.2095 1.34098 12.1727C3.3714 10.3196 5.40299 8.46716 7.4338 6.61438C7.84434 6.23983 8.15527 6.24022 8.56659 6.61516C10.0517 7.96933 11.538 9.32232 13.0231 10.6761C13.6079 11.2092 14.1907 11.7438 14.7746 12.2776ZM1.21208 1.6834H14.8184C14.7621 1.7425 14.7325 1.77694 14.6996 1.80786C13.7419 2.7049 12.7845 3.60194 11.8259 4.4978C11.1029 5.17332 10.3583 5.82457 9.6193 6.48209C9.53414 6.55802 9.48571 6.55919 9.40602 6.47935C9.26657 6.33963 9.11579 6.21047 8.96814 6.07897C8.37089 5.54865 7.7127 5.52948 7.0924 6.03005C6.93069 6.16077 6.77327 6.29893 6.62953 6.44921C6.52289 6.56037 6.45883 6.55097 6.34477 6.45156C4.61903 4.94358 2.95618 3.36789 1.28903 1.79651C1.26013 1.7695 1.21755 1.75033 1.21208 1.6834ZM0.683577 2.15579C0.741388 2.20159 0.762481 2.21567 0.78084 2.23329C2.46517 3.82463 4.14756 5.41754 5.89712 6.93805C5.99673 7.02454 5.9522 7.06172 5.88228 7.12512C4.20068 8.65776 2.52064 10.1924 0.839433 11.7254C0.799199 11.7622 0.76795 11.8166 0.683577 11.8205V2.15579ZM15.3188 11.8232C15.2367 11.8142 15.2102 11.7712 15.177 11.741C13.4883 10.2006 11.8009 8.65894 10.1107 7.11965C10.0298 7.04568 10.0228 7.00771 10.1095 6.93218C11.8466 5.42146 13.518 3.8395 15.1918 2.2599C15.2223 2.23133 15.2438 2.17693 15.3188 2.20198V11.8232Z" fill="black"/>
</svg>
