<svg width="15" height="15" viewBox="0 0 15 15" fill="none" xmlns="http://www.w3.org/2000/svg">
<g clip-path="url(#clip0_261_481)">
<path d="M7.8947 0.0292969C7.59236 0.0292969 7.29042 0.0292969 6.98808 0.0292969C6.94506 0.0592937 6.89454 0.0517945 6.84678 0.0553468C5.77321 0.134681 4.7624 0.425966 3.81828 0.945385C0.982004 2.50562 -0.518627 5.97143 0.168537 8.97585C0.49495 10.4035 1.0862 11.6981 2.0907 12.7728C3.82263 14.6263 6.00687 15.2089 8.45951 14.9243C9.70753 14.7798 10.8478 14.305 11.876 13.5808C13.5112 12.4286 14.5122 10.8672 14.8544 8.89218C14.9049 8.60089 14.9325 8.30527 14.9708 8.01161C14.9708 7.68007 14.9708 7.34892 14.9708 7.01738C14.9621 6.96567 14.9487 6.91436 14.9451 6.86266C14.8705 5.84474 14.6239 4.87221 14.1309 3.97625C12.9507 1.83108 11.0913 0.631602 8.73106 0.1481C8.45595 0.0916587 8.17375 0.067977 7.8947 0.0292969V0.0292969ZM13.0277 7.75388C13.4662 7.75388 13.9047 7.75783 14.3428 7.75112C14.4557 7.74954 14.4905 7.78309 14.4755 7.89202C14.4605 7.9978 14.4585 8.10555 14.4478 8.21212C14.3117 9.58053 13.8092 10.8001 12.9586 11.8792C12.8864 11.9708 12.8493 11.9637 12.7727 11.8859C12.3366 11.4431 11.8495 11.0634 11.3128 10.7496C11.2263 10.6991 11.2038 10.6517 11.2283 10.5542C11.4485 9.67723 11.559 8.78482 11.5776 7.88136C11.5796 7.77835 11.6115 7.75033 11.7122 7.75151C12.1507 7.75664 12.5892 7.75348 13.0277 7.75348V7.75388ZM13.034 7.27551C12.5908 7.27551 12.1475 7.27314 11.7039 7.27748C11.6088 7.27827 11.576 7.25025 11.578 7.15394C11.5808 7.01304 11.5705 6.87173 11.5626 6.73083C11.5208 5.96078 11.411 5.20099 11.2255 4.45225C11.2082 4.38239 11.2129 4.33897 11.2832 4.29872C11.8436 3.97625 12.3476 3.57998 12.8 3.11818C12.8536 3.06332 12.8876 3.0574 12.9346 3.12371C13.0163 3.23856 13.1078 3.34671 13.1895 3.46196C13.9679 4.56237 14.3949 5.78593 14.4758 7.13144C14.483 7.24709 14.451 7.28024 14.3345 7.27867C13.9012 7.27196 13.4674 7.2759 13.034 7.2759V7.27551ZM1.95059 7.27551C1.50734 7.27551 1.0645 7.27235 0.621253 7.27788C0.517448 7.27906 0.481925 7.24788 0.495345 7.14565C0.509554 7.03987 0.511922 6.93252 0.522579 6.82595C0.657959 5.4528 1.16238 4.22964 2.01532 3.14739C2.07926 3.06608 2.11557 3.06016 2.19017 3.13673C2.62749 3.58511 3.11928 3.96638 3.65883 4.28332C3.7504 4.337 3.75987 4.39029 3.73698 4.48185C3.51911 5.35413 3.4082 6.24062 3.39083 7.13855C3.38886 7.24591 3.36004 7.27985 3.24992 7.27827C2.81655 7.27195 2.38317 7.2759 1.95019 7.2759L1.95059 7.27551ZM0.496923 7.94688C0.516658 7.87268 0.429826 7.75033 0.613754 7.75151C1.49984 7.75743 2.38593 7.75546 3.27203 7.75269C3.36123 7.75269 3.38886 7.78111 3.39043 7.86913C3.4078 8.78206 3.52147 9.68276 3.74171 10.5696C3.76026 10.6438 3.75474 10.6896 3.67817 10.7346C3.12559 11.0595 2.62275 11.449 2.17477 11.908C2.11478 11.9692 2.0832 11.9669 2.03031 11.9002C1.10791 10.7429 0.603096 9.42462 0.496923 7.94728V7.94688ZM7.24621 12.3398C7.24621 12.9923 7.24621 13.6451 7.24621 14.2975C7.24621 14.4409 7.17438 14.4947 7.03071 14.459C7.02597 14.4578 7.02163 14.4558 7.0169 14.4546C6.4513 14.3102 6.01437 13.9691 5.64257 13.5377C5.0075 12.8008 4.63215 11.9294 4.34797 11.0109C4.31915 10.917 4.37086 10.9035 4.42809 10.8755C5.26997 10.4662 6.16001 10.2416 7.09307 10.1785C7.21306 10.1702 7.25056 10.197 7.24937 10.3237C7.24306 10.9959 7.24621 11.6677 7.24621 12.3398V12.3398ZM7.72458 2.68994C7.72458 2.03751 7.72458 1.38468 7.72458 0.732249C7.72458 0.58858 7.79642 0.534638 7.94009 0.570424C7.94482 0.571608 7.94917 0.573582 7.9539 0.574766C8.53489 0.724355 8.97932 1.078 9.35704 1.5248C9.97474 2.25577 10.3442 3.11424 10.6228 4.01848C10.652 4.11321 10.5988 4.12584 10.5423 4.15347C9.69569 4.56553 8.80131 4.78972 7.86312 4.85247C7.73721 4.86076 7.72143 4.8134 7.72222 4.70644C7.72616 4.03427 7.72419 3.3625 7.72419 2.69033L7.72458 2.68994ZM7.24621 2.68875C7.24621 3.36566 7.24345 4.04256 7.24898 4.71946C7.24977 4.83155 7.21859 4.85879 7.10886 4.85129C6.16593 4.78814 5.26682 4.56119 4.41506 4.14992C4.34599 4.11676 4.32705 4.08479 4.35191 4.00585C4.44822 3.69957 4.55242 3.39644 4.67832 3.10082C4.97632 2.40142 5.34654 1.74819 5.90464 1.21851C6.24566 0.894864 6.63404 0.654889 7.10057 0.552663C7.21661 0.527402 7.25016 0.548716 7.24898 0.672256C7.24345 1.34403 7.24621 2.01619 7.24621 2.68836V2.68875ZM7.72458 12.3237C7.72458 11.6566 7.72814 10.9892 7.72143 10.3222C7.72024 10.1931 7.76169 10.1635 7.8793 10.1793C8.05297 10.203 8.22822 10.2116 8.40188 10.2345C9.15535 10.3332 9.8733 10.5511 10.5577 10.8814C10.6291 10.9158 10.6453 10.9505 10.6177 11.0259C10.551 11.2086 10.5001 11.3965 10.4314 11.5785C10.1539 12.3162 9.80423 13.0144 9.26863 13.6037C8.88499 14.026 8.43859 14.3504 7.86746 14.4767C7.74511 14.5036 7.72103 14.4708 7.72182 14.3536C7.72656 13.6767 7.72419 12.9998 7.72419 12.3229L7.72458 12.3237ZM9.42059 7.27551C8.90433 7.27551 8.38846 7.27274 7.8722 7.27748C7.76366 7.27867 7.71985 7.25775 7.72143 7.135C7.72853 6.58005 7.72735 6.02472 7.72222 5.46978C7.72143 5.364 7.74866 5.32769 7.85878 5.32295C8.83802 5.28032 9.77029 5.04311 10.6572 4.62789C10.7448 4.58684 10.7748 4.58724 10.7997 4.6946C10.9844 5.50412 11.0728 6.32469 11.1051 7.15315C11.1091 7.25183 11.0791 7.27748 10.984 7.27709C10.463 7.27314 9.94198 7.27511 9.42098 7.27551H9.42059ZM9.41072 7.75388C9.93172 7.75388 10.4527 7.75585 10.9737 7.7519C11.072 7.75112 11.1095 7.77203 11.1051 7.88058C11.072 8.70391 10.9844 9.51974 10.8016 10.3245C10.7776 10.4307 10.7507 10.4449 10.6528 10.3987C9.76595 9.98351 8.83368 9.74709 7.85444 9.70525C7.75458 9.70091 7.72182 9.67091 7.72301 9.56908C7.72735 9.0094 7.72814 8.44933 7.72261 7.88926C7.72143 7.77795 7.75537 7.75033 7.86312 7.75112C8.37899 7.75625 8.89525 7.75348 9.41151 7.75348L9.41072 7.75388ZM5.57113 7.27551C5.04539 7.27551 4.51966 7.27432 3.99353 7.27669C3.90749 7.27709 3.86131 7.26761 3.86565 7.15986C3.89801 6.33653 3.98721 5.52109 4.16562 4.71512C4.19443 4.58448 4.2339 4.59158 4.33455 4.63855C5.21353 5.04587 6.13672 5.28151 7.1061 5.32256C7.22451 5.32769 7.24977 5.36913 7.24858 5.47846C7.24385 6.02867 7.24227 6.57887 7.24937 7.12868C7.25095 7.25735 7.20517 7.27906 7.09031 7.27788C6.58391 7.27235 6.07752 7.27551 5.57113 7.27551V7.27551ZM5.5585 7.75388C6.07476 7.75388 6.59062 7.75664 7.10689 7.75151C7.21266 7.75033 7.25016 7.7748 7.24898 7.88807C7.24306 8.44775 7.24424 9.00783 7.24858 9.5679C7.24937 9.66815 7.22016 9.7013 7.11833 9.70525C6.1383 9.74433 5.20603 9.98035 4.31994 10.3979C4.22561 10.4425 4.19482 10.437 4.16996 10.3265C3.98682 9.51659 3.8988 8.69602 3.86604 7.86755C3.8617 7.75704 3.91301 7.75269 3.9959 7.75309C4.5169 7.75506 5.03789 7.75427 5.55889 7.75427L5.5585 7.75388ZM5.71282 14.2652C5.66585 14.2652 5.65046 14.2683 5.63704 14.2648C4.42454 13.9265 3.37701 13.308 2.48816 12.4164C2.41435 12.3422 2.44869 12.3091 2.50158 12.2558C2.88759 11.867 3.31307 11.5287 3.77526 11.2343C3.87236 11.1727 3.91025 11.1723 3.94774 11.2939C4.12654 11.8717 4.36336 12.4255 4.66648 12.9496C4.94553 13.4324 5.27905 13.8728 5.71243 14.2652H5.71282ZM5.70453 0.751984C5.54666 0.920519 5.39786 1.06616 5.26405 1.22483C4.64557 1.95738 4.24535 2.80756 3.95406 3.7122C3.90828 3.85468 3.86802 3.85153 3.75632 3.77969C3.30794 3.49196 2.89667 3.16002 2.51658 2.78703C2.43803 2.71007 2.42975 2.66705 2.51342 2.58376C3.27124 1.83108 4.15101 1.27338 5.15551 0.912625C5.32799 0.850658 5.50087 0.786717 5.70453 0.751589V0.751984ZM9.27021 0.775271C9.31126 0.752379 9.33849 0.765009 9.36612 0.772508C10.5617 1.11313 11.5965 1.72491 12.4743 2.60547C12.5501 2.68125 12.5245 2.71717 12.4649 2.77677C12.0773 3.16357 11.6522 3.50222 11.1904 3.79706C11.0819 3.86652 11.0558 3.83732 11.0215 3.72996C10.7708 2.94215 10.431 2.19696 9.94277 1.5248C9.74542 1.25285 9.52124 1.00459 9.27021 0.775666V0.775271ZM9.28758 14.2624C9.43046 14.1045 9.58005 13.9589 9.71345 13.7986C10.3304 13.0582 10.7318 12.2049 11.0231 11.2947C11.0566 11.1905 11.0811 11.1652 11.1837 11.2307C11.6455 11.5244 12.0698 11.8634 12.459 12.2483C12.5363 12.3248 12.5371 12.3635 12.459 12.4405C11.8168 13.0791 11.083 13.5819 10.2526 13.9423C9.94119 14.0773 9.62267 14.1929 9.28679 14.2628L9.28758 14.2624Z" fill="black"/>
</g>
<defs>
<clipPath id="clip0_261_481">
<rect width="15" height="15" fill="white" transform="matrix(-1 0 0 1 15 0)"/>
</clipPath>
</defs>
</svg>
