<svg width="17" height="17" viewBox="0 0 17 17" fill="none" xmlns="http://www.w3.org/2000/svg">
<path d="M10.6317 1.91182C10.6662 1.78594 10.7487 1.67865 10.8615 1.61308C10.9743 1.54752 11.1084 1.52895 11.2348 1.56138C12.4225 1.88062 13.5055 2.50642 14.3751 3.37606C15.2448 4.24571 15.8706 5.32866 16.1898 6.51637C16.207 6.57898 16.2115 6.64439 16.2031 6.70878C16.1948 6.77316 16.1736 6.83524 16.141 6.89138C16.1084 6.94751 16.0649 6.99659 16.0131 7.03575C15.9613 7.07491 15.9023 7.10336 15.8394 7.11944L15.7171 7.13574C15.6089 7.13557 15.5037 7.09947 15.4182 7.0331C15.3326 6.96673 15.2715 6.87384 15.2444 6.76901C14.9681 5.74822 14.4292 4.81762 13.6814 4.06982C12.9336 3.32203 12.003 2.78312 10.9822 2.50674C10.8581 2.47229 10.7522 2.39101 10.6868 2.28004C10.6215 2.16907 10.6017 2.03706 10.6317 1.91182ZM10.3058 5.02498C10.8847 5.18346 11.4123 5.49001 11.8368 5.91443C12.2612 6.33885 12.5677 6.86651 12.7262 7.44543C12.7533 7.55026 12.8144 7.64315 12.8999 7.70952C12.9855 7.77589 13.0906 7.81199 13.1989 7.81216L13.3211 7.79586C13.4459 7.75964 13.5518 7.67679 13.6171 7.56449C13.6823 7.4522 13.7019 7.31909 13.6716 7.19279C13.4702 6.44695 13.0768 5.76696 12.5305 5.22069C11.9842 4.67442 11.3042 4.28098 10.5584 4.07962C10.4321 4.04933 10.299 4.06884 10.1867 4.13409C10.0744 4.19934 9.99154 4.30533 9.95532 4.43006C9.92311 4.55541 9.94191 4.68842 10.0076 4.79994C10.0733 4.91146 10.1805 4.99238 10.3058 5.02498ZM16.8255 13.0198C16.6889 14.0822 16.1702 15.0585 15.3663 15.7664C14.5625 16.4742 13.5284 16.8653 12.4573 16.8664C6.07609 16.8664 0.884766 11.6751 0.884766 5.29392C0.885918 4.2228 1.27696 3.18873 1.98484 2.38487C2.69272 1.581 3.66903 1.06232 4.7314 0.925708C4.97586 0.897092 5.22301 0.948292 5.43598 1.07167C5.64895 1.19504 5.81632 1.38398 5.9131 1.61028L7.55118 5.43246C7.62548 5.6054 7.65617 5.79395 7.64054 5.98152C7.62491 6.1691 7.56344 6.34996 7.46153 6.50822L6.10054 8.57823C6.08709 8.60158 6.07934 8.62777 6.07792 8.65468C6.07651 8.68158 6.08146 8.70844 6.09239 8.73307C6.71839 10.0166 7.75733 11.0526 9.04256 11.6751C9.06751 11.6863 9.09498 11.6907 9.12218 11.6878C9.14938 11.685 9.17533 11.6749 9.19741 11.6588L11.243 10.2978C11.3997 10.1925 11.5803 10.1284 11.7683 10.1113C11.9563 10.0942 12.1456 10.1247 12.3187 10.2L16.1409 11.8381C16.3672 11.9349 16.5561 12.1022 16.6795 12.3152C16.8029 12.5282 16.8541 12.7753 16.8255 13.0198ZM15.8557 12.8975C15.8585 12.8636 15.8505 12.8296 15.833 12.8003C15.8154 12.7711 15.7892 12.7481 15.7579 12.7346L11.9357 11.0965C11.9104 11.0868 11.8832 11.0832 11.8563 11.086C11.8294 11.0888 11.8035 11.098 11.7808 11.1128L9.74343 12.4738C9.57848 12.5821 9.38855 12.6465 9.1917 12.6608C8.99486 12.675 8.79763 12.6387 8.61878 12.5553C7.13638 11.8336 5.93745 10.6375 5.21223 9.15685C5.12754 8.98012 5.08979 8.78455 5.10264 8.589C5.11549 8.39344 5.17849 8.20449 5.28558 8.04035L6.63842 5.97034C6.65457 5.94827 6.66458 5.92232 6.66744 5.89512C6.67031 5.86792 6.66592 5.84045 6.65472 5.8155L5.01664 1.99331C5.00414 1.96466 4.98366 1.94021 4.95765 1.92287C4.93164 1.90553 4.9012 1.89603 4.86994 1.89552H4.85364C4.02822 2.00402 3.27018 2.40824 2.72016 3.0332C2.17014 3.65815 1.86549 4.4614 1.86272 5.29392C1.86488 8.10311 2.98178 10.7966 4.96818 12.783C6.95457 14.7694 9.64808 15.8863 12.4573 15.8885C13.2898 15.8857 14.093 15.581 14.718 15.031C15.3429 14.481 15.7472 13.723 15.8557 12.8975Z" fill="white"/>
</svg>
