<svg width="15" height="19" viewBox="0 0 15 19" fill="none" xmlns="http://www.w3.org/2000/svg">
<path d="M7.37637 18.4252C7.04921 18.33 6.83803 18.1038 6.65614 17.8269C5.19858 15.6121 3.73554 13.4009 2.27432 11.1884C1.64382 10.2334 1.1897 9.20589 0.979738 8.07468C0.803342 7.12336 0.880248 6.1885 1.14759 5.26889C1.54372 3.90472 2.30911 2.78204 3.42364 1.89963C4.24886 1.24651 5.17783 0.801954 6.21179 0.613519C8.50554 0.195182 10.5143 0.792807 12.1873 2.41188C13.2426 3.43333 13.8621 4.69932 14.0794 6.15801C14.3101 7.70451 13.9268 9.12601 13.1889 10.467C12.6139 11.5116 11.9041 12.4727 11.2528 13.4698C10.3006 14.9266 9.33381 16.3737 8.37859 17.8288C8.1967 18.1056 7.9849 18.3313 7.65775 18.4264H7.37698L7.37637 18.4252ZM7.53384 1.24773C7.2427 1.28432 6.97353 1.27761 6.70619 1.31603C5.76317 1.45202 4.90195 1.78986 4.12861 2.34358C3.08367 3.09122 2.35245 4.07669 1.95327 5.29694C1.66762 6.1696 1.58034 7.06115 1.75368 7.97406C1.94778 8.9949 2.37137 9.91634 2.93779 10.7768C4.40206 13.0008 5.87243 15.2218 7.34036 17.4434C7.37271 17.4921 7.40567 17.5397 7.43924 17.5879C7.48806 17.6574 7.53872 17.6635 7.59061 17.5915C7.62479 17.544 7.65775 17.4964 7.6901 17.4476C8.51409 16.1999 9.34297 14.9559 10.1602 13.7039C10.936 12.516 11.7625 11.3604 12.4778 10.134C12.9478 9.32786 13.2524 8.45825 13.3396 7.52828C13.4574 6.27205 13.1639 5.09875 12.4876 4.03827C11.3309 2.22528 9.64754 1.32884 7.53323 1.24834L7.53384 1.24773Z" fill="white"/>
<path d="M7.51412 10.6263C5.57445 10.6244 4.00281 9.04941 4.00586 7.1113C4.00892 5.17625 5.59581 3.59635 7.52694 3.60551C9.45745 3.61466 11.026 5.18785 11.0266 7.11558C11.0266 9.05429 9.45257 10.6281 7.51412 10.6263V10.6263ZM7.51534 4.38417C6.0145 4.38539 4.77734 5.62538 4.78283 7.1229C4.78832 8.62041 6.01206 9.84393 7.50862 9.8482C9.0119 9.85248 10.246 8.62468 10.2497 7.12107C10.2533 5.62294 9.01434 4.38295 7.51534 4.38417V4.38417Z" fill="white"/>
</svg>
