<svg width="17" height="13" viewBox="0 0 17 13" fill="none" xmlns="http://www.w3.org/2000/svg">
<path d="M0.886719 1.94655V11.5403C0.929937 11.6831 0.950184 11.8329 1.02027 11.9675C1.2862 12.4778 1.71332 12.7216 2.2814 12.7232C3.29878 12.7259 4.31617 12.7239 5.33356 12.7239C8.69216 12.7239 12.0504 12.7239 15.409 12.7243C15.7742 12.7243 16.1032 12.6323 16.3843 12.3861C16.6428 12.1594 16.7678 11.8661 16.8352 11.5399V1.94616C16.7919 1.80337 16.7717 1.65357 16.7016 1.51898C16.4357 1.0087 16.0086 0.764881 15.4405 0.76332C14.4282 0.760589 13.4162 0.76254 12.4039 0.76254C9.04024 0.76254 5.67659 0.76254 2.31293 0.76215C1.94772 0.76215 1.61871 0.854217 1.33759 1.10038C1.07906 1.32704 0.954077 1.62041 0.886719 1.94655ZM15.6138 12.0046C15.6118 12.0174 15.6099 12.0299 15.6079 12.0428H2.10424C2.12994 11.9648 2.18289 11.9367 2.22338 11.9C4.24726 10.0528 6.2723 8.20637 8.29657 6.35956C8.70578 5.98621 9.01571 5.9866 9.42571 6.36034C10.906 7.71014 12.3875 9.05878 13.8679 10.4082C14.4507 10.9395 15.0317 11.4724 15.6138 12.0046ZM2.09489 1.44447H15.6574C15.6013 1.50337 15.5717 1.5377 15.539 1.56852C14.5843 2.46267 13.63 3.35682 12.6745 4.2498C11.9538 4.92314 11.2117 5.5723 10.475 6.2277C10.3901 6.30338 10.3419 6.30455 10.2624 6.22497C10.1234 6.08569 9.97314 5.95696 9.82596 5.82588C9.23064 5.29727 8.57457 5.27815 7.95627 5.77711C7.79508 5.90741 7.63817 6.04512 7.49488 6.19493C7.38859 6.30572 7.32474 6.29636 7.21104 6.19727C5.49086 4.69415 3.83337 3.12353 2.1716 1.55721C2.14278 1.53029 2.10034 1.51118 2.09489 1.44447ZM1.56809 1.91534C1.62572 1.96098 1.64674 1.97502 1.66504 1.99258C3.34395 3.5788 5.02091 5.16658 6.76484 6.68218C6.86413 6.7684 6.81974 6.80546 6.75004 6.86866C5.07386 8.39636 3.39924 9.92601 1.72345 11.4541C1.68334 11.4908 1.65219 11.545 1.56809 11.5489V1.91534ZM16.1561 11.5516C16.0744 11.5427 16.0479 11.4997 16.0148 11.4697C14.3316 9.9342 12.6496 8.39753 10.9648 6.8632C10.8842 6.78947 10.8772 6.75162 10.9637 6.67633C12.6951 5.17048 14.3612 3.59362 16.0296 2.01911C16.06 1.99063 16.0814 1.9364 16.1561 1.96137V11.5516Z" fill="white"/>
</svg>
