<svg width="16" height="13" viewBox="0 0 16 13" fill="none" xmlns="http://www.w3.org/2000/svg">
<path d="M0 2.18613V11.8109C0.0433583 11.9541 0.0636703 12.1044 0.133981 12.2395C0.400771 12.7514 0.829277 12.996 1.39918 12.9976C2.41986 13.0003 3.44054 12.9983 4.46122 12.9983C7.83067 12.9983 11.1997 12.9983 14.5692 12.9987C14.9356 12.9987 15.2656 12.9064 15.5477 12.6594C15.807 12.432 15.9324 12.1377 16 11.8105V2.18574C15.9566 2.04249 15.9363 1.8922 15.866 1.75718C15.5992 1.24525 15.1707 1.00064 14.6008 0.999077C13.5852 0.996337 12.57 0.998294 11.5544 0.998294C8.17988 0.998294 4.80535 0.998294 1.43082 0.997903C1.06443 0.997903 0.734357 1.09027 0.452333 1.33723C0.192964 1.56462 0.0675765 1.85893 0 2.18613ZM14.7746 12.2766C14.7727 12.2896 14.7707 12.3021 14.7688 12.315H1.22145C1.24724 12.2367 1.30036 12.2085 1.34098 12.1718C3.3714 10.3186 5.40299 8.46619 7.4338 6.6134C7.84434 6.23885 8.15527 6.23924 8.56659 6.61418C10.0517 7.96835 11.538 9.32135 13.0231 10.6751C13.6079 11.2082 14.1907 11.7428 14.7746 12.2766ZM1.21208 1.68242H14.8184C14.7621 1.74152 14.7325 1.77596 14.6996 1.80688C13.7419 2.70392 12.7845 3.60096 11.8259 4.49683C11.1029 5.17235 10.3583 5.8236 9.6193 6.48111C9.53414 6.55704 9.48571 6.55822 9.40602 6.47837C9.26657 6.33865 9.11579 6.2095 8.96814 6.07799C8.37089 5.54768 7.7127 5.5285 7.0924 6.02907C6.93069 6.15979 6.77327 6.29795 6.62953 6.44824C6.52289 6.55939 6.45883 6.55 6.34477 6.45059C4.61903 4.94261 2.95618 3.36692 1.28903 1.79553C1.26013 1.76853 1.21755 1.74935 1.21208 1.68242ZM0.683577 2.15482C0.741388 2.20061 0.762481 2.2147 0.78084 2.23231C2.46517 3.82365 4.14756 5.41656 5.89712 6.93707C5.99673 7.02356 5.9522 7.06075 5.88228 7.12415C4.20068 8.65679 2.52064 10.1914 0.839433 11.7244C0.799199 11.7612 0.76795 11.8156 0.683577 11.8195V2.15482ZM15.3188 11.8223C15.2367 11.8133 15.2102 11.7702 15.177 11.7401C13.4883 10.1996 11.8009 8.65796 10.1107 7.11867C10.0298 7.0447 10.0228 7.00674 10.1095 6.9312C11.8466 5.42048 13.518 3.83853 15.1918 2.25892C15.2223 2.23035 15.2438 2.17595 15.3188 2.201V11.8223Z" fill="white"/>
</svg>
