<svg width="16" height="16" viewBox="0 0 16 16" fill="none" xmlns="http://www.w3.org/2000/svg">
<path d="M8.75529 0.625C8.45393 0.625 8.15296 0.625 7.8516 0.625C7.80872 0.6549 7.75836 0.647425 7.71075 0.650966C6.64064 0.730044 5.63308 1.02039 4.69201 1.53814C1.86487 3.09334 0.369076 6.54799 1.05403 9.54273C1.37939 10.9657 1.96874 12.2562 2.97 13.3275C4.69634 15.175 6.87355 15.7557 9.31828 15.472C10.5623 15.328 11.6989 14.8547 12.7238 14.1328C14.3537 12.9844 15.3514 11.428 15.6925 9.45933C15.7429 9.16898 15.7704 8.87431 15.8086 8.5816C15.8086 8.25112 15.8086 7.92104 15.8086 7.59057C15.7999 7.53903 15.7866 7.48788 15.783 7.43634C15.7087 6.4217 15.4628 5.45231 14.9714 4.55924C13.7951 2.42098 11.9416 1.22536 9.58896 0.743421C9.31474 0.687161 9.03344 0.663556 8.75529 0.625V0.625ZM13.8718 8.32469C14.3089 8.32469 14.746 8.32863 15.1827 8.32194C15.2952 8.32037 15.3298 8.35381 15.3148 8.46239C15.2999 8.56783 15.2979 8.67523 15.2873 8.78146C15.1516 10.1455 14.6507 11.3611 13.8029 12.4368C13.7309 12.528 13.6939 12.521 13.6176 12.4434C13.1829 12.002 12.6974 11.6236 12.1623 11.3108C12.0762 11.2604 12.0538 11.2132 12.0782 11.116C12.2977 10.2418 12.4078 9.35232 12.4263 8.45177C12.4283 8.34909 12.4602 8.32115 12.5605 8.32233C12.9976 8.32745 13.4347 8.3243 13.8718 8.3243V8.32469ZM13.8781 7.84786C13.4362 7.84786 12.9944 7.8455 12.5522 7.84983C12.4574 7.85062 12.4248 7.82269 12.4267 7.72669C12.4295 7.58624 12.4192 7.44539 12.4114 7.30494C12.3697 6.53737 12.2603 5.78003 12.0754 5.03371C12.0581 4.96407 12.0628 4.92079 12.1328 4.88066C12.6915 4.55924 13.1939 4.16424 13.6448 3.70393C13.6983 3.64925 13.7321 3.64335 13.7789 3.70944C13.8604 3.82393 13.9516 3.93173 14.0331 4.04661C14.8089 5.14347 15.2346 6.36308 15.3152 7.70426C15.3223 7.81954 15.2905 7.85259 15.1744 7.85101C14.7424 7.84432 14.31 7.84826 13.8781 7.84826V7.84786ZM2.83033 7.84786C2.38852 7.84786 1.9471 7.84472 1.50528 7.85023C1.40181 7.85141 1.3664 7.82032 1.37978 7.71843C1.39394 7.61299 1.3963 7.50598 1.40693 7.39976C1.54187 6.03103 2.04467 4.81181 2.89485 3.73305C2.95859 3.652 2.99479 3.6461 3.06914 3.72242C3.50506 4.16935 3.99526 4.5494 4.53307 4.86532C4.62435 4.91883 4.63379 4.97194 4.61097 5.06321C4.3938 5.93268 4.28325 6.81631 4.26594 7.71135C4.26397 7.81836 4.23525 7.85219 4.12548 7.85062C3.6935 7.84432 3.26153 7.84826 2.82994 7.84826L2.83033 7.84786ZM1.38135 8.51708C1.40102 8.44311 1.31447 8.32115 1.49781 8.32233C2.38104 8.32824 3.26428 8.32627 4.14752 8.32351C4.23643 8.32351 4.26397 8.35184 4.26554 8.43957C4.28285 9.34956 4.39616 10.2474 4.61569 11.1314C4.63418 11.2053 4.62867 11.251 4.55235 11.2958C4.00156 11.6196 3.50033 12.0079 3.0538 12.4655C2.994 12.5265 2.96252 12.5241 2.9098 12.4576C1.99037 11.3041 1.48718 9.99006 1.38135 8.51747V8.51708ZM8.1089 12.8959C8.1089 13.5462 8.1089 14.1969 8.1089 14.8473C8.1089 14.9902 8.0373 15.0438 7.89409 15.0082C7.88937 15.007 7.88504 15.005 7.88032 15.0038C7.31654 14.8599 6.88102 14.5199 6.51042 14.0899C5.8774 13.3554 5.50325 12.4867 5.21999 11.5712C5.19127 11.4776 5.24281 11.4642 5.29985 11.4363C6.13903 11.0283 7.0262 10.8044 7.95625 10.7415C8.07585 10.7332 8.11323 10.76 8.11205 10.8863C8.10575 11.5563 8.1089 12.2259 8.1089 12.8959V12.8959ZM8.58573 3.27707C8.58573 2.62674 8.58573 1.97602 8.58573 1.32569C8.58573 1.18248 8.65733 1.12871 8.80054 1.16438C8.80526 1.16556 8.80959 1.16753 8.81431 1.16871C9.39343 1.31782 9.83642 1.67033 10.2129 2.11568C10.8286 2.8443 11.1969 3.7 11.4746 4.60133C11.5038 4.69575 11.4506 4.70834 11.3944 4.73588C10.5505 5.14662 9.65899 5.37008 8.72382 5.43264C8.59832 5.4409 8.58258 5.39369 8.58337 5.28707C8.5873 4.61707 8.58534 3.94746 8.58534 3.27746L8.58573 3.27707ZM8.1089 3.27589C8.1089 3.95061 8.10615 4.62533 8.11165 5.30005C8.11244 5.41179 8.08136 5.43893 7.97199 5.43146C7.0321 5.36851 6.13588 5.14229 5.28687 4.73234C5.21802 4.6993 5.19914 4.66743 5.22392 4.58874C5.31992 4.28345 5.42378 3.9813 5.54928 3.68662C5.84632 2.98948 6.21535 2.33836 6.77165 1.81039C7.11157 1.48778 7.4987 1.24858 7.96373 1.14668C8.07939 1.1215 8.11283 1.14275 8.11165 1.26589C8.10615 1.93549 8.1089 2.60549 8.1089 3.2755V3.27589ZM8.58573 12.8798C8.58573 12.2149 8.58927 11.5496 8.58258 10.8847C8.5814 10.7561 8.62271 10.7265 8.73995 10.7423C8.91306 10.7659 9.08774 10.7745 9.26084 10.7974C10.0119 10.8957 10.7275 11.1129 11.4097 11.4422C11.4809 11.4764 11.4971 11.511 11.4695 11.5862C11.403 11.7683 11.3523 11.9556 11.2838 12.137C11.0073 12.8723 10.6587 13.5682 10.1248 14.1556C9.74239 14.5766 9.29743 14.9 8.72815 15.0259C8.60619 15.0526 8.58219 15.02 8.58298 14.9031C8.5877 14.2284 8.58534 13.5537 8.58534 12.879L8.58573 12.8798ZM10.2763 7.84786C9.76167 7.84786 9.24747 7.84511 8.73287 7.84983C8.62468 7.85101 8.58101 7.83016 8.58258 7.70781C8.58966 7.15465 8.58848 6.60111 8.58337 6.04795C8.58258 5.94251 8.60973 5.90632 8.71949 5.9016C9.69558 5.85911 10.6248 5.62266 11.5089 5.20878C11.5962 5.16786 11.6261 5.16826 11.6509 5.27527C11.835 6.08218 11.9231 6.90011 11.9554 7.7259C11.9593 7.82426 11.9294 7.84983 11.8346 7.84944C11.3153 7.8455 10.796 7.84747 10.2767 7.84786H10.2763ZM10.2664 8.32469C10.7858 8.32469 11.3051 8.32666 11.8244 8.32273C11.9224 8.32194 11.9597 8.34279 11.9554 8.45098C11.9224 9.27167 11.835 10.0849 11.6529 10.8871C11.6289 10.9929 11.6021 11.0071 11.5045 10.961C10.6205 10.5471 9.69125 10.3115 8.71517 10.2698C8.61563 10.2655 8.58298 10.2356 8.58416 10.134C8.58848 9.57618 8.58927 9.01791 8.58376 8.45964C8.58258 8.34869 8.61642 8.32115 8.72382 8.32194C9.23803 8.32705 9.75262 8.3243 10.2672 8.3243L10.2664 8.32469ZM6.43921 7.84786C5.91517 7.84786 5.39113 7.84668 4.8667 7.84905C4.78093 7.84944 4.7349 7.84 4.73922 7.73259C4.77149 6.91191 4.8604 6.0991 5.03823 5.29573C5.06695 5.1655 5.10629 5.17258 5.20661 5.2194C6.08277 5.62541 7.00299 5.86029 7.96923 5.9012C8.08726 5.90632 8.11244 5.94763 8.11126 6.05661C8.10654 6.60504 8.10497 7.15347 8.11205 7.70151C8.11362 7.82977 8.06798 7.85141 7.9535 7.85023C7.44873 7.84472 6.94397 7.84786 6.43921 7.84786V7.84786ZM6.42662 8.32469C6.94122 8.32469 7.45542 8.32745 7.97002 8.32233C8.07546 8.32115 8.11283 8.34555 8.11165 8.45846C8.10575 9.01633 8.10693 9.5746 8.11126 10.1329C8.11205 10.2328 8.08293 10.2658 7.98143 10.2698C7.00456 10.3087 6.07529 10.544 5.19206 10.9602C5.09803 11.0047 5.06734 10.9992 5.04255 10.889C4.86001 10.0817 4.77227 9.2638 4.73962 8.438C4.73529 8.32784 4.78644 8.32351 4.86906 8.32391C5.38837 8.32587 5.90769 8.32509 6.42701 8.32509L6.42662 8.32469ZM6.58045 14.815C6.53363 14.815 6.51829 14.8182 6.50491 14.8146C5.29631 14.4774 4.25217 13.861 3.36618 12.9722C3.29261 12.8982 3.32683 12.8652 3.37955 12.8121C3.76432 12.4246 4.18843 12.0874 4.64913 11.7939C4.74591 11.7325 4.78368 11.7321 4.82106 11.8533C4.99928 12.4293 5.23533 12.9813 5.53748 13.5037C5.81563 13.9849 6.14808 14.4239 6.58006 14.815H6.58045ZM6.57219 1.34536C6.41482 1.51335 6.2665 1.65852 6.13313 1.81668C5.51663 2.54687 5.1177 3.39431 4.82735 4.29604C4.78172 4.43806 4.74159 4.43491 4.63025 4.36331C4.18332 4.07651 3.77337 3.74564 3.3945 3.37385C3.31621 3.29713 3.30795 3.25425 3.39136 3.17124C4.14673 2.42098 5.02367 1.86507 6.02493 1.50548C6.19686 1.44371 6.36918 1.37998 6.57219 1.34497V1.34536ZM10.1264 1.36857C10.1673 1.34575 10.1944 1.35834 10.222 1.36582C11.4137 1.70534 12.4452 2.31515 13.3202 3.19288C13.3957 3.26841 13.3702 3.30422 13.3107 3.36362C12.9244 3.74918 12.5007 4.08673 12.0404 4.38062C11.9322 4.44986 11.9062 4.42075 11.872 4.31374C11.6222 3.52847 11.2834 2.78568 10.7968 2.11568C10.6001 1.84461 10.3766 1.59715 10.1264 1.36896V1.36857ZM10.1437 14.8123C10.2861 14.6549 10.4352 14.5097 10.5682 14.35C11.1831 13.6119 11.5832 12.7613 11.8736 11.8541C11.907 11.7502 11.9314 11.7251 12.0337 11.7904C12.494 12.0831 12.9169 12.421 13.3048 12.8046C13.382 12.8809 13.3827 12.9195 13.3048 12.9962C12.6647 13.6328 11.9334 14.134 11.1056 14.4932C10.7952 14.6277 10.4777 14.743 10.1429 14.8126L10.1437 14.8123Z" fill="white"/>
</svg>
