<svg width="104" height="26" viewBox="0 0 104 26" fill="none" xmlns="http://www.w3.org/2000/svg">
<path d="M11.0241 25.759C7.47917 26.1077 3.93425 24.484 1.87301 21.5854C0.628308 19.9219 -0.0288978 17.85 0.000975142 15.7781C0.000975142 10.5188 0.000975142 5.25938 0.000975142 0C1.12619 0 2.2514 0 3.38658 0C3.38658 5.23946 3.38658 10.4789 3.38658 15.7184C3.33679 18.5573 5.32832 21.2467 8.02684 22.0934C12.6173 23.6473 17.5961 19.5334 16.7697 14.7223C16.3813 11.3754 13.1451 8.73575 9.7993 8.94494C9.63998 7.82931 9.51053 6.71368 9.37112 5.5881C14.6785 5.10001 19.7868 9.39318 20.1652 14.7123C20.7726 20.1112 16.461 25.3905 11.0241 25.7491V25.759Z" fill="white"/>
<path d="M10.3086 12.4963C11.4139 12.4664 12.4993 13.1139 12.9972 14.1C13.7639 14.0502 14.5207 13.9606 15.2775 13.9107C14.6601 11.7891 12.5092 10.285 10.3086 10.3049C10.3086 11.032 10.3086 11.7691 10.3086 12.4963Z" fill="white"/>
<path d="M7.70898 0.290683C8.02763 1.49596 8.30645 2.7112 8.61513 3.91647C15.5158 2.96022 22.1575 8.60808 21.7294 15.6903C23.0039 15.7401 24.2686 15.8198 25.5431 15.8497C26.0808 6.92468 17.7164 -0.954433 8.84416 0.141271C8.46577 0.191076 8.08738 0.191076 7.71894 0.300646L7.70898 0.290683Z" fill="white"/>
<path d="M27.8029 17.8301C27.793 19.2446 28.1315 20.669 28.8784 21.8842C30.382 24.4143 33.2498 26.028 36.1972 25.7789C39.6426 25.6295 42.7593 22.8504 43.3767 19.4637C43.7352 14.8617 43.4165 10.21 43.5161 5.58809C42.3909 5.58809 41.2557 5.58809 40.1305 5.58809C40.1305 9.82149 40.1405 14.0649 40.1305 18.2983C39.9911 21.5356 35.9184 23.5377 33.2597 21.6949C32.3237 21.0774 31.5669 20.1311 31.2981 19.0254C30.9595 14.5729 31.2682 10.0506 31.1686 5.57812C30.0434 5.57812 28.9182 5.57812 27.793 5.57812C27.793 9.65215 27.793 13.7361 27.793 17.8102L27.8029 17.8301Z" fill="white"/>
<path d="M46.973 15.786C46.953 18.2662 47.909 20.7166 49.6217 22.5196C54.1325 27.7491 63.0745 26.4641 66.0916 20.2983C70.6124 11.2836 60.605 1.88047 51.902 6.99044C51.902 8.44474 51.902 9.89904 51.902 11.3533C57.299 5.12774 66.9281 11.951 62.8753 19.1229C60.6548 23.0475 54.6603 23.5555 51.892 19.9696C51.205 19.1627 50.717 18.1866 50.5079 17.1506C50.1395 11.4629 50.488 5.71544 50.3685 0.0078125C49.2334 0.0078125 48.1081 0.0078125 46.973 0.0078125C46.973 5.2672 46.973 10.5266 46.973 15.7959V15.786Z" fill="white"/>
<path d="M70.4708 15.3078C70.4111 16.7024 70.6202 18.1168 71.138 19.4217C73.3486 25.3684 81.3446 27.7889 86.423 23.944C96.7292 16.294 86.5624 0.68516 75.3999 6.99044C75.3999 8.44474 75.3999 9.89904 75.3999 11.3533C81.5935 4.47032 91.6408 13.5447 85.3874 20.3879C82.659 23.3364 77.481 22.9778 75.1709 19.7006C74.4041 18.6946 73.9461 17.4594 73.8764 16.2043C73.8764 10.8055 73.8764 5.40665 73.8764 0.0078125C72.7412 0.0078125 71.606 0.0078125 70.4808 0.0078125C70.4808 5.10782 70.4808 10.2178 70.4808 15.3178L70.4708 15.3078Z" fill="white"/>
<path d="M93.9316 15.7782C93.9017 17.2424 94.2303 18.7067 94.8576 20.0215C96.5006 23.4381 100.145 25.9383 103.989 25.769C103.969 24.6633 104.029 23.5477 103.979 22.442C100.743 22.5118 97.7354 19.8821 97.347 16.6746C97.1778 11.1264 97.347 5.55821 97.2873 0C96.172 0 95.0468 0 93.9316 0C93.9316 5.25938 93.9316 10.5188 93.9316 15.7782Z" fill="white"/>
</svg>
