<svg width="180" height="180" viewBox="0 0 180 180" fill="none" xmlns="http://www.w3.org/2000/svg">
<circle cx="90" cy="90" r="90" fill="#EDEDED"/>
<mask id="mask0_5951_726" style="mask-type:alpha" maskUnits="userSpaceOnUse" x="0" y="0" width="180" height="180">
<circle cx="90" cy="90" r="90" fill="#EDEDED"/>
</mask>
<g mask="url(#mask0_5951_726)">
<path d="M90.5 23C100.114 23 109.335 26.8193 116.133 33.6174C122.931 40.4155 126.75 49.6359 126.75 59.25C126.75 68.8641 122.931 78.0845 116.133 84.8826C109.335 91.6807 100.114 95.5 90.5 95.5C80.8859 95.5 71.6655 91.6807 64.8674 84.8826C58.0693 78.0845 54.25 68.8641 54.25 59.25C54.25 49.6359 58.0693 40.4155 64.8674 33.6174C71.6655 26.8193 80.8859 23 90.5 23ZM90.5 113.625C130.556 113.625 163 129.847 163 149.875V157.022C163 163.559 158.767 169.343 152.536 171.32L95.0358 189.561C92.0844 190.497 88.9156 190.497 85.9642 189.561L28.4642 171.32C22.2333 169.343 18 163.559 18 157.022V149.875C18 129.847 50.4436 113.625 90.5 113.625Z" fill="#CFCFCF"/>
</g>
</svg>
