<?xml version="1.0" encoding="utf-8"?>
<!-- Generator: Adobe Illustrator 26.0.1, SVG Export Plug-In . SVG Version: 6.00 Build 0)  -->
<svg width="32px" version="1.1" id="Layer_1" xmlns="http://www.w3.org/2000/svg"
	xmlns:xlink="http://www.w3.org/1999/xlink" x="0px" y="0px" viewBox="0 0 23 21"
	style="enable-background:new 0 0 23 21;" xml:space="preserve">
	<style type="text/css">
		.st0 {
			fill: #EE352E;
		}

		.st1 {
			fill: #FDB714;
		}

		.st2 {
			fill: #00A94D;
		}

		.st3 {
			fill: #497CBF;
		}
	</style>
	<path class="st0" d="M20.9,4.7c-2.2-1.3-5.1-0.5-6.4,1.7L11.3,12c-0.9,1.6,0.3,2.2,1.6,3l3.1,1.8c1.1,0.6,2.4,0.2,3-0.8l3.3-5.8
	C23.5,8.3,22.8,5.8,20.9,4.7z" />
	<path class="st1" d="M17.2,7l-3.1-1.8c-1.7-1-2.7-1-3.4,0.1l-4.6,8c-1.3,2.2-0.5,5.1,1.7,6.4c1.9,1.1,4.4,0.5,5.5-1.5L18,10
	C18.6,8.9,18.3,7.6,17.2,7z" />
	<path class="st2" d="M17.8,2.9l-2.2-1.3C13.2,0.2,10.1,1,8.7,3.5l-4.2,7.2c-0.6,1.1-0.2,2.4,0.8,3.1l2.5,1.4
	c1.2,0.7,2.8,0.3,3.5-0.9L16,6c1-1.7,3.2-2.3,4.9-1.3L17.8,2.9z" />
	<path class="st3" d="M9.3,5.5L6.9,4.2C5.8,3.6,4.5,3.9,3.9,5L1,9.9c-1.4,2.4-0.6,5.5,1.9,6.9l1.8,1l2.2,1.3l0.9,0.6
	c-1.7-1.1-2.2-3.4-1.2-5.2l0.7-1.3l2.7-4.7C10.7,7.5,10.3,6.1,9.3,5.5z" />
</svg>