<?xml version="1.0" encoding="utf-8"?>
<!-- Generator: Adobe Illustrator 26.0.1, SVG Export Plug-In . SVG Version: 6.00 Build 0)  -->
<svg version="1.1" id="Layer_1" xmlns="http://www.w3.org/2000/svg" xmlns:xlink="http://www.w3.org/1999/xlink" x="0px" y="0px"
	 viewBox="0 0 18 24" style="enable-background:new 0 0 18 24;" xml:space="preserve">
<style type="text/css">
	.st0{fill:#1F87FA;}
</style>
<path class="st0" d="M8.4,23.6c-0.4-0.1-0.7-0.4-0.9-0.8c-1.9-2.8-3.7-5.7-5.6-8.5c-0.8-1.2-1.4-2.5-1.7-4C0,9.1,0.1,7.9,0.4,6.7
	C0.9,5,1.9,3.5,3.3,2.4C4.4,1.6,5.6,1,6.9,0.8c2.9-0.5,5.5,0.2,7.7,2.3C15.9,4.4,16.7,6,17,7.9c0.3,2-0.2,3.8-1.1,5.5
	c-0.7,1.3-1.6,2.6-2.5,3.8c-1.2,1.9-2.5,3.7-3.7,5.6c-0.2,0.4-0.5,0.6-0.9,0.8L8.4,23.6z M8.6,1.6c-0.4,0-0.7,0-1.1,0.1
	C6.3,1.8,5.2,2.3,4.2,3C2.9,3.9,2,5.2,1.5,6.8C1.1,7.9,1,9,1.2,10.2c0.2,1.3,0.8,2.5,1.5,3.6c1.9,2.8,3.8,5.7,5.6,8.6
	c0,0.1,0.1,0.1,0.1,0.2c0.1,0.1,0.1,0.1,0.2,0c0-0.1,0.1-0.1,0.1-0.2c1.1-1.6,2.1-3.2,3.2-4.8c1-1.5,2.1-3,3-4.6
	c0.6-1,1-2.2,1.1-3.3c0.1-1.6-0.2-3.1-1.1-4.5C13.5,2.8,11.3,1.7,8.6,1.6z"/>
<path class="st0" d="M8.6,13.6c-2.5,0-4.5-2-4.5-4.5c0-2.5,2-4.5,4.5-4.5c2.5,0,4.5,2,4.5,4.5C13.1,11.6,11.1,13.6,8.6,13.6z
	 M8.6,5.6c-1.9,0-3.5,1.6-3.5,3.5c0,1.9,1.6,3.5,3.5,3.5c1.9,0,3.5-1.6,3.5-3.5C12.1,7.2,10.5,5.6,8.6,5.6z"/>
</svg>
