<?xml version="1.0" encoding="utf-8"?>
<!-- Generator: Adobe Illustrator 26.0.1, SVG Export Plug-In . SVG Version: 6.00 Build 0)  -->
<svg version="1.1" id="Layer_1" xmlns="http://www.w3.org/2000/svg" xmlns:xlink="http://www.w3.org/1999/xlink" x="0px" y="0px"
	 viewBox="0 0 24 18" style="enable-background:new 0 0 24 18;" xml:space="preserve">
<style type="text/css">
	.st0{fill:#1F87FA;}
</style>
<path class="st0" d="M0.1,16.1V2.3c0.1-0.2,0.1-0.4,0.2-0.6c0.4-0.7,1-1.1,1.8-1.1c1.5,0,2.9,0,4.4,0c4.8,0,9.7,0,14.5,0
	c0.5,0,1,0.1,1.4,0.5c0.4,0.3,0.6,0.7,0.6,1.2v13.8c-0.1,0.2-0.1,0.4-0.2,0.6c-0.4,0.7-1,1.1-1.8,1.1c-1.5,0-2.9,0-4.4,0
	c-4.8,0-9.7,0-14.6,0c-0.5,0-1-0.1-1.4-0.5C0.4,17,0.2,16.6,0.1,16.1z M21.3,1.6C21.3,1.6,21.3,1.6,21.3,1.6L1.8,1.6
	c0,0.1,0.1,0.2,0.2,0.2c2.9,2.7,5.8,5.3,8.8,8c0.6,0.5,1,0.5,1.6,0c2.1-2,4.3-3.9,6.4-5.8C19.6,3.2,20.5,2.4,21.3,1.6z M1.8,16.9
	h19.6c-0.1-0.1-0.1-0.1-0.2-0.2c-1.4-1.3-2.8-2.6-4.1-3.9c-1-1-2.1-1.9-3.2-2.8c-0.1-0.1-0.2-0.1-0.3,0c-0.2,0.2-0.4,0.4-0.6,0.6
	c-0.9,0.8-1.8,0.8-2.7,0.1C10,10.4,9.8,10.2,9.6,10c-0.1-0.2-0.2-0.1-0.4,0c-2.5,2.2-4.9,4.4-7.3,6.7C1.9,16.7,1.8,16.8,1.8,16.9z
	 M1.1,16.2c0.1-0.1,0.1-0.1,0.1-0.1c2.4-2.3,4.8-4.6,7.4-6.8c0.1-0.1,0.1-0.2,0-0.3C6.1,6.8,3.7,4.6,1.3,2.4c-0.1,0-0.1-0.1-0.2-0.1
	V16.2z M22.1,2.3c-0.1,0-0.2,0.1-0.2,0.1c-2.4,2.2-4.9,4.4-7.3,6.6c-0.1,0.1-0.1,0.2,0,0.3c2.5,2.2,4.9,4.4,7.3,6.7
	c0,0,0.1,0.1,0.2,0.1L22.1,2.3L22.1,2.3z"/>
</svg>
