<?xml version="1.0" encoding="utf-8"?>
<!-- Generator: Adobe Illustrator 26.0.1, SVG Export Plug-In . SVG Version: 6.00 Build 0)  -->
<svg width="45px" version="1.1" id="Layer_1" xmlns="http://www.w3.org/2000/svg"
	xmlns:xlink="http://www.w3.org/1999/xlink" x="0px" y="0px" viewBox="0 0 39 13"
	style="enable-background:new 0 0 39 13;" xml:space="preserve">
	<style type="text/css">
		.st0 {
			fill: #00BAF2;
		}

		.st1 {
			fill: #22376E;
		}
	</style>
	<path class="st0" d="M37.9,4c-0.3-1-1.3-1.7-2.4-1.7h0c-0.7,0-1.3,0.3-1.8,0.8c-0.4-0.5-1.1-0.8-1.8-0.8h0c-0.6,0-1.2,0.2-1.6,0.6
	V2.8c0-0.2-0.2-0.3-0.4-0.3h-1.7c-0.2,0-0.4,0.2-0.4,0.4v9.1c0,0.2,0.2,0.4,0.4,0.4H30c0.2,0,0.3-0.1,0.4-0.3V5.4c0,0,0,0,0-0.1
	c0-0.3,0.2-0.5,0.6-0.6h0.3c0.1,0,0.3,0.1,0.4,0.1c0.1,0.1,0.2,0.3,0.2,0.5l0,6.5c0,0.2,0.2,0.4,0.4,0.4h1.7c0.2,0,0.4-0.2,0.4-0.3
	V5.4c0-0.2,0.1-0.4,0.3-0.5c0.1-0.1,0.2-0.1,0.3-0.1h0.3c0.4,0,0.6,0.3,0.6,0.6l0,6.5c0,0.2,0.2,0.4,0.4,0.4h1.7
	c0.2,0,0.4-0.2,0.4-0.4V4.9C38.1,4.4,38,4.2,37.9,4z M26.6,2.4h-0.9V0.9c0-0.2-0.2-0.3-0.3-0.3c0,0,0,0-0.1,0
	c-1.1,0.3-0.8,1.8-2.8,1.9h-0.2c0,0,0,0-0.1,0c-0.2,0-0.3,0.2-0.3,0.4v1.7c0,0.2,0.2,0.4,0.4,0.4h1v7.1c0,0.2,0.2,0.4,0.4,0.4h1.6
	c0.2,0,0.4-0.2,0.4-0.4V4.9h0.9c0.2,0,0.4-0.2,0.4-0.4V2.8C27,2.6,26.8,2.4,26.6,2.4z" />
	<path class="st1" d="M20.6,2.4H19c-0.2,0-0.4,0.2-0.4,0.4v3.5c0,0.2-0.2,0.4-0.4,0.4h-0.7c-0.2,0-0.4-0.2-0.4-0.4l0-3.4
	c0-0.2-0.2-0.4-0.4-0.4h-1.7c-0.2,0-0.4,0.2-0.4,0.4v3.8c0,1.4,1,2.5,2.5,2.5c0,0,1.1,0,1.1,0c0.2,0,0.4,0.2,0.4,0.4
	s-0.1,0.4-0.3,0.4c0,0,0,0,0,0l-2.4,0c-0.2,0-0.4,0.2-0.4,0.4v1.7c0,0.2,0.2,0.4,0.4,0.4h2.7c1.4,0,2.5-1,2.5-2.5v-7
	C21,2.6,20.8,2.4,20.6,2.4z M4.5,5.5v1c0,0.2-0.2,0.4-0.4,0.4H3V4.9h1.1c0.2,0,0.4,0.2,0.4,0.4V5.5z M4.6,2.4H1
	c-0.2,0-0.4,0.2-0.4,0.4v1.6v0c0,0,0,0,0,0v7.4c0,0.2,0.1,0.4,0.3,0.4h1.7c0.2,0,0.4-0.2,0.4-0.4l0-2.5h1.6c1.3,0,2.3-0.9,2.3-2.3
	V4.7C6.9,3.4,6,2.4,4.6,2.4z M11.4,9.4v0.3c0,0,0,0,0,0.1c0,0,0,0,0,0.1c-0.1,0.2-0.2,0.2-0.4,0.2h-0.7c-0.2,0-0.4-0.2-0.4-0.4V9.4
	v0V8.5V8.3c0-0.2,0.2-0.4,0.4-0.4H11c0.2,0,0.4,0.2,0.4,0.4L11.4,9.4L11.4,9.4z M11.1,2.5H8.8c-0.2,0-0.4,0.2-0.4,0.4v0.6v0v0v0.9
	c0,0.2,0.2,0.4,0.4,0.4H11c0.2,0,0.3,0.1,0.3,0.3v0.2c0,0.2-0.2,0.3-0.3,0.3H10c-1.4,0-2.5,1-2.5,2.3v1.9c0,1.3,0.9,2.3,2.3,2.3h3
	c0.5,0,1-0.4,1-0.9V5C13.8,3.4,13,2.5,11.1,2.5z" />
</svg>