<svg width="45" height="15" viewBox="0 0 45 15" fill="none" xmlns="http://www.w3.org/2000/svg">
<path d="M44.8487 4.16013C44.4402 2.99225 43.3271 2.1536 42.0196 2.1536H41.9922C41.1423 2.1536 40.3763 2.50736 39.831 3.07526C39.2848 2.50736 38.5188 2.1536 37.6697 2.1536H37.6424C36.8952 2.1536 36.2123 2.42716 35.6878 2.87999V2.64981C35.6698 2.42056 35.4812 2.24041 35.2481 2.24041H33.2426C32.9973 2.24041 32.7992 2.4385 32.7992 2.68471V13.5758C32.7992 13.822 32.9973 14.0201 33.2426 14.0201H35.2481C35.4717 14.0201 35.6557 13.8531 35.6849 13.6371L35.684 5.81855C35.6838 5.7924 35.685 5.76626 35.6877 5.74025C35.7198 5.3912 35.9755 5.10443 36.3793 5.06857H36.749C36.9179 5.08366 37.0603 5.1431 37.1726 5.23271C37.3471 5.37139 37.4443 5.58459 37.4443 5.81855L37.4518 13.5984C37.4518 13.8446 37.6508 14.0437 37.8952 14.0437H39.9007C40.1376 14.0437 40.33 13.855 40.3413 13.6201L40.3404 5.80817C40.3394 5.55157 40.4583 5.31951 40.6668 5.18177C40.7696 5.11572 40.8932 5.07141 41.0356 5.0582H41.4054C41.8394 5.09593 42.1016 5.42516 42.1007 5.80817L42.1082 13.5777C42.1082 13.8239 42.3073 14.022 42.5516 14.022H44.5572C44.8015 14.022 45.0005 13.8239 45.0005 13.5777V5.2214C45.0005 4.6516 44.9364 4.40917 44.8487 4.16013ZM31.2713 2.26878H30.1242V0.404697C30.1242 0.181116 29.9431 0 29.7195 0C29.6931 0 29.6676 0.00374372 29.6431 0.00847686C28.3714 0.357526 28.6261 2.11879 26.3045 2.26878H26.0791C26.0451 2.26878 26.013 2.27348 25.9819 2.28009C25.7838 2.32445 25.6348 2.50083 25.6348 2.71217V4.71773C25.6348 4.96207 25.8338 5.1611 26.0791 5.1611H27.2894L27.2875 13.6655C27.2875 13.9079 27.4837 14.1042 27.7262 14.1042H29.7091C29.9506 14.1042 30.1469 13.9079 30.1469 13.6655L30.1478 5.1611H31.2713C31.5156 5.1611 31.7147 4.96207 31.7147 4.71773V2.71217C31.7147 2.46784 31.5156 2.26878 31.2713 2.26878Z" fill="#00BAF2"/>
<path d="M24.0549 2.26879H22.0493C21.805 2.26879 21.6069 2.46785 21.6069 2.71216V6.85919C21.6022 7.11576 21.3946 7.32143 21.1371 7.32143H20.2975C20.0371 7.32143 19.8268 7.11199 19.8268 6.85162L19.8192 2.71218C19.8192 2.46785 19.6202 2.26882 19.3759 2.26882H17.3703C17.125 2.26882 16.9269 2.46785 16.9269 2.71218V7.25728C16.9269 8.98362 18.158 10.2147 19.8852 10.2147C19.8852 10.2147 21.1814 10.2147 21.2211 10.2223C21.455 10.2487 21.6371 10.4449 21.6371 10.6864C21.6371 10.9251 21.4588 11.1203 21.2277 11.1496C21.2164 11.1514 21.206 11.1543 21.1937 11.1562L18.2608 11.1666C18.0155 11.1666 17.8174 11.3656 17.8174 11.6099V13.6146C17.8174 13.8598 18.0155 14.0579 18.2608 14.0579H21.5399C23.2681 14.0579 24.4983 12.8278 24.4983 11.1005V2.71218C24.4983 2.46785 24.3002 2.26879 24.0549 2.26879ZM4.64227 5.94366V7.18136C4.64227 7.44075 4.4319 7.65208 4.17249 7.65208L2.89989 7.65302V5.17293H4.17249C4.4319 5.17293 4.64227 5.38234 4.64227 5.64272V5.94366ZM4.81868 2.26831H0.434887C0.194326 2.26831 0 2.4636 0 2.7032V4.66823C0 4.672 0.000935931 4.67577 0.000935931 4.67954C0.000935931 4.68898 0 4.69842 0 4.70689V13.6009C0 13.8424 0.181116 14.0396 0.405659 14.0452H2.44893C2.69326 14.0452 2.89229 13.8471 2.89229 13.6018L2.89986 10.5538H4.81865C6.42423 10.5538 7.54307 9.43974 7.54307 7.82753V4.99842C7.54307 3.38621 6.42426 2.26831 4.81868 2.26831ZM12.9637 10.6521V10.9653C12.9637 10.9908 12.96 11.0153 12.9562 11.0389C12.9515 11.061 12.9452 11.0828 12.9373 11.104C12.875 11.2795 12.6996 11.4068 12.4911 11.4068H11.6562C11.3959 11.4068 11.1836 11.2087 11.1836 10.9653V10.5871C11.1836 10.5823 11.1827 10.5776 11.1827 10.5729L11.1836 9.56635V9.25124L11.1846 9.24843C11.1855 9.00597 11.3959 8.80977 11.6562 8.80977H12.4911C12.7524 8.80977 12.9637 9.00693 12.9637 9.25127L12.9637 10.6521ZM12.6449 2.27984H9.86199C9.61578 2.27984 9.41675 2.46662 9.41675 2.69584V3.47601C9.41675 3.48072 9.41769 3.48638 9.41769 3.49109C9.41769 3.49676 9.41672 3.5024 9.41672 3.50807V4.57691C9.41672 4.81936 9.62806 5.01746 9.88843 5.01746H12.5383C12.7477 5.05049 12.9138 5.20331 12.9373 5.44197V5.70045C12.9138 5.9278 12.7496 6.09381 12.5496 6.11269H11.2374C9.49221 6.11269 8.24887 7.27209 8.24887 8.90032V11.2323C8.24887 12.8511 9.3177 14.0029 11.0506 14.0029H14.6873C15.3401 14.0029 15.8693 13.5086 15.8693 12.9002V5.29008C15.8693 3.44488 14.9184 2.27984 12.6449 2.27984Z" fill="white"/>
</svg>
