<?xml version="1.0" encoding="utf-8"?>
<!-- Generator: Adobe Illustrator 26.0.1, SVG Export Plug-In . SVG Version: 6.00 Build 0)  -->
<svg width="23px" version="1.1" id="Layer_1" xmlns="http://www.w3.org/2000/svg"
	xmlns:xlink="http://www.w3.org/1999/xlink" x="0px" y="0px" viewBox="0 0 15 23"
	style="enable-background:new 0 0 15 23;" xml:space="preserve">
	<style type="text/css">
		.st0 {
			fill: #673594;
		}
	</style>
	<path class="st0" d="M14.6,7.8c0-0.6-0.5-1.2-1.1-1.2h-2L6.7,1C6.3,0.5,5.6,0.3,5,0.5L3.3,1C3.1,1.1,3,1.5,3.2,1.6l5.1,5.1H0.5
	c-0.3,0-0.4,0.2-0.4,0.5v0.9c0,0.6,0.5,1.2,1.1,1.2h1.2v4.3c0,3.2,1.6,5.1,4.4,5.1c0.8,0,1.5-0.1,2.4-0.4V21c0,0.8,0.6,1.4,1.4,1.4
	h1.2c0.3,0,0.5-0.3,0.5-0.5V9.1h2c0.3,0,0.4-0.2,0.4-0.4L14.6,7.8L14.6,7.8z M9.1,15.5c-0.5,0.3-1.2,0.4-1.7,0.4c-1.4,0-2-0.7-2-2.3
	V9.2h3.8V15.5z" />
</svg>