<svg width="23" height="35" viewBox="0 0 23 35" fill="none" xmlns="http://www.w3.org/2000/svg">
<path d="M23 11.7376C23 10.7447 22.1882 9.89362 21.2412 9.89362H17.9941L10.5529 0.957447C9.87647 0.106383 8.79412 -0.177305 7.71176 0.106383L5.14118 0.957447C4.73529 1.09929 4.6 1.66667 4.87059 1.95035L12.9882 10.0355H0.676471C0.270588 10.0355 0 10.3191 0 10.7447V12.1631C0 13.156 0.811764 14.0071 1.75882 14.0071H3.65294V20.8156C3.65294 25.922 6.22353 28.9007 10.5529 28.9007C11.9059 28.9007 12.9882 28.7589 14.3412 28.1915V32.7305C14.3412 34.0071 15.2882 35 16.5059 35H18.4C18.8059 35 19.2118 34.5745 19.2118 34.1489V13.8652H22.3235C22.7294 13.8652 23 13.5816 23 13.156V11.7376ZM14.3412 23.9362C13.5294 24.3617 12.4471 24.5035 11.6353 24.5035C9.47059 24.5035 8.38824 23.3688 8.38824 20.8156V14.0071H14.3412V23.9362Z" fill="white"/>
</svg>
