<?xml version="1.0" encoding="utf-8"?>
<!-- Generator: Adobe Illustrator 26.0.1, SVG Export Plug-In . SVG Version: 6.00 Build 0)  -->
<svg version="1.1" id="Layer_1" xmlns="http://www.w3.org/2000/svg" xmlns:xlink="http://www.w3.org/1999/xlink" x="0px" y="0px"
	 viewBox="0 0 24 24" style="enable-background:new 0 0 24 24;" xml:space="preserve">
<style type="text/css">
	.st0{fill:#1F87FA;}
</style>
<path class="st0" d="M12.2,0.6c-0.5,0-0.9,0-1.4,0c-0.1,0.1-0.1,0-0.2,0C8.9,0.8,7.4,1.2,5.9,2C1.6,4.4-0.7,9.7,0.3,14.4
	c0.5,2.2,1.4,4.2,2.9,5.8c2.7,2.9,6,3.7,9.8,3.3c1.9-0.2,3.7-0.9,5.2-2.1c2.5-1.8,4-4.2,4.6-7.2c0.1-0.5,0.1-0.9,0.2-1.4
	c0-0.5,0-1,0-1.5c0-0.1,0-0.2,0-0.2c-0.1-1.6-0.5-3.1-1.2-4.4c-1.8-3.3-4.7-5.1-8.3-5.9C13.1,0.7,12.6,0.7,12.2,0.6z M20.1,12.5
	c0.7,0,1.3,0,2,0c0.2,0,0.2,0,0.2,0.2c0,0.2,0,0.3,0,0.5c-0.2,2.1-1,4-2.3,5.6c-0.1,0.1-0.2,0.1-0.3,0c-0.7-0.7-1.4-1.3-2.2-1.8
	c-0.1-0.1-0.2-0.1-0.1-0.3c0.3-1.3,0.5-2.7,0.5-4.1c0-0.2,0.1-0.2,0.2-0.2C18.7,12.5,19.4,12.5,20.1,12.5z M20.1,11.7
	c-0.7,0-1.4,0-2,0c-0.1,0-0.2,0-0.2-0.2c0-0.2,0-0.4,0-0.7c-0.1-1.2-0.2-2.3-0.5-3.5c0-0.1,0-0.2,0.1-0.2c0.9-0.5,1.6-1.1,2.3-1.8
	c0.1-0.1,0.1-0.1,0.2,0c0.1,0.2,0.3,0.3,0.4,0.5c1.2,1.7,1.8,3.6,2,5.6c0,0.2,0,0.2-0.2,0.2C21.4,11.7,20.8,11.7,20.1,11.7z
	 M3.1,11.7c-0.7,0-1.4,0-2,0c-0.2,0-0.2,0-0.2-0.2c0-0.2,0-0.3,0-0.5c0.2-2.1,1-4,2.3-5.6c0.1-0.1,0.1-0.1,0.3,0
	c0.7,0.7,1.4,1.3,2.3,1.8c0.1,0.1,0.2,0.2,0.1,0.3c-0.3,1.3-0.5,2.7-0.5,4.1c0,0.2,0,0.2-0.2,0.2C4.4,11.7,3.7,11.7,3.1,11.7z
	 M0.8,12.8c0-0.1-0.1-0.3,0.2-0.3c1.4,0,2.7,0,4.1,0c0.1,0,0.2,0,0.2,0.2c0,1.4,0.2,2.8,0.5,4.2c0,0.1,0,0.2-0.1,0.2
	c-0.8,0.5-1.6,1.1-2.3,1.8c-0.1,0.1-0.1,0.1-0.2,0C1.8,17.1,1,15,0.8,12.8z M11.2,19.5c0,1,0,2,0,3c0,0.2-0.1,0.3-0.3,0.2
	c0,0,0,0,0,0C10,22.6,9.3,22,8.7,21.4c-1-1.1-1.6-2.5-2-3.9c0-0.2,0-0.2,0.1-0.2c1.3-0.6,2.7-1,4.1-1.1c0.2,0,0.2,0,0.2,0.2
	C11.2,17.5,11.2,18.5,11.2,19.5z M11.9,4.7c0-1,0-2,0-3c0-0.2,0.1-0.3,0.3-0.2c0,0,0,0,0,0c0.9,0.2,1.6,0.8,2.2,1.5
	C15.4,4,16,5.3,16.4,6.7c0,0.1,0,0.2-0.1,0.2c-1.3,0.6-2.7,1-4.1,1.1C12,8,11.9,8,11.9,7.8C11.9,6.8,11.9,5.7,11.9,4.7z M11.2,4.7
	c0,1,0,2.1,0,3.1C11.2,8,11.1,8,11,8C9.5,7.9,8.1,7.6,6.8,6.9C6.7,6.9,6.7,6.8,6.7,6.7C6.9,6.2,7,5.8,7.2,5.3c0.5-1.1,1-2.1,1.9-2.9
	c0.5-0.5,1.1-0.9,1.8-1c0.2,0,0.2,0,0.2,0.2C11.2,2.6,11.2,3.7,11.2,4.7z M11.9,19.5c0-1,0-2.1,0-3.1c0-0.2,0.1-0.2,0.2-0.2
	c0.3,0,0.5,0.1,0.8,0.1c1.2,0.1,2.3,0.5,3.3,1c0.1,0.1,0.1,0.1,0.1,0.2c-0.1,0.3-0.2,0.6-0.3,0.8c-0.4,1.1-1,2.2-1.8,3.1
	c-0.6,0.6-1.3,1.1-2.1,1.3c-0.2,0-0.2,0-0.2-0.2C11.9,21.6,11.9,20.5,11.9,19.5z M14.5,11.7c-0.8,0-1.6,0-2.4,0
	c-0.2,0-0.2,0-0.2-0.2c0-0.9,0-1.7,0-2.6c0-0.2,0-0.2,0.2-0.2c1.5-0.1,2.9-0.4,4.3-1.1c0.1-0.1,0.2-0.1,0.2,0.1
	c0.3,1.2,0.4,2.5,0.5,3.8c0,0.1,0,0.2-0.2,0.2C16.1,11.7,15.3,11.7,14.5,11.7z M14.5,12.5c0.8,0,1.6,0,2.4,0c0.1,0,0.2,0,0.2,0.2
	c0,1.3-0.2,2.5-0.5,3.8c0,0.2-0.1,0.2-0.2,0.1c-1.4-0.6-2.8-1-4.3-1.1c-0.1,0-0.2-0.1-0.2-0.2c0-0.9,0-1.7,0-2.6
	c0-0.2,0.1-0.2,0.2-0.2C12.9,12.5,13.7,12.5,14.5,12.5z M8.6,11.7c-0.8,0-1.6,0-2.4,0c-0.1,0-0.2,0-0.2-0.2C6.1,10.3,6.2,9,6.5,7.8
	c0-0.2,0.1-0.2,0.3-0.1c1.4,0.6,2.8,1,4.3,1c0.2,0,0.2,0.1,0.2,0.2c0,0.8,0,1.7,0,2.5c0,0.2-0.1,0.2-0.2,0.2
	C10.2,11.7,9.4,11.7,8.6,11.7z M8.6,12.5c0.8,0,1.6,0,2.4,0c0.2,0,0.2,0,0.2,0.2c0,0.9,0,1.7,0,2.6c0,0.1,0,0.2-0.2,0.2
	c-1.5,0.1-2.9,0.4-4.3,1.1c-0.2,0.1-0.2,0.1-0.2-0.1c-0.3-1.2-0.4-2.5-0.5-3.8c0-0.2,0.1-0.2,0.2-0.2C7,12.5,7.8,12.5,8.6,12.5z
	 M8.8,22.5c-0.1,0-0.1,0-0.1,0C6.9,22,5.3,21,3.9,19.6c-0.1-0.1-0.1-0.2,0-0.2c0.6-0.6,1.2-1.1,2-1.6c0.2-0.1,0.2-0.1,0.3,0.1
	c0.3,0.9,0.6,1.7,1.1,2.5C7.7,21.2,8.2,21.9,8.8,22.5z M8.8,1.7C8.6,2,8.4,2.2,8.1,2.4c-0.9,1.1-1.6,2.4-2,3.8
	C6.1,6.5,6,6.5,5.8,6.4C5.1,5.9,4.5,5.4,3.9,4.8c-0.1-0.1-0.1-0.2,0-0.3C5.1,3.4,6.4,2.5,8,2C8.2,1.9,8.5,1.8,8.8,1.7z M14.3,1.7
	c0.1,0,0.1,0,0.1,0c1.8,0.5,3.4,1.5,4.8,2.8c0.1,0.1,0.1,0.2,0,0.3c-0.6,0.6-1.2,1.1-2,1.6c-0.2,0.1-0.2,0.1-0.3-0.1
	c-0.4-1.2-0.9-2.4-1.7-3.4C15,2.5,14.7,2.1,14.3,1.7z M14.3,22.5c0.2-0.2,0.4-0.5,0.7-0.7c0.9-1.1,1.6-2.4,2-3.8
	c0-0.2,0.1-0.2,0.2-0.1c0.7,0.4,1.4,1,2,1.6c0.1,0.1,0.1,0.2,0,0.3c-1,1-2.1,1.8-3.4,2.3C15.3,22.2,14.9,22.4,14.3,22.5z"/>
</svg>
