<svg width="24" height="24" viewBox="0 0 24 24" fill="none" xmlns="http://www.w3.org/2000/svg">
<path d="M11.5624 2.08318C14.6496 2.08318 15.015 2.09506 16.2354 2.15047C17.362 2.20192 17.9755 2.39058 18.3819 2.5489C18.9215 2.75867 19.3067 3.00933 19.7117 3.41436C20.1168 3.81939 20.3674 4.20462 20.5772 4.74422C20.7355 5.15188 20.9242 5.76404 20.9756 6.89073C21.031 8.10977 21.0429 8.47521 21.0429 11.5637C21.0429 14.6522 21.031 15.0163 20.9756 16.2367C20.9242 17.3647 20.7355 17.9768 20.5772 18.3832C20.3674 18.9228 20.1168 19.308 19.7117 19.7131C19.3067 20.1181 18.9215 20.3687 18.3819 20.5785C17.9742 20.7368 17.362 20.9255 16.2354 20.9769C15.0163 21.0324 14.6509 21.0442 11.5624 21.0442C8.47389 21.0442 8.10845 21.0324 6.88941 20.9769C5.76272 20.9255 5.14925 20.7368 4.7429 20.5785C4.2033 20.3687 3.81807 20.1181 3.41304 19.7131C3.00802 19.308 2.75735 18.9228 2.54758 18.3832C2.38926 17.9755 2.2006 17.3634 2.14915 16.2367C2.09374 15.0176 2.08186 14.6522 2.08186 11.5637C2.08186 8.47521 2.09374 8.11109 2.14915 6.89073C2.2006 5.76404 2.38926 5.15057 2.54758 4.74422C2.75735 4.20462 3.00802 3.81939 3.41304 3.41436C3.81807 3.00933 4.2033 2.75867 4.7429 2.5489C5.15057 2.39058 5.76272 2.20192 6.88941 2.15047C8.10845 2.09506 8.47389 2.08318 11.5624 2.08318M11.5624 0C8.42244 0 8.02797 0.0131939 6.79442 0.069924C5.56351 0.126654 4.72311 0.321911 3.98826 0.606881C3.22834 0.902405 2.5832 1.2982 1.9407 1.9407C1.2982 2.5832 0.902404 3.22834 0.60688 3.98826C0.320591 4.72443 0.125334 5.56483 0.069923 6.79574C0.0131929 8.02929 0 8.42244 0 11.5637C0 14.705 0.0131929 15.0981 0.069923 16.3317C0.126653 17.5626 0.32191 18.403 0.60688 19.1378C0.902404 19.8978 1.2982 20.5429 1.9407 21.1854C2.5832 21.8279 3.22834 22.2237 3.98826 22.5192C4.72311 22.8055 5.56483 23.0008 6.79442 23.0562C8.02797 23.1129 8.42112 23.1261 11.5624 23.1261C14.7037 23.1261 15.0968 23.1129 16.3304 23.0562C17.5613 22.9994 18.4017 22.8042 19.1378 22.5192C19.8978 22.2237 20.5429 21.8279 21.1854 21.1854C21.8279 20.5429 22.2237 19.8978 22.5192 19.1378C22.8055 18.4017 23.0008 17.5613 23.0562 16.3317C23.1129 15.0981 23.1261 14.705 23.1261 11.5637C23.1261 8.42244 23.1129 8.02929 23.0562 6.79574C22.9994 5.56483 22.8042 4.72443 22.5192 3.98826C22.2237 3.22834 21.8279 2.5832 21.1854 1.9407C20.5429 1.2982 19.8978 0.902405 19.1378 0.606881C18.4017 0.320592 17.5613 0.125335 16.3304 0.069924C15.0968 0.0131939 14.7037 0 11.5624 0Z" fill="#1A488A"/>
<path d="M11.5624 5.625C8.28261 5.625 5.62421 8.2834 5.62421 11.5632C5.62421 14.843 8.28261 17.5014 11.5624 17.5014C14.8422 17.5014 17.5006 14.843 17.5006 11.5632C17.5006 8.2834 14.8422 5.625 11.5624 5.625M11.5624 15.4169C9.43304 15.4169 7.70739 13.6912 7.70739 11.5619C7.70739 9.43251 9.43304 7.70686 11.5624 7.70686C13.6918 7.70686 15.4174 9.43251 15.4174 11.5619C15.4174 13.6912 13.6918 15.4169 11.5624 15.4169Z" fill="#1A488A"/>
<path d="M19.1233 5.39181C19.1233 6.15833 18.5019 6.77972 17.7354 6.77972C16.9689 6.77972 16.3475 6.15833 16.3475 5.39181C16.3475 4.6253 16.9689 4.00391 17.7354 4.00391C18.5019 4.00391 19.1233 4.6253 19.1233 5.39181Z" fill="#1A488A"/>
</svg>
