<svg width="29" height="13" viewBox="0 0 29 13" fill="none" xmlns="http://www.w3.org/2000/svg">
<rect width="29" height="12.76" rx="2" fill="url(#paint0_linear_205_422)"/>
<path d="M7.438 3.7H4.846V10H6.016V8.182H7.438C9.094 8.182 10.12 7.327 10.12 5.941C10.12 4.546 9.094 3.7 7.438 3.7ZM7.384 7.192H6.016V4.69H7.384C8.41 4.69 8.941 5.149 8.941 5.941C8.941 6.733 8.41 7.192 7.384 7.192ZM16.6704 10L15.2214 7.93C16.0764 7.597 16.5624 6.895 16.5624 5.941C16.5624 4.546 15.5364 3.7 13.8804 3.7H11.2884V10H12.4584V8.164H13.8804C13.9614 8.164 14.0424 8.164 14.1234 8.155L15.4104 10H16.6704ZM15.3834 5.941C15.3834 6.733 14.8524 7.201 13.8264 7.201H12.4584V4.69H13.8264C14.8524 4.69 15.3834 5.149 15.3834 5.941ZM20.8144 10.09C22.7674 10.09 24.2074 8.722 24.2074 6.85C24.2074 4.978 22.7674 3.61 20.8144 3.61C18.8614 3.61 17.4214 4.987 17.4214 6.85C17.4214 8.713 18.8614 10.09 20.8144 10.09ZM20.8144 9.064C19.5454 9.064 18.6004 8.137 18.6004 6.85C18.6004 5.563 19.5454 4.636 20.8144 4.636C22.0834 4.636 23.0284 5.563 23.0284 6.85C23.0284 8.137 22.0834 9.064 20.8144 9.064Z" fill="#F2F0E4"/>
<defs>
<linearGradient id="paint0_linear_205_422" x1="-17.5" y1="6" x2="44" y2="6" gradientUnits="userSpaceOnUse">
<stop stop-color="#AE7A26"/>
<stop offset="0.544792" stop-color="#FFBF00"/>
<stop offset="1" stop-color="#CB7E12"/>
</linearGradient>
</defs>
</svg>
