<svg width="23" height="23" viewBox="0 0 23 23" fill="none" xmlns="http://www.w3.org/2000/svg">
<path d="M14.0566 1.43327C14.1062 1.25174 14.2252 1.09701 14.3879 1.00246C14.5506 0.907908 14.744 0.881127 14.9263 0.927895C16.6391 1.38828 18.2009 2.29077 19.4551 3.54493C20.7092 4.79909 21.6117 6.36086 22.0721 8.07371C22.0969 8.16401 22.1034 8.25834 22.0913 8.35119C22.0793 8.44405 22.0488 8.53356 22.0018 8.61452C21.9547 8.69548 21.892 8.76626 21.8173 8.82273C21.7426 8.8792 21.6574 8.92024 21.5667 8.94343L21.3904 8.96694C21.2343 8.96669 21.0826 8.91463 20.9593 8.81891C20.8359 8.72319 20.7478 8.58924 20.7088 8.43805C20.3102 6.96593 19.533 5.62386 18.4546 4.54543C17.3761 3.467 16.0341 2.68982 14.5619 2.29124C14.383 2.24155 14.2303 2.12435 14.136 1.96431C14.0417 1.80427 14.0133 1.61389 14.0566 1.43327ZM13.5864 5.92291C14.4213 6.15147 15.1823 6.59355 15.7944 7.20563C16.4064 7.81771 16.8485 8.57866 17.0771 9.41355C17.1161 9.56474 17.2042 9.69869 17.3276 9.79441C17.451 9.89012 17.6026 9.94219 17.7588 9.94243L17.9351 9.91893C18.1149 9.86669 18.2678 9.7472 18.3619 9.58526C18.456 9.42331 18.4841 9.23135 18.4404 9.04921C18.15 7.9736 17.5826 6.99296 16.7948 6.20516C16.007 5.41736 15.0264 4.84995 13.9508 4.55957C13.7687 4.51588 13.5767 4.54401 13.4147 4.63812C13.2528 4.73222 13.1333 4.88507 13.0811 5.06495C13.0346 5.24572 13.0617 5.43755 13.1565 5.59837C13.2512 5.7592 13.4058 5.8759 13.5864 5.92291ZM22.9888 17.4526C22.7918 18.9847 22.0438 20.3927 20.8845 21.4135C19.7252 22.4344 18.2339 22.9983 16.6892 23C7.48665 23 0 15.5133 0 6.31076C0.00166125 4.76605 0.565595 3.27477 1.58646 2.11548C2.60733 0.95619 4.01531 0.208176 5.54741 0.0111616C5.89995 -0.030108 6.25639 0.0437303 6.56352 0.221656C6.87066 0.399582 7.11202 0.672056 7.25159 0.998412L9.61394 6.51056C9.7211 6.75996 9.76536 7.03187 9.74281 7.30239C9.72027 7.5729 9.63162 7.83373 9.48466 8.06196L7.52191 11.0472C7.50251 11.0809 7.49134 11.1187 7.48929 11.1575C7.48725 11.1963 7.4944 11.235 7.51016 11.2705C8.41294 13.1215 9.91124 14.6157 11.7647 15.5133C11.8007 15.5295 11.8403 15.5358 11.8796 15.5317C11.9188 15.5276 11.9562 15.5131 11.988 15.4898L14.938 13.5271C15.164 13.3753 15.4246 13.2828 15.6957 13.2581C15.9668 13.2335 16.2398 13.2775 16.4894 13.3861L22.0016 15.7484C22.3279 15.888 22.6004 16.1293 22.7783 16.4365C22.9563 16.7436 23.0301 17.1 22.9888 17.4526ZM21.5902 17.2763C21.5943 17.2273 21.5828 17.1782 21.5575 17.1361C21.5322 17.0939 21.4943 17.0607 21.4492 17.0412L15.937 14.6789C15.9006 14.6649 15.8614 14.6597 15.8226 14.6638C15.7837 14.6679 15.7465 14.6811 15.7137 14.7024L12.7755 16.6651C12.5376 16.8214 12.2637 16.9142 11.9798 16.9348C11.6959 16.9554 11.4115 16.903 11.1536 16.7827C9.01574 15.7419 7.28671 14.017 6.24083 11.8817C6.11869 11.6268 6.06427 11.3448 6.08279 11.0627C6.10132 10.7807 6.19218 10.5082 6.34661 10.2715L8.29761 7.28626C8.3209 7.25443 8.33534 7.217 8.33947 7.17778C8.3436 7.13855 8.33726 7.09893 8.32111 7.06295L5.95876 1.5508C5.94074 1.50948 5.91121 1.47422 5.8737 1.44921C5.83619 1.42421 5.79228 1.41051 5.74721 1.40977H5.7237C4.53333 1.56624 3.44012 2.14919 2.64691 3.05047C1.8537 3.95174 1.41434 5.11015 1.41036 6.31076C1.41347 10.362 3.0242 14.2465 5.88888 17.1111C8.75355 19.9758 12.638 21.5865 16.6892 21.5896C17.8898 21.5857 19.0483 21.1463 19.9495 20.3531C20.8508 19.5599 21.4338 18.4667 21.5902 17.2763Z" fill="#DE5D2E"/>
</svg>
