<svg width="17" height="23" viewBox="0 0 17 23" fill="none" xmlns="http://www.w3.org/2000/svg">
<path d="M8.32163 22.9984C7.90225 22.8765 7.63153 22.5865 7.39836 22.2316C5.52992 19.3923 3.65443 16.5577 1.78128 13.7216C0.973032 12.4974 0.390902 11.1802 0.121745 9.73007C-0.104378 8.51056 -0.00579111 7.31216 0.336914 6.13331C0.844713 4.38457 1.82588 2.9454 3.2546 1.81423C4.31245 0.976991 5.50331 0.407107 6.82875 0.165551C9.76913 -0.370718 12.3441 0.395381 14.4888 2.47089C15.8416 3.78029 16.6358 5.40317 16.9143 7.27308C17.2101 9.25555 16.7187 11.0778 15.7727 12.7968C15.0357 14.1359 14.1257 15.3679 13.2909 16.6461C12.0703 18.5136 10.8309 20.3687 9.60639 22.2339C9.37322 22.5888 9.10172 22.878 8.68234 23H8.32242L8.32163 22.9984ZM8.5235 0.978555C8.15028 1.02546 7.80523 1.01686 7.46252 1.06611C6.25367 1.24044 5.14965 1.67352 4.15831 2.38333C2.81879 3.34174 1.88144 4.60502 1.36972 6.16927C1.00355 7.28793 0.891659 8.43082 1.11387 9.60108C1.36268 10.9097 1.90569 12.0909 2.63179 13.1939C4.50884 16.0449 6.39372 18.892 8.27547 21.7398C8.31694 21.8024 8.35919 21.8634 8.40223 21.9251C8.46482 22.0142 8.52976 22.0221 8.59627 21.9298C8.64008 21.8688 8.68234 21.8079 8.7238 21.7453C9.78009 20.1459 10.8426 18.5512 11.8903 16.9463C12.8848 15.4234 13.9442 13.942 14.8612 12.37C15.4637 11.3365 15.8541 10.2218 15.966 9.02963C16.117 7.41926 15.7407 5.9152 14.8737 4.55577C13.391 2.23167 11.2331 1.08253 8.52272 0.979336L8.5235 0.978555Z" fill="#DE5D2E"/>
<path d="M8.49726 13C6.01078 12.9977 3.99609 10.9786 4.00001 8.49416C4.00392 6.0136 6.03817 3.98832 8.51369 4.00005C10.9884 4.01178 12.9992 6.02846 13 8.49963C13 10.9849 10.9822 13.0023 8.49726 13ZM8.49883 4.99822C6.5749 4.99978 4.98896 6.58934 4.99601 8.50902C5.00305 10.4287 6.57177 11.9971 8.49022 12.0026C10.4173 12.0081 11.9993 10.4342 12.004 8.50667C12.0087 6.58622 10.4204 4.99665 8.49883 4.99822Z" fill="#DE5D2E"/>
</svg>
