<svg width="23" height="18" viewBox="0 0 23 18" fill="none" xmlns="http://www.w3.org/2000/svg">
<path d="M0 16.2896V2.45401C0.0623276 2.2481 0.0915261 2.03206 0.192598 1.83796C0.576109 1.10207 1.19209 0.750443 2.01133 0.748192C3.47855 0.744254 4.94578 0.747067 6.413 0.747067C11.2566 0.747067 16.0996 0.747067 20.9432 0.746505C21.4699 0.746505 21.9444 0.87928 22.3498 1.23428C22.7226 1.56116 22.9029 1.98424 23 2.45458V16.2902C22.9377 16.4961 22.9085 16.7121 22.8074 16.9062C22.4239 17.6421 21.8079 17.9938 20.9887 17.996C19.5287 18 18.0694 17.9971 16.6095 17.9971C11.7586 17.9971 6.90769 17.9971 2.05681 17.9977C1.53011 17.9977 1.05564 17.8649 0.650228 17.5099C0.277386 17.1831 0.0971412 16.76 0 16.2896ZM21.2385 1.78451C21.2357 1.76595 21.2329 1.74794 21.2301 1.72938H1.75584C1.7929 1.8419 1.86927 1.88241 1.92766 1.93529C4.84639 4.59923 7.7668 7.26205 10.6861 9.92543C11.2762 10.4638 11.7232 10.4633 12.3145 9.9243C14.4493 7.97768 16.5859 6.03275 18.7207 4.0867C19.5613 3.32043 20.3991 2.55191 21.2385 1.78451ZM1.74236 17.0137H21.3014C21.2206 16.9288 21.1779 16.8792 21.1307 16.8348C19.7539 15.5453 18.3777 14.2558 16.9997 12.968C15.9604 11.9969 14.8901 11.0608 13.8277 10.1156C13.7053 10.0064 13.6357 10.0048 13.5212 10.1195C13.3207 10.3204 13.104 10.506 12.8917 10.6951C12.0332 11.4574 11.087 11.485 10.1953 10.7654C9.96287 10.5775 9.73658 10.3789 9.52994 10.1628C9.37665 10.0031 9.28456 10.0166 9.1206 10.1595C6.63985 12.3272 4.24951 14.5922 1.85298 16.8511C1.81143 16.8899 1.75023 16.9175 1.74236 17.0137ZM0.982642 16.3346C1.06575 16.2688 1.09607 16.2486 1.12246 16.2232C3.54369 13.9357 5.96211 11.6459 8.47711 9.46015C8.6203 9.33582 8.55628 9.28237 8.45577 9.19123C6.03848 6.98806 3.62342 4.78208 1.20668 2.57835C1.14885 2.52547 1.10393 2.44726 0.982642 2.44164V16.3346ZM22.0207 2.4377C21.9028 2.45064 21.8646 2.51253 21.8169 2.55585C19.3895 4.77027 16.9638 6.98637 14.5341 9.1991C14.4179 9.30544 14.4078 9.36001 14.5324 9.46859C17.0295 11.6403 19.4322 13.9143 21.8382 16.185C21.882 16.2261 21.9129 16.3043 22.0207 16.2683V2.4377Z" fill="#DE5D2E"/>
</svg>
