<svg width="24" height="23" viewBox="0 0 24 23" fill="none" xmlns="http://www.w3.org/2000/svg">
<path d="M13.1234 0C12.6587 0 12.1946 0 11.7299 0C11.6637 0.0461078 11.5861 0.0345808 11.5127 0.040041C9.86251 0.161984 8.3088 0.609715 6.85762 1.40811C2.49801 3.80632 0.191404 9.13358 1.24764 13.7516C1.74936 15.946 2.65817 17.9359 4.20217 19.5879C6.86429 22.4369 10.2217 23.3324 13.9916 22.8949C15.9099 22.6729 17.6626 21.9431 19.243 20.8298C21.7565 19.0589 23.295 16.6589 23.821 13.623C23.8987 13.1753 23.9412 12.7209 24 12.2695C24 11.7599 24 11.2509 24 10.7413C23.9867 10.6618 23.966 10.5829 23.9606 10.5035C23.8459 8.93884 23.4667 7.44398 22.709 6.06681C20.895 2.7695 18.0369 0.925795 14.409 0.182611C13.9861 0.0958556 13.5523 0.0594548 13.1234 0ZM21.0133 11.8734C21.6873 11.8734 22.3614 11.8794 23.0348 11.8691C23.2083 11.8667 23.2617 11.9183 23.2386 12.0857C23.2156 12.2483 23.2125 12.4139 23.1961 12.5777C22.9868 14.6811 22.2145 16.5557 20.9071 18.2144C20.7961 18.3551 20.7391 18.3442 20.6214 18.2247C19.951 17.544 19.2024 16.9604 18.3773 16.4781C18.2444 16.4004 18.2098 16.3276 18.2474 16.1778C18.586 14.8297 18.7558 13.458 18.7844 12.0693C18.7874 11.911 18.8365 11.8679 18.9912 11.8697C19.6653 11.8776 20.3393 11.8728 21.0133 11.8728V11.8734ZM21.023 11.1381C20.3417 11.1381 19.6604 11.1344 18.9785 11.1411C18.8323 11.1423 18.7819 11.0992 18.785 10.9512C18.7892 10.7346 18.7734 10.5174 18.7613 10.3008C18.697 9.1172 18.5283 7.94934 18.2432 6.79847C18.2165 6.69109 18.2238 6.62435 18.3318 6.56247C19.1933 6.06681 19.968 5.4577 20.6633 4.74789C20.7458 4.66356 20.7979 4.65446 20.8701 4.75638C20.9957 4.93292 21.1365 5.09916 21.262 5.27631C22.4584 6.96773 23.1149 8.84844 23.2392 10.9166C23.2501 11.0944 23.201 11.1453 23.022 11.1429C22.3559 11.1326 21.6892 11.1387 21.023 11.1387V11.1381ZM3.9868 11.1381C3.3055 11.1381 2.6248 11.1332 1.9435 11.1417C1.78394 11.1435 1.72934 11.0956 1.74997 10.9385C1.77181 10.7759 1.77545 10.6109 1.79183 10.4471C1.99992 8.33641 2.77526 6.4563 4.0863 4.79278C4.18458 4.66781 4.24039 4.65871 4.35506 4.7764C5.02726 5.46559 5.78318 6.05164 6.61252 6.53881C6.75327 6.62132 6.76783 6.70322 6.73264 6.84397C6.39775 8.18474 6.22728 9.54734 6.20058 10.9275C6.19755 11.0926 6.15326 11.1447 5.984 11.1423C5.31786 11.1326 4.65172 11.1387 3.98619 11.1387L3.9868 11.1381ZM1.75239 12.17C1.78273 12.056 1.64926 11.8679 1.93197 11.8697C3.29397 11.8788 4.65597 11.8758 6.01797 11.8715C6.15508 11.8715 6.19755 11.9152 6.19997 12.0505C6.22667 13.4538 6.40139 14.8382 6.73992 16.2014C6.76843 16.3155 6.75994 16.3859 6.64224 16.455C5.79289 16.9543 5.01998 17.5531 4.3314 18.2587C4.23918 18.3527 4.19065 18.3491 4.10935 18.2465C2.69154 16.4678 1.91559 14.4414 1.75239 12.1706V12.17ZM12.1266 18.9224C12.1266 19.9252 12.1266 20.9287 12.1266 21.9315C12.1266 22.152 12.0162 22.2347 11.7954 22.1797C11.7881 22.1778 11.7814 22.1748 11.7742 22.173C10.9048 21.9509 10.2332 21.4268 9.6617 20.7637C8.68555 19.631 8.10859 18.2914 7.67178 16.8797C7.62749 16.7353 7.70697 16.7147 7.79494 16.6716C9.08899 16.0425 10.4571 15.6973 11.8913 15.6002C12.0757 15.5875 12.1333 15.6287 12.1315 15.8235C12.1218 16.8566 12.1266 17.8892 12.1266 18.9224ZM12.8619 4.08964C12.8619 3.08679 12.8619 2.08334 12.8619 1.0805C12.8619 0.859667 12.9724 0.776754 13.1932 0.83176C13.2005 0.83358 13.2071 0.836613 13.2144 0.838433C14.1075 1.06837 14.7906 1.61195 15.3712 2.29871C16.3206 3.42229 16.8885 4.74182 17.3168 6.13173C17.3617 6.27733 17.2798 6.29674 17.193 6.33921C15.8917 6.97259 14.517 7.31718 13.0749 7.41364C12.8814 7.42638 12.8571 7.35358 12.8583 7.18917C12.8644 6.15599 12.8613 5.12342 12.8613 4.09024L12.8619 4.08964ZM12.1266 4.08782C12.1266 5.12828 12.1224 6.16873 12.1309 7.20919C12.1321 7.38149 12.0842 7.42335 11.9155 7.41182C10.4662 7.31476 9.08414 6.96591 7.77492 6.33375C7.66875 6.28279 7.63963 6.23365 7.67785 6.11231C7.82588 5.64153 7.98604 5.1756 8.17957 4.72119C8.63762 3.64615 9.20669 2.6421 10.0645 1.82793C10.5887 1.33045 11.1857 0.96159 11.9028 0.804459C12.0811 0.765632 12.1327 0.798392 12.1309 0.988284C12.1224 2.02086 12.1266 3.05403 12.1266 4.08721V4.08782ZM12.8619 18.8975C12.8619 17.8722 12.8674 16.8463 12.8571 15.821C12.8553 15.6226 12.919 15.5771 13.0998 15.6014C13.3667 15.6378 13.6361 15.6512 13.903 15.6863C15.0612 15.838 16.1647 16.1729 17.2167 16.6807C17.3265 16.7335 17.3514 16.7869 17.3089 16.9027C17.2064 17.1836 17.1281 17.4724 17.0226 17.7521C16.5961 18.886 16.0585 19.9592 15.2353 20.865C14.6456 21.5141 13.9594 22.0128 13.0816 22.207C12.8935 22.2482 12.8565 22.1979 12.8577 22.0177C12.865 20.9772 12.8613 19.9368 12.8613 18.8963L12.8619 18.8975ZM15.4689 11.1381C14.6753 11.1381 13.8824 11.1338 13.0888 11.1411C12.922 11.1429 12.8547 11.1108 12.8571 10.9221C12.868 10.0691 12.8662 9.21549 12.8583 8.36249C12.8571 8.1999 12.8989 8.14409 13.0682 8.13681C14.5734 8.07129 16.0064 7.70667 17.3696 7.06844C17.5043 7.00535 17.5504 7.00595 17.5886 7.17097C17.8725 8.41527 18.0084 9.67656 18.0582 10.95C18.0642 11.1017 18.0181 11.1411 17.8719 11.1405C17.0711 11.1344 16.2703 11.1375 15.4695 11.1381H15.4689ZM15.4537 11.8734C16.2545 11.8734 17.0553 11.8764 17.8561 11.8703C18.0072 11.8691 18.0648 11.9013 18.0582 12.0681C18.0072 13.3336 17.8725 14.5876 17.5916 15.8247C17.5546 15.9879 17.5134 16.0097 17.3629 15.9387C15.9997 15.3005 14.5667 14.9371 13.0615 14.8728C12.908 14.8661 12.8577 14.82 12.8595 14.6635C12.8662 13.8032 12.8674 12.9423 12.8589 12.0814C12.8571 11.9104 12.9093 11.8679 13.0749 11.8691C13.8678 11.877 14.6614 11.8728 15.4549 11.8728L15.4537 11.8734ZM9.55189 11.1381C8.74379 11.1381 7.93569 11.1362 7.12698 11.1399C6.99473 11.1405 6.92374 11.1259 6.93042 10.9603C6.98017 9.69476 7.11728 8.44136 7.3915 7.20252C7.43578 7.00171 7.49645 7.01263 7.65116 7.08482C9.00223 7.71092 10.4213 8.07311 11.9113 8.1362C12.0933 8.14409 12.1321 8.20779 12.1303 8.37584C12.123 9.22155 12.1206 10.0673 12.1315 10.9124C12.1339 11.1102 12.0635 11.1435 11.887 11.1417C11.1086 11.1332 10.3303 11.1381 9.55189 11.1381ZM9.53247 11.8734C10.326 11.8734 11.1189 11.8776 11.9125 11.8697C12.0751 11.8679 12.1327 11.9055 12.1309 12.0796C12.1218 12.9399 12.1236 13.8008 12.1303 14.6617C12.1315 14.8158 12.0866 14.8667 11.9301 14.8728C10.4237 14.9328 8.99071 15.2956 7.62871 15.9375C7.48371 16.0061 7.43639 15.9976 7.39817 15.8277C7.11667 14.5828 6.98138 13.3215 6.93103 12.0481C6.92435 11.8782 7.00322 11.8715 7.13062 11.8721C7.93144 11.8752 8.73226 11.874 9.53308 11.874L9.53247 11.8734ZM9.76969 21.8818C9.69749 21.8818 9.67383 21.8866 9.6532 21.8812C7.78948 21.3612 6.17935 20.4106 4.8131 19.0401C4.69965 18.926 4.75243 18.8751 4.83373 18.7932C5.42706 18.1956 6.08106 17.6757 6.79149 17.2231C6.94073 17.1284 6.99897 17.1278 7.05661 17.3147C7.33144 18.2029 7.69544 19.054 8.16138 19.8597C8.5903 20.6017 9.10295 21.2787 9.76908 21.8818H9.76969ZM9.75695 1.11083C9.51427 1.36989 9.28556 1.59375 9.07989 1.83764C8.12922 2.96364 7.51405 4.27043 7.06632 5.66094C6.99594 5.87995 6.93406 5.8751 6.76237 5.76468C6.07318 5.32241 5.44102 4.8122 4.85678 4.23888C4.73605 4.12058 4.72331 4.05445 4.85193 3.92644C6.01676 2.7695 7.36905 1.91226 8.91305 1.35775C9.17817 1.2625 9.4439 1.16422 9.75695 1.11023V1.11083ZM15.2377 1.14663C15.3008 1.11144 15.3427 1.13085 15.3851 1.14238C17.2228 1.66595 18.8135 2.6063 20.1627 3.95981C20.2792 4.07629 20.2398 4.1315 20.1482 4.22311C19.5524 4.81766 18.899 5.33819 18.1892 5.79138C18.0224 5.89815 17.9823 5.85326 17.9295 5.68824C17.5443 4.47731 17.022 3.33189 16.2715 2.29871C15.9681 1.88071 15.6236 1.49911 15.2377 1.14723V1.14663ZM15.2644 21.8775C15.484 21.6349 15.7139 21.411 15.919 21.1647C16.8672 20.0265 17.4842 18.7149 17.932 17.3159C17.9835 17.1557 18.0212 17.1169 18.1789 17.2176C18.8887 17.669 19.5409 18.1901 20.1391 18.7816C20.258 18.8993 20.2592 18.9588 20.1391 19.0771C19.152 20.0587 18.0242 20.8316 16.7477 21.3855C16.2691 21.593 15.7795 21.7708 15.2632 21.8781L15.2644 21.8775Z" fill="#DE5D2E"/>
</svg>
