<svg width="16" height="16" viewBox="0 0 16 16" fill="none" xmlns="http://www.w3.org/2000/svg">
<g opacity="0.7">
<path d="M7.9987 11.3333C8.18759 11.3333 8.34603 11.2693 8.47403 11.1413C8.60159 11.0138 8.66536 10.8555 8.66536 10.6666V7.98331C8.66536 7.79442 8.60159 7.63887 8.47403 7.51665C8.34603 7.39442 8.18759 7.33331 7.9987 7.33331C7.80981 7.33331 7.65159 7.39709 7.52403 7.52465C7.39603 7.65265 7.33203 7.81109 7.33203 7.99998V10.6833C7.33203 10.8722 7.39603 11.0278 7.52403 11.15C7.65159 11.2722 7.80981 11.3333 7.9987 11.3333ZM7.9987 5.99998C8.18759 5.99998 8.34603 5.93598 8.47403 5.80798C8.60159 5.68042 8.66536 5.5222 8.66536 5.33331C8.66536 5.14442 8.60159 4.98598 8.47403 4.85798C8.34603 4.73042 8.18759 4.66665 7.9987 4.66665C7.80981 4.66665 7.65159 4.73042 7.52403 4.85798C7.39603 4.98598 7.33203 5.14442 7.33203 5.33331C7.33203 5.5222 7.39603 5.68042 7.52403 5.80798C7.65159 5.93598 7.80981 5.99998 7.9987 5.99998ZM7.9987 14.6666C7.07648 14.6666 6.20981 14.4915 5.3987 14.1413C4.58759 13.7915 3.88203 13.3166 3.28203 12.7166C2.68203 12.1166 2.20714 11.4111 1.85736 10.6C1.50714 9.78887 1.33203 8.9222 1.33203 7.99998C1.33203 7.07776 1.50714 6.21109 1.85736 5.39998C2.20714 4.58887 2.68203 3.88331 3.28203 3.28331C3.88203 2.68331 4.58759 2.2082 5.3987 1.85798C6.20981 1.5082 7.07648 1.33331 7.9987 1.33331C8.92092 1.33331 9.78759 1.5082 10.5987 1.85798C11.4098 2.2082 12.1154 2.68331 12.7154 3.28331C13.3154 3.88331 13.7903 4.58887 14.14 5.39998C14.4903 6.21109 14.6654 7.07776 14.6654 7.99998C14.6654 8.9222 14.4903 9.78887 14.14 10.6C13.7903 11.4111 13.3154 12.1166 12.7154 12.7166C12.1154 13.3166 11.4098 13.7915 10.5987 14.1413C9.78759 14.4915 8.92092 14.6666 7.9987 14.6666ZM7.9987 13.3333C9.47647 13.3333 10.7349 12.814 11.774 11.7753C12.8127 10.7362 13.332 9.47776 13.332 7.99998C13.332 6.5222 12.8127 5.26376 11.774 4.22465C10.7349 3.18598 9.47647 2.66665 7.9987 2.66665C6.52092 2.66665 5.2627 3.18598 4.22403 4.22465C3.18492 5.26376 2.66536 6.5222 2.66536 7.99998C2.66536 9.47776 3.18492 10.7362 4.22403 11.7753C5.2627 12.814 6.52092 13.3333 7.9987 13.3333Z" fill="#AF38D6"/>
</g>
</svg>
