<svg width="26" height="26" viewBox="0 0 26 26" fill="white" xmlns="http://www.w3.org/2000/svg">
<path d="M26 8.9375H23.5625V4.0625C23.5625 3.16875 22.8312 2.4375 21.9375 2.4375H10.5625C9.66875 2.4375 8.9375 3.16875 8.9375 4.0625V7.3125H10.5625V4.0625H21.9375V15.4375H10.5625V12.1875H8.9375V15.4375C8.9375 16.3312 9.66875 17.0625 10.5625 17.0625H21.9375C22.8312 17.0625 23.5625 16.3312 23.5625 15.4375V10.5625H26V8.9375Z" fill="white"/>
<path d="M17.0625 13.8125V10.5625C17.0625 9.66875 16.3313 8.9375 15.4375 8.9375H4.0625C3.16875 8.9375 2.4375 9.66875 2.4375 10.5625V15.4375H0V17.0625H2.4375V21.9375C2.4375 22.8313 3.16875 23.5625 4.0625 23.5625H15.4375C16.3313 23.5625 17.0625 22.8313 17.0625 21.9375V18.6875H15.4375V21.9375H4.0625V10.5625H15.4375V13.8125H17.0625Z" fill="white"/>
</svg>
