<svg width="44" height="44" viewBox="0 0 44 44" fill="none" xmlns="http://www.w3.org/2000/svg">
<g opacity="0.8">
<path d="M13.75 22C13.75 20.4812 12.5188 19.25 11 19.25C9.48122 19.25 8.25 20.4812 8.25 22C8.25 23.5188 9.48122 24.75 11 24.75C12.5188 24.75 13.75 23.5188 13.75 22Z" fill="#AB39D2"/>
<path d="M24.75 22C24.75 20.4812 23.5188 19.25 22 19.25C20.4812 19.25 19.25 20.4812 19.25 22C19.25 23.5188 20.4812 24.75 22 24.75C23.5188 24.75 24.75 23.5188 24.75 22Z" fill="#AB39D2"/>
<path d="M35.75 22C35.75 20.4812 34.5188 19.25 33 19.25C31.4812 19.25 30.25 20.4812 30.25 22C30.25 23.5188 31.4812 24.75 33 24.75C34.5188 24.75 35.75 23.5188 35.75 22Z" fill="#AB39D2"/>
</g>
</svg>
