<svg width="21" height="20" viewBox="0 0 21 20" fill="none" xmlns="http://www.w3.org/2000/svg">
<path d="M0.560442 20H10.0319H19.5034C19.652 20 19.7946 19.941 19.8997 19.8359C20.0048 19.7307 20.0638 19.5882 20.0638 19.4396C20.0638 19.2909 20.0048 19.1484 19.8997 19.0433C19.7946 18.9382 19.652 18.8791 19.5034 18.8791H10.0319H0.560442C0.411804 18.8791 0.269253 18.9382 0.16415 19.0433C0.0590463 19.1484 0 19.2909 0 19.4396C0 19.5882 0.0590463 19.7307 0.16415 19.8359C0.269253 19.941 0.411804 20 0.560442 20ZM7.46733 15.7877C7.9408 15.6552 8.37279 15.4045 8.72272 15.0591L19.416 4.3659C19.7822 3.99826 19.9878 3.50051 19.9878 2.98161C19.9878 2.46271 19.7822 1.96495 19.416 1.59732L18.3623 0.554894C17.9895 0.198739 17.4937 0 16.978 0C16.4624 0 15.9666 0.198739 15.5937 0.554894L10.2471 5.89591L4.90051 11.2369C4.55453 11.5846 4.30699 12.0178 4.18314 12.4923L3.35369 15.586C3.31433 15.7273 3.31332 15.8765 3.35075 16.0184C3.38818 16.1602 3.4627 16.2895 3.56665 16.393C3.72531 16.549 3.93825 16.6374 4.16072 16.6396L7.46733 15.7877ZM7.9269 14.2633C7.72026 14.4737 7.46088 14.6247 7.1759 14.7005L6.08864 14.9919L4.96776 13.871L5.25919 12.7837C5.33759 12.4999 5.4882 12.2411 5.69634 12.0328L6.12227 11.618L8.35283 13.8486L7.9269 14.2633ZM9.14866 13.0528L6.9181 10.8222L14.4617 3.27864L16.6922 5.50921L9.14866 13.0528ZM18.6201 3.58128L17.488 4.71338L15.2575 2.48282L16.3896 1.33951C16.4675 1.26129 16.5601 1.19923 16.662 1.15688C16.7639 1.11453 16.8733 1.09273 16.9836 1.09273C17.094 1.09273 17.2033 1.11453 17.3053 1.15688C17.4072 1.19923 17.4998 1.26129 17.5777 1.33951L18.6201 2.39315C18.7765 2.55134 18.8642 2.7648 18.8642 2.98721C18.8642 3.20963 18.7765 3.42308 18.6201 3.58128Z" fill="white"/>
</svg>
