<svg width="17" height="17" viewBox="0 0 17 17" fill="none" xmlns="http://www.w3.org/2000/svg">
<path d="M4.46424 15.7877C4.9377 15.6552 5.3697 15.4045 5.71963 15.0591L16.4129 4.3659C16.7791 3.99826 16.9847 3.50051 16.9847 2.98161C16.9847 2.46271 16.7791 1.96495 16.4129 1.59732L15.3592 0.554894C14.9864 0.198739 14.4906 0 13.9749 0C13.4593 0 12.9635 0.198739 12.5907 0.554894L7.24403 5.89591L1.89741 11.2369C1.55144 11.5846 1.3039 12.0178 1.18005 12.4923L0.350593 15.586C0.311241 15.7273 0.310227 15.8765 0.347656 16.0184C0.385085 16.1602 0.459606 16.2895 0.563561 16.393C0.722217 16.549 0.935159 16.6374 1.15763 16.6396L4.46424 15.7877ZM4.9238 14.2633C4.71716 14.4737 4.45779 14.6247 4.17281 14.7005L3.08555 14.9919L1.96467 13.871L2.2561 12.7837C2.3345 12.4999 2.48511 12.2411 2.69324 12.0328L3.11918 11.618L5.34974 13.8486L4.9238 14.2633ZM6.14557 13.0528L3.91501 10.8222L11.4586 3.27864L13.6891 5.50921L6.14557 13.0528ZM15.617 3.58128L14.4849 4.71338L12.2544 2.48282L13.3865 1.33951C13.4644 1.26129 13.557 1.19923 13.6589 1.15688C13.7609 1.11453 13.8702 1.09273 13.9806 1.09273C14.0909 1.09273 14.2002 1.11453 14.3022 1.15688C14.4041 1.19923 14.4967 1.26129 14.5746 1.33951L15.617 2.39315C15.7734 2.55134 15.8611 2.7648 15.8611 2.98721C15.8611 3.20963 15.7734 3.42308 15.617 3.58128Z" fill="white"/>
</svg>
