<svg width="22" height="22" viewBox="0 0 22 22" fill="none" xmlns="http://www.w3.org/2000/svg">
<path d="M4.78369 7.05078H0.419434V21.1515H4.78369V7.05078Z" fill="white"/>
<path d="M2.58056 5.20466C4.00673 5.20466 5.16112 4.03839 5.16112 2.60167C5.16112 1.16495 4.00541 0 2.58056 0C1.15571 0 0 1.16495 0 2.60167C0 4.03839 1.15571 5.20466 2.58056 5.20466Z" fill="white"/>
<path d="M11.7618 13.7506C11.7618 11.7677 12.6748 10.5869 14.4216 10.5869C16.0258 10.5869 16.7976 11.7202 16.7976 13.7506V21.1519H21.1421V12.2242C21.1421 8.44701 19.0009 6.62109 16.0113 6.62109C13.0218 6.62109 11.7618 8.95099 11.7618 8.95099V7.05119H7.57568V21.1519H11.7618V13.7506Z" fill="white"/>
</svg>
