<svg width="14" height="18" viewBox="0 0 14 18" fill="none" xmlns="http://www.w3.org/2000/svg">
<path d="M6.51258 17.9988C6.18437 17.9033 5.9725 17.6764 5.79002 17.3986C4.32776 15.1766 2.85999 12.9582 1.39405 10.7386C0.761503 9.78058 0.305923 8.74971 0.095279 7.61483C-0.0816868 6.66044 -0.00453217 5.72256 0.263672 4.79998C0.66108 3.4314 1.42895 2.30509 2.54708 1.41983C3.37496 0.764602 4.30694 0.318606 5.34424 0.129562C7.64541 -0.290127 9.66061 0.309429 11.339 1.93374C12.3978 2.95849 13.0193 4.22857 13.2373 5.69197C13.4687 7.24348 13.0842 8.66956 12.3439 10.0149C11.7671 11.0629 11.0549 12.0271 10.4015 13.0274C9.4463 14.4889 8.47635 15.9407 7.51804 17.4004C7.33557 17.6782 7.12309 17.9046 6.79487 18H6.5132L6.51258 17.9988ZM6.67057 0.765825C6.37848 0.802533 6.10844 0.795803 5.84024 0.834346C4.89417 0.970776 4.03016 1.30971 3.25433 1.86522C2.20601 2.61527 1.47243 3.60393 1.07196 4.82812C0.785384 5.7036 0.69782 6.59804 0.871724 7.51389C1.06645 8.53803 1.49141 9.46245 2.05966 10.3257C3.52866 12.5569 5.00378 14.785 6.47646 17.0138C6.50891 17.0627 6.54198 17.1105 6.57565 17.1588C6.62464 17.2285 6.67547 17.2346 6.72751 17.1625C6.76181 17.1147 6.79487 17.067 6.82733 17.0181C7.65398 15.7663 8.48554 14.5183 9.30546 13.2623C10.0837 12.0705 10.9128 10.9112 11.6305 9.68086C12.102 8.87207 12.4076 7.99965 12.4951 7.06667C12.6133 5.80638 12.3188 4.62929 11.6403 3.56538C10.4799 1.74653 8.79109 0.847194 6.66995 0.766437L6.67057 0.765825Z" fill="white"/>
<path d="M6.64997 10.1724C4.70403 10.1705 3.12731 8.59044 3.13038 6.64607C3.13344 4.70477 4.72546 3.11976 6.66283 3.12895C8.59958 3.13813 10.1732 4.7164 10.1738 6.65036C10.1738 8.59534 8.59469 10.1742 6.64997 10.1724ZM6.65119 3.91012C5.14551 3.91135 3.90434 5.15535 3.90985 6.6577C3.91536 8.16006 5.14306 9.38753 6.64446 9.39182C8.15259 9.3961 9.3907 8.16434 9.39437 6.65587C9.39804 5.1529 8.15504 3.9089 6.65119 3.91012Z" fill="white"/>
</svg>
