<svg width="16" height="12" viewBox="0 0 16 12" fill="none" xmlns="http://www.w3.org/2000/svg">
<path d="M0 10.8129V1.18812C0.0433583 1.04487 0.0636703 0.894585 0.133981 0.75956C0.400771 0.247637 0.829277 0.00302535 1.39918 0.00145983C2.41986 -0.00127982 3.44054 0.000677208 4.46122 0.000677208C7.83067 0.000677208 11.1997 0.000677124 14.5692 0.000285746C14.9356 0.000285746 15.2656 0.0926511 15.5477 0.339611C15.807 0.567002 15.9324 0.861318 16 1.18851V10.8133C15.9566 10.9565 15.9363 11.1068 15.866 11.2418C15.5992 11.7538 15.1707 11.9984 14.6008 11.9999C13.5852 12.0027 12.57 12.0007 11.5544 12.0007C8.17988 12.0007 4.80535 12.0007 1.43082 12.0011C1.06443 12.0011 0.734357 11.9088 0.452333 11.6618C0.192964 11.4344 0.0675765 11.1401 0 10.8129ZM14.7746 0.722379C14.7727 0.709463 14.7707 0.696939 14.7688 0.684024H1.22145C1.24724 0.762299 1.30036 0.790479 1.34098 0.827268C3.3714 2.68044 5.40299 4.53284 7.4338 6.38562C7.84434 6.76017 8.15527 6.75978 8.56659 6.38484C10.0517 5.03067 11.538 3.67768 13.0231 2.3239C13.6079 1.79084 14.1907 1.25622 14.7746 0.722379ZM1.21208 11.3166H14.8184C14.7621 11.2575 14.7325 11.2231 14.6996 11.1921C13.7419 10.2951 12.7845 9.39806 11.8259 8.5022C11.1029 7.82668 10.3583 7.17543 9.6193 6.51791C9.53414 6.44198 9.48571 6.44081 9.40602 6.52065C9.26657 6.66037 9.11579 6.78953 8.96814 6.92103C8.37089 7.45135 7.7127 7.47052 7.0924 6.96995C6.93069 6.83923 6.77327 6.70107 6.62953 6.55079C6.52289 6.43963 6.45883 6.44903 6.34477 6.54844C4.61903 8.05642 2.95618 9.63211 1.28903 11.2035C1.26013 11.2305 1.21755 11.2497 1.21208 11.3166ZM0.683577 10.8442C0.741388 10.7984 0.762481 10.7843 0.78084 10.7667C2.46517 9.17537 4.14756 7.58246 5.89712 6.06195C5.99673 5.97546 5.9522 5.93828 5.88228 5.87488C4.20068 4.34224 2.52064 2.80764 0.839433 1.27461C0.799199 1.23782 0.76795 1.18342 0.683577 1.17951V10.8442ZM15.3188 1.17677C15.2367 1.18577 15.2102 1.22882 15.177 1.25896C13.4883 2.79942 11.8009 4.34106 10.1107 5.88035C10.0298 5.95432 10.0228 5.99229 10.1095 6.06782C11.8466 7.57854 13.518 9.1605 15.1918 10.7401C15.2223 10.7687 15.2438 10.8231 15.3188 10.798V1.17677Z" fill="white"/>
</svg>
