<svg width="23" height="19" viewBox="0 0 23 19" fill="none" xmlns="http://www.w3.org/2000/svg">
<path d="M0 16.1918C2.04096 17.5006 4.46453 18.2631 7.06752 18.2631C15.6272 18.2631 20.4637 11.0333 20.1722 4.54764C21.0733 3.89855 21.8543 3.08585 22.473 2.16102C21.6458 2.52779 20.7566 2.77582 19.8252 2.88664C20.7764 2.3167 21.5073 1.41297 21.8516 0.336422C20.9611 0.865463 19.9743 1.24938 18.9241 1.45651C18.0824 0.560705 16.8845 0 15.5586 0C12.5835 0 10.3961 2.77714 11.0676 5.66114C7.23507 5.46852 3.83918 3.63337 1.5647 0.843036C0.356212 2.91566 0.938026 5.62684 2.99218 6.99891C2.23622 6.97516 1.5238 6.76671 0.903724 6.42237C0.85359 8.55833 2.38398 10.5558 4.60173 11.0017C3.95264 11.1785 3.24153 11.218 2.51987 11.0808C3.10564 12.9134 4.80887 14.2445 6.82608 14.2828C4.88802 15.8026 2.44599 16.4808 0 16.1918V16.1918Z" fill="white"/>
</svg>
