<svg width="15" height="15" viewBox="0 0 15 15" fill="none" xmlns="http://www.w3.org/2000/svg">
<path d="M7.9239 0C7.62157 0 7.31962 0 7.01729 0C6.97427 0.0299968 6.92375 0.0224976 6.87599 0.0260499C5.80242 0.105384 4.7916 0.396669 3.84749 0.916088C1.01121 2.47632 -0.489422 5.94214 0.197742 8.94656C0.524156 10.3742 1.11541 11.6688 2.11991 12.7435C3.85183 14.597 6.03608 15.1796 8.48871 14.895C9.73674 14.7506 10.877 14.2757 11.9052 13.5515C13.5404 12.3994 14.5414 10.8379 14.8836 8.86288C14.9341 8.5716 14.9617 8.27597 15 7.98232C15 7.65077 15 7.31962 15 6.98808C14.9913 6.93637 14.9779 6.88506 14.9743 6.83336C14.8997 5.81544 14.6531 4.84291 14.1601 3.94695C12.9799 1.80178 11.1205 0.602305 8.76026 0.118803C8.48516 0.0623619 8.20295 0.0386801 7.9239 0ZM13.0569 7.72458C13.4954 7.72458 13.9339 7.72853 14.372 7.72182C14.4849 7.72024 14.5197 7.75379 14.5047 7.86272C14.4897 7.9685 14.4877 8.07625 14.477 8.18282C14.3409 9.55123 13.8384 10.7708 12.9878 11.8499C12.9156 11.9415 12.8785 11.9344 12.8019 11.8566C12.3658 11.4138 11.8787 11.0341 11.342 10.7203C11.2555 10.6698 11.233 10.6224 11.2575 10.5249C11.4777 9.64793 11.5883 8.75552 11.6068 7.85207C11.6088 7.74905 11.6407 7.72103 11.7414 7.72221C12.1799 7.72734 12.6184 7.72419 13.0569 7.72419V7.72458ZM13.0632 7.24621C12.62 7.24621 12.1767 7.24384 11.7331 7.24818C11.638 7.24897 11.6052 7.22095 11.6072 7.12464C11.61 6.98374 11.5997 6.84244 11.5918 6.70153C11.55 5.93148 11.4402 5.17169 11.2547 4.42296C11.2374 4.35309 11.2421 4.30968 11.3124 4.26942C11.8728 3.94695 12.3769 3.55068 12.8292 3.08889C12.8829 3.03402 12.9168 3.0281 12.9638 3.09441C13.0455 3.20927 13.137 3.31741 13.2187 3.43266C13.9971 4.53308 14.4241 5.75663 14.5051 7.10215C14.5122 7.21779 14.4802 7.25095 14.3638 7.24937C13.9304 7.24266 13.4966 7.2466 13.0632 7.2466V7.24621ZM1.97979 7.24621C1.53655 7.24621 1.0937 7.24305 0.650458 7.24858C0.546654 7.24976 0.51113 7.21858 0.52455 7.11636C0.538759 7.01058 0.541127 6.90322 0.551785 6.79665C0.687165 5.42351 1.19158 4.20035 2.04452 3.11809C2.10846 3.03679 2.14477 3.03087 2.21937 3.10744C2.65669 3.55581 3.14848 3.93709 3.68803 4.25403C3.7796 4.3077 3.78907 4.36099 3.76618 4.45256C3.54831 5.32483 3.4374 6.21132 3.42003 7.10925C3.41806 7.21661 3.38925 7.25055 3.27913 7.24897C2.84575 7.24266 2.41238 7.2466 1.9794 7.2466L1.97979 7.24621ZM0.526128 7.91759C0.545863 7.84338 0.459031 7.72103 0.642959 7.72221C1.52905 7.72813 2.41514 7.72616 3.30123 7.7234C3.39043 7.7234 3.41806 7.75181 3.41964 7.83983C3.43701 8.75276 3.55068 9.65346 3.77092 10.5403C3.78947 10.6145 3.78394 10.6603 3.70737 10.7053C3.1548 11.0302 2.65196 11.4197 2.20398 11.8787C2.14398 11.9399 2.11241 11.9376 2.05952 11.8709C1.13712 10.7136 0.632301 9.39533 0.526128 7.91798V7.91759ZM7.27542 12.3105C7.27542 12.963 7.27542 13.6158 7.27542 14.2682C7.27542 14.4116 7.20358 14.4655 7.05992 14.4297C7.05518 14.4285 7.05084 14.4265 7.0461 14.4253C6.4805 14.2809 6.04357 13.9398 5.67177 13.5084C5.03671 12.7716 4.66135 11.9001 4.37717 10.9816C4.34836 10.8877 4.40006 10.8743 4.45729 10.8462C5.29918 10.4369 6.18922 10.2123 7.12228 10.1492C7.24226 10.1409 7.27976 10.1677 7.27858 10.2944C7.27226 10.9666 7.27542 11.6384 7.27542 12.3105ZM7.75379 2.66064C7.75379 2.00821 7.75379 1.35538 7.75379 0.702952C7.75379 0.559283 7.82562 0.505342 7.96929 0.541127C7.97403 0.542311 7.97837 0.544285 7.98311 0.545469C8.5641 0.695058 9.00853 1.04871 9.38625 1.4955C10.0039 2.22648 10.3734 3.08494 10.652 3.98919C10.6812 4.08391 10.628 4.09654 10.5715 4.12417C9.7249 4.53623 8.83052 4.76042 7.89233 4.82318C7.76642 4.83147 7.75063 4.7841 7.75142 4.67714C7.75537 4.00497 7.7534 3.3332 7.7534 2.66104L7.75379 2.66064ZM7.27542 2.65946C7.27542 3.33636 7.27266 4.01326 7.27818 4.69016C7.27897 4.80226 7.24779 4.82949 7.13806 4.82199C6.19514 4.75884 5.29602 4.53189 4.44427 4.12062C4.3752 4.08746 4.35625 4.05549 4.38112 3.97656C4.47742 3.67027 4.58162 3.36715 4.70753 3.07152C5.00553 2.37212 5.37575 1.7189 5.93385 1.18922C6.27487 0.865567 6.66325 0.625592 7.12978 0.523366C7.24582 0.498105 7.27937 0.519419 7.27818 0.642959C7.27266 1.31473 7.27542 1.9869 7.27542 2.65906V2.65946ZM7.75379 12.2944C7.75379 11.6273 7.75734 10.9599 7.75063 10.2929C7.74945 10.1638 7.79089 10.1342 7.90851 10.15C8.08218 10.1737 8.25742 10.1823 8.43109 10.2052C9.18456 10.3039 9.90251 10.5218 10.5869 10.8521C10.6584 10.8865 10.6745 10.9212 10.6469 10.9966C10.5802 11.1793 10.5293 11.3672 10.4606 11.5492C10.1831 12.2869 9.83344 12.9851 9.29784 13.5744C8.91419 13.9967 8.46779 14.3211 7.89667 14.4474C7.77431 14.4743 7.75024 14.4415 7.75103 14.3243C7.75576 13.6474 7.7534 12.9705 7.7534 12.2936L7.75379 12.2944ZM9.4498 7.24621C8.93353 7.24621 8.41767 7.24345 7.90141 7.24818C7.79286 7.24937 7.74905 7.22845 7.75063 7.1057C7.75774 6.55076 7.75655 5.99542 7.75142 5.44048C7.75063 5.3347 7.77787 5.29839 7.88799 5.29365C8.86723 5.25103 9.79949 5.01381 10.6864 4.59859C10.774 4.55755 10.804 4.55794 10.8289 4.6653C11.0136 5.47482 11.102 6.29539 11.1344 7.12386C11.1383 7.22253 11.1083 7.24818 11.0132 7.24779C10.4922 7.24384 9.97119 7.24582 9.45019 7.24621H9.4498ZM9.43993 7.72458C9.96093 7.72458 10.4819 7.72655 11.0029 7.72261C11.1012 7.72182 11.1387 7.74274 11.1344 7.85128C11.1012 8.67461 11.0136 9.49045 10.8308 10.2952C10.8068 10.4014 10.7799 10.4156 10.682 10.3694C9.79515 9.95422 8.86288 9.71779 7.88364 9.67595C7.78379 9.67161 7.75103 9.64162 7.75221 9.53979C7.75655 8.98011 7.75734 8.42003 7.75182 7.85996C7.75063 7.74866 7.78458 7.72103 7.89233 7.72182C8.40819 7.72695 8.92446 7.72419 9.44072 7.72419L9.43993 7.72458ZM5.60033 7.24621C5.0746 7.24621 4.54886 7.24503 4.02273 7.24739C3.93669 7.24779 3.89051 7.23832 3.89485 7.13056C3.92722 6.30723 4.01642 5.49179 4.19482 4.68582C4.22363 4.55518 4.2631 4.56228 4.36375 4.60925C5.24274 5.01658 6.16593 5.25221 7.1353 5.29326C7.25371 5.29839 7.27897 5.33983 7.27779 5.44916C7.27305 5.99937 7.27147 6.54957 7.27858 7.09938C7.28016 7.22805 7.23437 7.24976 7.11951 7.24858C6.61312 7.24305 6.10673 7.24621 5.60033 7.24621ZM5.5877 7.72458C6.10396 7.72458 6.61983 7.72734 7.13609 7.72221C7.24187 7.72103 7.27937 7.7455 7.27818 7.85878C7.27226 8.41846 7.27345 8.97853 7.27779 9.5386C7.27858 9.63885 7.24937 9.67201 7.14754 9.67595C6.16751 9.71503 5.23524 9.95106 4.34915 10.3686C4.25482 10.4132 4.22403 10.4077 4.19916 10.2972C4.01602 9.48729 3.92801 8.66672 3.89525 7.83825C3.89091 7.72774 3.94222 7.7234 4.0251 7.72379C4.5461 7.72577 5.0671 7.72498 5.5881 7.72498L5.5877 7.72458ZM5.74203 14.2359C5.69506 14.2359 5.67967 14.239 5.66625 14.2355C4.45374 13.8972 3.40622 13.2787 2.51737 12.3871C2.44356 12.3129 2.4779 12.2798 2.53079 12.2265C2.9168 11.8377 3.34228 11.4994 3.80447 11.205C3.90156 11.1434 3.93945 11.143 3.97695 11.2646C4.15575 11.8424 4.39256 12.3962 4.69569 12.9204C4.97474 13.4031 5.30826 13.8435 5.74163 14.2359H5.74203ZM5.73374 0.722687C5.57586 0.891222 5.42706 1.03686 5.29326 1.19553C4.67477 1.92809 4.27455 2.77826 3.98326 3.6829C3.93748 3.82539 3.89722 3.82223 3.78552 3.75039C3.33715 3.46266 2.92588 3.13072 2.54578 2.75774C2.46724 2.68077 2.45895 2.63775 2.54263 2.55447C3.30044 1.80178 4.18022 1.24408 5.18472 0.883328C5.3572 0.821361 5.53008 0.75742 5.73374 0.722292V0.722687ZM9.29942 0.745974C9.34046 0.723082 9.3677 0.735712 9.39533 0.743211C10.5909 1.08383 11.6258 1.69561 12.5036 2.57618C12.5793 2.65196 12.5537 2.68788 12.4941 2.74747C12.1065 3.13428 11.6814 3.47292 11.2196 3.76776C11.1111 3.83723 11.085 3.80802 11.0507 3.70066C10.8 2.91285 10.4602 2.16767 9.97198 1.4955C9.77463 1.22356 9.55044 0.975292 9.29942 0.746369V0.745974ZM9.31678 14.2331C9.45966 14.0752 9.60925 13.9296 9.74266 13.7693C10.3596 13.0289 10.761 12.1756 11.0523 11.2654C11.0858 11.1612 11.1103 11.1359 11.2129 11.2015C11.6747 11.4951 12.099 11.8341 12.4882 12.219C12.5655 12.2955 12.5663 12.3342 12.4882 12.4112C11.846 13.0498 11.1123 13.5527 10.2818 13.913C9.9704 14.048 9.65188 14.1636 9.31599 14.2335L9.31678 14.2331Z" fill="white"/>
</svg>
