<svg width="564" height="1200" viewBox="0 0 564 876" fill="none" xmlns="http://www.w3.org/2000/svg">
    <rect width="564" height="876" rx="18" fill="url(#paint0_linear_5487_6943)" fill-opacity="0.34" />
    <g opacity="0.75" filter="url(#filter0_b_5487_6943)">
        <path
            d="M314 20C314 8.95428 322.954 0 334 0H544C555.046 0 564 8.95431 564 20V856C564 867.046 555.046 876 544 876H334C322.954 876 314 867.046 314 856V20Z"
            fill="url(#paint1_linear_5487_6943)" />
        <path
            d="M334 0.5H544C554.77 0.5 563.5 9.23045 563.5 20V856C563.5 866.77 554.77 875.5 544 875.5H334C323.23 875.5 314.5 866.77 314.5 856V20C314.5 9.23042 323.23 0.5 334 0.5Z"
            stroke="url(#paint2_linear_5487_6943)" />
    </g>
    <g opacity="0.34" filter="url(#filter1_b_5487_6943)">
        <path
            d="M314 20C314 8.95431 322.954 0 334 0H544C555.046 0 564 8.95431 564 20V63C564 74.0457 555.046 83 544 83H334C322.954 83 314 74.0457 314 63V20Z"
            fill="url(#paint3_linear_5487_6943)" />
        <path
            d="M334 0.5H544C554.77 0.5 563.5 9.23045 563.5 20V63C563.5 73.7696 554.77 82.5 544 82.5H334C323.23 82.5 314.5 73.7696 314.5 63V20C314.5 9.23045 323.23 0.5 334 0.5Z"
            stroke="url(#paint4_linear_5487_6943)" />
    </g>
    <defs>
        <filter id="filter0_b_5487_6943" x="304" y="-10" width="270" height="896" filterUnits="userSpaceOnUse"
            color-interpolation-filters="sRGB">
            <feFlood flood-opacity="0" result="BackgroundImageFix" />
            <feGaussianBlur in="BackgroundImageFix" stdDeviation="5" />
            <feComposite in2="SourceAlpha" operator="in" result="effect1_backgroundBlur_5487_6943" />
            <feBlend mode="normal" in="SourceGraphic" in2="effect1_backgroundBlur_5487_6943" result="shape" />
        </filter>
        <filter id="filter1_b_5487_6943" x="304" y="-10" width="270" height="103" filterUnits="userSpaceOnUse"
            color-interpolation-filters="sRGB">
            <feFlood flood-opacity="0" result="BackgroundImageFix" />
            <feGaussianBlur in="BackgroundImageFix" stdDeviation="5" />
            <feComposite in2="SourceAlpha" operator="in" result="effect1_backgroundBlur_5487_6943" />
            <feBlend mode="normal" in="SourceGraphic" in2="effect1_backgroundBlur_5487_6943" result="shape" />
        </filter>
        <linearGradient id="paint0_linear_5487_6943" x1="-13.9301" y1="27.6631" x2="745.217" y2="612.747"
            gradientUnits="userSpaceOnUse">
            <stop stop-color="#812DE2" />
            <stop offset="0.4" stop-color="#812DE2" />
            <stop offset="1" stop-color="#3A49F9" />
        </linearGradient>
        <linearGradient id="paint1_linear_5487_6943" x1="210.946" y1="-6.70757e-05" x2="550.5" y2="33.7078"
            gradientUnits="userSpaceOnUse">
            <stop stop-color="#CBBAE9" stop-opacity="0.05" />
            <stop offset="1" stop-color="#C1B3E7" stop-opacity="0.25" />
        </linearGradient>
        <linearGradient id="paint2_linear_5487_6943" x1="217.633" y1="-0.000155989" x2="550.954" y2="32.9424"
            gradientUnits="userSpaceOnUse">
            <stop offset="0.008842" stop-color="white" stop-opacity="0.6" />
            <stop offset="0.392253" stop-color="#A756BF" stop-opacity="0.05" />
            <stop offset="0.907987" stop-color="white" stop-opacity="0.5" />
        </linearGradient>
        <linearGradient id="paint3_linear_5487_6943" x1="210.946" y1="-6.35534e-06" x2="374.409" y2="171.264"
            gradientUnits="userSpaceOnUse">
            <stop stop-color="#CBBAE9" stop-opacity="0.05" />
            <stop offset="1" stop-color="#C1B3E7" stop-opacity="0.25" />
        </linearGradient>
        <linearGradient id="paint4_linear_5487_6943" x1="217.633" y1="-1.47798e-05" x2="378.826" y2="168.139"
            gradientUnits="userSpaceOnUse">
            <stop offset="0.008842" stop-color="white" stop-opacity="0.6" />
            <stop offset="0.392253" stop-color="#A756BF" stop-opacity="0.05" />
            <stop offset="0.907987" stop-color="white" stop-opacity="0.5" />
        </linearGradient>
    </defs>
</svg>