<svg width="250" height="876" viewBox="0 0 250 876" fill="none" xmlns="http://www.w3.org/2000/svg">
<g opacity="0.75" filter="url(#filter0_b_5487_6928)">
<path d="M0 20C0 8.95428 8.95431 0 20 0H230C241.046 0 250 8.95431 250 20V856C250 867.046 241.046 876 230 876H20C8.9543 876 0 867.046 0 856V20Z" fill="url(#paint0_linear_5487_6928)"/>
<path d="M20 0.5H230C240.77 0.5 249.5 9.23045 249.5 20V856C249.5 866.77 240.77 875.5 230 875.5H20C9.23044 875.5 0.5 866.77 0.5 856V20C0.5 9.23042 9.23045 0.5 20 0.5Z" stroke="url(#paint1_linear_5487_6928)"/>
</g>
<rect width="250" height="876" rx="18" fill="url(#paint2_linear_5487_6928)" fill-opacity="0.5"/>
<g opacity="0.34" filter="url(#filter1_b_5487_6928)">
<path d="M0 20C0 8.95431 8.95431 0 20 0H230C241.046 0 250 8.95431 250 20V63C250 74.0457 241.046 83 230 83H20C8.9543 83 0 74.0457 0 63V20Z" fill="url(#paint3_linear_5487_6928)"/>
<path d="M20 0.5H230C240.77 0.5 249.5 9.23045 249.5 20V63C249.5 73.7696 240.77 82.5 230 82.5H20C9.23044 82.5 0.5 73.7696 0.5 63V20C0.5 9.23045 9.23045 0.5 20 0.5Z" stroke="url(#paint4_linear_5487_6928)"/>
</g>
<g opacity="0.34" filter="url(#filter2_b_5487_6928)">
<path d="M0 20C0 8.95431 8.95431 0 20 0H230C241.046 0 250 8.95431 250 20V63C250 74.0457 241.046 83 230 83H20C8.9543 83 0 74.0457 0 63V20Z" fill="url(#paint5_linear_5487_6928)"/>
<path d="M20 0.5H230C240.77 0.5 249.5 9.23045 249.5 20V63C249.5 73.7696 240.77 82.5 230 82.5H20C9.23044 82.5 0.5 73.7696 0.5 63V20C0.5 9.23045 9.23045 0.5 20 0.5Z" stroke="url(#paint6_linear_5487_6928)"/>
</g>
<defs>
<filter id="filter0_b_5487_6928" x="-10" y="-10" width="270" height="896" filterUnits="userSpaceOnUse" color-interpolation-filters="sRGB">
<feFlood flood-opacity="0" result="BackgroundImageFix"/>
<feGaussianBlur in="BackgroundImageFix" stdDeviation="5"/>
<feComposite in2="SourceAlpha" operator="in" result="effect1_backgroundBlur_5487_6928"/>
<feBlend mode="normal" in="SourceGraphic" in2="effect1_backgroundBlur_5487_6928" result="shape"/>
</filter>
<filter id="filter1_b_5487_6928" x="-10" y="-10" width="270" height="103" filterUnits="userSpaceOnUse" color-interpolation-filters="sRGB">
<feFlood flood-opacity="0" result="BackgroundImageFix"/>
<feGaussianBlur in="BackgroundImageFix" stdDeviation="5"/>
<feComposite in2="SourceAlpha" operator="in" result="effect1_backgroundBlur_5487_6928"/>
<feBlend mode="normal" in="SourceGraphic" in2="effect1_backgroundBlur_5487_6928" result="shape"/>
</filter>
<filter id="filter2_b_5487_6928" x="-10" y="-10" width="270" height="103" filterUnits="userSpaceOnUse" color-interpolation-filters="sRGB">
<feFlood flood-opacity="0" result="BackgroundImageFix"/>
<feGaussianBlur in="BackgroundImageFix" stdDeviation="5"/>
<feComposite in2="SourceAlpha" operator="in" result="effect1_backgroundBlur_5487_6928"/>
<feBlend mode="normal" in="SourceGraphic" in2="effect1_backgroundBlur_5487_6928" result="shape"/>
</filter>
<linearGradient id="paint0_linear_5487_6928" x1="-103.054" y1="-6.70757e-05" x2="236.5" y2="33.7078" gradientUnits="userSpaceOnUse">
<stop stop-color="#CBBAE9" stop-opacity="0.05"/>
<stop offset="1" stop-color="#C1B3E7" stop-opacity="0.25"/>
</linearGradient>
<linearGradient id="paint1_linear_5487_6928" x1="-96.367" y1="-0.000155989" x2="236.954" y2="32.9424" gradientUnits="userSpaceOnUse">
<stop offset="0.008842" stop-color="white" stop-opacity="0.6"/>
<stop offset="0.392253" stop-color="#A756BF" stop-opacity="0.05"/>
<stop offset="0.907987" stop-color="white" stop-opacity="0.5"/>
</linearGradient>
<linearGradient id="paint2_linear_5487_6928" x1="-6.17467" y1="27.6631" x2="474.149" y2="191.755" gradientUnits="userSpaceOnUse">
<stop stop-color="#812DE2"/>
<stop offset="0.4" stop-color="#812DE2"/>
<stop offset="1" stop-color="#3A49F9"/>
</linearGradient>
<linearGradient id="paint3_linear_5487_6928" x1="-103.054" y1="-6.35534e-06" x2="60.4087" y2="171.264" gradientUnits="userSpaceOnUse">
<stop stop-color="#CBBAE9" stop-opacity="0.05"/>
<stop offset="1" stop-color="#C1B3E7" stop-opacity="0.25"/>
</linearGradient>
<linearGradient id="paint4_linear_5487_6928" x1="-96.367" y1="-1.47798e-05" x2="64.8259" y2="168.139" gradientUnits="userSpaceOnUse">
<stop offset="0.008842" stop-color="white" stop-opacity="0.6"/>
<stop offset="0.392253" stop-color="#A756BF" stop-opacity="0.05"/>
<stop offset="0.907987" stop-color="white" stop-opacity="0.5"/>
</linearGradient>
<linearGradient id="paint5_linear_5487_6928" x1="-103.054" y1="-6.35534e-06" x2="60.4087" y2="171.264" gradientUnits="userSpaceOnUse">
<stop stop-color="#CBBAE9" stop-opacity="0.05"/>
<stop offset="1" stop-color="#C1B3E7" stop-opacity="0.25"/>
</linearGradient>
<linearGradient id="paint6_linear_5487_6928" x1="-96.367" y1="-1.47798e-05" x2="64.8259" y2="168.139" gradientUnits="userSpaceOnUse">
<stop offset="0.008842" stop-color="white" stop-opacity="0.6"/>
<stop offset="0.392253" stop-color="#A756BF" stop-opacity="0.05"/>
<stop offset="0.907987" stop-color="white" stop-opacity="0.5"/>
</linearGradient>
</defs>
</svg>
