<svg width="47" height="47" viewBox="0 0 50 50" fill="none" xmlns="http://www.w3.org/2000/svg">
    <path
        d="M25 50C38.8071 50 50 38.8071 50 25C50 11.1929 38.8071 0 25 0C11.1929 0 0 11.1929 0 25C0 38.8071 11.1929 50 25 50Z"
        fill="#F98D3B" />
    <g filter="url(#filter0_d_4557_34)">
        <path
            d="M9.01087 29.162V23.5726C9.01087 21.0444 11.0607 19 13.5835 19H37.5505C40.0733 19 42.1231 21.0498 42.1231 23.5726V29.162C42.1231 30.3963 41.1227 31.4021 39.883 31.4021H34.0761C32.8419 31.4021 31.836 30.4017 31.836 29.162V25.8182H18.7162V29.162C18.7162 30.3963 17.7157 31.4021 16.4761 31.4021H11.2401C10.0059 31.4021 9 30.4017 9 29.162H9.01087Z"
            fill="white" />
    </g>
    <defs>
        <filter id="filter0_d_4557_34" x="9" y="18" width="37.123" height="16.4023" filterUnits="userSpaceOnUse"
            color-interpolation-filters="sRGB">
            <feFlood flood-opacity="0" result="BackgroundImageFix" />
            <feColorMatrix in="SourceAlpha" type="matrix" values="0 0 0 0 0 0 0 0 0 0 0 0 0 0 0 0 0 0 127 0"
                result="hardAlpha" />
            <feOffset dx="2" dy="1" />
            <feGaussianBlur stdDeviation="1" />
            <feColorMatrix type="matrix" values="0 0 0 0 0 0 0 0 0 0 0 0 0 0 0 0 0 0 0.2 0" />
            <feBlend mode="normal" in2="BackgroundImageFix" result="effect1_dropShadow_4557_34" />
            <feBlend mode="normal" in="SourceGraphic" in2="effect1_dropShadow_4557_34" result="shape" />
        </filter>
    </defs>
</svg>