<svg width="47" height="47" viewBox="0 0 51 51" fill="none" xmlns="http://www.w3.org/2000/svg">
    <path
        d="M50.8613 25.8633C50.8613 12.0562 39.6684 0.863283 25.8613 0.863284C12.0542 0.863285 0.861326 12.0562 0.861327 25.8633C0.861328 39.6704 12.0542 50.8633 25.8613 50.8633C39.6684 50.8633 50.8613 39.6704 50.8613 25.8633Z"
        fill="#009DDD" />
    <g filter="url(#filter0_d_4383_9)">
        <path
            d="M25.8933 30.5074L10.5442 17.6758C10.4246 18.0183 10.2832 18.388 10.2832 18.7741V32.7856C10.2832 34.6125 11.9089 36.2164 13.7358 36.2164H38.0561C39.883 36.2164 41.2695 34.6179 41.2695 32.7856V18.7741C41.2695 18.4044 41.2532 18.0455 41.139 17.7138L25.8933 30.5074Z"
            fill="white" />
        <path
            d="M25.8991 27.6702L39.8563 16.0401C39.3398 15.703 38.7254 15.5508 38.062 15.5508H13.7362C13.0892 15.5508 12.4857 15.6976 11.9746 16.0184L25.8991 27.6702Z"
            fill="white" />
    </g>
    <defs>
        <filter id="filter0_d_4383_9" x="10.2832" y="14.5508" width="34.9863" height="24.666"
            filterUnits="userSpaceOnUse" color-interpolation-filters="sRGB">
            <feFlood flood-opacity="0" result="BackgroundImageFix" />
            <feColorMatrix in="SourceAlpha" type="matrix" values="0 0 0 0 0 0 0 0 0 0 0 0 0 0 0 0 0 0 127 0"
                result="hardAlpha" />
            <feOffset dx="2" dy="1" />
            <feGaussianBlur stdDeviation="1" />
            <feColorMatrix type="matrix" values="0 0 0 0 0 0 0 0 0 0 0 0 0 0 0 0 0 0 0.2 0" />
            <feBlend mode="normal" in2="BackgroundImageFix" result="effect1_dropShadow_4383_9" />
            <feBlend mode="normal" in="SourceGraphic" in2="effect1_dropShadow_4383_9" result="shape" />
        </filter>
    </defs>
</svg>