<svg width="47" height="47" viewBox="0 0 50 50" fill="none" xmlns="http://www.w3.org/2000/svg">
    <path
        d="M25 50C38.8071 50 50 38.8071 50 25C50 11.1929 38.8071 0 25 0C11.1929 0 0 11.1929 0 25C0 38.8071 11.1929 50 25 50Z"
        fill="#FF9600" />
    <g filter="url(#filter0_d_4557_36)">
        <path
            d="M19.4284 19.4284C20.07 14.5676 21.5054 10.4463 23.6966 9C15.9759 9.82101 9.82101 15.9759 9 23.6966C10.4463 21.5054 14.5676 20.07 19.4284 19.4284Z"
            fill="white" />
        <path
            d="M31.4986 19.4284C36.3594 20.07 40.4808 21.5054 41.9271 23.6966C41.1061 15.9759 34.9512 9.82101 27.2305 9C29.4216 10.4463 30.857 14.5676 31.4986 19.4284Z"
            fill="white" />
        <path
            d="M41.9271 27.2305C40.4808 29.4216 36.3594 30.857 31.4986 31.4986C30.857 36.3594 29.4216 40.4808 27.2305 41.9271C34.9512 41.1061 41.1061 34.9512 41.9271 27.2305Z"
            fill="white" />
        <path
            d="M19.4284 31.4986C14.5676 30.857 10.4463 29.4216 9 27.2305C9.82101 34.9512 15.9759 41.1061 23.6966 41.9271C21.5054 40.4808 20.07 36.3594 19.4284 31.4986Z"
            fill="white" />
        <path
            d="M29.4766 29.4711C29.5853 28.2315 29.6506 26.9048 29.6506 25.4639C29.6506 24.0231 29.5853 22.691 29.4766 21.4513C28.2369 21.3426 26.9102 21.2773 25.4639 21.2773C24.0177 21.2773 22.691 21.3426 21.4513 21.4513C21.3426 22.691 21.2773 24.0177 21.2773 25.4639C21.2773 26.9102 21.3426 28.2369 21.4513 29.4711C22.691 29.5799 24.0177 29.6451 25.4639 29.6451C26.9102 29.6451 28.2369 29.5799 29.4766 29.4711Z"
            fill="white" />
        <path
            d="M10.6738 25.4645C10.6738 26.5683 13.5773 28.3897 19.1884 29.2162C19.0905 27.9819 19.0416 26.7205 19.0416 25.4645C19.0416 24.2085 19.0905 22.9471 19.1884 21.7129C13.5827 22.5393 10.6738 24.3608 10.6738 25.4645Z"
            fill="white" />
        <path
            d="M29.2162 19.1884C28.3897 13.5827 26.5683 10.6738 25.4645 10.6738C24.3608 10.6738 22.5393 13.5773 21.7129 19.1884C22.9471 19.0905 24.2085 19.0416 25.4645 19.0416C26.7205 19.0416 27.9819 19.0905 29.2162 19.1884Z"
            fill="white" />
        <path
            d="M25.4645 31.8851C24.2085 31.8851 22.9471 31.8361 21.7129 31.7383C22.5393 37.3494 24.3608 40.2529 25.4645 40.2529C26.5683 40.2529 28.3897 37.3494 29.2162 31.7383C27.9819 31.8361 26.7205 31.8851 25.4645 31.8851Z"
            fill="white" />
        <path
            d="M31.7383 29.2162C37.344 28.3897 40.2529 26.5683 40.2529 25.4645C40.2529 24.3608 37.3494 22.5393 31.7383 21.7129C31.8361 22.9471 31.8851 24.2085 31.8851 25.4645C31.8851 26.7205 31.8361 27.9819 31.7383 29.2162Z"
            fill="white" />
    </g>
    <defs>
        <filter id="filter0_d_4557_36" x="9" y="8" width="36.9277" height="36.9277" filterUnits="userSpaceOnUse"
            color-interpolation-filters="sRGB">
            <feFlood flood-opacity="0" result="BackgroundImageFix" />
            <feColorMatrix in="SourceAlpha" type="matrix" values="0 0 0 0 0 0 0 0 0 0 0 0 0 0 0 0 0 0 127 0"
                result="hardAlpha" />
            <feOffset dx="2" dy="1" />
            <feGaussianBlur stdDeviation="1" />
            <feColorMatrix type="matrix" values="0 0 0 0 0 0 0 0 0 0 0 0 0 0 0 0 0 0 0.2 0" />
            <feBlend mode="normal" in2="BackgroundImageFix" result="effect1_dropShadow_4557_36" />
            <feBlend mode="normal" in="SourceGraphic" in2="effect1_dropShadow_4557_36" result="shape" />
        </filter>
    </defs>
</svg>