<svg width="47" height="47" viewBox="0 0 47 47" fill="none" xmlns="http://www.w3.org/2000/svg">
<path d="M23.495 46.99C36.471 46.99 46.99 36.471 46.99 23.495C46.99 10.5191 36.471 0 23.495 0C10.5191 0 0 10.5191 0 23.495C0 36.471 10.5191 46.99 23.495 46.99Z" fill="url(#paint0_linear_4517_89)"/>
<path d="M35.6973 28.0779C35.5436 27.8429 34.5219 27.3456 34.5219 27.3456C34.1151 27.1467 31.1224 25.682 30.5618 25.474C30.0826 25.3023 29.5311 25.1033 29.0429 25.8357C28.6722 26.3872 27.5872 27.653 27.2256 28.0508C26.9815 28.3311 26.7464 28.4215 26.2039 28.1503C26.1135 28.1051 23.4463 26.9659 21.6109 25.3384C19.9835 23.9009 18.8533 22.1197 18.4374 21.4235C18.1843 20.9986 18.347 20.7997 18.6634 20.4832C18.8533 20.2934 19.7032 19.2717 19.7665 19.1813C19.9021 18.9733 20.1372 18.4851 20.1372 18.4851C20.3813 18.0059 20.2276 17.59 20.092 17.3097C19.9925 17.1199 18.4645 13.422 18.3108 13.0784C17.8769 12.0387 17.4067 11.9844 16.9637 12.0025C16.7467 12.0206 14.7124 12.0296 14.0705 12.7348L13.9529 12.8524C13.32 13.5214 12 14.9228 12 17.6262C12 18.25 12.0995 18.901 12.3074 19.6243C12.6871 20.9263 13.4195 22.3548 14.3959 23.6567C14.414 23.6839 15.9058 25.7453 16.6472 26.6042C18.998 29.3076 21.6471 31.3057 24.3233 32.3545C27.7409 33.6926 29.2056 34 30.0374 34C30.3991 34 31.1676 33.8192 31.3303 33.8011C32.3791 33.7107 34.8564 32.4178 35.3808 30.9621C35.8781 29.5878 35.8871 28.3853 35.6973 28.0779Z" fill="white"/>
<defs>
<linearGradient id="paint0_linear_4517_89" x1="44.9467" y1="8.02401" x2="3.76787" y2="37.7143" gradientUnits="userSpaceOnUse">
<stop stop-color="#92EE77"/>
<stop offset="1" stop-color="#477E70"/>
</linearGradient>
</defs>
</svg>
