<svg width="47" height="47" viewBox="0 0 47 47" fill="none" xmlns="http://www.w3.org/2000/svg">
<path d="M23.499 46.99C36.4771 46.99 46.9979 36.4709 46.9979 23.495C46.9979 10.5191 36.4771 0 23.499 0C10.5208 0 0 10.5191 0 23.495C0 36.4709 10.5208 46.99 23.499 46.99Z" fill="url(#paint0_linear_4517_88)"/>
<path d="M33.5457 16H12.7874C11.8024 16 11 16.8024 11 17.7874V30.1963C11 31.1814 11.8024 31.9837 12.7874 31.9837H33.5457C34.5307 31.9837 35.3331 31.1814 35.3331 30.1963V17.7874C35.3331 16.8024 34.5307 16 33.5457 16ZM33.8952 18.0655L23.393 23.8965C23.3294 23.9283 23.2659 23.9522 23.1944 23.9522H23.1388C23.0673 23.9522 22.9958 23.9363 22.9401 23.8965L12.4379 18.0655C12.2393 17.9543 12.1678 17.7001 12.279 17.5015C12.3902 17.3029 12.6445 17.2314 12.8431 17.3426L23.1705 23.0783L33.498 17.3426C33.6966 17.2314 33.9508 17.3029 34.062 17.5015C34.1733 17.7001 34.1018 17.9543 33.9032 18.0655H33.8952Z" fill="white"/>
<defs>
<linearGradient id="paint0_linear_4517_88" x1="47.2951" y1="11.9524" x2="1.61628" y2="34.1189" gradientUnits="userSpaceOnUse">
<stop stop-color="#CFF7A6"/>
<stop offset="0.1" stop-color="#BCE9AE"/>
<stop offset="0.39" stop-color="#91C8C2"/>
<stop offset="0.64" stop-color="#72B0D0"/>
<stop offset="0.85" stop-color="#5EA2D9"/>
<stop offset="1" stop-color="#589DDD"/>
</linearGradient>
</defs>
</svg>
