<svg width="27" height="27" viewBox="0 0 27 27" fill="none" xmlns="http://www.w3.org/2000/svg">
<path d="M10.5366 4.60976H15.8049C15.8049 3.91114 15.5274 3.24113 15.0334 2.74713C14.5394 2.25313 13.8694 1.97561 13.1707 1.97561C12.4721 1.97561 11.8021 2.25313 11.3081 2.74713C10.8141 3.24113 10.5366 3.91114 10.5366 4.60976ZM8.56098 4.60976C8.56098 4.00439 8.68021 3.40496 8.91187 2.84568C9.14353 2.2864 9.48309 1.77822 9.91114 1.35017C10.3392 0.922111 10.8474 0.582559 11.4067 0.350897C11.9659 0.119235 12.5654 0 13.1707 0C13.7761 0 14.3755 0.119235 14.9348 0.350897C15.4941 0.582559 16.0023 0.922111 16.4303 1.35017C16.8584 1.77822 17.1979 2.2864 17.4296 2.84568C17.6613 3.40496 17.7805 4.00439 17.7805 4.60976H25.3537C25.6156 4.60976 25.8669 4.71383 26.0521 4.89908C26.2374 5.08433 26.3415 5.33558 26.3415 5.59756C26.3415 5.85954 26.2374 6.1108 26.0521 6.29604C25.8669 6.48129 25.6156 6.58537 25.3537 6.58537H23.6151L22.0741 22.5364C21.9559 23.7587 21.3867 24.893 20.4774 25.7183C19.5682 26.5435 18.3841 27.0005 17.1562 27H9.18527C7.95758 27.0001 6.77384 26.543 5.86486 25.7178C4.95588 24.8926 4.38682 23.7584 4.26863 22.5364L2.72634 6.58537H0.987805C0.725823 6.58537 0.474571 6.48129 0.289321 6.29604C0.104072 6.1108 0 5.85954 0 5.59756C0 5.33558 0.104072 5.08433 0.289321 4.89908C0.474571 4.71383 0.725823 4.60976 0.987805 4.60976H8.56098ZM11.1951 10.8659C11.1951 10.6039 11.091 10.3526 10.9058 10.1674C10.7206 9.98212 10.4693 9.87805 10.2073 9.87805C9.94533 9.87805 9.69408 9.98212 9.50883 10.1674C9.32358 10.3526 9.21951 10.6039 9.21951 10.8659V20.7439C9.21951 21.0059 9.32358 21.2571 9.50883 21.4424C9.69408 21.6276 9.94533 21.7317 10.2073 21.7317C10.4693 21.7317 10.7206 21.6276 10.9058 21.4424C11.091 21.2571 11.1951 21.0059 11.1951 20.7439V10.8659ZM16.1341 9.87805C16.3961 9.87805 16.6474 9.98212 16.8326 10.1674C17.0179 10.3526 17.122 10.6039 17.122 10.8659V20.7439C17.122 21.0059 17.0179 21.2571 16.8326 21.4424C16.6474 21.6276 16.3961 21.7317 16.1341 21.7317C15.8722 21.7317 15.6209 21.6276 15.4357 21.4424C15.2504 21.2571 15.1463 21.0059 15.1463 20.7439V10.8659C15.1463 10.6039 15.2504 10.3526 15.4357 10.1674C15.6209 9.98212 15.8722 9.87805 16.1341 9.87805ZM6.23502 22.3468C6.30606 23.0799 6.64759 23.7603 7.19302 24.2554C7.73845 24.7504 8.44869 25.0246 9.18527 25.0244H17.1562C17.8928 25.0246 18.603 24.7504 19.1484 24.2554C19.6939 23.7603 20.0354 23.0799 20.1064 22.3468L21.6316 6.58537H4.70985L6.23502 22.3468Z" fill="#DE1848"/>
</svg>
