<svg width="34" height="34" viewBox="0 0 34 34" fill="none" xmlns="http://www.w3.org/2000/svg">
<rect width="34" height="34" rx="17" fill="#00CC99"/>
<path d="M16.1777 18.1768L15.2646 10.5176V7.33789H17.8535V10.5176L16.8867 18.1768H16.1777ZM16.5107 23.1934C16.0452 23.1934 15.6514 23.0322 15.3291 22.71C15.0068 22.3877 14.8457 22.0046 14.8457 21.5605C14.8457 21.1094 15.0068 20.7191 15.3291 20.3896C15.6514 20.0602 16.0452 19.8955 16.5107 19.8955C16.9691 19.8955 17.3558 20.0602 17.6709 20.3896C17.9932 20.7191 18.1543 21.1094 18.1543 21.5605C18.1543 22.0046 17.9932 22.3877 17.6709 22.71C17.3558 23.0322 16.9691 23.1934 16.5107 23.1934Z" fill="white"/>
</svg>
