<svg width="28" height="29" viewBox="0 0 28 29" fill="none" xmlns="http://www.w3.org/2000/svg">
<path d="M16.9537 2.60777C17.0137 2.39177 17.1577 2.1997 17.3497 2.0917C17.5417 1.9837 17.7817 1.94777 17.9977 2.00777C20.0497 2.55977 21.9217 3.63976 23.4337 5.15176C24.9337 6.65176 26.0258 8.53572 26.5778 10.5877C26.6018 10.6957 26.6137 10.8038 26.6017 10.9238C26.5897 11.0318 26.5538 11.1397 26.4938 11.2357C26.4338 11.3317 26.3618 11.4157 26.2778 11.4877C26.1938 11.5597 26.0858 11.6077 25.9778 11.6317L25.7618 11.6557C25.5697 11.6557 25.3897 11.5957 25.2458 11.4757C25.1017 11.3557 24.9937 11.1997 24.9457 11.0197C24.4657 9.2557 23.5298 7.64776 22.2458 6.35176C20.9497 5.05576 19.3418 4.13176 17.5778 3.65176C17.3617 3.59176 17.1817 3.44774 17.0618 3.25574C16.9417 3.05174 16.9057 2.82377 16.9537 2.60777ZM16.3897 7.99575C17.3857 8.27175 18.3098 8.79972 19.0418 9.53172C19.7738 10.2637 20.3018 11.1757 20.5778 12.1837C20.6257 12.3637 20.7338 12.5197 20.8778 12.6397C21.0218 12.7597 21.2138 12.8197 21.3938 12.8197L21.6098 12.7958C21.8258 12.7358 22.0058 12.5917 22.1258 12.3997C22.2338 12.2077 22.2697 11.9798 22.2217 11.7518C21.8737 10.4558 21.1898 9.27973 20.2418 8.34373C19.2938 7.39573 18.1177 6.7117 16.8337 6.3637C16.6177 6.3157 16.3897 6.33972 16.1858 6.45972C15.9938 6.56772 15.8497 6.75971 15.7897 6.97571C15.7297 7.19171 15.7658 7.41975 15.8858 7.61175C15.9938 7.79175 16.1737 7.93575 16.3897 7.99575ZM27.6817 21.8317C27.4417 23.6677 26.5538 25.3597 25.1618 26.5837C23.7698 27.8077 21.9817 28.4797 20.1217 28.4917C9.08174 28.4917 0.09375 19.5037 0.09375 8.4637C0.09375 6.6157 0.777746 4.81576 2.00175 3.42376C3.22575 2.03176 4.91775 1.13171 6.75375 0.903714C7.17375 0.855714 7.60575 0.93974 7.97775 1.15574C8.34975 1.37174 8.63775 1.6957 8.80575 2.0917L11.6377 8.70371C11.7697 9.00371 11.8178 9.32776 11.7938 9.65176C11.7698 9.97576 11.6617 10.2877 11.4817 10.5637L9.12975 14.1397C9.10575 14.1757 9.09375 14.2237 9.09375 14.2717C9.09375 14.3197 9.10575 14.3677 9.11775 14.4037C10.1977 16.6237 11.9977 18.4237 14.2177 19.4917C14.2657 19.5157 14.3137 19.5157 14.3497 19.5157C14.3977 19.5157 14.4457 19.4918 14.4817 19.4678L18.0217 17.1157C18.2977 16.9357 18.6097 16.8277 18.9337 16.7917C19.2577 16.7557 19.5817 16.8157 19.8817 16.9477L26.4938 19.7798C26.8898 19.9478 27.2137 20.2358 27.4298 20.6078C27.6337 20.9798 27.7297 21.4117 27.6817 21.8317ZM26.0017 21.6157C26.0017 21.5557 25.9897 21.4957 25.9657 21.4477C25.9417 21.3997 25.8937 21.3518 25.8337 21.3398L19.2217 18.5078C19.1737 18.4958 19.1258 18.4837 19.0898 18.4837C19.0418 18.4837 18.9938 18.5077 18.9578 18.5317L15.4297 20.8837C15.1417 21.0757 14.8177 21.1838 14.4698 21.2078C14.1337 21.2318 13.7857 21.1717 13.4737 21.0277C10.9057 19.7797 8.82975 17.7037 7.58175 15.1477C7.43775 14.8357 7.36575 14.4997 7.38975 14.1637C7.41375 13.8277 7.52175 13.5037 7.70175 13.2157L10.0417 9.62774C10.0657 9.59174 10.0897 9.54375 10.0897 9.49576C10.0897 9.44775 10.0897 9.3997 10.0657 9.3637L7.23375 2.75176C7.20975 2.70376 7.17375 2.65572 7.12575 2.63172C7.07775 2.60772 7.02975 2.58374 6.96975 2.58374H6.95775C5.52975 2.77574 4.22175 3.47176 3.26175 4.55176C2.31375 5.63176 1.78575 7.0237 1.77375 8.4637C1.77375 13.3237 3.70575 17.9798 7.14975 21.4238C10.5817 24.8558 15.2498 26.7997 20.1098 26.7997C21.5498 26.7997 22.9417 26.2717 24.0217 25.3117C25.1137 24.3637 25.8097 23.0437 26.0017 21.6157Z" fill="#FB794A"/>
</svg>
