<svg width="28" height="22" viewBox="0 0 28 22" fill="none" xmlns="http://www.w3.org/2000/svg">
<path d="M0.09375 19.1365V2.52852C0.16575 2.27652 0.201748 2.02452 0.321748 1.78452C0.777748 0.896521 1.52175 0.476562 2.50575 0.476562C4.26975 0.476562 6.02175 0.476562 7.78575 0.476562C13.5938 0.476562 19.4137 0.476562 25.2217 0.476562C25.8577 0.476562 26.4217 0.632551 26.9137 1.06455C27.3577 1.46055 27.5738 1.96452 27.6938 2.52852V19.1365C27.6218 19.3885 27.5857 19.6405 27.4657 19.8805C27.0097 20.7685 26.2657 21.1885 25.2817 21.1885C23.5297 21.1885 21.7778 21.1885 20.0258 21.1885C14.2058 21.1885 8.38575 21.1885 2.56575 21.1885C1.92975 21.1885 1.36575 21.0325 0.873747 20.6005C0.417747 20.2045 0.20175 19.7005 0.09375 19.1365ZM25.5697 1.72454C25.5697 1.70054 25.5578 1.67654 25.5578 1.65254H2.19375C2.24175 1.78454 2.32575 1.83257 2.39775 1.90457C5.90175 5.09657 9.40575 8.30055 12.9097 11.4926C13.6177 12.1406 14.1577 12.1406 14.8657 11.4926C17.4217 9.15255 19.9898 6.82452 22.5578 4.48452C23.5658 3.57252 24.5737 2.64854 25.5697 1.72454ZM2.18175 20.0005H25.6537C25.5577 19.8925 25.5097 19.8325 25.4497 19.7845C23.7937 18.2365 22.1498 16.6885 20.4938 15.1405C19.2458 13.9765 17.9617 12.8486 16.6897 11.7206C16.5457 11.5886 16.4617 11.5886 16.3177 11.7206C16.0777 11.9606 15.8138 12.1885 15.5617 12.4165C14.5297 13.3285 13.4017 13.3645 12.3217 12.5005C12.0457 12.2725 11.7697 12.0325 11.5177 11.7805C11.3377 11.5885 11.2177 11.6005 11.0257 11.7805C8.04975 14.3845 5.18175 17.0965 2.30175 19.8085C2.26575 19.8565 2.19375 19.8925 2.18175 20.0005ZM1.26975 19.1845C1.36575 19.1005 1.40175 19.0765 1.43775 19.0525C4.34175 16.3045 7.24575 13.5565 10.2577 10.9405C10.4257 10.7965 10.3537 10.7245 10.2337 10.6165C7.32975 7.9765 4.43775 5.32452 1.53375 2.68452C1.46175 2.62452 1.41375 2.5285 1.26975 2.5165V19.1845ZM26.5177 2.5165C26.3737 2.5285 26.3258 2.6005 26.2778 2.6605C23.3617 5.3125 20.4578 7.97652 17.5418 10.6285C17.3978 10.7605 17.3858 10.8205 17.5418 10.9525C20.5418 13.5565 23.4217 16.2925 26.3137 19.0165C26.3617 19.0645 26.3977 19.1605 26.5297 19.1125V2.5165H26.5177Z" fill="#FB794A"/>
</svg>
