<svg width="14" height="29" viewBox="0 0 14 29" fill="none" xmlns="http://www.w3.org/2000/svg">
<path d="M9.65388 21.0981C9.65388 22.9941 9.65388 24.8901 9.65388 26.7981C9.65388 27.7461 9.30588 28.094 8.34588 28.094C7.02588 28.094 5.70588 28.094 4.38588 28.094C3.29388 28.094 2.99388 27.806 2.99388 26.726C2.99388 22.946 2.98187 19.1661 3.00588 15.3861C3.00588 14.9181 2.88587 14.7621 2.41787 14.8101C2.05787 14.8581 1.68588 14.8341 1.31388 14.8221C0.701875 14.7981 0.305875 14.438 0.305875 13.838C0.293875 12.554 0.293875 11.2701 0.305875 9.98607C0.317875 9.38607 0.701873 9.038 1.32587 9.014C1.74587 9.014 2.16588 9.00201 2.58588 9.02601C2.90988 9.03801 3.00588 8.91804 3.00588 8.60604C2.99388 7.73004 2.98187 6.8421 3.00588 5.9661C3.07788 2.7861 5.32188 0.554044 8.48987 0.506044C9.85787 0.482044 11.2259 0.494044 12.6059 0.506044C13.4219 0.518044 13.7819 0.890044 13.7939 1.70604C13.7939 2.84604 13.7939 3.99803 13.7939 5.13803C13.7939 5.99003 13.4459 6.33804 12.5699 6.35004C11.8259 6.36204 11.0939 6.36204 10.3499 6.35004C9.85787 6.33804 9.64188 6.55413 9.65388 7.04613C9.66588 7.56213 9.67788 8.06602 9.65388 8.58202C9.64188 8.91802 9.73787 9.03801 10.0859 9.02601C10.9259 9.00201 11.7779 9.01401 12.6179 9.02601C13.3979 9.03801 13.7459 9.39811 13.6859 10.1781C13.6019 11.4021 13.4939 12.626 13.3739 13.85C13.3019 14.546 12.9659 14.8221 12.2579 14.8221C11.5859 14.8341 10.9259 14.8581 10.2539 14.8221C9.78587 14.7861 9.62988 14.9061 9.62988 15.4101C9.67788 17.3061 9.65388 19.2021 9.65388 21.0981ZM8.38188 20.1741C8.38188 18.1341 8.39388 16.0941 8.36988 14.0661C8.36988 13.6821 8.45388 13.538 8.86188 13.55C9.79788 13.586 10.7219 13.5381 11.6579 13.5741C12.1019 13.5981 12.1859 13.4061 12.2099 13.0341C12.2579 12.2661 12.3179 11.4981 12.4019 10.7181C12.4379 10.3941 12.3779 10.262 12.0059 10.262C10.9499 10.286 9.89388 10.2621 8.83788 10.2861C8.46588 10.2861 8.35788 10.166 8.36988 9.80604C8.39388 8.85804 8.36987 7.91005 8.38188 6.96205C8.40588 5.79805 9.10187 5.10211 10.2659 5.07811C10.8779 5.05411 11.5019 5.05411 12.1139 5.07811C12.4379 5.09011 12.5459 4.982 12.5339 4.658C12.5099 3.866 12.5099 3.07402 12.5339 2.28202C12.5459 1.89802 12.4499 1.76611 12.0419 1.77811C10.8659 1.80211 9.68988 1.77811 8.51388 1.77811C5.99388 1.80211 4.28988 3.51801 4.27788 6.02601C4.26588 7.29801 4.26588 8.55807 4.27788 9.83007C4.27788 10.1661 4.18187 10.2981 3.83387 10.2741C3.19787 10.2501 2.57388 10.286 1.93788 10.262C1.63788 10.262 1.54188 10.358 1.55388 10.658C1.56588 11.498 1.57788 12.3501 1.55388 13.1901C1.54188 13.5021 1.66187 13.574 1.94987 13.562C2.51387 13.55 3.07788 13.598 3.62988 13.55C4.19388 13.49 4.28988 13.7061 4.27788 14.2221C4.25388 18.2301 4.26588 22.2381 4.25388 26.2461C4.25388 26.6541 4.31387 26.8461 4.78187 26.8341C5.80187 26.7981 6.82187 26.7981 7.84187 26.8221C8.26187 26.8341 8.38188 26.714 8.38188 26.294C8.36987 24.254 8.38188 22.2141 8.38188 20.1741Z" fill="#FB794A"/>
</svg>
