<svg width="28" height="24" viewBox="0 0 28 24" fill="none" xmlns="http://www.w3.org/2000/svg">
<path d="M25.0534 4.96437C22.3774 3.41637 18.9574 4.32832 17.4094 7.01632L13.5094 13.7603C12.3814 15.7163 13.8334 16.4003 15.4534 17.3723L19.2094 19.5324C20.4814 20.2644 22.1014 19.8323 22.8334 18.5603L26.8414 11.6243C28.1854 9.28428 27.3814 6.30837 25.0534 4.96437Z" fill="#EE352E"/>
<path d="M20.6386 7.7575L16.8826 5.58558C14.8066 4.43358 13.6426 4.36156 12.7906 5.71756L7.25861 15.2935C5.71061 17.9695 6.63461 21.3895 9.31061 22.9375C11.6386 24.2815 14.6266 23.4895 15.9706 21.1495L21.6106 11.3815C22.3426 10.1095 21.9106 8.4895 20.6386 7.7575Z" fill="#FDB714"/>
<path d="M21.3606 2.82453L18.7206 1.3005C15.8046 -0.379497 12.0726 0.616486 10.3926 3.53249L5.37657 12.2205C4.63257 13.5045 5.07657 15.1485 6.36057 15.8925L9.31257 17.5964C10.7766 18.4364 12.6366 17.9325 13.4766 16.4805L19.2126 6.5445C20.4006 4.4925 23.0286 3.78457 25.0806 4.97257L21.3606 2.82453Z" fill="#00A94D"/>
<path d="M11.1104 6.01973L8.26637 4.38775C6.99437 3.65575 5.37437 4.08766 4.64237 5.34766L1.22237 11.2637C-0.457626 14.1677 0.538374 17.8876 3.45437 19.5676L5.62637 20.8157L8.25437 22.3277L9.39438 22.9877C7.36638 21.6317 6.71837 18.9077 7.96637 16.7717L8.85437 15.2356L12.0944 9.63174C12.8144 8.37174 12.3824 6.75173 11.1104 6.01973Z" fill="#497CBF"/>
</svg>
