<svg width="46" height="15" viewBox="0 0 46 15" fill="none" xmlns="http://www.w3.org/2000/svg">
<path d="M45.7271 5.00772C45.3191 3.84371 44.2031 3.00366 42.9071 3.00366H42.8831C42.0311 3.00366 41.2751 3.35169 40.7231 3.92769C40.1831 3.36369 39.4151 3.00366 38.5631 3.00366H38.5391C37.7951 3.00366 37.1111 3.27963 36.5831 3.72363V3.4957C36.5711 3.2677 36.3791 3.08774 36.1391 3.08774H34.1351C33.8951 3.08774 33.6911 3.27974 33.6911 3.53174V14.4037C33.6911 14.6437 33.8831 14.8477 34.1351 14.8477H36.1391C36.3671 14.8477 36.5471 14.6797 36.5711 14.4637V6.65171C36.5711 6.62771 36.5711 6.60363 36.5711 6.56763C36.6071 6.21963 36.8591 5.9317 37.2671 5.8957H37.6391C37.8071 5.9077 37.9511 5.96772 38.0591 6.06372C38.2271 6.20772 38.3351 6.41171 38.3351 6.65171L38.3471 14.4157C38.3471 14.6557 38.5511 14.8597 38.7911 14.8597H40.7951C41.0351 14.8597 41.2271 14.6677 41.2391 14.4397V6.6397C41.2391 6.3877 41.3591 6.14767 41.5631 6.01567C41.6711 5.94367 41.7911 5.9077 41.9351 5.8957H42.3071C42.7391 5.9317 43.0031 6.2677 43.0031 6.6397L43.0151 14.4037C43.0151 14.6437 43.2191 14.8477 43.4591 14.8477H45.4631C45.7031 14.8477 45.9071 14.6557 45.9071 14.4037V6.06372C45.8711 5.49972 45.8111 5.24771 45.7271 5.00772ZM32.1671 3.11162H31.0271V1.25171C31.0271 1.02371 30.8471 0.84375 30.6191 0.84375C30.5951 0.84375 30.5711 0.843615 30.5471 0.855615C29.2751 1.20362 29.5271 2.96762 27.2111 3.11162H26.9831C26.9471 3.11162 26.9231 3.11163 26.8871 3.12363C26.6951 3.17163 26.5391 3.33962 26.5391 3.55562V5.55967C26.5391 5.79967 26.7431 6.00366 26.9831 6.00366H28.1951V14.4996C28.1951 14.7396 28.3871 14.9438 28.6271 14.9438H30.6071C30.8471 14.9438 31.0391 14.7516 31.0391 14.4996V6.00366H32.1551C32.3951 6.00366 32.5991 5.79967 32.5991 5.55967V3.55562C32.5991 3.31562 32.4071 3.11162 32.1671 3.11162Z" fill="#00BAF2"/>
<path d="M24.9537 3.11357H22.9497C22.7097 3.11357 22.5057 3.31757 22.5057 3.55757V7.69766C22.5057 7.94966 22.2897 8.15366 22.0377 8.15366H21.1977C20.9337 8.15366 20.7297 7.94964 20.7297 7.68564L20.7177 3.5457C20.7177 3.3057 20.5137 3.10156 20.2737 3.10156H18.2697C18.0297 3.10156 17.8257 3.3057 17.8257 3.5457V8.08159C17.8257 9.80959 19.0497 11.0337 20.7777 11.0337C20.7777 11.0337 22.0737 11.0337 22.1097 11.0457C22.3377 11.0697 22.5297 11.2736 22.5297 11.5136C22.5297 11.7536 22.3497 11.9456 22.1217 11.9816C22.1097 11.9816 22.0977 11.9816 22.0857 11.9936L19.1577 12.0056C18.9177 12.0056 18.7137 12.2096 18.7137 12.4496V14.4537C18.7137 14.6937 18.9177 14.8977 19.1577 14.8977H22.4337C24.1617 14.8977 25.3857 13.6737 25.3857 11.9457V3.56958C25.3977 3.31758 25.1937 3.11357 24.9537 3.11357ZM5.56169 6.78564V8.02168C5.56169 8.28568 5.35769 8.4897 5.09369 8.4897H3.82169V6.01763H5.09369C5.35769 6.01763 5.56169 6.22164 5.56169 6.48564V6.78564ZM5.74168 3.11357H1.36169C1.12169 3.11357 0.929688 3.3057 0.929688 3.5457V5.51357V5.52559C0.929688 5.53759 0.929688 5.54961 0.929688 5.54961V14.4296C0.929688 14.6696 1.10968 14.8736 1.33768 14.8736H3.37768C3.61768 14.8736 3.82169 14.6816 3.82169 14.4296L3.83369 11.3816H5.75369C7.36169 11.3816 8.47768 10.2656 8.47768 8.65757V5.8376C8.46568 4.2296 7.34968 3.11357 5.74168 3.11357ZM13.8777 11.4897V11.8016C13.8777 11.8256 13.8777 11.8496 13.8657 11.8736C13.8657 11.8976 13.8537 11.9217 13.8417 11.9337C13.7817 12.1137 13.6017 12.2337 13.3977 12.2337H12.5697C12.3057 12.2337 12.1017 12.0417 12.1017 11.7897V11.4176V11.4056V10.3977V10.0856C12.1017 9.84564 12.3177 9.64165 12.5697 9.64165H13.3977C13.6617 9.64165 13.8657 9.83364 13.8657 10.0856V11.4897H13.8777ZM13.5537 3.12559H10.7697C10.5297 3.12559 10.3257 3.3177 10.3257 3.5457V4.32559V4.3376V4.34961V5.41763C10.3257 5.65763 10.5417 5.86162 10.7937 5.86162H13.4457C13.6497 5.89762 13.8177 6.04159 13.8417 6.28159V6.5457C13.8177 6.7737 13.6497 6.94166 13.4577 6.95366H12.1497C10.4097 6.95366 9.16169 8.1056 9.16169 9.7376V12.0657C9.16169 13.6857 10.2297 14.8376 11.9577 14.8376H15.5937C16.2417 14.8376 16.7697 14.3457 16.7697 13.7337V6.1376C16.7817 4.2896 15.8337 3.12559 13.5537 3.12559Z" fill="#22376E"/>
</svg>
