<svg width="29" height="28" viewBox="0 0 29 28" fill="none" xmlns="http://www.w3.org/2000/svg">
<path d="M0.09375 3.36415C0.14175 3.19615 0.177746 3.01622 0.225746 2.83622C0.669746 1.18022 2.26575 0.028176 4.01775 0.088176C5.68575 0.160176 7.23375 1.44419 7.52175 3.10019C7.95375 5.56019 6.04575 7.61218 3.83775 7.58818C2.01375 7.56418 0.441747 6.25619 0.141747 4.45619C0.129747 4.39619 0.10575 4.34819 0.09375 4.30019C0.09375 3.98819 0.09375 3.67615 0.09375 3.36415ZM6.62175 3.83217C6.62175 2.28417 5.39775 1.04823 3.87375 1.04823C2.19375 1.04823 1.02975 2.30818 1.02975 3.84418C1.04175 5.53618 2.31375 6.64028 3.98175 6.64028C5.39775 6.64028 6.62175 5.33217 6.62175 3.83217Z" fill="#FB794A"/>
<path d="M15.9463 10.0903C16.3063 9.73034 16.6303 9.43033 16.9903 9.17833C17.9743 8.50633 19.0662 8.13426 20.2542 8.06226C21.4302 8.00226 22.6063 7.9903 23.7463 8.3983C26.0143 9.2143 27.3942 10.8102 27.9702 13.1382C28.1022 13.6542 28.1382 14.1823 28.1382 14.7103C28.1382 18.6823 28.1382 22.6542 28.1382 26.6262C28.1382 27.2622 27.7183 27.6822 27.0823 27.6942C25.6303 27.6942 24.1783 27.6942 22.7263 27.6942C21.9823 27.6942 21.5862 27.2863 21.5862 26.5303C21.5862 23.3263 21.5862 20.1223 21.5862 16.9183C21.5862 16.6063 21.5743 16.2822 21.5263 15.9702C21.3823 14.8182 20.3262 14.2062 19.4862 14.0382C17.8662 13.7262 16.4143 14.9743 16.4143 16.8103C16.4143 20.0503 16.4143 23.2903 16.4143 26.5303C16.4143 27.3703 16.0902 27.6942 15.2502 27.6942C13.6542 27.6942 12.0583 27.6822 10.4623 27.6942C10.1983 27.6942 9.95825 27.6343 9.74225 27.4783C9.53825 27.3223 9.40625 27.1183 9.40625 26.8543C9.40625 26.7823 9.40625 26.7102 9.40625 26.6382C9.40625 20.9622 9.40625 15.2863 9.40625 9.5983C9.40625 9.0343 9.61025 8.72232 10.0662 8.56632C10.1982 8.51832 10.3302 8.51827 10.4742 8.51827C11.9382 8.51827 13.4143 8.51827 14.8783 8.51827C15.5503 8.51827 15.9463 8.91429 15.9463 9.58629C15.9463 9.73029 15.9343 9.86234 15.9463 10.0903ZM15.0463 12.3822C15.0463 11.4822 15.0343 10.6063 15.0463 9.71827C15.0463 9.50227 14.9743 9.44229 14.7703 9.44229C13.4023 9.45429 12.0342 9.45429 10.6662 9.44229C10.4382 9.44229 10.3783 9.50228 10.3783 9.73028C10.3903 15.3103 10.3903 20.8902 10.3783 26.4582C10.3783 26.6982 10.4503 26.7463 10.6783 26.7463C12.1663 26.7343 13.6542 26.7343 15.1422 26.7343C15.3942 26.7343 15.5143 26.6143 15.5143 26.3743C15.5143 23.2303 15.5143 20.0743 15.5143 16.9303C15.5143 14.7343 16.8702 13.2103 18.9342 13.0543C20.1942 12.9583 21.5983 13.7263 22.1623 14.8303C22.4863 15.4663 22.5463 16.1383 22.5463 16.8343C22.5583 20.0383 22.5822 23.2423 22.5822 26.4463C22.5822 26.6863 22.6423 26.7463 22.8943 26.7463C24.2383 26.7343 25.5823 26.7343 26.9143 26.7463C27.1543 26.7463 27.2143 26.6743 27.2143 26.4343C27.2023 22.5703 27.2142 18.6943 27.2022 14.8183C27.2022 14.3263 27.1662 13.8223 27.0342 13.3303C26.5302 11.3383 25.3423 9.94627 23.3743 9.27427C22.1503 8.85428 20.8903 8.90226 19.6423 9.10626C18.3463 9.31026 17.3022 9.9822 16.4502 11.0022C16.0422 11.4942 15.5383 11.9142 15.0463 12.3822Z" fill="#FB794A"/>
<path d="M7.10421 18.1008C7.10421 20.7888 7.08021 23.4647 7.11621 26.1527C7.12821 26.9687 6.48021 27.7008 5.56821 27.6888C4.41621 27.6768 3.26421 27.6888 2.11221 27.6888C1.16421 27.6768 0.552208 27.0768 0.552208 26.1288C0.540208 25.3248 0.552208 24.5208 0.552208 23.7168C0.552208 19.2048 0.552208 14.6808 0.552208 10.1688C0.552208 9.94079 0.56421 9.71285 0.62421 9.48485C0.79221 8.90885 1.27221 8.52479 1.87221 8.52479C3.14421 8.51279 4.40421 8.50078 5.67621 8.51278C6.50421 8.52478 7.10421 9.14873 7.10421 9.96473C7.10421 12.6767 7.10421 15.3888 7.10421 18.1008ZM1.51221 18.0647C1.51221 20.7527 1.51221 23.4288 1.51221 26.1168C1.51221 26.5488 1.66821 26.7288 2.08821 26.7288C3.25221 26.7408 4.42821 26.7408 5.59221 26.7288C6.02421 26.7288 6.18021 26.5608 6.18021 26.1288C6.18021 20.7888 6.18021 15.4487 6.18021 10.1087C6.18021 9.62873 6.00021 9.44882 5.52021 9.44882C4.40421 9.44882 3.28821 9.44882 2.18421 9.44882C1.64421 9.44882 1.51221 9.56875 1.51221 10.1328C1.51221 12.7728 1.51221 15.4247 1.51221 18.0647Z" fill="#FB794A"/>
</svg>
