<svg width="28" height="29" viewBox="0 0 28 29" fill="none" xmlns="http://www.w3.org/2000/svg">
<path d="M27.8344 14.5073C27.8344 17.0033 27.8464 19.4993 27.8344 22.0073C27.8224 24.7913 26.2144 27.0713 23.6704 27.9593C22.9864 28.1993 22.2784 28.2953 21.5464 28.2953C16.5544 28.2953 11.5624 28.2953 6.58239 28.2953C3.51039 28.2833 1.08639 26.3393 0.426392 23.3753C0.330392 22.9193 0.306396 22.4633 0.294396 21.9953C0.294396 17.0033 0.282396 11.9993 0.294396 6.99531C0.294396 3.92331 2.23839 1.48729 5.19039 0.827295C5.67039 0.719295 6.15039 0.695312 6.63039 0.695312C11.5864 0.695312 16.5424 0.695312 21.4984 0.695312C24.5944 0.695312 27.0304 2.62741 27.7024 5.59141C27.8104 6.09541 27.8344 6.59927 27.8344 7.10327C27.8344 9.57527 27.8344 12.0353 27.8344 14.5073ZM26.7184 14.5073C26.7184 11.9393 26.7184 9.37127 26.7184 6.80327C26.7184 6.47927 26.6824 6.16736 26.6224 5.84336C26.0944 3.43136 24.1024 1.82338 21.6304 1.81138C16.5904 1.81138 11.5384 1.81138 6.49839 1.81138C6.31839 1.81138 6.1264 1.8114 5.94639 1.8354C3.3064 2.1354 1.42239 4.25939 1.41039 6.92339C1.41039 11.9754 1.41039 17.0274 1.41039 22.0794C1.41039 22.3554 1.4224 22.6193 1.4704 22.8833C1.8064 25.2713 3.91839 27.1674 6.31839 27.1674C11.4904 27.1794 16.6624 27.1674 21.8344 27.1674C22.1224 27.1674 22.4104 27.1313 22.6984 27.0713C25.1104 26.5433 26.7184 24.5394 26.7184 22.0674C26.7184 19.5474 26.7184 17.0273 26.7184 14.5073Z" fill="#FB794A"/>
<path d="M14.0603 23.4227C9.12827 23.4227 5.14428 19.4267 5.15628 14.4947C5.15628 9.53866 9.16428 5.54271 14.0963 5.55471C19.0283 5.57871 23.0123 9.58667 22.9883 14.5067C22.9643 19.4507 18.9803 23.4347 14.0603 23.4227ZM21.8843 14.4826C21.8843 10.1866 18.3803 6.67063 14.0963 6.67063C9.76428 6.65863 6.26027 10.1627 6.26027 14.4947C6.26027 18.8147 9.76428 22.3187 14.0843 22.3187C18.3803 22.3187 21.8843 18.8026 21.8843 14.4826Z" fill="#FB794A"/>
<path d="M21.2969 5.27891C21.2969 4.23491 22.1609 3.38281 23.1809 3.38281C24.2129 3.39481 25.0649 4.25892 25.0649 5.29092C25.0649 6.34692 24.2129 7.18687 23.1449 7.18687C22.1129 7.17487 21.2969 6.33491 21.2969 5.27891ZM23.1809 4.5229C22.7489 4.5229 22.4009 4.85892 22.3889 5.29092C22.3889 5.71092 22.7489 6.08281 23.1569 6.08281C23.5769 6.08281 23.9369 5.73478 23.9369 5.30278C23.9489 4.85878 23.6249 4.5349 23.1809 4.5229Z" fill="#FB794A"/>
<path d="M14.0755 19.5578C11.2795 19.5578 9.01148 17.2778 9.02348 14.4818C9.03548 11.6858 11.3155 9.40588 14.0995 9.42988C16.8955 9.44188 19.1275 11.6978 19.1395 14.4818C19.1395 17.2778 16.8595 19.5578 14.0755 19.5578ZM10.1275 14.4698C10.1275 16.6538 11.8675 18.4299 14.0275 18.4419C16.2235 18.4539 17.9995 16.7019 18.0115 14.5179C18.0115 12.3219 16.2595 10.5459 14.0755 10.5459C11.9035 10.5459 10.1395 12.2978 10.1275 14.4698Z" fill="#FB794A"/>
</svg>
