<svg width="22" height="29" viewBox="0 0 22 29" fill="none" xmlns="http://www.w3.org/2000/svg">
<path d="M10.6761 28.0772C10.1721 27.9332 9.84812 27.5852 9.57212 27.1532C7.32812 23.7452 5.08412 20.3492 2.82812 16.9412C1.85612 15.4772 1.16012 13.8932 0.836118 12.1532C0.560118 10.6892 0.680115 9.24916 1.10011 7.83316C1.71211 5.73316 2.88812 4.00522 4.60412 2.64922C5.87612 1.64122 7.30412 0.957193 8.88812 0.669193C12.4161 0.0211927 15.5121 0.945178 18.0801 3.42918C19.7001 5.00118 20.6601 6.94516 20.9961 9.18916C21.3561 11.5652 20.7561 13.7492 19.6281 15.8132C18.7401 17.4212 17.6481 18.8972 16.6521 20.4332C15.1881 22.6772 13.7001 24.8972 12.2361 27.1412C11.9601 27.5612 11.6361 27.9092 11.1321 28.0652L10.6761 28.0772ZM10.9161 1.6532C10.4721 1.7132 10.0521 1.70116 9.64412 1.76116C8.19212 1.96516 6.87212 2.49317 5.68412 3.34517C4.07612 4.49717 2.94812 6.00922 2.33612 7.89322C1.89212 9.23722 1.76012 10.6052 2.02412 12.0092C2.32412 13.5812 2.97212 14.9972 3.84812 16.3172C6.10412 19.7372 8.36012 23.1572 10.6161 26.5772C10.6641 26.6492 10.7121 26.7212 10.7721 26.7932C10.8441 26.9012 10.9281 26.9132 11.0001 26.8052C11.0481 26.7332 11.1081 26.6612 11.1561 26.5892C12.4281 24.6692 13.7001 22.7612 14.9601 20.8292C16.1481 19.0052 17.4201 17.2292 18.5241 15.3332C19.2441 14.0972 19.7121 12.7532 19.8441 11.3252C20.0241 9.3932 19.5681 7.58116 18.5361 5.96116C16.7601 3.16516 14.1681 1.7852 10.9161 1.6532Z" fill="#FB794A"/>
<path d="M10.8844 16.0814C7.89638 16.0814 5.48438 13.6574 5.48438 10.6694C5.48438 7.69341 7.93238 5.25743 10.8964 5.28143C13.8604 5.29343 16.2844 7.71743 16.2844 10.6814C16.2844 13.6694 13.8724 16.0934 10.8844 16.0814ZM10.8844 6.48143C8.58038 6.48143 6.67238 8.38936 6.68438 10.6934C6.69638 12.9974 8.58038 14.8814 10.8724 14.8814C13.1884 14.8934 15.0844 12.9974 15.0844 10.6814C15.0964 8.38943 13.1884 6.48143 10.8844 6.48143Z" fill="#FB794A"/>
</svg>
