<svg width="33" height="33" viewBox="0 0 33 33" fill="none" xmlns="http://www.w3.org/2000/svg">
<g filter="url(#filter0_d_3291_5864)">
<path d="M2 27.3087C2.74836 25.7682 3.49738 24.2277 4.2444 22.6865C4.65867 21.8315 5.0716 20.9752 5.48119 20.1176C5.57072 19.9302 5.68632 19.7688 5.83332 19.6215C11.7834 13.6737 17.7328 7.72458 23.6789 1.77342C24.2215 1.23046 24.8395 0.840145 25.6119 0.727C25.636 0.723653 25.6574 0.701559 25.6801 0.6875C25.9828 0.6875 26.2861 0.6875 26.5888 0.6875C26.6276 0.704907 26.6643 0.731017 26.7044 0.739051C27.8176 0.962663 28.6054 1.59868 29.0945 2.61699C29.2248 2.8888 29.2608 3.18941 29.3684 3.46725V4.37576C29.3196 4.55384 29.2742 4.73327 29.2214 4.90934C29.0524 5.46837 28.729 5.92966 28.3201 6.33872C26.8828 7.77345 25.4476 9.21019 24.0117 10.6463C23.9863 10.6717 23.9616 10.6971 23.9362 10.7219C23.7103 10.9348 23.4684 10.9589 23.3034 10.7855C23.1324 10.6054 23.1597 10.3885 23.3903 10.1548C23.703 9.83818 24.0157 9.52016 24.3371 9.21287C24.4507 9.10374 24.4747 9.03277 24.3444 8.91762C24.158 8.75292 23.9836 8.57283 23.8152 8.38939C23.7183 8.28361 23.6462 8.28628 23.564 8.39541C23.5426 8.42353 23.5145 8.44629 23.4892 8.47173C18.7972 13.1636 14.1067 17.8567 9.41005 22.5439C9.24969 22.7039 9.21294 22.7963 9.40471 22.9496C9.57776 23.0882 9.72944 23.2549 9.87777 23.4196C9.97466 23.5267 10.0462 23.5247 10.1317 23.4156C10.1698 23.3667 10.2192 23.3265 10.2633 23.2823C13.9723 19.5727 17.6814 15.863 21.3911 12.1533C21.4726 12.0716 21.5521 11.9832 21.647 11.9203C21.814 11.8092 21.9891 11.8199 22.1334 11.9625C22.2771 12.1044 22.3025 12.2745 22.1849 12.4465C22.1301 12.5269 22.0599 12.5972 21.9911 12.6661C18.1311 16.5271 14.2704 20.3874 10.411 24.2498C10.2834 24.3776 10.141 24.4774 9.97867 24.5557C7.64875 25.6785 5.32083 26.8032 2.99157 27.9273C2.50915 28.1603 2.26994 28.086 2.00067 27.6287C2.00067 27.5216 2.00067 27.4151 2.00067 27.308L2 27.3087ZM8.85547 19.4669C9.01048 19.4896 9.13811 19.5552 9.19824 19.6978C9.27642 19.882 9.22029 20.0467 9.08265 20.1846C8.71782 20.5508 8.35567 20.919 7.98417 21.2785C7.88261 21.3769 7.88461 21.4359 7.98617 21.5282C8.15121 21.6775 8.31959 21.8282 8.4559 22.0023C8.61092 22.1998 8.70446 22.1495 8.85948 21.9942C13.5481 17.2977 18.242 12.6059 22.9352 7.91337C22.9666 7.88191 22.9954 7.84642 23.0301 7.81964C23.125 7.74667 23.113 7.68574 23.0295 7.60741C22.8791 7.46816 22.7381 7.31886 22.5931 7.17425C22.4256 7.00688 22.2613 7.00397 22.1 7.16555C18.409 10.8571 14.7187 14.5488 11.0264 18.239C10.9388 18.3267 10.8466 18.4151 10.7417 18.4774C10.5727 18.5771 10.4103 18.5262 10.2847 18.3883C10.1658 18.2578 10.139 18.0991 10.2393 17.9458C10.3021 17.85 10.3863 17.7677 10.4678 17.686C14.0512 14.1015 17.6353 10.517 21.2194 6.93256C21.4018 6.75046 21.7165 6.56902 21.7238 6.37688C21.7325 6.15461 21.3817 6.00263 21.218 5.79375C21.059 5.59022 20.9541 5.60294 20.7697 5.78839C16.0951 10.4742 11.4139 15.1533 6.73401 19.8338C6.69593 19.8712 6.66118 19.9128 6.62043 19.9462C6.53089 20.0192 6.53356 20.0808 6.61842 20.1618C6.81219 20.3459 7.00396 20.5327 7.18436 20.7295C7.28325 20.8373 7.34339 20.8159 7.4356 20.7215C7.78372 20.364 8.13985 20.0152 8.49131 19.661C8.59488 19.5566 8.7078 19.4769 8.85413 19.4682L8.85547 19.4669ZM26.1966 1.47684C25.5197 1.49157 24.9939 1.67166 24.5429 2.05863C24.0691 2.46501 23.6569 2.93433 23.2045 3.36214C23.1103 3.45118 23.1163 3.50675 23.2065 3.59646C24.2916 4.67636 25.3741 5.75893 26.4545 6.84352C26.536 6.9252 26.5915 6.96135 26.6884 6.85825C27.122 6.39897 27.6078 5.98924 28.0074 5.4985C28.6374 4.72389 28.7597 3.8502 28.3628 2.94839C27.9405 1.989 27.1548 1.51834 26.1966 1.47684ZM6.06384 20.7717C6.06384 20.7717 6.03577 20.7878 6.02508 20.8099C5.62351 21.6407 5.22661 22.4736 4.81836 23.3011C4.75087 23.437 4.82237 23.4946 4.89787 23.5702C5.4264 24.0978 5.95826 24.6227 6.47944 25.1576C6.59503 25.2761 6.68457 25.2781 6.82288 25.2078C7.23381 24.9982 7.65142 24.8021 8.06702 24.6006C8.48062 24.4004 8.89422 24.2009 9.29646 24.0067C8.21068 22.9195 7.13826 21.8469 6.06384 20.771V20.7717ZM22.5377 4.05105C22.5009 4.07984 22.4709 4.09858 22.4468 4.12269C22.1762 4.39249 21.9083 4.66565 21.635 4.93278C21.5474 5.01847 21.6016 5.06801 21.6617 5.1276C22.7495 6.21486 23.8379 7.30145 24.9231 8.39206C25.0159 8.48512 25.0714 8.47843 25.1583 8.38872C25.4048 8.1323 25.656 7.88057 25.9133 7.63553C26.0122 7.54113 25.9888 7.48623 25.9039 7.40121C24.8202 6.32198 23.7397 5.24007 22.6579 4.15884C22.6219 4.12269 22.5818 4.08988 22.5377 4.05105ZM3.05906 26.9512C3.07376 26.9672 3.08912 26.9833 3.10382 26.9987C3.98715 26.5716 4.86981 26.1438 5.7538 25.7193C5.8841 25.657 5.81795 25.6048 5.75915 25.5452C5.34488 25.1308 4.92928 24.7171 4.51634 24.3006C4.4395 24.223 4.38939 24.1895 4.32725 24.32C3.90764 25.1984 3.48268 26.0741 3.05906 26.9505V26.9512Z" fill="#353535"/>
</g>
<defs>
<filter id="filter0_d_3291_5864" x="0.8" y="0.4875" width="31.7672" height="31.7672" filterUnits="userSpaceOnUse" color-interpolation-filters="sRGB">
<feFlood flood-opacity="0" result="BackgroundImageFix"/>
<feColorMatrix in="SourceAlpha" type="matrix" values="0 0 0 0 0 0 0 0 0 0 0 0 0 0 0 0 0 0 127 0" result="hardAlpha"/>
<feOffset dx="1" dy="2"/>
<feGaussianBlur stdDeviation="1.1"/>
<feComposite in2="hardAlpha" operator="out"/>
<feColorMatrix type="matrix" values="0 0 0 0 0.444434 0 0 0 0 0.444434 0 0 0 0 0.444434 0 0 0 0.27 0"/>
<feBlend mode="normal" in2="BackgroundImageFix" result="effect1_dropShadow_3291_5864"/>
<feBlend mode="normal" in="SourceGraphic" in2="effect1_dropShadow_3291_5864" result="shape"/>
</filter>
</defs>
</svg>
