<svg width="35" height="29" viewBox="0 0 35 29" fill="none" xmlns="http://www.w3.org/2000/svg">
<path d="M0.695876 25.0106C0.959876 24.4946 1.43987 24.4466 1.93187 24.4346C3.22787 24.4106 4.49987 24.2306 5.74787 23.8946C6.77987 23.6186 7.75187 23.2226 8.69987 22.6586C8.47187 22.5386 8.24387 22.5386 8.03987 22.5026C5.25587 22.0106 3.41987 20.4027 2.48387 17.7626C2.37587 17.4627 2.43587 17.2227 2.67587 17.0307C2.93987 16.8027 3.26387 16.7906 3.55187 16.9586C4.13987 17.3066 4.76387 17.4986 5.42387 17.5706C5.66387 17.6066 5.90387 17.6067 6.22787 17.6187C5.80787 17.3187 5.47187 17.0786 5.13587 16.8266C3.64787 15.6986 2.48387 14.2946 1.70387 12.6026C1.54787 12.2546 1.42787 11.8826 1.28387 11.5226C1.16387 11.2106 1.22387 10.9347 1.47587 10.7187C1.70387 10.5147 2.05187 10.5147 2.33987 10.7187C2.97587 11.1987 3.67187 11.5466 4.46387 11.7026C4.49987 11.7146 4.54787 11.7026 4.66787 11.7146C3.34787 10.3106 2.43587 8.76258 2.15987 6.89058C1.89587 4.99458 2.44787 3.30262 3.38387 1.68262C3.52787 1.71862 3.61187 1.85059 3.70787 1.94659C4.89587 3.13459 6.09587 4.31061 7.49987 5.27061C9.46787 6.62661 11.6519 7.53864 13.9559 8.15064C14.8199 8.37864 15.7079 8.55865 16.5719 8.76265C16.8239 8.81065 16.8839 8.78656 16.8959 8.52256C16.9079 7.35856 17.1479 6.24254 17.6759 5.19854C18.8879 2.79854 20.8199 1.35864 23.5079 0.950638C24.7679 0.758638 25.9439 1.10667 27.0959 1.58667C27.7199 1.85067 28.3319 2.11464 28.9199 2.45064C29.0999 2.55864 29.2559 2.55854 29.4479 2.49854C30.7199 2.09054 31.9319 1.55059 33.1559 1.04659C33.2519 1.01059 33.3359 0.974627 33.4319 0.938627C33.6839 0.842627 33.9239 0.890621 34.1039 1.08262C34.2839 1.26262 34.3079 1.47866 34.2239 1.71866C33.9719 2.43866 33.6119 3.11056 33.1559 3.72256C33.0599 3.85456 32.9519 3.98654 32.8199 4.15454C33.1679 4.11854 33.4319 3.98658 33.7199 3.89058C34.0439 3.77058 34.3559 3.75855 34.6199 4.01055C34.8839 4.27455 34.8359 4.58655 34.7159 4.91055C34.2239 6.26655 33.4199 7.38259 32.1239 8.10259C31.9319 8.19859 31.9439 8.35455 31.9439 8.51055C31.9439 10.5386 31.6559 12.5307 31.0799 14.4747C29.9039 18.4107 27.7919 21.7467 24.6119 24.3867C22.0319 26.5227 19.0919 27.8666 15.7439 28.3346C14.0519 28.5746 12.3599 28.4906 10.6559 28.4066C9.02387 28.3226 7.40387 28.1306 5.80787 27.7946C4.29587 27.4706 2.81988 27.0506 1.48788 26.2346C1.16388 26.0306 0.863875 25.8146 0.671875 25.4786L0.695876 25.0106ZM2.84387 25.5266V25.6106C3.11987 25.7306 3.38387 25.8506 3.65987 25.9466C5.35187 26.5706 7.11587 26.8947 8.90387 27.0867C10.8239 27.2907 12.7559 27.4226 14.6879 27.2786C17.5919 27.0626 20.2199 26.0906 22.6079 24.4586C26.0399 22.0946 28.3439 18.8906 29.6999 14.9906C30.5159 12.6626 30.8279 10.2506 30.8039 7.79058C30.8039 7.51458 30.8519 7.37065 31.1519 7.26265C32.1239 6.92665 32.7599 6.21863 33.2759 5.29463C33.1199 5.34263 33.0239 5.36659 32.9279 5.40259C32.3159 5.59459 31.7159 5.81059 31.1039 6.00259C30.8159 6.09859 30.5279 6.08667 30.3359 5.78667C30.1559 5.52267 30.2159 5.17456 30.4679 4.92256C30.5279 4.86256 30.5759 4.81456 30.6359 4.76656C30.9839 4.47856 31.3199 4.15466 31.6199 3.81866C31.9559 3.44666 32.2799 3.0746 32.5319 2.5586C32.3639 2.6186 32.2679 2.64258 32.1719 2.69058C31.3679 2.97858 30.5759 3.26657 29.7719 3.57857C29.2799 3.78257 28.8239 3.72262 28.3679 3.48262C27.8399 3.20662 27.2999 2.94258 26.7599 2.69058C25.9199 2.31858 25.0559 2.00654 24.1079 2.05454C21.3599 2.22254 18.9599 4.22657 18.2999 6.87857C18.0479 7.86257 18.0839 8.87056 18.0959 9.86656C18.0959 10.1546 18.0239 10.2266 17.7359 10.1666C16.3679 9.90256 14.9999 9.62656 13.6439 9.26656C10.6319 8.48656 7.87187 7.20254 5.47187 5.19854C4.89587 4.71854 4.34387 4.21455 3.77988 3.71055C3.44388 4.32255 3.23987 5.55867 3.31187 6.38667C3.43187 7.83867 4.03187 9.07457 4.95587 10.1786C5.77187 11.1746 6.79187 11.9306 7.84787 12.6506C7.96787 12.7346 8.07587 12.8307 8.25587 12.9627C6.40787 12.9747 4.64387 13.0707 2.95187 12.3747C2.96387 12.4587 2.96387 12.4826 2.97587 12.5066C3.01187 12.5786 3.04788 12.6626 3.09588 12.7346C4.28388 14.7986 5.96387 16.2986 8.13587 17.2706C8.39987 17.3906 8.81987 17.3787 8.91587 17.6307C9.01187 17.8827 8.85587 18.2187 8.81987 18.5307C8.80787 18.6867 8.73587 18.7226 8.59187 18.7346C8.29187 18.7346 7.99187 18.7586 7.69187 18.7706C6.88787 18.7946 6.07187 18.8306 5.26787 18.7466C4.87187 18.7106 4.49987 18.5787 4.09187 18.5307C4.12787 18.6147 4.13987 18.6507 4.16387 18.6867C4.21187 18.7707 4.25987 18.8666 4.31987 18.9506C5.21987 20.3666 6.57587 21.0747 8.18387 21.3867C9.39587 21.6147 10.6199 21.5786 11.8319 21.5906C11.9399 21.5906 12.0719 21.5426 12.1559 21.6146C9.47987 23.9186 6.44387 25.3946 2.84387 25.5266Z" fill="#FB794A"/>
</svg>
