<svg width="18" height="28" viewBox="0 0 18 28" fill="none" xmlns="http://www.w3.org/2000/svg">
<path d="M17.7089 9.52972C17.7089 8.77372 17.0969 8.13768 16.3769 8.13768H13.9169L8.28887 1.36966C7.77287 0.721665 6.95687 0.505618 6.14087 0.721618L4.19687 1.36966C3.88487 1.47766 3.78888 1.90967 3.99288 2.12567L10.1369 8.24564H0.812875C0.500875 8.24564 0.296875 8.46173 0.296875 8.78573V9.8536C0.296875 10.6096 0.908876 11.2456 1.62888 11.2456H3.05687V16.3937C3.05687 20.2577 5.00088 22.5137 8.27688 22.5137C9.29688 22.5137 10.1249 22.4057 11.1449 21.9737V25.4057C11.1449 26.3777 11.8649 27.1216 12.7889 27.1216H14.2169C14.5289 27.1216 14.8289 26.7977 14.8289 26.4737V11.1257H17.1809C17.4929 11.1257 17.6969 10.9097 17.6969 10.5857V9.52972H17.7089ZM11.1569 18.7577C10.5449 19.0817 9.72887 19.1896 9.10487 19.1896C7.46087 19.1896 6.64488 18.3257 6.64488 16.3937V11.2456H11.1569V18.7577Z" fill="#673594"/>
</svg>
