<svg width="28" height="28" viewBox="0 0 28 28" fill="none" xmlns="http://www.w3.org/2000/svg">
<path d="M14.6365 0.289062C14.0845 0.289062 13.5205 0.289062 12.9685 0.289062C12.8845 0.349062 12.8005 0.325109 12.7045 0.337109C10.7245 0.481109 8.86447 1.0211 7.12447 1.9811C1.89247 4.8611 -0.879526 11.2571 0.392474 16.7891C0.992474 19.4171 2.08447 21.8051 3.93247 23.7971C7.12447 27.2171 11.1565 28.2851 15.6805 27.7691C17.9845 27.5051 20.0845 26.6291 21.9805 25.2851C24.9925 23.1611 26.8405 20.2811 27.4765 16.6331C27.5725 16.0931 27.6205 15.5531 27.6925 15.0131C27.6925 14.4011 27.6925 13.7891 27.6925 13.1771C27.6805 13.0811 27.6565 12.9851 27.6445 12.8891C27.5125 11.0171 27.0565 9.21706 26.1445 7.56106C23.9725 3.60106 20.5405 1.39313 16.1845 0.505127C15.6685 0.397127 15.1525 0.349062 14.6365 0.289062ZM24.1045 14.5331C24.9085 14.5331 25.7245 14.5451 26.5285 14.5331C26.7325 14.5331 26.8045 14.5931 26.7685 14.7971C26.7445 14.9891 26.7325 15.1931 26.7205 15.3851C26.4685 17.9051 25.5445 20.1611 23.9725 22.1531C23.8405 22.3211 23.7685 22.3091 23.6245 22.1651C22.8205 21.3491 21.9205 20.6531 20.9365 20.0651C20.7805 19.9691 20.7325 19.8851 20.7805 19.7051C21.1885 18.0851 21.3925 16.4411 21.4285 14.7731C21.4285 14.5811 21.4885 14.5331 21.6805 14.5331C22.4845 14.5331 23.3005 14.5331 24.1045 14.5331ZM24.1165 13.6451C23.3005 13.6451 22.4845 13.6451 21.6685 13.6451C21.4885 13.6451 21.4285 13.5971 21.4405 13.4171C21.4405 13.1531 21.4285 12.9011 21.4165 12.6371C21.3445 11.2211 21.1405 9.81711 20.7925 8.43711C20.7565 8.30511 20.7685 8.23312 20.9005 8.14912C21.9325 7.56112 22.8685 6.82912 23.6965 5.97712C23.7925 5.88112 23.8525 5.86906 23.9485 5.98906C24.1045 6.20506 24.2725 6.39709 24.4165 6.61309C25.8565 8.64109 26.6365 10.8971 26.7925 13.3811C26.8045 13.5971 26.7445 13.6571 26.5285 13.6571C25.7125 13.6451 24.9205 13.6451 24.1165 13.6451ZM3.66847 13.6451C2.85247 13.6451 2.03647 13.6331 1.22047 13.6451C1.02847 13.6451 0.968474 13.5851 0.992474 13.4051C1.01647 13.2131 1.02847 13.0091 1.04047 12.8171C1.29247 10.2851 2.21647 8.02911 3.78847 6.03711C3.90847 5.89311 3.96847 5.88109 4.11247 6.01309C4.91647 6.84109 5.82847 7.5491 6.82447 8.1251C6.99247 8.2211 7.01647 8.31708 6.96847 8.48508C6.57247 10.0931 6.35647 11.7251 6.33247 13.3811C6.33247 13.5851 6.27247 13.6451 6.06847 13.6331C5.26447 13.6451 4.47247 13.6451 3.66847 13.6451ZM0.992474 14.8931C1.02847 14.7611 0.87247 14.5331 1.20847 14.5331C2.84047 14.5451 4.47247 14.5451 6.11647 14.5331C6.28447 14.5331 6.33247 14.5811 6.33247 14.7491C6.36847 16.4291 6.57247 18.0971 6.98047 19.7291C7.01647 19.8611 7.00447 19.9451 6.86047 20.0291C5.84047 20.6291 4.91647 21.3491 4.08847 22.1891C3.98047 22.2971 3.92047 22.2971 3.82447 22.1771C2.12047 20.0411 1.18447 17.6171 0.992474 14.8931ZM13.4365 22.9931C13.4365 24.1931 13.4365 25.4051 13.4365 26.6051C13.4365 26.8691 13.3045 26.9651 13.0405 26.9051C13.0285 26.9051 13.0285 26.8931 13.0165 26.8931C11.9725 26.6291 11.1685 25.9931 10.4845 25.2011C9.30847 23.8451 8.62447 22.2371 8.09647 20.5451C8.04847 20.3651 8.14447 20.3531 8.24047 20.2931C9.78847 19.5371 11.4325 19.1291 13.1605 19.0091C13.3765 18.9971 13.4485 19.0451 13.4485 19.2731C13.4365 20.5091 13.4365 21.7451 13.4365 22.9931ZM14.3245 5.19709C14.3245 3.99709 14.3245 2.78508 14.3245 1.58508C14.3245 1.32108 14.4565 1.22508 14.7205 1.28508C14.7325 1.28508 14.7325 1.29709 14.7445 1.29709C15.8125 1.57309 16.6405 2.22112 17.3365 3.04912C18.4765 4.39312 19.1605 5.97707 19.6765 7.64507C19.7245 7.81307 19.6285 7.83709 19.5325 7.89709C17.9725 8.65309 16.3165 9.07311 14.5885 9.19311C14.3605 9.20511 14.3245 9.12108 14.3245 8.92908C14.3245 7.66908 14.3245 6.43309 14.3245 5.19709ZM13.4365 5.18508C13.4365 6.43308 13.4365 7.68108 13.4365 8.92908C13.4365 9.13308 13.3765 9.18109 13.1725 9.16909C11.4325 9.04909 9.77647 8.62907 8.20447 7.87307C8.07247 7.81307 8.03647 7.75311 8.08447 7.60911C8.26447 7.04511 8.45647 6.48109 8.68447 5.94109C9.23647 4.64509 9.92047 3.44507 10.9405 2.47307C11.5645 1.87307 12.2845 1.42912 13.1485 1.24912C13.3645 1.20112 13.4245 1.23711 13.4245 1.46511C13.4365 2.71311 13.4365 3.94908 13.4365 5.18508ZM14.3245 22.9571C14.3245 21.7211 14.3365 20.4971 14.3245 19.2611C14.3245 19.0211 14.3965 18.9731 14.6125 18.9971C14.9365 19.0451 15.2605 19.0571 15.5725 19.0931C16.9645 19.2731 18.2845 19.6811 19.5445 20.2931C19.6765 20.3531 19.7005 20.4251 19.6525 20.5571C19.5325 20.8931 19.4365 21.2411 19.3045 21.5771C18.7885 22.9331 18.1525 24.2291 17.1565 25.3091C16.4485 26.0891 15.6205 26.6891 14.5765 26.9171C14.3485 26.9651 14.3005 26.9051 14.3125 26.6891C14.3245 25.4531 14.3245 24.2051 14.3245 22.9571ZM17.4565 13.6451C16.5085 13.6451 15.5485 13.6451 14.6005 13.6451C14.3965 13.6451 14.3245 13.6091 14.3245 13.3811C14.3365 12.3611 14.3365 11.3291 14.3245 10.3091C14.3245 10.1171 14.3725 10.0451 14.5765 10.0451C16.3885 9.96107 18.1045 9.52906 19.7365 8.76106C19.8925 8.68906 19.9525 8.6891 20.0005 8.8811C20.3365 10.3691 20.5045 11.8931 20.5645 13.4171C20.5765 13.5971 20.5165 13.6451 20.3365 13.6451C19.3765 13.6451 18.4165 13.6451 17.4565 13.6451ZM17.4325 14.5331C18.3925 14.5331 19.3525 14.5331 20.3125 14.5331C20.4925 14.5331 20.5645 14.5691 20.5525 14.7731C20.4925 16.2971 20.3245 17.7971 19.9885 19.2851C19.9405 19.4771 19.8925 19.5011 19.7125 19.4171C18.0805 18.6491 16.3525 18.2171 14.5525 18.1331C14.3725 18.1211 14.3125 18.0731 14.3125 17.8811C14.3245 16.8491 14.3245 15.8171 14.3125 14.7851C14.3125 14.5811 14.3725 14.5331 14.5765 14.5331C15.5245 14.5331 16.4845 14.5331 17.4325 14.5331ZM10.3525 13.6451C9.38047 13.6451 8.40847 13.6451 7.44847 13.6451C7.29247 13.6451 7.20847 13.6331 7.20847 13.4291C7.26847 11.9051 7.43647 10.4051 7.76047 8.91706C7.80847 8.67706 7.88047 8.68907 8.07247 8.77307C9.69247 9.52907 11.3965 9.96106 13.1845 10.0331C13.4005 10.0451 13.4485 10.1171 13.4485 10.3211C13.4365 11.3411 13.4365 12.3491 13.4485 13.3691C13.4485 13.6091 13.3645 13.6451 13.1605 13.6451C12.2125 13.6451 11.2885 13.6451 10.3525 13.6451ZM10.3285 14.5331C11.2765 14.5331 12.2365 14.5451 13.1845 14.5331C13.3765 14.5331 13.4485 14.5811 13.4485 14.7851C13.4365 15.8171 13.4365 16.8491 13.4485 17.8811C13.4485 18.0611 13.4005 18.1331 13.2085 18.1331C11.3965 18.2051 9.68047 18.6371 8.04847 19.4171C7.86847 19.5011 7.82047 19.4891 7.77247 19.2851C7.43647 17.7971 7.26847 16.2731 7.20847 14.7491C7.19647 14.5451 7.29247 14.5331 7.44847 14.5331C8.40847 14.5331 9.36847 14.5331 10.3285 14.5331ZM10.6165 26.5451C10.5325 26.5451 10.4965 26.5571 10.4725 26.5451C8.24047 25.9211 6.30847 24.7811 4.66447 23.1371C4.53247 23.0051 4.59247 22.9451 4.68847 22.8371C5.39647 22.1171 6.18847 21.4931 7.04047 20.9531C7.22047 20.8331 7.29247 20.8331 7.36447 21.0611C7.68847 22.1291 8.13247 23.1491 8.68447 24.1091C9.20047 25.0091 9.81247 25.8131 10.6165 26.5451ZM10.5925 1.62112C10.3045 1.93312 10.0285 2.19709 9.77647 2.49709C8.63647 3.85309 7.89247 5.4131 7.36447 7.0811C7.28047 7.3451 7.20847 7.33307 7.00447 7.20107C6.17647 6.67307 5.42047 6.06111 4.71247 5.36511C4.56847 5.22111 4.55647 5.14912 4.71247 4.99311C6.10447 3.60111 7.73647 2.58111 9.58447 1.90911C9.89647 1.80111 10.2205 1.68112 10.5925 1.62112ZM17.1685 1.65708C17.2405 1.60908 17.2885 1.63308 17.3485 1.65708C19.5565 2.28108 21.4645 3.40909 23.0845 5.04109C23.2285 5.18509 23.1805 5.2451 23.0725 5.3531C22.3525 6.0611 21.5725 6.68511 20.7205 7.23711C20.5165 7.36911 20.4685 7.30906 20.4085 7.11706C19.9405 5.66507 19.3165 4.28512 18.4165 3.04912C18.0445 2.54512 17.6365 2.07708 17.1685 1.65708ZM17.2045 26.5331C17.4685 26.2451 17.7445 25.9691 17.9845 25.6811C19.1245 24.3131 19.8685 22.7411 20.3965 21.0611C20.4565 20.8691 20.5045 20.8211 20.6965 20.9411C21.5485 21.4811 22.3285 22.1051 23.0485 22.8131C23.1925 22.9571 23.1925 23.0291 23.0485 23.1731C21.8605 24.3491 20.5165 25.2731 18.9805 25.9451C18.4165 26.1971 17.8285 26.4131 17.2045 26.5331Z" fill="#FB794A"/>
</svg>
