<svg width="28" height="22" viewBox="0 0 28 22" fill="none" xmlns="http://www.w3.org/2000/svg">
<path d="M27.6969 13.6539C27.6129 14.1219 27.6369 14.5898 27.5889 15.0698C27.5049 16.0778 27.4569 17.0858 27.2049 18.0698C26.8929 19.3058 26.3049 20.3379 25.1649 20.9739C24.6369 21.2739 24.0609 21.4059 23.4729 21.4539C21.9249 21.5859 20.3769 21.7059 18.8289 21.7659C16.9089 21.8259 14.9889 21.9099 13.0689 21.8619C11.1369 21.8139 9.20488 21.7899 7.27288 21.7179C6.13288 21.6819 4.99288 21.6699 3.86488 21.4779C2.26888 21.2019 1.24888 20.2779 0.744875 18.7419C0.456875 17.8659 0.348878 16.9539 0.264878 16.0299C0.0488779 13.4379 0.0488777 10.8459 0.156878 8.2539C0.216878 6.9939 0.264876 5.72188 0.576876 4.48588C0.888876 3.24988 1.46488 2.22983 2.61688 1.58183C3.15688 1.28183 3.73288 1.1498 4.33288 1.1018C6.38488 0.933799 8.43688 0.825899 10.4889 0.753899C12.8649 0.669899 15.2289 0.681899 17.5929 0.753899C19.0929 0.789899 20.5929 0.837928 22.0809 0.933928C22.7889 0.981928 23.5089 0.945811 24.1929 1.11381C25.6209 1.48581 26.5569 2.3978 27.0249 3.8018C27.3249 4.7018 27.4329 5.63787 27.5049 6.57387C27.5649 7.31787 27.6129 8.06185 27.6729 8.80585L27.6969 13.6539ZM13.7649 20.9378C17.2209 20.9258 20.1849 20.8659 23.1369 20.6739C24.7929 20.5659 25.7049 19.8458 26.1969 18.2498C26.6169 16.8818 26.6529 15.4538 26.7249 14.0498C26.8329 11.6378 26.8089 9.2138 26.6289 6.8018C26.5569 5.8418 26.4009 4.88182 26.0889 3.96982C25.6689 2.74582 24.8049 2.06191 23.5209 1.96591C21.6729 1.82191 19.8249 1.74993 17.9769 1.68993C13.6329 1.54593 9.28887 1.65385 4.94487 1.90585C4.54887 1.92985 4.14087 1.92983 3.74487 2.03783C2.47288 2.36183 1.82488 3.26187 1.50088 4.47387C1.14088 5.84187 1.09288 7.25786 1.03288 8.66186C0.948877 10.7019 0.936878 12.7298 1.08088 14.7698C1.15288 15.9098 1.20087 17.0379 1.51287 18.1539C1.89687 19.5699 2.79688 20.3979 4.15287 20.5419C4.88488 20.6139 5.61688 20.6859 6.34888 20.7219C8.97688 20.8539 11.6169 20.9138 13.7649 20.9378Z" fill="#FB794A"/>
<path d="M10.1839 11.6118C10.1839 10.0038 10.1839 8.39596 10.1839 6.78796C10.1839 6.18796 10.5199 5.99591 11.0359 6.29591C13.8439 7.93991 16.6519 9.58388 19.4719 11.2159C19.6759 11.3359 19.8799 11.468 19.8679 11.744C19.8679 12.02 19.6639 12.1399 19.4479 12.2599C16.6639 13.8079 13.8919 15.3559 11.1079 16.9039C11.0479 16.9399 10.9999 16.9758 10.9399 16.9998C10.5199 17.2158 10.1839 17.0119 10.1719 16.5319C10.1719 15.4879 10.1719 14.432 10.1719 13.388C10.1839 12.788 10.1839 12.1998 10.1839 11.6118ZM18.4519 11.744C18.3559 11.684 18.2959 11.6358 18.2239 11.5998C15.9319 10.2558 13.6519 8.91184 11.3599 7.56784C11.1079 7.41184 11.1079 7.41183 11.1079 7.71183C11.1079 10.3158 11.1079 12.9198 11.1079 15.5238C11.1079 15.8238 11.1079 15.8238 11.3839 15.6678C13.5559 14.4678 15.7159 13.2558 17.8879 12.0558C18.0799 11.9478 18.2599 11.852 18.4519 11.744Z" fill="#FB794A"/>
</svg>
