<svg width="45" height="45" viewBox="0 0 50 50" fill="none" xmlns="http://www.w3.org/2000/svg">
    <path
        d="M24.9448 49.8895C38.7214 49.8895 49.8895 38.7214 49.8895 24.9448C49.8895 11.1682 38.7214 0 24.9448 0C11.1682 0 0 11.1682 0 24.9448C0 38.7214 11.1682 49.8895 24.9448 49.8895Z"
        fill="url(#paint0_linear_4513_54)" />
    <path opacity="0.3"
        d="M49.9936 27.2652L37.662 14.9336C37.662 14.9336 29.8421 15.9743 28.7142 15.9743C27.5863 15.9743 17.2489 17.8871 17.2489 17.8871C17.2489 17.8871 13.5105 19.7127 13.2546 19.8C12.993 19.8872 10.3418 32.5269 10.3418 32.5269L27.7898 49.9749C39.3714 48.2074 48.4762 38.9282 49.9995 27.271L49.9936 27.2652Z"
        fill="#211915" />
    <path
        d="M16.192 14H34.1865C37.6051 14 40.3784 16.7733 40.3784 20.192V29.6631C40.3784 33.0817 37.6051 35.855 34.1865 35.855H16.192C12.7733 35.855 10 33.0817 10 29.6631V20.192C10 16.7733 12.7733 14 16.192 14Z"
        fill="white" />
    <path d="M20.9746 20.5039L29.1492 24.9226L20.9746 29.3471V20.5039Z" fill="url(#paint1_linear_4513_54)" />
    <defs>
        <linearGradient id="paint0_linear_4513_54" x1="12.8077" y1="4.45005" x2="39.0589" y2="48.7756"
            gradientUnits="userSpaceOnUse">
            <stop stop-color="#CD201F" />
            <stop offset="1" stop-color="#740100" />
        </linearGradient>
        <linearGradient id="paint1_linear_4513_54" x1="20.9746" y1="24.9226" x2="29.1492" y2="24.9226"
            gradientUnits="userSpaceOnUse">
            <stop stop-color="#CD201F" />
            <stop offset="1" stop-color="#740100" />
        </linearGradient>
    </defs>
</svg>