<svg width="30" height="31" viewBox="0 0 30 31" fill="none" xmlns="http://www.w3.org/2000/svg">
<g filter="url(#filter0_d_1_8951)">
<path d="M12.8522 10.895V12.7876C13.3284 12.7862 13.796 12.9148 14.2046 13.1593C14.6132 13.4039 14.9474 13.7552 15.1712 14.1755C15.818 14.1755 16.4806 14.0493 17.1432 14.0177C16.8498 13.1107 16.2765 12.3199 15.5055 11.7589C14.7346 11.1979 13.8057 10.8954 12.8522 10.895ZM11.5743 2.11045C11.2452 2.13341 10.9182 2.18086 10.5962 2.25239C10.8644 3.29329 11.1168 4.3342 11.385 5.40664C12.8204 5.2116 14.2811 5.33111 15.6657 5.75688C17.0503 6.18264 18.3257 6.90446 19.4034 7.87227C20.481 8.84007 21.3352 10.0307 21.9065 11.3615C22.4778 12.6923 22.7527 14.1315 22.7121 15.5791C23.8006 15.5791 24.9049 15.6895 25.9935 15.7053C26.0524 13.8332 25.7131 11.9699 24.998 10.2387C24.2829 8.50747 23.2084 6.94773 21.8454 5.66264C20.4823 4.37755 18.8619 3.39639 17.0913 2.78403C15.3207 2.17168 13.4403 1.94209 11.5743 2.11045Z" fill="white"/>
<path d="M13.4667 24.2375C11.9527 24.3742 10.4293 24.1145 9.04625 23.484C7.66319 22.8535 6.46816 21.8739 5.57872 20.6416C4.52492 19.184 3.97146 17.4246 4.00113 15.6264V2H6.91965V15.579C6.93018 16.7354 7.28598 17.8622 7.94144 18.815C8.5969 19.7678 9.52214 20.5032 10.5985 20.9267C11.6748 21.3503 12.8531 21.4428 13.9824 21.1923C15.1117 20.9418 16.1403 20.3598 16.9365 19.5209C17.7326 18.6821 18.26 17.6245 18.4509 16.484C18.6418 15.3435 18.4875 14.172 18.0078 13.1197C17.5282 12.0674 16.7451 11.1823 15.7589 10.578C14.7727 9.97371 13.6284 9.67768 12.4728 9.72791C12.3308 8.76586 12.2203 7.80382 12.0941 6.826C14.2798 6.83692 16.382 7.66614 17.9863 9.15014C19.5905 10.6341 20.5804 12.6652 20.7606 14.8428C20.9408 17.0204 20.2983 19.1865 18.9598 20.9139C17.6212 22.6412 15.6839 23.8045 13.5297 24.1744L13.4667 24.2375Z" fill="white"/>
</g>
<defs>
<filter id="filter0_d_1_8951" x="0" y="0" width="30" height="30.2729" filterUnits="userSpaceOnUse" color-interpolation-filters="sRGB">
<feFlood flood-opacity="0" result="BackgroundImageFix"/>
<feColorMatrix in="SourceAlpha" type="matrix" values="0 0 0 0 0 0 0 0 0 0 0 0 0 0 0 0 0 0 127 0" result="hardAlpha"/>
<feOffset dy="2"/>
<feGaussianBlur stdDeviation="2"/>
<feComposite in2="hardAlpha" operator="out"/>
<feColorMatrix type="matrix" values="0 0 0 0 0 0 0 0 0 0 0 0 0 0 0 0 0 0 0.25 0"/>
<feBlend mode="normal" in2="BackgroundImageFix" result="effect1_dropShadow_1_8951"/>
<feBlend mode="normal" in="SourceGraphic" in2="effect1_dropShadow_1_8951" result="shape"/>
</filter>
</defs>
</svg>
