<svg width="96" height="25" viewBox="0 0 96 25" fill="none" xmlns="http://www.w3.org/2000/svg">
<mask id="mask0_3084_7480" style="mask-type:luminance" maskUnits="userSpaceOnUse" x="0" y="0" width="96" height="25">
<path d="M95.6071 0.749023H0V24.6512H95.6071V0.749023Z" fill="white"/>
</mask>
<g mask="url(#mask0_3084_7480)">
<path d="M0.000406826 0.749037H3.10782V15.3106C3.0622 17.9394 4.9004 20.4314 7.37321 21.2125C11.593 22.6562 16.1713 18.8405 15.4174 14.3823H18.5432C19.1042 19.3831 15.1421 24.2743 10.1405 24.6048C6.88585 24.9361 3.62239 23.4284 1.72897 20.7435C0.588598 19.199 -0.0179992 17.2776 0.000406826 15.3658V0.749037ZM43.1801 15.3658C43.1616 17.6641 44.0443 19.9345 45.616 21.599C49.7622 26.4438 57.9809 25.249 60.757 19.54C64.9119 11.1924 55.7097 2.4872 47.7119 7.22154V11.2573C52.6759 5.49298 61.5292 11.8182 57.7968 18.4556C55.7561 22.0872 50.2496 22.5553 47.6935 19.2367C47.0589 18.4924 46.618 17.5817 46.4155 16.6262C46.0754 11.3589 46.3971 6.03556 46.2867 0.749838H43.1705V15.3666H43.1793L43.1801 15.3658ZM64.7839 14.9249C64.7287 16.2213 64.9215 17.5265 65.4001 18.7309C67.4319 24.2375 74.7767 26.4806 79.4471 22.9139C88.9253 15.8259 79.5759 1.37484 69.307 7.21194V11.2573C74.9976 4.88638 84.2366 13.2891 78.4907 19.6232C75.9899 22.3537 71.2188 22.0224 69.0957 18.9886C68.3875 18.0603 67.9745 16.9111 67.9009 15.7523V0.749037H64.7751V14.9249H64.7839ZM86.3509 15.357C86.3237 16.7086 86.627 18.0691 87.1968 19.2919C88.7045 22.4545 92.06 24.7713 95.5899 24.6056C95.5715 23.5757 95.6267 22.5465 95.5811 21.5166C92.6025 21.5806 89.8448 19.1446 89.4863 16.1757C89.3303 11.0364 89.4863 5.87951 89.4311 0.740234H86.3517V15.357H86.3509ZM25.5575 17.2504C25.5487 18.5652 25.8608 19.8793 26.541 21.0012C27.9199 23.3452 30.5583 24.8441 33.2704 24.6048C36.4419 24.4672 39.3012 21.8927 39.871 18.7581C40.2023 14.4927 39.9078 10.1905 39.9998 5.91552H36.8836C36.8836 9.8408 36.8924 13.7661 36.8836 17.6913C36.7548 20.6883 33.0135 22.5449 30.568 20.8356C29.7037 20.2658 29.0146 19.3919 28.7658 18.3628C28.4529 14.2446 28.7386 10.0521 28.6465 5.91552H25.5487V17.2416L25.5575 17.2504ZM7.09712 1.01552C7.38201 2.12789 7.64849 3.25865 7.92458 4.37102C14.2674 3.48833 20.3718 8.71963 19.9765 15.2738C21.1441 15.3194 22.3117 15.393 23.4881 15.421C23.9842 7.15672 16.2897 -0.142452 8.13585 0.868277C7.78614 0.913891 7.43723 0.913891 7.09712 1.01552ZM9.01854 9.03173C12.0979 8.83887 15.0677 11.2749 15.4262 14.3823H18.552C18.2119 9.45507 13.5048 5.47458 8.63282 5.93393C8.75205 6.97266 8.8809 8.0026 9.01854 9.04134V9.03253V9.03173ZM9.48749 12.3232C10.499 12.296 11.5009 12.893 11.9603 13.8029C12.6589 13.7573 13.3576 13.674 14.0562 13.6284C13.4864 11.6614 11.5098 10.2641 9.48749 10.2913V12.3232Z" fill="url(#paint0_linear_3084_7480)"/>
</g>
<defs>
<linearGradient id="paint0_linear_3084_7480" x1="-0.689418" y1="12.6945" x2="94.9097" y2="12.6945" gradientUnits="userSpaceOnUse">
<stop stop-color="#2C537B"/>
<stop offset="0.19" stop-color="#2D527E"/>
<stop offset="0.38" stop-color="#325189"/>
<stop offset="0.56" stop-color="#3B4E9D"/>
<stop offset="0.74" stop-color="#4C52A3"/>
<stop offset="0.91" stop-color="#5957A6"/>
<stop offset="1" stop-color="#5D5AA7"/>
</linearGradient>
</defs>
</svg>
