<svg width="29" height="29" viewBox="0 0 29 29" fill="none" xmlns="http://www.w3.org/2000/svg">
    <path
        d="M15.5509 3.6475C15.7012 3.78321 15.7926 3.86303 15.8813 3.9464C17.7086 5.68217 19.5377 7.41706 21.3613 9.15637C21.7094 9.48809 22.0967 9.65662 22.5876 9.51204C23.3407 9.28942 23.6198 8.43262 23.1317 7.84546C23.0598 7.75942 22.973 7.68403 22.8909 7.60509C20.3889 5.22717 17.8878 2.84924 15.3857 0.472205C14.7269 -0.153984 14.1427 -0.157532 13.4903 0.462449C10.9547 2.87142 8.41905 5.27861 5.88716 7.69113C5.21335 8.33328 5.45506 9.31159 6.33325 9.52801C6.78214 9.63888 7.15077 9.49342 7.47088 9.18742C8.85861 7.8632 10.251 6.54252 11.6416 5.22096C12.1754 4.71273 12.7092 4.20451 13.2626 3.67677C13.3475 3.82134 13.3139 3.95439 13.3139 4.07767C13.3158 10.0726 13.3158 16.0684 13.3167 22.0633C13.3167 22.2177 13.3102 22.3755 13.3419 22.5254C13.453 23.0487 13.9607 23.4088 14.5122 23.3725C15.075 23.3352 15.5211 22.8944 15.5491 22.3445C15.5547 22.2345 15.5509 22.1236 15.5509 22.0128C15.5509 16.0507 15.5509 10.0886 15.5509 4.12646V3.6475Z"
        fill="black" />
    <path
        d="M14.4407 28.875C18.4994 28.875 22.5589 28.875 26.6176 28.875C28.0313 28.875 28.8734 27.9059 28.8742 26.2824C28.8742 24.8341 28.876 23.3868 28.8742 21.9385C28.8734 21.1573 28.4515 20.625 27.8402 20.627C27.2323 20.6289 26.8139 21.1642 26.8122 21.9464C26.8105 23.3573 26.8044 24.7692 26.8173 26.1801C26.8199 26.4566 26.7554 26.5245 26.5151 26.5235C18.4615 26.5156 10.4078 26.5156 2.35506 26.5235C2.10623 26.5235 2.0563 26.4408 2.05802 26.1732C2.06921 24.7623 2.06491 23.3514 2.06318 21.9395C2.06232 21.1563 1.64216 20.625 1.03259 20.625C0.424731 20.625 0.0028482 21.1602 0.00198721 21.9415C0.000265243 23.4262 -0.00145673 24.9109 0.00198721 26.3956C0.00543115 27.8665 0.881053 28.8701 2.1665 28.8711C6.2579 28.874 10.3484 28.8711 14.4398 28.8711L14.4407 28.875Z"
        fill="black" />
</svg>