<svg width="28" height="28" viewBox="0 0 28 28" fill="none" xmlns="http://www.w3.org/2000/svg">
<path d="M13.1501 11.9896C13.5341 12.0736 13.9181 12.0136 14.3021 12.0376C14.4341 12.0496 14.4341 11.9536 14.4341 11.8576C14.4341 11.5576 14.4341 11.2696 14.4341 10.9696C14.4341 10.8136 14.4821 10.7656 14.6381 10.7656C14.9141 10.7776 15.1901 10.7656 15.4661 10.7776C15.6461 10.7776 15.7061 10.8496 15.6581 11.0536C15.5861 11.3656 15.7421 11.6776 15.7301 12.0016C15.7301 12.0856 15.8501 12.0496 15.9101 12.0496C16.6301 12.0496 17.3381 12.0496 18.0581 12.0496C18.2141 12.0496 18.2621 12.0016 18.2621 11.8456C18.2621 11.5696 18.2741 11.2936 18.2621 11.0176C18.2621 10.8616 18.2981 10.8016 18.4781 10.8016C20.4701 10.8136 22.4501 10.8136 24.4421 10.8136C24.6221 10.8136 24.6701 10.8856 24.6701 11.0536C24.6581 11.3176 24.6701 11.5696 24.6461 11.8336C24.6221 12.0376 24.7181 12.0976 24.9101 12.0976C25.5941 12.0976 26.2901 12.1096 26.9741 12.1096C27.1661 12.1096 27.2501 12.1456 27.2261 12.3616C27.2021 12.6136 27.2141 12.8656 27.2261 13.1176C27.2381 13.3096 27.1781 13.3936 26.9621 13.3696C26.6981 13.3456 26.4221 13.3696 26.1581 13.3576C25.9781 13.3456 25.9301 13.4176 25.9301 13.5976C25.9301 14.2936 25.9181 14.9776 25.9181 15.6736C25.9181 15.8896 25.8461 15.9496 25.6421 15.9376C24.9581 15.9136 24.2861 15.9016 23.6021 15.9016C23.4221 15.9016 23.3741 15.8296 23.3741 15.6616C23.3861 15.3976 23.3741 15.1216 23.3861 14.8576C23.3981 14.6656 23.3021 14.6056 23.1341 14.6056C22.8821 14.6056 22.6301 14.5816 22.3781 14.6056C22.1381 14.6176 22.1021 14.5216 22.1021 14.3056C22.1261 13.6576 22.1141 12.9976 22.1261 12.3376C22.1261 12.1216 22.0541 12.0376 21.8381 12.0496C21.5741 12.0616 21.3221 12.0616 21.0581 12.0496C20.8901 12.0376 20.8301 12.0976 20.8301 12.2776C20.8421 12.9616 20.8181 13.6456 20.8301 14.3176C20.8301 14.5216 20.7701 14.6056 20.5541 14.5816C20.2901 14.5576 20.0141 14.5816 19.7501 14.5696C19.5701 14.5576 19.5101 14.6416 19.5101 14.7976C19.5101 15.0616 19.4861 15.3136 19.4981 15.5776C19.5101 15.7936 19.4501 15.8776 19.2221 15.8656C18.5501 15.8416 17.8781 15.8656 17.2061 15.8416C17.0021 15.8416 16.9541 15.9016 16.9541 16.0936C16.9661 16.7296 16.9541 17.3656 16.9541 18.0016C16.9541 18.2536 16.9061 18.3856 16.6181 18.3376C16.4021 18.3016 16.1741 18.3136 15.9461 18.3256C15.7661 18.3376 15.7181 18.2776 15.7181 18.0976C15.7301 17.4376 15.7061 16.7656 15.7301 16.1056C15.7421 15.8656 15.6341 15.7936 15.4181 15.7936C15.1421 15.7936 14.8661 15.7936 14.5901 15.7816C14.4221 15.7696 14.3741 15.8416 14.3741 16.0096C14.3861 16.7056 14.3741 17.3896 14.3861 18.0856C14.3861 18.2656 14.3501 18.3136 14.1581 18.3016C13.0661 18.2776 11.9741 18.2656 10.8821 18.2656C10.7021 18.2656 10.6301 18.2176 10.6421 18.0256C10.6541 17.7856 10.6301 17.5456 10.6421 17.3056C10.6541 17.0656 10.5461 16.9936 10.3301 16.9936C9.68213 16.9936 9.02213 16.9696 8.37413 16.9816C8.14613 16.9816 8.07414 16.9096 8.09814 16.6936C8.11014 16.4536 8.11014 16.2136 8.09814 15.9736C8.09814 15.8416 8.13414 15.8056 8.26614 15.8056C8.54214 15.8176 8.81813 15.8056 9.09413 15.8176C9.28613 15.8296 9.35813 15.7456 9.34613 15.5656C9.33413 15.2776 9.33414 14.9896 9.33414 14.7016C9.33414 14.5576 9.27413 14.4976 9.13013 14.4976C8.85413 14.5096 8.57814 14.4856 8.30214 14.4976C8.15814 14.4976 8.08614 14.4736 8.09814 14.3056C8.11014 14.0176 8.11014 13.7296 8.09814 13.4416C8.09814 13.2976 8.14613 13.2616 8.27813 13.2616C8.96213 13.2736 9.65813 13.2736 10.3421 13.2616C10.5221 13.2616 10.5701 13.3096 10.5701 13.4896C10.5581 14.1856 10.5701 14.8696 10.5581 15.5656C10.5581 15.7696 10.6181 15.8416 10.8221 15.8296C11.0861 15.8176 11.3621 15.8416 11.6261 15.8296C11.7941 15.8296 11.8421 15.8896 11.8421 16.0456C11.8421 16.3096 11.8541 16.5856 11.8421 16.8496C11.8301 17.0296 11.9021 17.0896 12.0821 17.0776C12.3461 17.0656 12.6221 17.0536 12.8861 17.0776C13.1261 17.1016 13.1621 16.9936 13.1621 16.7896C13.1501 15.4456 13.1501 14.1016 13.1501 12.7576C13.1501 12.5176 13.1621 12.2536 13.1501 11.9896ZM15.0461 14.5816C15.0701 14.5816 15.0941 14.5816 15.1301 14.5816C15.7421 14.5816 15.7421 14.5816 15.7421 13.9576C15.7421 13.2856 15.7421 13.2856 15.0701 13.2856C14.4101 13.2856 14.4101 13.2856 14.3981 13.9336C14.3861 14.5816 14.3861 14.5816 15.0461 14.5816ZM17.6021 14.6056C17.7581 14.6056 17.9261 14.5936 18.0821 14.6056C18.2261 14.6176 18.2741 14.5696 18.2621 14.4256C18.2501 14.1256 18.2621 13.8136 18.2741 13.5136C18.2741 13.3696 18.2261 13.2976 18.0701 13.2976C17.8421 13.2976 17.6021 13.2856 17.3741 13.2856C16.9661 13.2856 16.9661 13.2856 16.9661 13.6816C16.9661 13.7656 16.9661 13.8616 16.9661 13.9456C16.9661 14.5816 16.9661 14.5816 17.6021 14.6056Z" fill="white"/>
<path d="M22.8329 0.564478C24.2609 0.564478 25.6769 0.564478 27.1049 0.564478C27.2969 0.564478 27.3449 0.624492 27.3449 0.804492C27.3089 3.60049 27.2729 6.39648 27.2609 9.19248C27.2609 9.45648 27.1889 9.52848 26.9129 9.52848C24.1529 9.50448 21.3929 9.49249 18.6329 9.46849C18.2969 9.46849 18.2969 9.46847 18.2969 9.10847C18.3089 6.33647 18.3089 3.56449 18.3089 0.804492C18.3089 0.540492 18.3809 0.480469 18.6329 0.480469C20.0249 0.492469 21.4289 0.49248 22.8209 0.49248C22.8329 0.51648 22.8329 0.540478 22.8329 0.564478ZM26.0009 5.05247C26.0249 5.05247 26.0369 5.05247 26.0609 5.05247C26.0609 4.09247 26.0609 3.13247 26.0609 2.17247C26.0609 1.80047 26.0609 1.80048 25.6769 1.80048C23.7329 1.78848 21.7889 1.78848 19.8449 1.76448C19.6049 1.76448 19.5569 1.84847 19.5569 2.05247C19.5569 4.04447 19.5569 6.03648 19.5449 8.02848C19.5449 8.19648 19.5809 8.24447 19.7489 8.24447C21.7529 8.25647 23.7569 8.26848 25.7729 8.29248C25.9529 8.29248 26.0009 8.24448 26.0009 8.06448C26.0009 7.05648 26.0009 6.04847 26.0009 5.05247Z" fill="white"/>
<path d="M9.27344 4.98047C9.27344 6.38447 9.27344 7.78849 9.27344 9.20449C9.27344 9.34849 9.28544 9.44447 9.06944 9.44447C6.28544 9.43247 3.50144 9.42048 0.717441 9.42048C0.465441 9.42048 0.393442 9.36046 0.381442 9.09646C0.357442 6.31246 0.321438 3.52847 0.273438 0.74447C0.273438 0.52847 0.333439 0.480469 0.537439 0.480469C3.34544 0.492469 6.16544 0.492469 8.97344 0.480469C9.17744 0.480469 9.23744 0.540458 9.22544 0.732458C9.21344 2.14846 9.22544 3.56447 9.22544 4.98047C9.24944 4.98047 9.26144 4.98047 9.27344 4.98047ZM8.02544 4.96849C8.01344 4.96849 8.00144 4.96849 7.98944 4.96849C7.98944 4.03249 7.98944 3.08449 7.98944 2.14849C7.98944 1.75249 7.98944 1.75249 7.58144 1.74049C7.55744 1.74049 7.53344 1.74049 7.49744 1.74049C5.63744 1.74049 3.78943 1.74049 1.92943 1.74049C1.55743 1.74049 1.55744 1.74048 1.55744 2.10048C1.58144 4.05648 1.60544 6.01248 1.61744 7.95648C1.61744 8.16048 1.71344 8.18448 1.86944 8.18448C3.82544 8.18448 5.79344 8.18446 7.74944 8.19646C7.96544 8.19646 8.00144 8.12446 8.00144 7.93246C8.02544 6.93646 8.02544 5.95249 8.02544 4.96849Z" fill="white"/>
<path d="M4.88 18.3373C6.248 18.3373 7.616 18.3493 8.996 18.3373C9.248 18.3373 9.284 18.4213 9.284 18.6493C9.296 21.3253 9.31999 24.0133 9.34399 26.6893C9.34399 26.9173 9.272 26.9533 9.068 26.9533C6.332 26.9173 3.608 26.8813 0.871997 26.8573C0.691997 26.8573 0.619998 26.8213 0.619998 26.6173C0.583998 23.9413 0.548 21.2533 0.5 18.5773C0.5 18.3373 0.547997 18.2773 0.787997 18.2773C2.144 18.2893 3.512 18.2893 4.868 18.2893C4.88 18.3013 4.88 18.3133 4.88 18.3373ZM4.92799 19.5133C4.92799 19.5013 4.92799 19.4773 4.92799 19.4653C3.95599 19.4653 2.996 19.4773 2.024 19.4653C1.808 19.4653 1.736 19.5253 1.736 19.7533C1.76 21.6493 1.784 23.5573 1.796 25.4533C1.796 25.6453 1.85599 25.7293 2.05999 25.7293C3.99199 25.7053 5.924 25.8013 7.868 25.8253C8.12 25.8253 8.18 25.7293 8.168 25.5133C8.156 24.9733 8.156 24.4333 8.156 23.9053C8.144 22.5853 8.144 21.2653 8.132 19.9573C8.132 19.5373 8.12 19.5373 7.724 19.5373C6.8 19.5133 5.86399 19.5133 4.92799 19.5133Z" fill="white"/>
<path d="M13.8005 24.6259C14.3525 24.6259 14.9165 24.6139 15.4685 24.6259C15.6605 24.6259 15.7445 24.5659 15.7325 24.3619C15.7205 24.0979 15.7205 23.8219 15.7325 23.5579C15.7445 23.3779 15.6725 23.3179 15.4925 23.3299C15.2285 23.3419 14.9765 23.3179 14.7125 23.3299C14.5085 23.3419 14.4125 23.2819 14.4365 23.0539C14.4485 22.7899 14.4365 22.5379 14.4365 22.2739C14.4365 22.1059 14.3645 22.0459 14.2085 22.0579C13.9325 22.0579 13.6565 22.0459 13.3805 22.0579C13.2365 22.0579 13.1645 22.0219 13.1645 21.8659C13.1645 21.1699 13.1525 20.4739 13.1525 19.7659C13.1525 19.6339 13.2005 19.5859 13.3205 19.5859C13.6205 19.5979 13.9325 19.5979 14.2325 19.5979C14.3645 19.5979 14.3765 19.6579 14.3765 19.7659C14.3765 20.0659 14.3765 20.3779 14.3765 20.6779C14.3765 20.8339 14.4245 20.8819 14.5685 20.8819C14.8685 20.8699 15.1805 20.8819 15.4805 20.8819C15.6245 20.8819 15.6725 20.9179 15.6605 21.0619C15.6485 21.3499 15.6605 21.6379 15.6485 21.9259C15.6485 22.0699 15.6845 22.1299 15.8405 22.1299C16.1405 22.1179 16.4285 22.1299 16.7285 22.1419C16.8845 22.1419 16.9565 22.0939 16.9445 21.9259C16.9325 21.6499 16.9565 21.3739 16.9445 21.0979C16.9445 20.9419 16.9925 20.8939 17.1365 20.8939C17.4245 20.9059 17.7125 20.9059 18.0005 20.8939C18.1445 20.8939 18.1925 20.9419 18.1925 21.0739C18.1805 21.3379 18.2045 21.5899 18.1805 21.8539C18.1565 22.0939 18.2525 22.1659 18.4805 22.1659C19.5605 22.1659 20.6525 22.1779 21.7325 22.1779C21.9365 22.1779 22.0325 22.2139 22.0085 22.4419C21.9845 22.6699 21.9845 22.9099 21.9965 23.1379C22.0085 23.3299 21.9605 23.4019 21.7445 23.3899C21.0725 23.3659 20.4005 23.3779 19.7285 23.3539C19.5005 23.3419 19.4165 23.4139 19.4165 23.6539C19.4285 24.2899 19.4165 24.9259 19.4285 25.5619C19.4285 25.7779 19.3805 25.8499 19.1525 25.8499C18.4925 25.8259 17.8325 25.8499 17.1605 25.8379C16.9565 25.8379 16.8725 25.8859 16.8845 26.1139C16.9085 26.3659 16.8845 26.6179 16.8845 26.8699C16.8845 27.0019 16.8365 27.0379 16.7045 27.0379C16.4405 27.0259 16.1645 27.0259 15.9005 27.0379C15.7445 27.0379 15.6965 26.9899 15.6965 26.8339C15.7085 26.5819 15.6965 26.3299 15.6965 26.0779C15.6965 25.9099 15.6365 25.8379 15.4565 25.8379C15.1685 25.8379 14.8805 25.8379 14.5925 25.8259C14.4005 25.8139 14.3165 25.8739 14.3285 26.0899C14.3405 26.3299 14.3285 26.5699 14.3405 26.8099C14.3405 26.9539 14.3045 27.0259 14.1485 27.0139C13.8845 27.0019 13.6325 27.0019 13.3685 27.0019C13.2245 27.0019 13.1645 26.9539 13.1645 26.7979C13.1765 26.5339 13.1645 26.2819 13.1645 26.0179C13.1645 25.8619 13.0925 25.7899 12.9365 25.7899C12.6485 25.7899 12.3605 25.7779 12.0725 25.7779C11.9165 25.7779 11.8685 25.7179 11.8805 25.5739C11.8925 25.3219 11.8925 25.0699 11.8685 24.8179C11.8565 24.6259 11.9285 24.5899 12.0965 24.6019C12.6485 24.6139 13.2125 24.6019 13.7645 24.6019C13.8005 24.6019 13.8005 24.6139 13.8005 24.6259ZM17.5805 23.3419C17.4245 23.3419 17.2805 23.3539 17.1245 23.3419C16.9565 23.3299 16.9085 23.4019 16.9085 23.5579C16.9205 23.8339 16.9205 24.1099 16.9085 24.3859C16.8965 24.5659 16.9565 24.6499 17.1485 24.6379C17.3165 24.6259 17.4845 24.6379 17.6525 24.6379C18.2525 24.6379 18.2525 24.6379 18.2525 24.0259C18.2645 23.3419 18.2645 23.3419 17.5805 23.3419Z" fill="white"/>
<path d="M6.11857 10.7542C7.09057 10.7542 8.07456 10.7542 9.04656 10.7542C9.21456 10.7542 9.28656 10.7902 9.27456 10.9702C9.26256 11.2342 9.26256 11.4862 9.27456 11.7502C9.28656 11.9422 9.22657 11.9902 9.03457 11.9902C7.53457 11.9662 6.04656 11.9662 4.54656 11.9422C4.28256 11.9422 4.17456 12.0022 4.21056 12.2782C4.23456 12.5302 4.23456 12.7822 4.21056 13.0342C4.19856 13.2382 4.27056 13.2982 4.46256 13.2982C5.13456 13.2862 5.80656 13.3102 6.47856 13.2862C6.69456 13.2862 6.75457 13.3582 6.75457 13.5622C6.74257 13.8142 6.74257 14.0662 6.76657 14.3182C6.77857 14.4982 6.70657 14.5222 6.55057 14.5222C5.86657 14.5102 5.17057 14.5102 4.48657 14.4862C4.27057 14.4742 4.19856 14.5342 4.21056 14.7502C4.23456 15.0142 4.22256 15.2902 4.21056 15.5542C4.19856 15.7462 4.25856 15.8302 4.46256 15.8182C4.75056 15.8062 5.03856 15.8182 5.32656 15.8182C5.43456 15.8182 5.50656 15.8302 5.50656 15.9742C5.49456 16.2622 5.49456 16.5502 5.50656 16.8382C5.50656 16.9702 5.44656 17.0062 5.32656 17.0062C4.18656 16.9942 3.04657 16.9702 1.91857 16.9702C1.78657 16.9702 1.75057 16.9102 1.75057 16.7902C1.75057 16.0942 1.73856 15.4102 1.72656 14.7142C1.72656 14.5702 1.77457 14.5222 1.91857 14.5342C2.18257 14.5462 2.45856 14.5222 2.72256 14.5462C2.92656 14.5582 2.98657 14.4862 2.98657 14.2942C2.96257 13.2262 2.95056 12.1582 2.92656 11.0902C2.92656 10.7302 2.92657 10.7422 3.28657 10.7422C4.22257 10.7422 5.17056 10.7422 6.10656 10.7422C6.11856 10.7422 6.11857 10.7542 6.11857 10.7542Z" fill="white"/>
<path d="M25.2596 17.1604C25.8116 17.1604 26.3756 17.1724 26.9276 17.1604C27.1196 17.1604 27.1796 17.2204 27.1676 17.4124C27.1436 17.6884 27.1436 17.9644 27.1436 18.2404C27.1436 18.4084 27.0716 18.4324 26.9276 18.4204C26.6516 18.4084 26.3756 18.4084 26.0996 18.3964C25.9796 18.3964 25.8956 18.4084 25.8956 18.5644C25.8956 18.8644 25.8956 19.1764 25.8836 19.4764C25.8836 19.6204 25.9316 19.6684 26.0756 19.6684C26.3636 19.6684 26.6516 19.6804 26.9396 19.6684C27.0836 19.6684 27.1556 19.7044 27.1436 19.8604C27.1316 20.1364 27.1316 20.4124 27.1316 20.6884C27.1316 20.8324 27.0836 20.8924 26.9276 20.8924C26.6396 20.8804 26.3516 20.8924 26.0636 20.8804C25.9076 20.8804 25.8356 20.9284 25.8356 21.0964C25.8476 21.3604 25.8236 21.6364 25.8356 21.9004C25.8476 22.0804 25.7756 22.1284 25.6076 22.1284C25.3196 22.1164 25.0316 22.1164 24.7436 22.1164C24.6116 22.1164 24.5876 22.0804 24.5996 21.9604C24.6116 21.6964 24.5876 21.4204 24.6116 21.1564C24.6356 20.9044 24.5276 20.8564 24.3116 20.8564C23.6636 20.8684 23.0036 20.8444 22.3556 20.8564C22.1276 20.8564 22.0676 20.7844 22.0796 20.5684C22.1036 20.3044 22.0916 20.0524 22.0916 19.7884C22.0916 19.6564 22.1396 19.6084 22.2596 19.6204C22.5236 19.6324 22.7996 19.6084 23.0636 19.6324C23.3036 19.6564 23.3876 19.5844 23.3876 19.3324C23.3636 18.6844 23.3876 18.0364 23.3756 17.4004C23.3756 17.1964 23.4356 17.1484 23.6276 17.1484C24.1676 17.1724 24.7076 17.1604 25.2596 17.1604Z" fill="white"/>
<path d="M14.4459 5.65346C14.4459 5.30546 14.4219 4.95747 14.4459 4.60947C14.4579 4.38147 14.3619 4.33346 14.1699 4.33346C13.9059 4.34546 13.6299 4.32148 13.3659 4.32148C13.2099 4.32148 13.1379 4.28546 13.1499 4.11746C13.1619 3.82946 13.1619 3.54146 13.1499 3.25346C13.1379 3.09746 13.1979 3.06146 13.3539 3.06146C13.6179 3.07346 13.8939 3.04947 14.1579 3.07347C14.3739 3.08547 14.4699 3.02546 14.4459 2.79746C14.4219 2.54546 14.4579 2.29349 14.4339 2.04149C14.4099 1.81349 14.5059 1.76549 14.7099 1.77749C14.9499 1.78949 15.1899 1.76546 15.4299 1.78946C15.6939 1.81346 15.7539 1.70549 15.7299 1.47749C15.7179 1.21349 15.7299 0.961457 15.7179 0.697457C15.7179 0.553457 15.7419 0.481478 15.9099 0.493478C16.1979 0.505478 16.4859 0.505478 16.7739 0.493478C16.9299 0.493478 16.9779 0.553457 16.9779 0.697457C16.9779 1.86146 16.9779 3.02546 16.9779 4.18946C16.9779 4.32146 16.9419 4.35748 16.8099 4.35748C16.5219 4.34548 16.2339 4.36948 15.9459 4.35748C15.7659 4.34548 15.7179 4.41748 15.7179 4.58548C15.7299 4.94548 15.7179 5.30548 15.7179 5.66547L15.7299 5.65346C15.2979 5.64146 14.8659 5.64146 14.4459 5.65346Z" fill="white"/>
<path d="M13.1623 5.64093C12.7903 5.62893 12.4303 5.6289 12.0583 5.6169C11.9143 5.6169 11.8183 5.64092 11.8183 5.82092C11.8303 7.46492 11.8063 9.1089 11.8663 10.7529L11.8783 10.7409C11.5183 10.7409 11.1583 10.7409 10.7983 10.7409C10.6303 10.7409 10.5823 10.6809 10.5823 10.5129C10.5823 8.08892 10.5823 5.65292 10.5703 3.22892C10.5703 3.07292 10.6183 3.02491 10.7743 3.03691C11.0503 3.04891 11.3263 3.04891 11.6023 3.03691C11.7703 3.02491 11.8183 3.0849 11.8183 3.2529C11.8063 3.5529 11.8303 3.86491 11.8183 4.16491C11.8183 4.30891 11.8663 4.35691 12.0103 4.34491C12.3103 4.33291 12.5983 4.35691 12.8983 4.34491C13.0903 4.33291 13.1743 4.3809 13.1623 4.5969C13.1383 4.9449 13.1503 5.29293 13.1623 5.64093Z" fill="white"/>
<path d="M23.2298 25.8599C22.8938 25.8599 22.5698 25.8719 22.2338 25.8599C22.0178 25.8479 21.9458 25.9319 21.9578 26.1359C21.9698 26.3639 21.9578 26.6039 21.9578 26.8319C21.9698 26.9999 21.9218 27.0839 21.7418 27.0719C21.4778 27.0599 21.2258 27.0599 20.9618 27.0599C20.8298 27.0599 20.7578 27.0239 20.7578 26.8799C20.7698 26.1959 20.7698 25.4999 20.7698 24.8159C20.7698 24.6839 20.8298 24.6479 20.9498 24.6479C21.2138 24.6479 21.4658 24.6359 21.7298 24.6479C21.9458 24.6599 22.0418 24.5999 22.0298 24.3719C22.0178 24.1199 22.0418 23.8679 22.0298 23.6159C22.0298 23.4479 22.0898 23.3999 22.2578 23.4119C22.5098 23.4359 22.7618 23.4359 23.0138 23.4119C23.2418 23.3999 23.2898 23.4839 23.2658 23.6879C23.2418 23.9159 23.2658 24.1559 23.2538 24.3839C23.2298 24.6119 23.3378 24.6599 23.5298 24.6599C23.7818 24.6479 24.0338 24.6719 24.2858 24.6599C24.4658 24.6479 24.5258 24.7199 24.5138 24.8879C24.5018 25.1519 24.4898 25.4039 24.5018 25.6679C24.5018 25.8239 24.4538 25.8719 24.2978 25.8599C23.9498 25.8599 23.5898 25.8719 23.2298 25.8599Z" fill="white"/>
<path d="M15.7284 6.93635C15.7284 7.36835 15.7284 7.80034 15.7164 8.23234L15.7284 8.22036C15.3444 8.13636 14.9604 8.18435 14.5884 8.17235C14.4564 8.17235 14.4204 8.24436 14.4204 8.36436C14.4204 8.62836 14.3964 8.88035 14.4204 9.14435C14.4444 9.40835 14.3484 9.49237 14.0964 9.46837C13.8564 9.44437 13.6164 9.45637 13.3764 9.46837C13.1964 9.48037 13.1484 9.40837 13.1484 9.24037C13.1604 8.04037 13.1604 6.84034 13.1604 5.65234L13.1484 5.66436C13.5804 5.66436 14.0124 5.66436 14.4444 5.66436L14.4324 5.65234C14.4324 6.00034 14.4324 6.34834 14.4204 6.69634C14.4084 6.87634 14.4684 6.94836 14.6604 6.94836C15.0204 6.92436 15.3804 6.93635 15.7284 6.93635Z" fill="white"/>
<path d="M10.6641 22.0556C10.6641 21.2996 10.6641 20.5556 10.6641 19.7996C10.6641 19.6196 10.7241 19.5716 10.8921 19.5716C11.1441 19.5836 11.3961 19.5836 11.6481 19.5716C11.8161 19.5596 11.8641 19.6316 11.8641 19.7876C11.8641 21.2996 11.8641 22.8116 11.8641 24.3236C11.8641 24.4796 11.8041 24.5276 11.6601 24.5156C11.4321 24.5036 11.1921 24.5036 10.9641 24.5156C10.7601 24.5276 10.6881 24.4676 10.6881 24.2516C10.7001 23.5196 10.6881 22.7876 10.6881 22.0556C10.6761 22.0556 10.6641 22.0556 10.6641 22.0556Z" fill="white"/>
<path d="M1.69806 12.6125C1.69806 13.1525 1.69806 13.7045 1.69806 14.2445C1.69806 14.4005 1.66206 14.4485 1.50606 14.4365C1.21806 14.4125 0.930059 14.4125 0.654059 14.4125C0.522059 14.4125 0.462064 14.3765 0.462064 14.2325C0.450064 13.1165 0.438062 12.0005 0.414062 10.8845C0.414062 10.7165 0.48606 10.6925 0.61806 10.6925C0.88206 10.7045 1.15806 10.7045 1.42206 10.6925C1.61406 10.6805 1.66206 10.7645 1.66206 10.9445C1.65006 11.4965 1.66206 12.0485 1.66206 12.6125C1.67406 12.6125 1.68606 12.6125 1.69806 12.6125Z" fill="white"/>
<path d="M20.7805 18.3847C20.4445 18.3847 20.0965 18.3727 19.7605 18.3847C19.5925 18.3847 19.5205 18.3487 19.5325 18.1567C19.5445 17.8927 19.5445 17.6167 19.5445 17.3527C19.5445 17.1967 19.5805 17.1367 19.7485 17.1367C20.4565 17.1487 21.1645 17.1487 21.8605 17.1487C22.0045 17.1487 22.0765 17.1727 22.0645 17.3407C22.0525 17.6167 22.0525 17.8927 22.0525 18.1687C22.0525 18.3487 21.9805 18.3967 21.8125 18.3847C21.4765 18.3847 21.1285 18.3967 20.7805 18.3847Z" fill="white"/>
<path d="M12.4996 0.480469C13.1356 0.480469 13.1356 0.480492 13.1356 1.10449C13.1356 1.74049 13.1356 1.74047 12.4876 1.75247C11.8516 1.76447 11.8516 1.76448 11.8516 1.12848C11.8516 0.480479 11.8516 0.480469 12.4996 0.480469Z" fill="white"/>
<path d="M11.8653 10.7514C12.2253 10.7514 12.5853 10.7634 12.9333 10.7634C13.1013 10.7634 13.1493 10.8114 13.1493 10.9794C13.1373 11.3154 13.1493 11.6634 13.1493 11.9994L13.1613 11.9874C12.7893 11.9874 12.4173 11.9874 12.0333 11.9994C11.8893 11.9994 11.8413 11.9634 11.8533 11.8194C11.8653 11.4474 11.8653 11.0994 11.8653 10.7514Z" fill="white"/>
<path d="M20.1438 20.8674C19.5078 20.8674 19.5078 20.8674 19.5078 20.2434C19.5078 19.6314 19.5078 19.6314 20.1678 19.6434C20.7798 19.6434 20.7798 19.6434 20.7798 20.2554C20.7798 20.8674 20.7798 20.8674 20.1438 20.8674Z" fill="white"/>
<path d="M15.7266 5.65234C16.0746 5.65234 16.4226 5.66434 16.7706 5.65234C16.9146 5.65234 16.9746 5.70036 16.9746 5.85636C16.9626 6.15636 16.9626 6.44435 16.9746 6.74435C16.9746 6.88835 16.9386 6.93634 16.7946 6.92434C16.5306 6.91234 16.2546 6.91237 15.9906 6.91237C15.9066 6.91237 15.8106 6.88836 15.7266 6.94836H15.7386C15.7266 6.50436 15.7266 6.07234 15.7266 5.65234Z" fill="white"/>
<path d="M8.04069 15.158C8.04069 15.794 8.04069 15.794 7.40469 15.782C6.80469 15.77 6.80469 15.77 6.80469 15.158C6.80469 14.522 6.80468 14.522 7.41668 14.534C8.04068 14.534 8.04069 14.534 8.04069 15.158Z" fill="white"/>
<path d="M24.5521 22.7641C24.5521 23.3881 24.5521 23.388 23.9281 23.388C23.3281 23.388 23.3281 23.388 23.3281 22.788C23.3281 22.164 23.3281 22.1641 23.9641 22.1641C24.5521 22.1641 24.5521 22.1641 24.5521 22.7641Z" fill="white"/>
<path d="M15.7188 8.23073C16.0788 8.23073 16.4507 8.23075 16.8107 8.21875C16.9187 8.21875 16.9668 8.25476 16.9668 8.37476C16.9668 8.68676 16.9548 8.99875 16.9668 9.31075C16.9668 9.43075 16.9187 9.46675 16.8107 9.45475C16.5347 9.44275 16.2588 9.44275 15.9828 9.45475C15.8148 9.45475 15.7427 9.38273 15.7427 9.21473C15.7427 8.89073 15.7308 8.55473 15.7188 8.23073Z" fill="white"/>
<path d="M17.6126 19.5826C16.9766 19.5826 16.9766 19.5826 16.9766 18.9466C16.9766 18.4066 16.9766 18.4065 17.5406 18.3945C18.2486 18.3945 18.2486 18.3946 18.2486 19.0546C18.2486 19.5826 18.2486 19.5826 17.7326 19.5826C17.6846 19.5826 17.6486 19.5826 17.6126 19.5826Z" fill="white"/>
<path d="M15.0573 19.5716C14.4453 19.5716 14.4453 19.5716 14.4453 18.9476C14.4453 18.3956 14.4453 18.3955 15.0093 18.3955C15.1413 18.3955 15.2733 18.4075 15.4053 18.3955C15.6213 18.3715 15.7053 18.4315 15.6933 18.6595C15.6693 18.8995 15.6813 19.1396 15.6933 19.3796C15.7053 19.5356 15.6453 19.5836 15.5013 19.5716C15.3453 19.5596 15.2013 19.5716 15.0573 19.5716Z" fill="white"/>
<path d="M24.5469 26.4979C24.5469 25.9339 24.5469 25.9339 25.1229 25.9219C25.7829 25.9219 25.7829 25.9219 25.7829 26.5699C25.7829 27.0979 25.7829 27.0979 25.2549 27.0979C25.2189 27.0979 25.1829 27.0979 25.1469 27.0979C24.5469 27.0979 24.5469 27.0979 24.5469 26.4979Z" fill="white"/>
<path d="M11.2515 26.9509C10.6875 26.9509 10.6875 26.9509 10.6875 26.3869C10.6875 25.8229 10.6875 25.8229 11.2635 25.8349C11.8515 25.8349 11.8515 25.8349 11.8515 26.4229C11.8515 26.9629 11.8515 26.9629 11.3115 26.9629C11.2875 26.9509 11.2635 26.9509 11.2515 26.9509Z" fill="white"/>
<path d="M20.8887 5.02661C20.8887 4.43861 20.8887 3.86262 20.8887 3.27462C20.8887 3.10662 20.9367 3.05859 21.1047 3.05859C22.2447 3.07059 23.3847 3.08262 24.5127 3.08262C24.6807 3.08262 24.7287 3.14262 24.7287 3.31062C24.7167 4.46262 24.7167 5.60261 24.7047 6.75461C24.7047 6.89861 24.6567 6.93461 24.5247 6.93461C23.3727 6.92261 22.2328 6.92261 21.0808 6.93461C20.9128 6.93461 20.8647 6.87462 20.8767 6.71862C20.8887 6.15462 20.8887 5.59061 20.8887 5.02661Z" fill="white"/>
<path d="M4.78831 3.02462C5.34031 3.02462 5.88031 3.03662 6.43231 3.02462C6.62431 3.02462 6.70831 3.06065 6.69631 3.27665C6.68431 4.41665 6.69631 5.55665 6.69631 6.68465C6.69631 6.82865 6.66031 6.88863 6.50431 6.88863C5.36431 6.87663 4.23631 6.87663 3.09631 6.88863C2.92831 6.88863 2.89231 6.82863 2.88031 6.67263C2.86831 5.54464 2.85631 4.41663 2.82031 3.28863C2.82031 3.06063 2.88031 3.02462 3.09631 3.02462C3.66031 3.02462 4.22431 3.01263 4.78831 3.02462C4.78831 3.01263 4.78831 3.01263 4.78831 3.02462Z" fill="white"/>
<path d="M4.95488 20.8212C5.49488 20.8212 6.04688 20.8212 6.58688 20.8212C6.74288 20.8212 6.80288 20.8571 6.80288 21.0251C6.80288 22.1051 6.80287 23.1972 6.81487 24.2772C6.81487 24.4212 6.77888 24.4811 6.62288 24.4811C5.54288 24.4691 4.46288 24.4571 3.37088 24.4451C3.16688 24.4451 3.09488 24.3852 3.09488 24.1692C3.09488 23.1252 3.07087 22.0691 3.04688 21.0251C3.04688 20.8331 3.09488 20.7852 3.28688 20.7852C3.83888 20.7972 4.39088 20.7852 4.95488 20.7852C4.95488 20.7972 4.95488 20.8092 4.95488 20.8212Z" fill="white"/>
</svg>
