<svg width="103" height="36" viewBox="0 0 103 36" fill="none" xmlns="http://www.w3.org/2000/svg">
<g clip-path="url(#clip0_1614_17239)">
<mask id="mask0_1614_17239" style="mask-type:luminance" maskUnits="userSpaceOnUse" x="0" y="11" width="96" height="25">
<path d="M95.6071 11.75H0V35.6522H95.6071V11.75Z" fill="white"/>
</mask>
<g mask="url(#mask0_1614_17239)">
<path d="M0.000406826 11.751H3.10782V26.3125C3.0622 28.9414 4.9004 31.4334 7.37321 32.2144C11.593 33.6581 16.1713 29.8425 15.4174 25.3842H18.5432C19.1042 30.3851 15.1421 35.2762 10.1405 35.6068C6.88585 35.9381 3.62239 34.4304 1.72897 31.7455C0.588598 30.201 -0.0179992 28.2796 0.000406826 26.3677V11.751ZM43.1801 26.3677C43.1616 28.6661 44.0443 30.9364 45.616 32.601C49.7622 37.4458 57.9809 36.251 60.757 30.5419C64.9119 22.1944 55.7097 13.4892 47.7119 18.2235V22.2592C52.6759 16.4949 61.5292 22.8202 57.7968 29.4576C55.7561 33.0891 50.2496 33.5573 47.6935 30.2386C47.0589 29.4944 46.618 28.5837 46.4155 27.6282C46.0754 22.3608 46.3971 17.0375 46.2867 11.7518H43.1705V26.3685H43.1793L43.1801 26.3677ZM64.7839 25.9268C64.7287 27.2232 64.9215 28.5285 65.4001 29.7328C67.4319 35.2394 74.7767 37.4826 79.4471 33.9158C88.9253 26.8279 79.5759 12.3768 69.307 18.2139V22.2592C74.9976 15.8883 84.2366 24.2911 78.4907 30.6251C75.9899 33.3556 71.2188 33.0243 69.0957 29.9905C68.3875 29.0622 67.9745 27.913 67.9009 26.7543V11.751H64.7751V25.9268H64.7839ZM86.3509 26.3589C86.3237 27.7106 86.627 29.071 87.1968 30.2938C88.7045 33.4565 92.06 35.7732 95.5899 35.6076C95.5715 34.5776 95.6267 33.5485 95.5811 32.5185C92.6025 32.5826 89.8448 30.1466 89.4863 27.1776C89.3303 22.0383 89.4863 16.8815 89.4311 11.7422H86.3517V26.3589H86.3509ZM25.5575 28.2524C25.5487 29.5672 25.8608 30.8812 26.541 32.0032C27.9199 34.3471 30.5583 35.846 33.2704 35.6068C36.4419 35.4691 39.3012 32.8947 39.871 29.76C40.2023 25.4947 39.9078 21.1925 39.9998 16.9175H36.8836C36.8836 20.8427 36.8924 24.768 36.8836 28.6933C36.7548 31.6903 33.0135 33.5469 30.568 31.8375C29.7037 31.2677 29.0146 30.3939 28.7658 29.3647C28.4529 25.2466 28.7386 21.054 28.6465 16.9175H25.5487V28.2436L25.5575 28.2524ZM7.09712 12.0175C7.38201 13.1298 7.64849 14.2606 7.92458 15.373C14.2674 14.4903 20.3718 19.7216 19.9765 26.2757C21.1441 26.3213 22.3117 26.395 23.4881 26.423C23.9842 18.1587 16.2897 10.8595 8.13585 11.8702C7.78614 11.9158 7.43723 11.9158 7.09712 12.0175ZM9.01854 20.0337C12.0979 19.8408 15.0677 22.2768 15.4262 25.3842H18.552C18.2119 20.457 13.5048 16.4765 8.63282 16.9359C8.75205 17.9746 8.8809 19.0045 9.01854 20.0433V20.0345V20.0337ZM9.48749 23.3252C10.499 23.2979 11.5009 23.8949 11.9603 24.8048C12.6589 24.7592 13.3576 24.676 14.0562 24.6304C13.4864 22.6633 11.5098 21.2661 9.48749 21.2933V23.3252Z" fill="url(#paint0_linear_1614_17239)"/>
</g>
<path d="M99.2956 7.19434C97.3125 7.19434 95.6992 5.58022 95.6992 3.59717C95.6992 1.61413 97.3117 0 99.2956 0C101.279 0 102.894 1.61413 102.894 3.59717C102.894 5.58022 101.279 7.19434 99.2956 7.19434ZM99.2956 0.435342C97.5518 0.435342 96.1338 1.8542 96.1338 3.59797C96.1338 5.34174 97.5518 6.7606 99.2956 6.7606C101.039 6.7606 102.458 5.34174 102.458 3.59797C102.458 1.8542 101.039 0.435342 99.2956 0.435342Z" fill="#010101"/>
<path d="M97.7411 4.76475V2.77931H97.0625V2.43359H98.8511V2.77931H98.1741V4.76475H97.7411Z" fill="#010101"/>
<path d="M99.1016 4.76475V2.43359H99.6105L100.315 4.11814L101.025 2.43359H101.527V4.76475H101.129V3.61318L101.142 2.95376L101.084 3.12742L100.487 4.6063H100.118L99.5345 3.12022L99.4753 2.94496L99.4905 3.61958V4.76475H99.1024H99.1016Z" fill="#010101"/>
</g>
<defs>
<linearGradient id="paint0_linear_1614_17239" x1="-0.689418" y1="23.6965" x2="94.9097" y2="23.6965" gradientUnits="userSpaceOnUse">
<stop stop-color="#2C537B"/>
<stop offset="0.19" stop-color="#2D527E"/>
<stop offset="0.38" stop-color="#325189"/>
<stop offset="0.56" stop-color="#3B4E9D"/>
<stop offset="0.74" stop-color="#4C52A3"/>
<stop offset="0.91" stop-color="#5957A6"/>
<stop offset="1" stop-color="#5D5AA7"/>
</linearGradient>
<clipPath id="clip0_1614_17239">
<rect width="102.892" height="35.65" fill="white"/>
</clipPath>
</defs>
</svg>
