<svg width="73" height="73" viewBox="0 0 73 73" fill="none" xmlns="http://www.w3.org/2000/svg">
<path d="M44.3793 20.8044C43.6597 20.4053 42.8439 20.4664 42.2019 20.8806L18.8272 36.1581C18.5032 36.3692 18.2383 36.6656 18.0591 37.0175C17.88 37.3694 17.793 37.7644 17.8068 38.1625C17.8207 38.5607 17.9349 38.948 18.138 39.2854C18.3412 39.6228 18.626 39.8985 18.9638 40.0846L21.3626 41.4147L39.259 29.5494L40.2658 28.8723L40.8655 52.229L43.2644 53.5592C43.6012 53.7472 43.9796 53.8393 44.3614 53.8262C44.7433 53.8131 45.115 53.6953 45.4393 53.4846C45.7636 53.274 46.0288 52.9779 46.2084 52.6262C46.388 52.2746 46.4755 51.8798 46.4622 51.4816L45.5363 22.7295C45.523 22.3308 45.409 21.9429 45.2058 21.6048C45.0027 21.2668 44.7176 20.9907 44.3793 20.8044ZM39.6153 30.1481L18.5324 44.1293L18.8421 45.1514L31.1141 46.8219L39.3045 56.4977L40.2902 56.1939L39.6153 30.1481Z" fill="#E35CA9"/>
<circle opacity="0.12" cx="36.5" cy="36.5" r="36.5" fill="#E259A7"/>
</svg>
