<svg width="73" height="73" viewBox="0 0 73 73" fill="none" xmlns="http://www.w3.org/2000/svg">
<circle opacity="0.12" cx="36.5" cy="36.5" r="36.5" fill="#E8D65F" fill-opacity="0.5"/>
<path d="M49.4164 52.962C49.4164 55.3747 47.542 57.3496 45.17 57.51L44.8579 57.5205H29.6627C27.2499 57.5205 25.275 55.6461 25.1146 53.2741L25.1041 52.962V21.5586C25.1041 19.1458 26.9785 17.1709 29.3506 17.0105L29.6627 17H44.8579C47.2706 17 49.2455 18.8744 49.4059 21.2465L49.4164 21.5586V52.962ZM51.4425 23.0781H52.962C55.3747 23.0781 57.3496 24.9525 57.51 27.3245L57.5205 27.6366V46.8839C57.5205 49.2966 55.6461 51.2716 53.2741 51.432L52.962 51.4425H51.4425V23.0781ZM23.0781 51.4425H21.5586C19.1458 51.4425 17.1709 49.5681 17.0105 47.196L17 46.8839V27.6366C17 25.2239 18.8744 23.249 21.2465 23.0886L21.5586 23.0781H23.0781V51.4425Z" fill="#CCA716"/>
</svg>
