<svg width="73" height="73" viewBox="0 0 73 73" fill="none" xmlns="http://www.w3.org/2000/svg">
<circle opacity="0.12" cx="36.5" cy="36.5" r="36.5" fill="#6DD9A6"/>
<path fill-rule="evenodd" clip-rule="evenodd" d="M36.4856 17C35.7711 17 35.0566 17.325 34.4071 17.8449C33.7576 18.3648 33.1081 19.0797 32.5885 19.9246C31.4843 21.6144 30.6399 23.7591 30.6399 25.9687C30.6399 28.1784 31.6791 29.7382 32.9132 30.6481C33.6277 31.233 34.4721 31.558 35.1865 31.7529V27.6585L33.4328 25.9038C33.173 25.6438 33.173 25.2538 33.4328 24.9939C33.6926 24.7339 34.0823 24.7339 34.3422 24.9939L35.1865 25.8388V22.1993C35.1865 21.8093 35.4463 21.5494 35.836 21.5494C36.2258 21.5494 36.4856 21.8093 36.4856 22.1993V33.8976C36.9402 33.8976 37.3299 33.8976 37.7846 33.9626V31.8179C38.4991 31.623 39.2785 31.298 40.0579 30.7131C41.292 29.8032 42.3312 28.2434 42.3312 26.0337C42.3312 23.824 41.4869 21.6793 40.3827 19.9896C39.8631 19.1447 39.2135 18.4298 38.564 17.9099C37.9145 17.325 37.2 17 36.4856 17ZM36.4856 35.1975C32.5885 35.1975 29.0811 36.1723 26.483 37.8621C24.2097 39.3569 22.6508 41.3716 22.2611 43.6463H24.0148C26.483 42.2165 28.6264 41.8265 30.51 41.9565C31.1595 42.0215 31.7441 42.0865 32.2637 42.2165C33.3679 42.4764 34.2772 42.8664 34.9917 43.1913C35.7061 43.5163 36.2907 43.7113 36.4856 43.7113H45.5788C46.1634 43.7113 46.683 43.8412 47.1377 44.0362L49.2161 40.3967C48.5017 39.4869 47.5923 38.642 46.4232 37.9271C43.8901 36.1723 40.3827 35.1975 36.4856 35.1975ZM53.438 38.382C52.5287 38.382 51.6194 38.8369 51.0997 39.6818L48.2419 44.6861C49.0213 45.401 49.4759 46.3759 49.4759 47.5457C49.4759 49.6904 47.7222 51.4452 45.5788 51.4452H35.1865C34.7968 51.4452 34.537 51.1852 34.537 50.7953C34.537 50.4053 34.7968 50.1454 35.1865 50.1454H45.5788C47.0078 50.1454 48.1769 48.9755 48.1769 47.5457C48.1769 46.1159 47.0078 44.9461 45.5788 44.9461H36.4856C35.7711 44.9461 35.1865 44.6211 34.4721 44.3612C33.7576 44.0362 32.9132 43.7113 31.9389 43.4513C29.9904 42.9964 27.5872 42.9964 24.4695 44.8161C24.4045 44.9461 24.2746 44.9461 24.1447 44.9461H17V53.3949H22.8457C24.9241 53.3949 26.9376 54.1098 28.8212 54.7597C30.7048 55.4096 32.4585 55.9945 33.8875 55.9945C33.8875 55.9945 46.0984 55.9945 46.1634 55.9945C47.0727 56.0595 47.982 55.5396 48.5017 54.6947L55.6464 42.2815C56.3608 41.0466 55.9711 39.4869 54.6721 38.707C54.2824 38.512 53.8277 38.447 53.438 38.382Z" fill="#5CC99C"/>
</svg>
