<svg width="34" height="34" viewBox="0 0 34 34" fill="none" xmlns="http://www.w3.org/2000/svg">
<path d="M17.0026 2.83337C9.21094 2.83337 2.83594 9.20837 2.83594 17C2.83594 24.7917 9.21094 31.1667 17.0026 31.1667C24.7943 31.1667 31.1693 24.7917 31.1693 17C31.1693 9.20837 24.7943 2.83337 17.0026 2.83337ZM17.0026 28.3334C10.7551 28.3334 5.66927 23.2475 5.66927 17C5.66927 10.7525 10.7551 5.66671 17.0026 5.66671C23.2501 5.66671 28.3359 10.7525 28.3359 17C28.3359 23.2475 23.2501 28.3334 17.0026 28.3334ZM23.5051 10.7384L14.1693 20.0742L10.5001 16.4192L8.5026 18.4167L14.1693 24.0834L25.5026 12.75L23.5051 10.7384Z" fill="#00CC99"/>
</svg>
