<svg width="15" height="15" viewBox="0 0 15 15" fill="none" xmlns="http://www.w3.org/2000/svg">
    <path opacity="0.8"
        d="M8.78261 7.4999L14.2339 12.9515C14.5887 13.3061 14.5887 13.8794 14.2339 14.234C13.8793 14.5887 13.306 14.5887 12.9514 14.234L7.49992 8.78245L2.0486 14.234C1.69384 14.5887 1.12067 14.5887 0.766072 14.234C0.411309 13.8794 0.411309 13.3061 0.766072 12.9515L6.21739 7.4999L0.766072 2.0483C0.411309 1.6937 0.411309 1.12035 0.766072 0.765746C0.942789 0.58886 1.17515 0.5 1.40734 0.5C1.63953 0.5 1.87172 0.58886 2.0486 0.765746L7.49992 6.21734L12.9514 0.765746C13.1283 0.58886 13.3605 0.5 13.5927 0.5C13.8249 0.5 14.057 0.58886 14.2339 0.765746C14.5887 1.12035 14.5887 1.6937 14.2339 2.0483L8.78261 7.4999Z"
        fill="#ffffff" />
</svg>