<svg width="34" height="34" viewBox="0 0 34 34" fill="none" xmlns="http://www.w3.org/2000/svg">
<path d="M17.0026 2.83337C24.7943 2.83337 31.1693 9.20837 31.1693 17C31.1693 24.7917 24.7943 31.1667 17.0026 31.1667C9.21094 31.1667 2.83594 24.7917 2.83594 17C2.83594 9.20837 9.21094 2.83337 17.0026 2.83337ZM17.0026 5.66671C14.3109 5.66671 11.9026 6.51671 10.0609 8.07504L25.9276 23.9417C27.3443 21.9584 28.3359 19.55 28.3359 17C28.3359 10.7667 23.2359 5.66671 17.0026 5.66671ZM23.9443 25.925L8.0776 10.0584C6.51927 11.9 5.66927 14.3084 5.66927 17C5.66927 23.2334 10.7693 28.3334 17.0026 28.3334C19.6943 28.3334 22.1026 27.4834 23.9443 25.925Z" fill="#DE1848"/>
</svg>
