<svg width="34" height="34" viewBox="0 0 34 34" fill="none" xmlns="http://www.w3.org/2000/svg">
<path d="M14.1693 7.08333H19.8359C19.8359 6.33189 19.5374 5.61122 19.0061 5.07986C18.4747 4.54851 17.7541 4.25 17.0026 4.25C16.2512 4.25 15.5305 4.54851 14.9991 5.07986C14.4678 5.61122 14.1693 6.33189 14.1693 7.08333ZM12.0443 7.08333C12.0443 6.4322 12.1725 5.78743 12.4217 5.18586C12.6709 4.58429 13.0361 4.03769 13.4965 3.57726C13.957 3.11684 14.5036 2.75161 15.1051 2.50243C15.7067 2.25325 16.3515 2.125 17.0026 2.125C17.6537 2.125 18.2985 2.25325 18.9001 2.50243C19.5016 2.75161 20.0483 3.11684 20.5087 3.57726C20.9691 4.03769 21.3343 4.58429 21.5835 5.18586C21.8327 5.78743 21.9609 6.4322 21.9609 7.08333H30.1068C30.3886 7.08333 30.6588 7.19527 30.8581 7.39453C31.0573 7.59379 31.1693 7.86404 31.1693 8.14583C31.1693 8.42763 31.0573 8.69788 30.8581 8.89713C30.6588 9.09639 30.3886 9.20833 30.1068 9.20833H28.2368L26.5793 26.3656C26.4521 27.6802 25.8398 28.9004 24.8618 29.788C23.8838 30.6757 22.6102 31.1672 21.2894 31.1667H12.7158C11.3952 31.1668 10.122 30.6751 9.14428 29.7875C8.16657 28.8999 7.55448 27.68 7.42735 26.3656L5.76844 9.20833H3.89844C3.61665 9.20833 3.34639 9.09639 3.14714 8.89713C2.94788 8.69788 2.83594 8.42763 2.83594 8.14583C2.83594 7.86404 2.94788 7.59379 3.14714 7.39453C3.34639 7.19527 3.61665 7.08333 3.89844 7.08333H12.0443ZM14.8776 13.8125C14.8776 13.5307 14.7657 13.2605 14.5664 13.0612C14.3671 12.8619 14.0969 12.75 13.8151 12.75C13.5333 12.75 13.2631 12.8619 13.0638 13.0612C12.8645 13.2605 12.7526 13.5307 12.7526 13.8125V24.4375C12.7526 24.7193 12.8645 24.9895 13.0638 25.1888C13.2631 25.3881 13.5333 25.5 13.8151 25.5C14.0969 25.5 14.3671 25.3881 14.5664 25.1888C14.7657 24.9895 14.8776 24.7193 14.8776 24.4375V13.8125ZM20.1901 12.75C20.4719 12.75 20.7421 12.8619 20.9414 13.0612C21.1407 13.2605 21.2526 13.5307 21.2526 13.8125V24.4375C21.2526 24.7193 21.1407 24.9895 20.9414 25.1888C20.7421 25.3881 20.4719 25.5 20.1901 25.5C19.9083 25.5 19.6381 25.3881 19.4388 25.1888C19.2395 24.9895 19.1276 24.7193 19.1276 24.4375V13.8125C19.1276 13.5307 19.2395 13.2605 19.4388 13.0612C19.6381 12.8619 19.9083 12.75 20.1901 12.75ZM9.54244 26.1616C9.61885 26.9502 9.9862 27.682 10.5729 28.2145C11.1596 28.7469 11.9235 29.0418 12.7158 29.0417H21.2894C22.0817 29.0418 22.8457 28.7469 23.4323 28.2145C24.019 27.682 24.3864 26.9502 24.4628 26.1616L26.1033 9.20833H7.90194L9.54244 26.1616Z" fill="#DE1848"/>
</svg>
