<svg width="46" height="46" viewBox="0 0 46 46" fill="none" xmlns="http://www.w3.org/2000/svg">
<circle cx="23" cy="23" r="23" fill="white"/>
<path d="M34.3125 29.25H30.9375V25.875H29.25V29.25H25.875V30.9375H29.25V34.3125H30.9375V30.9375H34.3125V29.25Z" fill="#AF38D6"/>
<path d="M21.9937 34.3125L13.2188 29.0812C12.7125 28.7437 12.375 28.2375 12.375 27.6469V17.3531C12.375 16.7625 12.7125 16.1719 13.2188 15.9187L21.6562 10.9406C21.9094 10.7719 22.1625 10.6875 22.5 10.6875C22.8375 10.6875 23.0906 10.7719 23.3438 10.9406L31.7812 15.9187C32.2875 16.2562 32.625 16.7625 32.625 17.3531V22.5H30.9375V17.3531L22.5 12.375L14.0625 17.3531V27.6469L22.9219 32.8781L21.9937 34.3125Z" fill="#AF38D6"/>
</svg>
