<svg width="46" height="46" viewBox="0 0 46 46" fill="none" xmlns="http://www.w3.org/2000/svg">
<circle cx="23" cy="23" r="23" fill="white"/>
<path d="M36 18.9375H33.5625V14.0625C33.5625 13.1687 32.8312 12.4375 31.9375 12.4375H20.5625C19.6687 12.4375 18.9375 13.1687 18.9375 14.0625V17.3125H20.5625V14.0625H31.9375V25.4375H20.5625V22.1875H18.9375V25.4375C18.9375 26.3312 19.6687 27.0625 20.5625 27.0625H31.9375C32.8312 27.0625 33.5625 26.3312 33.5625 25.4375V20.5625H36V18.9375Z" fill="#AF38D6"/>
<path d="M27.0625 23.8125V20.5625C27.0625 19.6687 26.3312 18.9375 25.4375 18.9375H14.0625C13.1688 18.9375 12.4375 19.6687 12.4375 20.5625V25.4375H10V27.0625H12.4375V31.9375C12.4375 32.8313 13.1688 33.5625 14.0625 33.5625H25.4375C26.3312 33.5625 27.0625 32.8313 27.0625 31.9375V28.6875H25.4375V31.9375H14.0625V20.5625H25.4375V23.8125H27.0625Z" fill="#AF38D6"/>
</svg>
