<svg width="46" height="46" viewBox="0 0 46 46" fill="none" xmlns="http://www.w3.org/2000/svg">
<circle cx="23" cy="23" r="23" fill="white"/>
<path d="M12.5996 15.1996C12.5996 14.51 12.8735 13.8487 13.3611 13.3611C13.8487 12.8735 14.51 12.5996 15.1996 12.5996H28.1996C28.8892 12.5996 29.5505 12.8735 30.0381 13.3611C30.5257 13.8487 30.7996 14.51 30.7996 15.1996V28.1996C30.7996 28.8892 30.5257 29.5505 30.0381 30.0381C29.5505 30.5257 28.8892 30.7996 28.1996 30.7996H15.1996C14.51 30.7996 13.8487 30.5257 13.3611 30.0381C12.8735 29.5505 12.5996 28.8892 12.5996 28.1996V15.1996ZM15.1996 13.8996C14.8548 13.8996 14.5242 14.0366 14.2804 14.2804C14.0366 14.5242 13.8996 14.8548 13.8996 15.1996V28.1996C13.8996 28.5444 14.0366 28.8751 14.2804 29.1188C14.5242 29.3626 14.8548 29.4996 15.1996 29.4996H28.1996C28.5444 29.4996 28.8751 29.3626 29.1188 29.1188C29.3626 28.8751 29.4996 28.5444 29.4996 28.1996V15.1996C29.4996 14.8548 29.3626 14.5242 29.1188 14.2804C28.8751 14.0366 28.5444 13.8996 28.1996 13.8996H15.1996ZM17.7996 33.3996C17.3432 33.3996 16.8949 33.2795 16.4996 33.0513C16.1044 32.8231 15.7762 32.4949 15.548 32.0996H28.1996C29.234 32.0996 30.2259 31.6887 30.9573 30.9573C31.6887 30.2259 32.0996 29.234 32.0996 28.1996V15.548C32.4949 15.7762 32.8231 16.1044 33.0513 16.4996C33.2795 16.8949 33.3996 17.3432 33.3996 17.7996V28.1996C33.3996 29.5787 32.8518 30.9014 31.8766 31.8766C30.9014 32.8518 29.5787 33.3996 28.1996 33.3996H17.7996ZM26.0884 19.5286C26.1447 19.4644 26.1879 19.3898 26.2154 19.3089C26.2429 19.228 26.2541 19.1426 26.2486 19.0573C26.243 18.9721 26.2208 18.8888 26.183 18.8122C26.1453 18.7356 26.0928 18.6671 26.0286 18.6108C25.9644 18.5545 25.8898 18.5113 25.8089 18.4838C25.728 18.4564 25.6426 18.4451 25.5573 18.4506C25.4721 18.4562 25.3888 18.4785 25.3122 18.5162C25.2356 18.554 25.1671 18.6064 25.1108 18.6706L21.0184 23.348L18.9098 21.2394C18.8494 21.179 18.7776 21.131 18.6987 21.0983C18.6197 21.0656 18.5351 21.0488 18.4496 21.0488C18.3641 21.0488 18.2795 21.0656 18.2006 21.0983C18.1216 21.131 18.0498 21.179 17.9894 21.2394C17.929 21.2998 17.881 21.3716 17.8483 21.4506C17.8156 21.5295 17.7988 21.6141 17.7988 21.6996C17.7988 21.7851 17.8156 21.8697 17.8483 21.9487C17.881 22.0276 17.929 22.0994 17.9894 22.1598L20.5894 24.7598C20.6524 24.8227 20.7277 24.872 20.8105 24.9046C20.8933 24.9373 20.982 24.9525 21.071 24.9495C21.1599 24.9464 21.2473 24.9252 21.3278 24.8869C21.4082 24.8487 21.4799 24.7944 21.5384 24.7273L26.0884 19.5273V19.5286Z" fill="#AF38D6"/>
</svg>
