<svg width="46" height="46" viewBox="0 0 46 46" fill="none" xmlns="http://www.w3.org/2000/svg">
<circle cx="23" cy="23" r="23" fill="white"/>
<path d="M15.0625 34.3125H31.9375C32.3851 34.3125 32.8143 34.1347 33.1307 33.8182C33.4472 33.5018 33.625 33.0726 33.625 32.625V27.5625C33.625 27.1149 33.4472 26.6857 33.1307 26.3693C32.8143 26.0528 32.3851 25.875 31.9375 25.875H15.0625C14.6149 25.875 14.1857 26.0528 13.8693 26.3693C13.5528 26.6857 13.375 27.1149 13.375 27.5625V32.625C13.375 33.0726 13.5528 33.5018 13.8693 33.8182C14.1857 34.1347 14.6149 34.3125 15.0625 34.3125ZM15.0625 27.5625H31.9375V32.625H15.0625V27.5625Z" fill="#AF38D6"/>
<path d="M23.5 22.5C24.199 22.5 24.7656 21.9334 24.7656 21.2344C24.7656 20.5354 24.199 19.9688 23.5 19.9688C22.801 19.9688 22.2344 20.5354 22.2344 21.2344C22.2344 21.9334 22.801 22.5 23.5 22.5Z" fill="#AF38D6"/>
<path d="M19.0981 17.7183C19.6521 17.099 20.3305 16.6036 21.0891 16.2645C21.8476 15.9253 22.6691 15.75 23.5 15.75C24.3309 15.75 25.1524 15.9253 25.9109 16.2645C26.6694 16.6036 27.3478 17.099 27.9018 17.7183L26.6446 18.8438C26.2489 18.4015 25.7643 18.0476 25.2225 17.8054C24.6807 17.5631 24.0939 17.4379 23.5004 17.4379C22.9069 17.4379 22.3201 17.5631 21.7783 17.8054C21.2365 18.0476 20.7519 18.4015 20.3562 18.8438L19.0981 17.7183Z" fill="#AF38D6"/>
<path d="M16.0752 15.2436C16.9399 14.0912 18.061 13.1559 19.3497 12.5117C20.6385 11.8676 22.0594 11.5322 23.5002 11.5322C24.9409 11.5322 26.3619 11.8676 27.6506 12.5117C28.9394 13.1559 30.0605 14.0912 30.9252 15.2436L29.5752 16.2561C28.8679 15.3128 27.9506 14.5472 26.8961 14.0199C25.8416 13.4926 24.6788 13.218 23.4998 13.218C22.3208 13.218 21.1579 13.4926 20.1034 14.0199C19.0489 14.5472 18.1317 15.3128 17.4244 16.2561L16.0752 15.2436Z" fill="#AF38D6"/>
</svg>
