<svg width="92" height="26" viewBox="0 0 92 26" fill="none" xmlns="http://www.w3.org/2000/svg">
<rect x="0.5" y="0.5" width="91" height="25" rx="12.5" fill="#AF38D6" stroke="#AF38D6"/>
<rect x="8" y="8" width="10" height="10" rx="5" fill="white"/>
<path d="M28.5024 16.0923C27.562 16.0923 26.8164 15.7964 26.2656 15.2046C25.7148 14.6128 25.4395 13.7954 25.4395 12.7524C25.4395 11.7622 25.7266 10.9683 26.3008 10.3706C26.8779 9.77002 27.6323 9.46973 28.564 9.46973C29.3169 9.46973 29.9541 9.64404 30.4756 9.99268L30.1021 10.8936C29.6011 10.5859 29.0972 10.4321 28.5903 10.4321C27.9985 10.4321 27.5298 10.646 27.1841 11.0737C26.8413 11.4985 26.6699 12.0698 26.6699 12.7876C26.6699 13.5317 26.8354 14.1074 27.1665 14.5146C27.5005 14.9219 27.9751 15.1255 28.5903 15.1255C29.1294 15.1255 29.6641 14.9907 30.1943 14.7212L30.3525 15.6528C29.8604 15.9458 29.2437 16.0923 28.5024 16.0923ZM34.791 15.6221C34.4072 15.9355 33.9019 16.0923 33.2749 16.0923C32.6479 16.0923 32.1426 15.9355 31.7588 15.6221C31.3779 15.3086 31.1875 14.8486 31.1875 14.2422V11.1704H32.3433V14.1982C32.3433 14.5586 32.418 14.8193 32.5674 14.9805C32.7197 15.1416 32.96 15.2222 33.2881 15.2222C33.6104 15.2222 33.8447 15.1431 33.9912 14.9849C34.1406 14.8237 34.2153 14.5615 34.2153 14.1982V11.1704H35.3667V14.2422C35.3667 14.8457 35.1748 15.3057 34.791 15.6221ZM36.4258 16V11.1704H37.3926L37.542 11.9087C37.8584 11.4019 38.3169 11.1484 38.9175 11.1484C39.0435 11.1484 39.146 11.1543 39.2251 11.166L39.2075 12.1284C39.0903 12.1108 38.9688 12.1021 38.8428 12.1021C38.418 12.1021 38.1001 12.2148 37.8892 12.4404C37.6812 12.666 37.5771 12.9795 37.5771 13.3809V16H36.4258ZM39.9326 16V11.1704H40.8994L41.0488 11.9087C41.3652 11.4019 41.8237 11.1484 42.4243 11.1484C42.5503 11.1484 42.6528 11.1543 42.7319 11.166L42.7144 12.1284C42.5972 12.1108 42.4756 12.1021 42.3496 12.1021C41.9248 12.1021 41.6069 12.2148 41.396 12.4404C41.188 12.666 41.084 12.9795 41.084 13.3809V16H39.9326ZM45.6235 16.0923C44.8472 16.0923 44.2422 15.8696 43.8086 15.4243C43.3779 14.9761 43.1626 14.3579 43.1626 13.5698C43.1626 12.8022 43.3662 12.1914 43.7734 11.7373C44.1807 11.2832 44.7358 11.0547 45.439 11.0518C46.104 11.0518 46.6196 11.2598 46.9858 11.6758C47.355 12.0918 47.5396 12.644 47.5396 13.3325C47.5396 13.3823 47.5381 13.4629 47.5352 13.5742C47.5352 13.6855 47.5352 13.7676 47.5352 13.8203H44.3228C44.3345 14.2715 44.4575 14.6216 44.6919 14.8706C44.9292 15.1167 45.2544 15.2397 45.6675 15.2397C46.1948 15.2397 46.7017 15.1021 47.188 14.8267L47.3506 15.644C46.8672 15.9429 46.2915 16.0923 45.6235 16.0923ZM44.3447 13.0952H46.4541C46.4541 12.7026 46.3647 12.4009 46.186 12.1899C46.0073 11.979 45.7598 11.8735 45.4434 11.8735C45.1475 11.8735 44.897 11.9761 44.6919 12.1812C44.4897 12.3862 44.374 12.6909 44.3447 13.0952ZM48.48 16V11.1704H49.4072L49.5347 11.7812C50.0269 11.2949 50.5732 11.0518 51.1738 11.0518C51.7363 11.0518 52.1567 11.2144 52.4351 11.5396C52.7163 11.8618 52.8569 12.3306 52.8569 12.9458V16H51.7012V13.0864C51.6982 12.6968 51.6353 12.4053 51.5122 12.2119C51.3892 12.0186 51.168 11.9219 50.8486 11.9219C50.5996 11.9219 50.3711 11.9863 50.1631 12.1152C49.958 12.2412 49.8086 12.4009 49.7148 12.5942C49.6592 12.8228 49.6313 13.1743 49.6313 13.6489V16H48.48ZM55.9199 16.0659C55.5918 16.0659 55.3179 16.0278 55.0981 15.9517C54.8813 15.8726 54.7114 15.7495 54.5884 15.5825C54.4653 15.4155 54.3774 15.2192 54.3247 14.9937C54.2749 14.7651 54.25 14.4839 54.25 14.1499V11.8691H53.459L53.5029 11.2451L54.3291 11.1704L54.6982 9.86084L55.4014 9.85645V11.1704H56.6011V11.8691H55.4014V14.1719C55.4014 14.5381 55.4541 14.7988 55.5596 14.9541C55.665 15.1094 55.8599 15.187 56.144 15.187C56.311 15.187 56.4897 15.1724 56.6802 15.1431L56.7109 15.9692C56.7051 15.9692 56.6685 15.9766 56.6011 15.9912C56.5366 16.0029 56.4736 16.0132 56.4121 16.022C56.3535 16.0337 56.2773 16.0439 56.1836 16.0527C56.0898 16.0615 56.002 16.0659 55.9199 16.0659ZM59.9849 16V9.54443H62.1294C62.6362 9.54443 63.0698 9.61035 63.4302 9.74219C63.7905 9.87109 64.0747 10.082 64.2827 10.375C64.4937 10.668 64.5991 11.0356 64.5991 11.478C64.5991 11.7856 64.5596 12.0596 64.4805 12.2998C64.4014 12.5371 64.271 12.7539 64.0894 12.9502C63.9077 13.1436 63.6514 13.293 63.3203 13.3984C62.9922 13.5039 62.5952 13.5566 62.1294 13.5566C61.731 13.5566 61.4072 13.5449 61.1582 13.5215V16H59.9849ZM62.002 12.6953C62.2451 12.6953 62.4561 12.6719 62.6348 12.625C62.8164 12.5781 62.957 12.5181 63.0566 12.4448C63.1592 12.3716 63.2397 12.2808 63.2983 12.1724C63.3599 12.064 63.3994 11.96 63.417 11.8604C63.4375 11.7578 63.4478 11.6436 63.4478 11.5176C63.4478 11.1631 63.3335 10.8936 63.105 10.709C62.8765 10.5244 62.5542 10.4321 62.1382 10.4321H61.1582V12.6865C61.1934 12.6924 61.4746 12.6953 62.002 12.6953ZM67.0732 16.0659C66.7422 16.0659 66.4668 16.0278 66.2471 15.9517C66.0303 15.8726 65.8589 15.748 65.7329 15.5781C65.6069 15.4082 65.519 15.2061 65.4692 14.9717C65.4194 14.7373 65.3945 14.4458 65.3945 14.0972V9.39062L66.5459 9.31592V14.0752C66.5459 14.5088 66.5972 14.8032 66.6997 14.9585C66.8022 15.1108 67.0015 15.187 67.2974 15.187C67.4438 15.187 67.6299 15.1709 67.8555 15.1387L67.8862 15.9604C67.8833 15.9604 67.8467 15.9678 67.7764 15.9824C67.709 15.9971 67.6431 16.0088 67.5786 16.0176C67.5171 16.0293 67.438 16.0396 67.3413 16.0483C67.2446 16.0601 67.1553 16.0659 67.0732 16.0659ZM69.7319 16.0923C69.2837 16.0923 68.9204 15.9692 68.6421 15.7231C68.3667 15.4741 68.229 15.1167 68.229 14.6509C68.229 14.1499 68.3931 13.7793 68.7212 13.5391C69.0493 13.2959 69.5444 13.1421 70.2065 13.0776C70.2974 13.0659 70.3955 13.0542 70.501 13.0425C70.6064 13.0308 70.7251 13.019 70.8569 13.0073C70.9888 12.9956 71.0928 12.9854 71.1689 12.9766V12.7217C71.1689 12.4287 71.1016 12.2163 70.9668 12.0845C70.832 11.9497 70.627 11.8823 70.3516 11.8823C69.959 11.8823 69.4741 11.9922 68.897 12.2119C68.894 12.2031 68.8457 12.0698 68.752 11.812C68.6582 11.5542 68.6099 11.4224 68.6069 11.4165C69.1753 11.1733 69.7905 11.0518 70.4526 11.0518C71.103 11.0518 71.5762 11.1938 71.8721 11.478C72.168 11.7593 72.3159 12.2163 72.3159 12.8491V16H71.4634C71.4604 15.9883 71.4282 15.8901 71.3667 15.7056C71.3052 15.521 71.2744 15.4229 71.2744 15.4111C71.0342 15.6455 70.7983 15.8184 70.5669 15.9297C70.3384 16.0381 70.0601 16.0923 69.7319 16.0923ZM70.0439 15.2749C70.3105 15.2749 70.542 15.2119 70.7383 15.0859C70.9375 14.957 71.0796 14.8018 71.1646 14.6201V13.6885C71.1558 13.6885 71.0781 13.6943 70.9316 13.7061C70.7881 13.7178 70.7104 13.7236 70.6987 13.7236C70.2329 13.7646 69.8916 13.8525 69.6748 13.9873C69.458 14.1221 69.3496 14.3389 69.3496 14.6377C69.3496 14.8428 69.4097 15.001 69.5298 15.1123C69.6499 15.2207 69.8213 15.2749 70.0439 15.2749ZM73.4761 16V11.1704H74.4033L74.5308 11.7812C75.0229 11.2949 75.5693 11.0518 76.1699 11.0518C76.7324 11.0518 77.1528 11.2144 77.4312 11.5396C77.7124 11.8618 77.853 12.3306 77.853 12.9458V16H76.6973V13.0864C76.6943 12.6968 76.6313 12.4053 76.5083 12.2119C76.3853 12.0186 76.1641 11.9219 75.8447 11.9219C75.5957 11.9219 75.3672 11.9863 75.1592 12.1152C74.9541 12.2412 74.8047 12.4009 74.7109 12.5942C74.6553 12.8228 74.6274 13.1743 74.6274 13.6489V16H73.4761Z" fill="white"/>
</svg>
