<svg width="73" height="73" viewBox="0 0 73 73" fill="none" xmlns="http://www.w3.org/2000/svg">
<circle opacity="0.12" cx="36.5" cy="36.5" r="36.5" fill="#6DD9A6"/>
<g clip-path="url(#clip0_625_260)">
<path d="M46.9728 20.9811C46.2223 20.5821 45.3715 20.6431 44.702 21.0573L20.3255 36.3348C19.9876 36.546 19.7114 36.8424 19.5246 37.1943C19.3378 37.5462 19.247 37.9411 19.2615 38.3393C19.2759 38.7374 19.395 39.1247 19.6069 39.4622C19.8187 39.7996 20.1157 40.0752 20.468 40.2613L22.9696 41.5915L41.633 29.7262L42.683 29.049L43.3083 52.4058L45.81 53.7359C46.1613 53.9239 46.5559 54.016 46.9541 54.0029C47.3523 53.9899 47.74 53.872 48.0782 53.6614C48.4163 53.4507 48.693 53.1546 48.8802 52.803C49.0675 52.4513 49.1588 52.0566 49.1449 51.6584L48.1794 22.9063C48.1654 22.5076 48.0465 22.1196 47.8347 21.7816C47.6228 21.4436 47.3255 21.1674 46.9728 20.9811V20.9811ZM42.0046 30.3249L20.0181 44.3061L20.341 45.3282L33.139 46.9986L41.6804 56.6745L42.7084 56.3707L42.0046 30.3249Z" fill="#5CC99C"/>
</g>
<defs>
<clipPath id="clip0_625_260">
<rect width="34" height="34" fill="white" transform="translate(31.9629 13) rotate(28)"/>
</clipPath>
</defs>
</svg>
