<svg width="73" height="73" viewBox="0 0 73 73" fill="none" xmlns="http://www.w3.org/2000/svg">
<circle opacity="0.12" cx="36.5" cy="36.5" r="36.5" fill="#E8D65F" fill-opacity="0.5"/>
<path d="M46.2 49.175C46.2 51.1995 44.6272 52.8566 42.6369 52.9912L42.375 53H29.625C27.6005 53 25.9434 51.4272 25.8088 49.4369L25.8 49.175V22.825C25.8 20.8005 27.3728 19.1434 29.3631 19.0088L29.625 19H42.375C44.3995 19 46.0566 20.5728 46.1912 22.5631L46.2 22.825V49.175ZM47.9 24.1H49.175C51.1995 24.1 52.8566 25.6728 52.9912 27.6631L53 27.925V44.075C53 46.0995 51.4272 47.7566 49.4369 47.8912L49.175 47.9H47.9V24.1ZM24.1 47.9H22.825C20.8005 47.9 19.1434 46.3272 19.0088 44.3369L19 44.075V27.925C19 25.9005 20.5728 24.2434 22.5631 24.1088L22.825 24.1H24.1V47.9Z" fill="#E9D968"/>
</svg>
