<svg width="337" height="600" viewBox="0 0 337 600" fill="none" xmlns="http://www.w3.org/2000/svg">
<g opacity="0.74" clip-path="url(#clip0_1140_2)">
<path style="mix-blend-mode:color-dodge" opacity="0.55" d="M359.952 599.01C439.93 599.01 504.765 534.208 504.765 454.272C504.765 374.336 439.93 309.534 359.952 309.534C279.974 309.534 215.14 374.336 215.14 454.272C215.14 534.208 279.974 599.01 359.952 599.01Z" stroke="url(#paint0_linear_1140_2)" stroke-width="1.3" stroke-miterlimit="10"/>
<path style="mix-blend-mode:color-dodge" opacity="0.55" d="M454.545 548.813C506.789 496.596 506.789 411.935 454.545 359.718C402.3 307.501 317.596 307.501 265.352 359.718C213.107 411.935 213.107 496.596 265.351 548.813C317.596 601.031 402.3 601.031 454.545 548.813Z" stroke="url(#paint1_linear_1140_2)" stroke-width="1.2" stroke-miterlimit="10"/>
<path style="mix-blend-mode:color-dodge" opacity="0.55" d="M459.585 248.11C516.138 191.586 516.138 99.9436 459.585 43.42C403.033 -13.1036 311.342 -13.1036 254.79 43.42C198.237 99.9436 198.237 191.586 254.79 248.11C311.342 304.633 403.033 304.633 459.585 248.11Z" stroke="url(#paint2_linear_1140_2)" stroke-width="1.3" stroke-miterlimit="10"/>
<path style="mix-blend-mode:color-dodge" opacity="0.55" d="M450.243 238.772C501.637 187.406 501.637 104.124 450.243 52.7575C398.85 1.39073 315.525 1.39073 264.132 52.7575C212.739 104.124 212.739 187.406 264.132 238.772C315.525 290.139 398.85 290.139 450.243 238.772Z" stroke="url(#paint3_linear_1140_2)" stroke-width="1.18" stroke-miterlimit="10"/>
<path style="mix-blend-mode:color-dodge" opacity="0.55" d="M307.937 532.205C345.208 494.953 345.208 434.555 307.937 397.303C270.666 360.051 210.237 360.051 172.965 397.303C135.694 434.555 135.694 494.953 172.965 532.205C210.237 569.457 270.666 569.457 307.937 532.205Z" stroke="url(#paint4_linear_1140_2)" stroke-width="0.86" stroke-miterlimit="10"/>
<path style="mix-blend-mode:color-dodge" opacity="0.55" d="M244.899 205.742C282.17 168.49 282.17 108.092 244.899 70.8395C207.628 33.5874 147.199 33.5873 109.927 70.8395C72.6559 108.092 72.6559 168.49 109.927 205.742C147.199 242.993 207.628 242.993 244.899 205.742Z" stroke="url(#paint5_linear_1140_2)" stroke-width="0.86" stroke-miterlimit="10"/>
<path style="mix-blend-mode:color-dodge" d="M271.216 120.627C267.757 102.243 259.208 86.1138 247.337 73.3809C223.763 109.204 218.125 155.794 236.442 198.075C238.042 201.776 239.825 205.34 241.714 208.813C265.334 187.261 277.571 154.363 271.216 120.642V120.627Z" fill="url(#paint6_linear_1140_2)"/>
<path style="mix-blend-mode:color-dodge" opacity="0.55" d="M218.934 301.572C234.049 242.306 198.232 182.014 138.935 166.907C79.6381 151.8 19.3155 187.599 4.20087 246.865C-10.9138 306.132 24.9032 366.423 84.2003 381.53C143.497 396.637 203.82 360.838 218.934 301.572Z" stroke="url(#paint7_linear_1140_2)" stroke-width="0.99" stroke-miterlimit="10"/>
<path style="mix-blend-mode:color-dodge" opacity="0.55" d="M119.543 371.962C173.538 367.554 213.733 320.232 209.322 266.265C204.912 212.299 157.565 172.124 103.571 176.533C49.5767 180.941 9.38118 228.263 13.7919 282.229C18.2026 336.196 65.5491 376.371 119.543 371.962Z" stroke="url(#paint8_linear_1140_2)" stroke-width="0.88" stroke-miterlimit="10"/>
<path style="mix-blend-mode:color-dodge" opacity="0.55" d="M119.236 319.315C134.751 296.282 128.646 265.039 105.601 249.532C82.5551 234.025 51.2957 240.126 35.7807 263.159C20.2656 286.193 26.3702 317.436 49.4155 332.943C72.4609 348.45 103.721 342.349 119.236 319.315Z" stroke="url(#paint9_linear_1140_2)" stroke-width="0.45" stroke-miterlimit="10"/>
<path style="mix-blend-mode:color-dodge" opacity="0.55" d="M354.103 235.492C386.824 223.698 403.784 187.626 391.984 154.922C380.185 122.218 344.094 105.266 311.373 117.06C278.652 128.854 261.691 164.926 273.491 197.63C285.291 230.334 321.382 247.286 354.103 235.492Z" stroke="url(#paint10_linear_1140_2)" stroke-width="0.57" stroke-miterlimit="10"/>
<path style="mix-blend-mode:color-dodge" opacity="0.69" d="M234.415 382.062C214.239 386.115 196.44 399.943 188.242 420.474C175.38 452.718 191.061 489.257 223.275 502.188C209.408 462.633 213.386 418.571 234.415 382.062Z" fill="url(#paint11_linear_1140_2)"/>
<path style="mix-blend-mode:color-dodge" d="M195.1 232.041C196.639 231.751 198.148 231.416 199.656 231.066C181.949 194.984 142.984 172.092 100.727 176.799C97.3596 177.179 94.0529 177.713 90.8223 178.413C108.743 217.145 151.243 240.311 195.115 232.056L195.1 232.041Z" fill="url(#paint12_linear_1140_2)"/>
</g>
<defs>
<linearGradient id="paint0_linear_1140_2" x1="264.132" y1="344.74" x2="456.1" y2="564.127" gradientUnits="userSpaceOnUse">
<stop stop-color="white"/>
<stop offset="1" stop-color="white" stop-opacity="0"/>
</linearGradient>
<linearGradient id="paint1_linear_1140_2" x1="271.447" y1="353.071" x2="448.768" y2="555.749" gradientUnits="userSpaceOnUse">
<stop stop-color="white"/>
<stop offset="1" stop-color="#EBEBEB" stop-opacity="0"/>
</linearGradient>
<linearGradient id="paint2_linear_1140_2" x1="223.904" y1="203.617" x2="491.42" y2="87.6365" gradientUnits="userSpaceOnUse">
<stop stop-color="white"/>
<stop offset="1" stop-color="white" stop-opacity="0"/>
</linearGradient>
<linearGradient id="paint3_linear_1140_2" x1="236.103" y1="198.328" x2="479.222" y2="92.9212" gradientUnits="userSpaceOnUse">
<stop stop-color="white"/>
<stop offset="1" stop-color="white" stop-opacity="0"/>
</linearGradient>
<linearGradient id="paint4_linear_1140_2" x1="243.132" y1="368.77" x2="237.755" y2="560.801" gradientUnits="userSpaceOnUse">
<stop stop-color="white"/>
<stop offset="1" stop-color="white" stop-opacity="0"/>
</linearGradient>
<linearGradient id="paint5_linear_1140_2" x1="271.729" y1="121.058" x2="82.8577" y2="156.695" gradientUnits="userSpaceOnUse">
<stop stop-color="white"/>
<stop offset="1" stop-color="white" stop-opacity="0"/>
</linearGradient>
<linearGradient id="paint6_linear_1140_2" x1="253.756" y1="128.514" x2="169.5" y2="316.5" gradientUnits="userSpaceOnUse">
<stop stop-color="white"/>
<stop offset="1" stop-color="white" stop-opacity="0"/>
</linearGradient>
<linearGradient id="paint7_linear_1140_2" x1="222.179" y1="261.815" x2="0.441388" y2="286.502" gradientUnits="userSpaceOnUse">
<stop stop-color="white"/>
<stop offset="1" stop-color="white" stop-opacity="0"/>
</linearGradient>
<linearGradient id="paint8_linear_1140_2" x1="209.517" y1="263.871" x2="13.1951" y2="285.733" gradientUnits="userSpaceOnUse">
<stop stop-color="white"/>
<stop offset="1" stop-color="white" stop-opacity="0"/>
</linearGradient>
<linearGradient id="paint9_linear_1140_2" x1="127.566" y1="285.144" x2="26.8791" y2="296.323" gradientUnits="userSpaceOnUse">
<stop stop-color="white"/>
<stop offset="1" stop-color="white" stop-opacity="0"/>
</linearGradient>
<linearGradient id="paint10_linear_1140_2" x1="330.503" y1="239.865" x2="334.919" y2="113.185" gradientUnits="userSpaceOnUse">
<stop stop-color="white"/>
<stop offset="1" stop-color="white" stop-opacity="0"/>
</linearGradient>
<linearGradient id="paint11_linear_1140_2" x1="210.727" y1="452.192" x2="623.5" y2="153.5" gradientUnits="userSpaceOnUse">
<stop stop-color="white"/>
<stop offset="1" stop-color="white" stop-opacity="0"/>
</linearGradient>
<linearGradient id="paint12_linear_1140_2" x1="91.5811" y1="177.058" x2="398" y2="344" gradientUnits="userSpaceOnUse">
<stop stop-color="white"/>
<stop offset="1" stop-color="white" stop-opacity="0"/>
</linearGradient>
<clipPath id="clip0_1140_2">
<rect width="337" height="600" fill="white"/>
</clipPath>
</defs>
</svg>
