<svg width="50" height="50" viewBox="0 0 50 50" fill="none" xmlns="http://www.w3.org/2000/svg">
<rect width="50" height="50" rx="5" fill="#AF38D6" fill-opacity="0.06"/>
<path d="M20.4153 14.5844C20.7962 14.7366 21.0468 15.1055 21.0468 15.5162V22.977C21.0468 23.2433 20.941 23.4988 20.7526 23.6871C20.5643 23.8755 20.3088 23.9813 20.0425 23.9813C19.7761 23.9813 19.5206 23.8755 19.3323 23.6871C19.1439 23.4988 19.0381 23.2433 19.0381 22.977V18.1582C19.038 18.1479 19.0348 18.1379 19.029 18.1294C19.0232 18.1209 19.015 18.1143 19.0055 18.1104C18.996 18.1065 18.9855 18.1055 18.9754 18.1074C18.9653 18.1094 18.956 18.1143 18.9486 18.1214C18.8587 18.2207 18.7498 18.3009 18.6284 18.3574C18.507 18.4139 18.3755 18.4456 18.2416 18.4505C18.1078 18.4555 17.9743 18.4336 17.8491 18.3862C17.7238 18.3388 17.6093 18.2668 17.5123 18.1745C17.4153 18.0822 17.3377 17.9714 17.2841 17.8486C17.2305 17.7259 17.2021 17.5937 17.2003 17.4598C17.1986 17.3258 17.2237 17.1929 17.2741 17.0689C17.3245 16.9448 17.3992 16.832 17.4939 16.7373L19.3156 14.8241C19.454 14.6789 19.6327 14.5784 19.8287 14.5357C20.0247 14.493 20.2291 14.51 20.4153 14.5844ZM29.7127 16.5215C29.5348 16.5304 29.2543 16.6179 28.9381 16.9938C28.8536 17.096 28.7498 17.1805 28.6325 17.2423C28.5152 17.3041 28.3868 17.3421 28.2547 17.3541C28.1227 17.3661 27.9896 17.3518 27.8631 17.312C27.7366 17.2723 27.6192 17.2079 27.5177 17.1226C27.4162 17.0372 27.3327 16.9326 27.2718 16.8148C27.2109 16.697 27.174 16.5683 27.1631 16.4362C27.1523 16.3041 27.1677 16.1711 27.2085 16.0449C27.2493 15.9187 27.3146 15.8019 27.4008 15.7011C28.0193 14.9653 28.7949 14.5566 29.6123 14.5158C29.9931 14.4985 30.3733 14.5613 30.7284 14.7C31.0834 14.8387 31.4055 15.0504 31.6737 15.3213C32.7675 16.4121 32.9027 18.2736 31.5006 19.7791C31.0929 20.2166 30.5987 20.7337 30.0986 21.2557V21.2567L29.6143 21.7618C29.5973 21.7794 29.5858 21.8016 29.5814 21.8256C29.5769 21.8496 29.5796 21.8744 29.5891 21.8969C29.5987 21.9194 29.6147 21.9386 29.6351 21.9521C29.6554 21.9655 29.6794 21.9727 29.7038 21.9727H31.7671C32.0335 21.9727 32.2889 22.0785 32.4773 22.2668C32.6656 22.4552 32.7714 22.7106 32.7714 22.977C32.7714 23.2433 32.6656 23.4988 32.4773 23.6871C32.2889 23.8755 32.0335 23.9813 31.7671 23.9813H27.7399C26.66 23.9813 26.0137 22.6926 26.7863 21.8414C27.2755 21.3024 28.0004 20.5437 28.6925 19.8198C29.1897 19.2998 29.669 18.7986 30.0309 18.4098C30.4138 17.9991 30.5132 17.6392 30.5142 17.3866C30.516 17.2676 30.494 17.1494 30.4496 17.0389C30.4052 16.9285 30.3393 16.8279 30.2557 16.7432C30.1858 16.6702 30.1014 16.6127 30.0079 16.5745C29.9143 16.5363 29.8137 16.5182 29.7127 16.5215ZM18.9626 28.3705C19.0246 28.2409 19.1169 28.1283 19.2317 28.042C19.3466 27.9558 19.4805 27.8985 19.6222 27.8751C19.7639 27.8517 19.9091 27.8627 20.0456 27.9074C20.1821 27.952 20.3058 28.0289 20.4062 28.1316C20.5066 28.2342 20.5808 28.3596 20.6225 28.497C20.6642 28.6344 20.6721 28.7799 20.6455 28.921C20.619 29.0621 20.5588 29.1948 20.4701 29.3077C20.3814 29.4206 20.2668 29.5105 20.1359 29.5697C20.1242 29.5749 20.1118 29.5782 20.0991 29.5796C19.8589 29.6049 19.6357 29.7159 19.4707 29.8924C19.3056 30.0688 19.2097 30.2988 19.2006 30.5403C19.1914 30.7817 19.2695 31.0183 19.4207 31.2068C19.5719 31.3953 19.7859 31.5229 20.0236 31.5664C20.1713 31.6103 20.3052 31.6917 20.4122 31.8027C20.5192 31.9136 20.5957 32.0504 20.6343 32.1996C20.6729 32.3489 20.6722 32.5055 20.6323 32.6544C20.5924 32.8033 20.5147 32.9394 20.4068 33.0494C20.2988 33.1594 20.1642 33.2397 20.0161 33.2823C19.8679 33.3249 19.7113 33.3286 19.5613 33.2928C19.4114 33.257 19.2733 33.1831 19.1603 33.0782C19.0474 32.9733 18.9635 32.8409 18.9168 32.694C18.8776 32.5674 18.8138 32.4498 18.7289 32.348C18.644 32.2462 18.5399 32.1622 18.4224 32.1009C18.3049 32.0395 18.1765 32.002 18.0445 31.9905C17.9124 31.9791 17.7795 31.9938 17.6532 32.034C17.5269 32.0741 17.4098 32.1389 17.3086 32.2245C17.2074 32.3101 17.1242 32.4149 17.0638 32.5328C17.0033 32.6507 16.9668 32.7795 16.9563 32.9116C16.9458 33.0437 16.9615 33.1766 17.0026 33.3026C17.1309 33.7054 17.3455 34.0753 17.6316 34.3865C17.9178 34.6976 18.2684 34.9425 18.6591 35.104C19.0497 35.2655 19.4709 35.3397 19.8932 35.3214C20.3156 35.3031 20.7288 35.1927 21.104 34.998C21.4792 34.8033 21.8073 34.529 22.0654 34.1942C22.3236 33.8595 22.5054 33.4723 22.5983 33.06C22.6911 32.6476 22.6928 32.2199 22.6031 31.8068C22.5134 31.3937 22.3345 31.0052 22.0789 30.6685C22.0615 30.6456 22.0521 30.6177 22.0521 30.5889C22.0521 30.5602 22.0615 30.5322 22.0789 30.5094C22.3248 30.1864 22.5002 29.8154 22.5937 29.4204C22.6873 29.0254 22.6969 28.6152 22.622 28.2163C22.5471 27.8173 22.3893 27.4385 22.1588 27.1044C21.9283 26.7702 21.6303 26.4882 21.284 26.2764C20.9378 26.0646 20.5509 25.9279 20.1484 25.875C19.746 25.822 19.3369 25.8542 18.9476 25.9692C18.5584 26.0843 18.1976 26.2798 17.8886 26.543C17.5796 26.8062 17.3293 27.1314 17.1538 27.4974C17.0965 27.6162 17.0632 27.7452 17.0558 27.8769C17.0484 28.0086 17.067 28.1404 17.1105 28.265C17.1984 28.5164 17.3827 28.7227 17.6226 28.8383C17.8626 28.954 18.1387 28.9695 18.3902 28.8816C18.5147 28.8381 18.6294 28.7704 18.7278 28.6826C18.8262 28.5947 18.9063 28.4883 18.9636 28.3695L18.9626 28.3705ZM29.3727 27.1563C29.4373 26.8979 29.3966 26.6243 29.2595 26.3959C29.1225 26.1675 28.9003 26.0028 28.6418 25.9382C28.3834 25.8736 28.1098 25.9143 27.8814 26.0514C27.6529 26.1884 27.4883 26.4106 27.4237 26.6691L26.3716 30.8902C26.3346 31.0383 26.3318 31.1929 26.3635 31.3422C26.3952 31.4915 26.4605 31.6316 26.5544 31.7519C26.6483 31.8723 26.7685 31.9696 26.9057 32.0365C27.0429 32.1034 27.1935 32.1382 27.3461 32.1381H29.5974C29.666 32.1381 29.7217 32.1938 29.7217 32.2624V34.3039C29.7217 34.5703 29.8275 34.8257 30.0159 35.0141C30.2042 35.2024 30.4597 35.3082 30.726 35.3082C30.9924 35.3082 31.2478 35.2024 31.4362 35.0141C31.6245 34.8257 31.7303 34.5703 31.7303 34.3039V32.2187C31.7303 32.159 31.7721 32.1093 31.8288 32.0924C32.033 32.0286 32.2116 31.9011 32.3383 31.7287C32.4651 31.5563 32.5335 31.3478 32.5335 31.1338C32.5335 30.9198 32.4651 30.7114 32.3383 30.539C32.2116 30.3665 32.033 30.2391 31.8288 30.1753C31.8007 30.1676 31.7759 30.151 31.758 30.1281C31.7401 30.1052 31.73 30.0771 31.7293 30.048V29.4951C31.7211 29.2343 31.6118 28.987 31.4244 28.8055C31.2371 28.6239 30.9864 28.5224 30.7255 28.5224C30.4646 28.5224 30.214 28.6239 30.0266 28.8055C29.8393 28.987 29.7299 29.2343 29.7217 29.4951V30.0052C29.7217 30.0382 29.7086 30.0698 29.6853 30.0931C29.662 30.1164 29.6304 30.1295 29.5974 30.1295H28.791C28.7721 30.1295 28.7536 30.1251 28.7366 30.1168C28.7197 30.1086 28.7049 30.0965 28.6933 30.0817C28.6817 30.0669 28.6737 30.0496 28.6697 30.0312C28.6658 30.0127 28.6661 29.9937 28.6706 29.9754L29.3727 27.1563Z" fill="#AF38D6"/>
<path d="M14.968 9.99414C14.3151 9.99414 13.6685 10.1227 13.0653 10.3726C12.4621 10.6225 11.914 10.9887 11.4523 11.4504C10.5199 12.3828 9.99609 13.6474 9.99609 14.966V34.8535C9.99609 36.1721 10.5199 37.4368 11.4523 38.3692C11.914 38.8308 12.4621 39.1971 13.0653 39.4469C13.6685 39.6968 14.3151 39.8254 14.968 39.8254H34.8555C36.1741 39.8254 37.4387 39.3016 38.3711 38.3692C39.3035 37.4368 39.8273 36.1721 39.8273 34.8535V14.966C39.8273 14.3131 39.6987 13.6666 39.4489 13.0634C39.199 12.4601 38.8328 11.9121 38.3711 11.4504C37.9094 10.9887 37.3613 10.6225 36.7581 10.3726C36.1549 10.1227 35.5084 9.99414 34.8555 9.99414H14.968ZM11.9848 14.966C11.9848 14.1748 12.2991 13.4161 12.8586 12.8566C13.418 12.2972 14.1768 11.9829 14.968 11.9829H34.8555C35.6466 11.9829 36.4054 12.2972 36.9649 12.8566C37.5243 13.4161 37.8386 14.1748 37.8386 14.966V34.8535C37.8386 35.6447 37.5243 36.4035 36.9649 36.9629C36.4054 37.5223 35.6466 37.8366 34.8555 37.8366H14.968C14.1768 37.8366 13.418 37.5223 12.8586 36.9629C12.2991 36.4035 11.9848 35.6447 11.9848 34.8535V14.966Z" fill="#AF38D6"/>
</svg>
