<svg width="50" height="50" viewBox="0 0 50 50" fill="none" xmlns="http://www.w3.org/2000/svg">
<rect width="50" height="50" rx="5" fill="#AF38D6" fill-opacity="0.06"/>
<path d="M32.8655 13.2266H16.9555C15.9675 13.2298 15.021 13.6238 14.3224 14.3224C13.6238 15.021 13.2298 15.9675 13.2266 16.9555V32.8655C13.2298 33.8534 13.6238 34.8 14.3224 35.4986C15.021 36.1972 15.9675 36.5911 16.9555 36.5944H32.8655C33.8534 36.5911 34.8 36.1972 35.4986 35.4986C36.1972 34.8 36.5911 33.8534 36.5944 32.8655V16.9555C36.5911 15.9675 36.1972 15.021 35.4986 14.3224C34.8 13.6238 33.8534 13.2298 32.8655 13.2266ZM35.1028 32.8655C35.0996 33.4578 34.8628 34.025 34.4439 34.4439C34.025 34.8628 33.4578 35.0996 32.8655 35.1028H16.9555C16.3631 35.0996 15.7959 34.8628 15.377 34.4439C14.9582 34.025 14.7214 33.4578 14.7181 32.8655V16.9555C14.7214 16.3631 14.9582 15.7959 15.377 15.377C15.7959 14.9582 16.3631 14.7214 16.9555 14.7181H32.8655C33.4578 14.7214 34.025 14.9582 34.4439 15.377C34.8628 15.7959 35.0996 16.3631 35.1028 16.9555V32.8655ZM22.6731 21.4302C22.6731 21.676 22.6002 21.9163 22.4636 22.1207C22.3271 22.3251 22.1329 22.4844 21.9058 22.5785C21.6787 22.6726 21.4288 22.6972 21.1877 22.6492C20.9466 22.6013 20.7251 22.4829 20.5512 22.3091C20.3774 22.1352 20.259 21.9138 20.2111 21.6726C20.1631 21.4315 20.1877 21.1816 20.2818 20.9545C20.3759 20.7274 20.5352 20.5332 20.7396 20.3967C20.944 20.2601 21.1843 20.1872 21.4302 20.1872C21.7598 20.1872 22.076 20.3181 22.3091 20.5512C22.5422 20.7843 22.6731 21.1005 22.6731 21.4302ZM29.6338 21.4302C29.6338 21.676 29.5609 21.9163 29.4243 22.1207C29.2877 22.3251 29.0936 22.4844 28.8664 22.5785C28.6393 22.6726 28.3894 22.6972 28.1483 22.6492C27.9072 22.6013 27.6857 22.4829 27.5119 22.3091C27.338 22.1352 27.2197 21.9138 27.1717 21.6726C27.1237 21.4315 27.1484 21.1816 27.2424 20.9545C27.3365 20.7274 27.4958 20.5332 27.7002 20.3967C27.9046 20.2601 28.1449 20.1872 28.3908 20.1872C28.7204 20.1872 29.0366 20.3181 29.2697 20.5512C29.5028 20.7843 29.6338 21.1005 29.6338 21.4302ZM22.6731 28.3908C22.6731 28.6366 22.6002 28.8769 22.4636 29.0813C22.3271 29.2857 22.1329 29.4451 21.9058 29.5391C21.6787 29.6332 21.4288 29.6578 21.1877 29.6099C20.9466 29.5619 20.7251 29.4435 20.5512 29.2697C20.3774 29.0959 20.259 28.8744 20.2111 28.6333C20.1631 28.3922 20.1877 28.1422 20.2818 27.9151C20.3759 27.688 20.5352 27.4939 20.7396 27.3573C20.944 27.2207 21.1843 27.1478 21.4302 27.1478C21.7598 27.1478 22.076 27.2788 22.3091 27.5119C22.5422 27.745 22.6731 28.0611 22.6731 28.3908ZM29.6338 28.3908C29.6338 28.6366 29.5609 28.8769 29.4243 29.0813C29.2877 29.2857 29.0936 29.4451 28.8664 29.5391C28.6393 29.6332 28.3894 29.6578 28.1483 29.6099C27.9072 29.5619 27.6857 29.4435 27.5119 29.2697C27.338 29.0959 27.2197 28.8744 27.1717 28.6333C27.1237 28.3922 27.1484 28.1422 27.2424 27.9151C27.3365 27.688 27.4958 27.4939 27.7002 27.3573C27.9046 27.2207 28.1449 27.1478 28.3908 27.1478C28.7204 27.1478 29.0366 27.2788 29.2697 27.5119C29.5028 27.745 29.6338 28.0611 29.6338 28.3908Z" fill="#AF38D6"/>
</svg>
