<svg width="50" height="50" viewBox="0 0 50 50" fill="none" xmlns="http://www.w3.org/2000/svg">
<rect width="47.2876" height="47.2876" rx="8" fill="#DFDFDF"/>
<mask id="mask0_4526_15" style="mask-type:alpha" maskUnits="userSpaceOnUse" x="5" y="5" width="45" height="45">
<rect x="5.38867" y="5.35352" width="44.6109" height="44.6109" fill="#DFDFDF"/>
</mask>
<g mask="url(#mask0_4526_15)">
<rect x="5.38867" y="5.35352" width="44.6109" height="44.6109" rx="12" fill="#F35E5D"/>
<path d="M39.3239 5.35352C39.399 5.35888 39.4768 5.36619 39.5568 5.37554C47.5765 6.19501 49.8834 12.8198 50.031 16.0601V40.1501C49.3172 46.9309 43.1906 49.5183 40.2166 49.9645H16.1262C6.8471 48.8938 5.12215 41.191 5.41955 37.4734C7.91777 19.629 23.1152 16.9524 30.4017 17.8446C41.4652 20.3428 44.8259 15.3166 45.1233 12.4913C45.4673 7.33119 41.6941 5.62515 39.5568 5.37554C39.4797 5.36766 39.402 5.36031 39.3239 5.35352Z" fill="#DC3534"/>
<path d="M36.6324 28.1049C47.339 28.4618 50.0157 21.1158 50.0157 17.3983L50.0165 16.9521V39.7037C49.3027 48.269 41.9865 50.4104 38.4176 50.4104C30.923 50.0535 28.1566 43.7187 27.7102 40.5959C27.3533 32.0306 33.5096 28.6997 36.6324 28.1049Z" fill="#BE1919"/>
</g>
<path d="M19.8351 17.8447H35.8902C38.9404 17.8447 41.4148 20.3191 41.4148 23.3693V31.8196C41.4148 34.8698 38.9404 37.3442 35.8902 37.3442H19.8351C16.7849 37.3442 14.3105 34.8698 14.3105 31.8196V23.3693C14.3105 20.3191 16.7849 17.8447 19.8351 17.8447Z" fill="white"/>
<path d="M24.125 24.0898L31.4185 28.0323L24.125 31.9799V24.0898Z" fill="url(#paint0_linear_4526_15)"/>
<defs>
<linearGradient id="paint0_linear_4526_15" x1="24.125" y1="28.0323" x2="31.4185" y2="28.0323" gradientUnits="userSpaceOnUse">
<stop stop-color="#DC3534"/>
<stop offset="1" stop-color="#740100"/>
</linearGradient>
</defs>
</svg>
