<svg width="40" height="40" viewBox="0 0 40 40" fill="none" xmlns="http://www.w3.org/2000/svg">
<g clip-path="url(#clip0_257_316)">
<path d="M20.0007 40.0013C31.0467 40.0013 40.0013 31.0467 40.0013 20.0007C40.0013 8.9546 31.0467 0 20.0007 0C8.9546 0 0 8.9546 0 20.0007C0 31.0467 8.9546 40.0013 20.0007 40.0013Z" fill="white"/>
<path d="M29.2345 14.0954C27.0035 12.8078 24.1512 13.573 22.8609 15.8039L19.6115 21.4334C18.6708 23.0588 19.8819 23.6274 21.2316 24.4361L24.3583 26.2409C25.4177 26.8518 26.77 26.489 27.3808 25.4322L30.7213 19.6471C31.8441 17.7024 31.1778 15.2181 29.2331 14.0954H29.2345Z" fill="#EA4335"/>
<path d="M25.5563 16.4256L22.4295 14.6208C20.7025 13.6629 19.7249 13.5996 19.0165 14.725L14.4042 22.7134C13.1165 24.943 13.883 27.794 16.1127 29.079C18.0573 30.2017 20.5416 29.5355 21.6643 27.5908L26.365 19.4481C26.9785 18.3887 26.6157 17.0351 25.5563 16.4242V16.4256Z" fill="#FBBC04"/>
<path d="M26.1579 12.3198L23.9612 11.0506C21.5311 9.64821 18.4254 10.4794 17.023 12.9095L12.8408 20.1525C12.2234 21.2212 12.5901 22.5893 13.6588 23.2054L16.1193 24.6263C17.3343 25.3281 18.8872 24.9112 19.589 23.6975L24.3662 15.4228C25.3557 13.709 27.5471 13.1219 29.2609 14.1114L26.1579 12.3198V12.3198Z" fill="#34A853"/>
<path d="M17.618 14.9821L15.2432 13.614C14.1838 13.0045 12.8316 13.366 12.2207 14.4214L9.37233 19.3438C7.96991 21.766 8.80108 24.8664 11.2312 26.2648L13.0387 27.3058L15.2314 28.5683L16.1826 29.1159C14.4939 27.9852 13.9569 25.72 14.9899 23.9349L15.7274 22.6605L18.428 17.9928C19.0376 16.9387 18.6748 15.589 17.6167 14.9795L17.618 14.9821Z" fill="#4285F4"/>
<path style="mix-blend-mode:lighten" d="M31.5815 5.45148C29.5643 1.51203 20.9941 -1.86143 12.821 1.32865C4.64923 4.51873 0.0857525 12.1324 1.98819 17.0059C3.89063 21.8795 12.0584 23.2449 20.2302 20.0535C28.402 16.8635 33.9668 10.1086 31.5815 5.45148V5.45148Z" fill="url(#paint0_radial_257_316)" fill-opacity="0.4"/>
<path style="mix-blend-mode:multiply" d="M37.9894 11.2523C38.397 12.7497 38.6174 14.3157 38.6174 15.9292C38.6174 26.5483 29.2345 35.1581 17.6589 35.1581C11.4173 35.1581 5.81681 32.6514 1.97763 28.6803C5.20993 35.3784 12.065 39.9999 20.0007 39.9999C31.0459 39.9999 40.0013 31.0458 40.0013 19.9993C40.0013 16.862 39.277 13.8949 37.9894 11.251V11.2523Z" fill="url(#paint1_radial_257_316)"/>
</g>
<defs>
<radialGradient id="paint0_radial_257_316" cx="0" cy="0" r="1" gradientUnits="userSpaceOnUse" gradientTransform="translate(26.7726 22.445) rotate(-4.28) scale(28.1659 23.3959)">
<stop stop-color="white"/>
<stop offset="0.07" stop-color="white" stop-opacity="0.82"/>
<stop offset="0.17" stop-color="white" stop-opacity="0.63"/>
<stop offset="0.26" stop-color="white" stop-opacity="0.46"/>
<stop offset="0.36" stop-color="white" stop-opacity="0.32"/>
<stop offset="0.47" stop-color="white" stop-opacity="0.2"/>
<stop offset="0.58" stop-color="white" stop-opacity="0.11"/>
<stop offset="0.69" stop-color="white" stop-opacity="0.05"/>
<stop offset="0.83" stop-color="white" stop-opacity="0.01"/>
<stop offset="1" stop-color="white" stop-opacity="0"/>
</radialGradient>
<radialGradient id="paint1_radial_257_316" cx="0" cy="0" r="1" gradientUnits="userSpaceOnUse" gradientTransform="translate(22.3599 27.8078) rotate(-22.49) scale(28.0656 17.4007)">
<stop stop-color="#F4F4F4"/>
<stop offset="0.99" stop-color="white" stop-opacity="0"/>
</radialGradient>
<clipPath id="clip0_257_316">
<rect width="40" height="40" fill="white"/>
</clipPath>
</defs>
</svg>
