<svg width="40" height="40" viewBox="0 0 40 40" fill="none" xmlns="http://www.w3.org/2000/svg">
<rect x="0.5" y="0.5" width="39" height="39" rx="19.5" stroke="black"/>
<path d="M10.3984 12.2C10.3984 11.4043 10.7145 10.6412 11.2771 10.0786C11.8397 9.51602 12.6028 9.19995 13.3984 9.19995H24.1984C24.9941 9.19995 25.7571 9.51602 26.3198 10.0786C26.8824 10.6412 27.1984 11.4043 27.1984 12.2V15.2H25.9984V12.2C25.9984 11.7226 25.8088 11.2647 25.4712 10.9272C25.1337 10.5896 24.6758 10.4 24.1984 10.4H13.3984C12.921 10.4 12.4632 10.5896 12.1256 10.9272C11.7881 11.2647 11.5984 11.7226 11.5984 12.2V23C11.5984 23.4773 11.7881 23.9352 12.1256 24.2727C12.4632 24.6103 12.921 24.8 13.3984 24.8H17.5984V26H13.3984C12.6028 26 11.8397 25.6839 11.2771 25.1213C10.7145 24.5587 10.3984 23.7956 10.3984 23V12.2ZM14.5984 15.2H21.1984C20.6918 15.1992 20.1908 15.3058 19.7283 15.5126C19.2658 15.7194 18.8524 16.0218 18.5152 16.4H14.5984C14.4393 16.4 14.2867 16.3367 14.1742 16.2242C14.0617 16.1117 13.9984 15.9591 13.9984 15.8C13.9984 15.6408 14.0617 15.4882 14.1742 15.3757C14.2867 15.2632 14.4393 15.2 14.5984 15.2ZM17.8024 17.6H14.5984C14.4393 17.6 14.2867 17.6632 14.1742 17.7757C14.0617 17.8882 13.9984 18.0408 13.9984 18.2C13.9984 18.3591 14.0617 18.5117 14.1742 18.6242C14.2867 18.7367 14.4393 18.8 14.5984 18.8H17.5984C17.5984 18.38 17.6704 17.9756 17.8024 17.6ZM14.5984 12.8C14.4393 12.8 14.2867 12.8632 14.1742 12.9757C14.0617 13.0882 13.9984 13.2408 13.9984 13.4C13.9984 13.5591 14.0617 13.7117 14.1742 13.8242C14.2867 13.9367 14.4393 14 14.5984 14H22.9984C23.1576 14 23.3102 13.9367 23.4227 13.8242C23.5352 13.7117 23.5984 13.5591 23.5984 13.4C23.5984 13.2408 23.5352 13.0882 23.4227 12.9757C23.3102 12.8632 23.1576 12.8 22.9984 12.8H14.5984ZM29.5984 18.8C29.5984 18.1634 29.3456 17.553 28.8955 17.1029C28.4454 16.6528 27.835 16.4 27.1984 16.4H21.1984C20.5619 16.4 19.9515 16.6528 19.5014 17.1029C19.0513 17.553 18.7984 18.1634 18.7984 18.8V28.4C18.7984 29.0365 19.0513 29.6469 19.5014 30.097C19.9515 30.5471 20.5619 30.7999 21.1984 30.7999H28.9984C29.1576 30.7999 29.3102 30.7367 29.4227 30.6242C29.5352 30.5117 29.5984 30.3591 29.5984 30.1999C29.5984 30.0408 29.5352 29.8882 29.4227 29.7757C29.3102 29.6632 29.1576 29.6 28.9984 29.6H21.1984C20.8802 29.6 20.575 29.4735 20.3499 29.2485C20.1249 29.0234 19.9984 28.7182 19.9984 28.4V28.3963H28.9984C29.1576 28.3963 29.3102 28.3331 29.4227 28.2206C29.5352 28.1081 29.5984 27.9555 29.5984 27.7964V18.8ZM19.9984 27.1964V18.8C19.9984 18.4817 20.1249 18.1765 20.3499 17.9514C20.575 17.7264 20.8802 17.6 21.1984 17.6H27.1984C27.5167 17.6 27.8219 17.7264 28.047 17.9514C28.272 18.1765 28.3984 18.4817 28.3984 18.8V27.1964H19.9984Z" fill="black"/>
</svg>
