<svg width="18" height="17" viewBox="0 0 18 17" fill="none" xmlns="http://www.w3.org/2000/svg">
<path d="M6.1921 4.301H7.89017V12.0744C7.89017 12.1755 7.97289 12.2583 8.07399 12.2583H9.45267C9.55377 12.2583 9.63649 12.1755 9.63649 12.0744V4.301H11.3392C11.4931 4.301 11.5781 4.12407 11.4839 4.00458L8.91039 0.746312C8.89319 0.724341 8.87122 0.706572 8.84614 0.694352C8.82106 0.682132 8.79352 0.675781 8.76562 0.675781C8.73773 0.675781 8.71019 0.682132 8.68511 0.694352C8.66003 0.706572 8.63806 0.724341 8.62086 0.746312L6.04733 4.00229C5.95313 4.12407 6.03814 4.301 6.1921 4.301V4.301ZM17.1756 11.3851H15.7969C15.6958 11.3851 15.6131 11.4678 15.6131 11.5689V15.1075H1.9182V11.5689C1.9182 11.4678 1.83548 11.3851 1.73437 11.3851H0.355699C0.254596 11.3851 0.171875 11.4678 0.171875 11.5689V16.1186C0.171875 16.5253 0.50046 16.8538 0.907169 16.8538H16.6241C17.0308 16.8538 17.3594 16.5253 17.3594 16.1186V11.5689C17.3594 11.4678 17.2767 11.3851 17.1756 11.3851Z" fill="#DA49F1"/>
</svg>
